<svg width="327" height="136" viewBox="0 0 327 136" fill="none" xmlns="http://www.w3.org/2000/svg">
<mask id="mask0_1266_18272" style="mask-type:alpha" maskUnits="userSpaceOnUse" x="0" y="0" width="327" height="136">
<rect width="326.923" height="136" fill="white"/>
</mask>
<g mask="url(#mask0_1266_18272)">
<g opacity="0.03">
<path fill-rule="evenodd" clip-rule="evenodd" d="M295.983 52.1267V130.909V52.1267Z" stroke="#1F2857" stroke-width="0.750061" stroke-linecap="round" stroke-linejoin="round"/>
<path d="M39.3218 77.0563V77.0563C36.0677 73.9298 30.9626 73.9298 27.7088 77.0563C24.4547 73.9298 19.3496 73.9298 16.0955 77.0563V77.0563C12.8413 73.9298 7.73654 73.9298 4.48242 77.0563V127.466" stroke="#1F2857" stroke-width="0.750061" stroke-linecap="round" stroke-linejoin="round"/>
<path d="M27.709 77.0564V80.3962" stroke="#1F2857" stroke-width="0.750061" stroke-linecap="round" stroke-linejoin="round"/>
<path d="M39.5825 119.162H140.864" stroke="#1F2857" stroke-width="0.750061" stroke-linecap="round" stroke-linejoin="round"/>
<path d="M139.596 107.416H142.328" stroke="#ECECF2" stroke-width="0.750061" stroke-linecap="round" stroke-linejoin="round"/>
<path d="M137.903 95.6682H154.49" stroke="#ECECF2" stroke-width="0.750061" stroke-linecap="round" stroke-linejoin="round"/>
<path d="M137.903 83.9216H154.49" stroke="#ECECF2" stroke-width="0.750061" stroke-linecap="round" stroke-linejoin="round"/>
<path d="M192.677 83.9216H200.242" stroke="#1F2857" stroke-width="0.750061" stroke-linecap="round" stroke-linejoin="round"/>
<path d="M137.903 72.1746H154.49" stroke="#1F2857" stroke-width="0.750061" stroke-linecap="round" stroke-linejoin="round"/>
<path d="M137.903 60.4275H200.242" stroke="#1F2857" stroke-width="0.750061" stroke-linecap="round" stroke-linejoin="round"/>
<path d="M39.5825 107.416H48.1083" stroke="#1F2857" stroke-width="0.750061" stroke-linecap="round" stroke-linejoin="round"/>
<path d="M39.5825 95.6682H49.8017" stroke="#1F2857" stroke-width="0.750061" stroke-linecap="round" stroke-linejoin="round"/>
<path d="M39.5825 83.9216H49.8017" stroke="#1F2857" stroke-width="0.750061" stroke-linecap="round" stroke-linejoin="round"/>
<path d="M39.5825 72.1746H49.8017" stroke="#1F2857" stroke-width="0.750061" stroke-linecap="round" stroke-linejoin="round"/>
<path d="M39.5825 60.4275H49.8017" stroke="#1F2857" stroke-width="0.750061" stroke-linecap="round" stroke-linejoin="round"/>
<path d="M148.122 100.527V52.1267H39.5825V130.911" stroke="#1F2857" stroke-width="0.750061" stroke-linecap="round" stroke-linejoin="round"/>
<path fill-rule="evenodd" clip-rule="evenodd" d="M151.188 46.541H36.9146V49.7385C36.9146 51.0575 37.9716 52.1263 39.2752 52.1263H148.827C150.131 52.1263 151.188 51.0575 151.188 49.7385V46.541Z" stroke="#1F2857" stroke-width="0.750061" stroke-linecap="round" stroke-linejoin="round"/>
<path d="M148.122 52.1263H296.323C297.627 52.1263 298.684 51.0572 298.684 49.7385V46.541H151.188" stroke="#1F2857" stroke-width="0.750061" stroke-linecap="round" stroke-linejoin="round"/>
<path fill-rule="evenodd" clip-rule="evenodd" d="M94.0511 33.5259L36.9146 46.5406H151.188L94.0511 33.5259Z" stroke="#1F2857" stroke-width="0.750061" stroke-linecap="round" stroke-linejoin="round"/>
<path d="M298.684 46.5411L193.347 22.6858L119.69 39.3666" stroke="#1F2857" stroke-width="0.750061" stroke-linecap="round" stroke-linejoin="round"/>
<path fill-rule="evenodd" clip-rule="evenodd" d="M49.8018 104.751H137.903V57.9927H49.8018V104.751Z" stroke="#1F2857" stroke-width="0.750061" stroke-linecap="round" stroke-linejoin="round"/>
<path d="M6.47212 130.841H0" stroke="#1F2857" stroke-width="0.750061" stroke-linecap="round" stroke-linejoin="round"/>
<path d="M16.0957 77.0564V81.1601" stroke="#1F2857" stroke-width="0.750061" stroke-linecap="round" stroke-linejoin="round"/>
<path d="M9.59229 130.911H347.962" stroke="#1F2857" stroke-width="0.750061" stroke-linecap="round" stroke-linejoin="round"/>
<path fill-rule="evenodd" clip-rule="evenodd" d="M49.1301 114.923H138.574L139.937 104.75H47.7676L49.1301 114.923Z" stroke="#1F2857" stroke-width="0.750061" stroke-linecap="round" stroke-linejoin="round"/>
<path d="M52.5273 104.75V60.7485H92.4903V104.659" stroke="#1F2857" stroke-width="0.750061" stroke-linecap="round" stroke-linejoin="round"/>
<path d="M95.2148 104.659V60.7485H135.178V104.75" stroke="#1F2857" stroke-width="0.750061" stroke-linecap="round" stroke-linejoin="round"/>
<path d="M58.9961 67.6519L52.5273 74.1951" stroke="#1F2857" stroke-width="0.750061" stroke-linecap="round" stroke-linejoin="round"/>
<path d="M55.5897 66.6179L52.5273 69.7155" stroke="#1F2857" stroke-width="0.750061" stroke-linecap="round" stroke-linejoin="round"/>
<path d="M128.424 60.7485L119.69 69.5824" stroke="#1F2857" stroke-width="0.750061" stroke-linecap="round" stroke-linejoin="round"/>
<path d="M132.736 60.7485L128.078 65.4601" stroke="#1F2857" stroke-width="0.750061" stroke-linecap="round" stroke-linejoin="round"/>
<path d="M189.953 130.909V68.7292H157.215V109.519" stroke="#1F2857" stroke-width="0.750061" stroke-linecap="round" stroke-linejoin="round"/>
<path d="M192.678 130.909V65.9729H154.49V108.682" stroke="#1F2857" stroke-width="0.750061" stroke-linecap="round" stroke-linejoin="round"/>
<path fill-rule="evenodd" clip-rule="evenodd" d="M163.425 96.7266C163.425 95.8373 162.713 95.1165 161.834 95.1165C160.954 95.1165 160.242 95.8373 160.242 96.7266C160.242 97.6159 160.954 98.3367 161.834 98.3367C162.713 98.3367 163.425 97.6159 163.425 96.7266Z" stroke="#1F2857" stroke-width="0.750061" stroke-linecap="round" stroke-linejoin="round"/>
<path d="M192.677 119.162H295.983" stroke="#1F2857" stroke-width="0.750061" stroke-linecap="round" stroke-linejoin="round"/>
<path d="M192.677 72.1746H200.242" stroke="#1F2857" stroke-width="0.750061" stroke-linecap="round" stroke-linejoin="round"/>
<path d="M192.677 95.6682H200.242" stroke="#1F2857" stroke-width="0.750061" stroke-linecap="round" stroke-linejoin="round"/>
<path d="M192.677 107.416H198.564" stroke="#ECECF2" stroke-width="0.750061" stroke-linecap="round" stroke-linejoin="round"/>
<path d="M95.2148 98.2203L98.4202 94.978" stroke="#1F2857" stroke-width="0.750061" stroke-linecap="round" stroke-linejoin="round"/>
<path fill-rule="evenodd" clip-rule="evenodd" d="M200.242 104.751H288.343V57.9927H200.242V104.751Z" stroke="#1F2857" stroke-width="0.750061" stroke-linecap="round" stroke-linejoin="round"/>
<path fill-rule="evenodd" clip-rule="evenodd" d="M199.571 114.923H289.015L290.377 104.75H198.208L199.571 114.923Z" stroke="#1F2857" stroke-width="0.750061" stroke-linecap="round" stroke-linejoin="round"/>
<path d="M202.967 104.75V60.7485H242.93V104.659" stroke="#1F2857" stroke-width="0.750061" stroke-linecap="round" stroke-linejoin="round"/>
<path d="M245.655 104.659V60.7485H285.618V104.75" stroke="#1F2857" stroke-width="0.750061" stroke-linecap="round" stroke-linejoin="round"/>
<path d="M232.274 60.8906L227.508 65.711" stroke="#1F2857" stroke-width="0.750061" stroke-linecap="round" stroke-linejoin="round"/>
<path d="M227.578 60.8933L220.037 68.5212" stroke="#1F2857" stroke-width="0.750061" stroke-linecap="round" stroke-linejoin="round"/>
<path d="M245.655 98.2203L248.86 94.978" stroke="#1F2857" stroke-width="0.750061" stroke-linecap="round" stroke-linejoin="round"/>
<path fill-rule="evenodd" clip-rule="evenodd" d="M31.8413 115.561H14.6963V117.726L15.9151 117.728L16.9861 130.837H29.4759L30.5469 117.711L31.8413 117.726V115.561Z" fill="#39437C"/>
<path fill-rule="evenodd" clip-rule="evenodd" d="M31.8413 115.561H14.6963V117.833L15.9151 117.835L16.9861 131.593H29.4759L30.5469 117.817L31.8413 117.833V115.561Z" stroke="#1F2857" stroke-width="0.750061" stroke-linecap="round" stroke-linejoin="round"/>
<path d="M15.9155 117.729C16.1955 117.755 30.5473 117.729 30.5473 117.729" stroke="#1F2857" stroke-width="0.750061" stroke-linecap="round" stroke-linejoin="round"/>
<path fill-rule="evenodd" clip-rule="evenodd" d="M17.5475 115.562C17.5475 115.562 14.6156 112.015 15.5425 107.794C16.4693 103.573 17.3666 102.165 16.1992 99.4196C15.0318 96.6735 14.928 93.3454 17.0947 93.3454C19.2615 93.3454 19.6833 94.3194 19.6833 94.3194C19.6833 94.3194 15.7874 88.475 18.6654 84.4974C21.5435 80.5198 26.713 80.9257 29.4419 85.1469C32.1707 89.3677 33.2788 95.7525 32.0716 98.6481C30.8644 101.544 33.3261 112.908 33.3261 112.908L30.3418 115.562H17.5475Z" fill="#39437C"/>
<path fill-rule="evenodd" clip-rule="evenodd" d="M17.5475 115.562C17.5475 115.562 14.6156 112.015 15.5425 107.794C16.4693 103.573 17.3666 102.165 16.1992 99.4196C15.0318 96.6735 14.928 93.3454 17.0947 93.3454C19.2615 93.3454 19.6833 94.3194 19.6833 94.3194C19.6833 94.3194 15.7874 88.475 18.6654 84.4974C21.5435 80.5198 26.713 80.9257 29.4419 85.1469C32.1707 89.3677 33.2788 95.7525 32.0716 98.6481C30.8644 101.544 33.3261 112.908 33.3261 112.908L30.3418 115.562H17.5475Z" stroke="#1F2857" stroke-width="0.750061" stroke-linecap="round" stroke-linejoin="round"/>
<path d="M24.4741 115.562C24.4741 115.562 22.1193 108.897 23.2679 103.922C24.4165 98.9464 26.2308 93.9934 25.0286 90.1384" stroke="#1F2857" stroke-width="0.750061" stroke-linecap="round" stroke-linejoin="round"/>
<path d="M28.0558 93.9133C28.0558 93.9133 27.239 96.0565 25.0957 96.2429" stroke="#1F2857" stroke-width="0.750061" stroke-linecap="round" stroke-linejoin="round"/>
<path fill-rule="evenodd" clip-rule="evenodd" d="M20.7476 100.712L23.1569 102.85L20.7476 100.712Z" fill="white"/>
<path d="M20.7476 100.712L23.1569 102.85" stroke="#1F2857" stroke-width="0.750061" stroke-linecap="round" stroke-linejoin="round"/>
<path fill-rule="evenodd" clip-rule="evenodd" d="M25.7929 109.905L23.5981 112.367L25.7929 109.905Z" fill="white"/>
<path d="M25.7929 109.905L23.5981 112.367" stroke="#1F2857" stroke-width="0.750061" stroke-linecap="round" stroke-linejoin="round"/>
<path fill-rule="evenodd" clip-rule="evenodd" d="M39.5994 121.539C39.5994 121.539 41.9284 118.491 41.7679 115.06C41.6075 111.629 38.4518 110.759 39.5994 107.664C40.747 104.569 41.68 100.313 39.3487 98.8617C37.0177 97.4108 33.5752 97.4607 31.3757 99.4671C29.1762 101.473 28.2592 105.342 29.4828 108.147C30.7064 110.952 30.4175 113.854 28.9361 116.079C27.455 118.304 28.9361 121.539 28.9361 121.539" fill="#39437C"/>
<path d="M39.5994 121.539C39.5994 121.539 41.9284 118.491 41.7679 115.06C41.6075 111.629 38.4518 110.759 39.5994 107.664C40.747 104.569 41.68 100.313 39.3487 98.8617C37.0177 97.4108 33.5752 97.4607 31.3757 99.4671C29.1762 101.473 28.2592 105.342 29.4828 108.147C30.7064 110.952 30.4175 113.854 28.9361 116.079C27.455 118.304 28.9361 121.539 28.9361 121.539" stroke="#1F2857" stroke-width="0.750061" stroke-linecap="round" stroke-linejoin="round"/>
<path fill-rule="evenodd" clip-rule="evenodd" d="M41.1234 121.539H27.5483V123.704L28.7675 123.706L29.4815 130.911H39.115L39.829 123.689L41.1234 123.704V121.539Z" fill="#39437C"/>
<path fill-rule="evenodd" clip-rule="evenodd" d="M41.1234 121.539H27.5483V123.879L28.7675 123.881L29.4815 131.667H39.115L39.829 123.862L41.1234 123.879V121.539Z" stroke="#1F2857" stroke-width="0.750061" stroke-linecap="round" stroke-linejoin="round"/>
<path d="M34.2119 121.539C34.2119 121.539 35.7141 118.013 35.0271 110.856C34.3403 103.698 35.2069 102.731 35.2069 102.731" stroke="#1F2857" stroke-width="0.750061" stroke-linecap="round" stroke-linejoin="round"/>
<path d="M32.9058 115.499L35.2068 117.337L37.4001 115.499" stroke="#1F2857" stroke-width="0.750061" stroke-linecap="round" stroke-linejoin="round"/>
<path d="M32.9058 104.115L34.7091 105.343" stroke="#1F2857" stroke-width="0.750061" stroke-linecap="round" stroke-linejoin="round"/>
<path d="M28.7671 123.706C29.0471 123.733 39.8286 123.706 39.8286 123.706" stroke="#1F2857" stroke-width="0.750061" stroke-linecap="round" stroke-linejoin="round"/>
<path d="M145.846 129.19C145.846 129.19 142.044 126.469 141.047 122.516C140.049 118.563 141.84 117.55 143.243 117.825C144.646 118.1 146.288 115.775 144.975 113.259C143.662 110.743 141.493 105.8 143.524 103.131C145.556 100.461 148.679 100.213 150.669 101.613C152.658 103.012 153.594 106.55 153.885 107.594C154.597 110.145 156.345 107.959 157.318 109.519C157.902 110.456 159.202 113.388 158.881 117.714C158.196 126.954 153.855 129.609 153.855 129.609" stroke="#1F2857" stroke-width="0.750061" stroke-linecap="round" stroke-linejoin="round"/>
<path d="M150.127 128.586C150.127 128.586 151.146 124.947 150.994 118.767C150.842 112.587 148.555 107.861 148.555 107.861" stroke="#1F2857" stroke-width="0.750061" stroke-linecap="round" stroke-linejoin="round"/>
<path d="M154.5 114.427C154.5 114.427 153.694 118.334 151.24 120.339" stroke="#1F2857" stroke-width="0.750061" stroke-linecap="round" stroke-linejoin="round"/>
<path d="M147.793 123.615C147.793 123.615 149.548 125.322 150.69 125.664" stroke="#1F2857" stroke-width="0.750061" stroke-linecap="round" stroke-linejoin="round"/>
<path d="M143.049 130.91C143.049 130.91 145.556 128.855 147.878 128.581C150.199 128.307 152.893 129.023 154.1 129.745C155.307 130.468 155.493 130.91 155.493 130.91" stroke="#1F2857" stroke-width="0.750061" stroke-linecap="round" stroke-linejoin="round"/>
<path d="M157.215 130.911V125.044" stroke="#1F2857" stroke-width="0.750061" stroke-linecap="round" stroke-linejoin="round"/>
<path d="M331.086 127.281V77.7575C327.832 74.631 322.727 74.631 319.473 77.7575C316.219 74.631 311.114 74.631 307.86 77.7575C304.605 74.631 299.5 74.631 296.247 77.7575" stroke="#1F2857" stroke-width="0.750061" stroke-linecap="round" stroke-linejoin="round"/>
<path d="M307.861 124.963V130.983" stroke="#1F2857" stroke-width="0.750061" stroke-linecap="round" stroke-linejoin="round"/>
<path d="M319.451 77.7578V84.9367" stroke="#1F2857" stroke-width="0.750061" stroke-linecap="round" stroke-linejoin="round"/>
<path d="M0.698242 40.2353H6.5906C6.5906 40.2353 3.78476 35.1665 7.01162 31.7278C10.2385 28.2887 10.6592 35.9814 10.6592 35.9814C10.6592 35.9814 11.0802 27.1007 15.5695 26.1762C20.0591 25.2521 22.6241 35.9435 15.7497 40.2353H22.0232" stroke="#1F2857" stroke-width="0.750061" stroke-linecap="round" stroke-linejoin="round"/>
<path d="M24.5684 40.2354H25.4937" stroke="#1F2857" stroke-width="0.750061" stroke-linecap="round" stroke-linejoin="round"/>
<path d="M341.927 50.5808H335.74C335.74 50.5808 340.097 45.2583 337.665 41.6473C335.233 38.0364 332.651 46.1142 332.651 46.1142C332.651 46.1142 334.68 36.7887 330.222 35.8184C325.766 34.8481 320.098 46.0743 326.123 50.5808H319.536" stroke="#1F2857" stroke-width="0.750061" stroke-linecap="round" stroke-linejoin="round"/>
<path d="M316.86 50.5806H315.889" stroke="#1F2857" stroke-width="0.750061" stroke-linecap="round" stroke-linejoin="round"/>
<path d="M111.321 20.3997H112.571" stroke="#1F2857" stroke-width="0.750061" stroke-linecap="round" stroke-linejoin="round"/>
<path d="M288.343 60.4275H295.983" stroke="#1F2857" stroke-width="0.750061" stroke-linecap="round" stroke-linejoin="round"/>
<path d="M288.343 72.1746H295.983" stroke="#1F2857" stroke-width="0.750061" stroke-linecap="round" stroke-linejoin="round"/>
<path d="M288.343 83.9216H295.983" stroke="#1F2857" stroke-width="0.750061" stroke-linecap="round" stroke-linejoin="round"/>
<path d="M288.343 95.6682H295.983" stroke="#1F2857" stroke-width="0.750061" stroke-linecap="round" stroke-linejoin="round"/>
<path d="M290.021 107.416H295.983" stroke="#1F2857" stroke-width="0.750061" stroke-linecap="round" stroke-linejoin="round"/>
</g>
<rect width="123.04" height="1.34244" rx="0.671222" transform="matrix(-1 0 0 1 235.832 128.128)" fill="#1C1F34"/>
<rect width="11.3562" height="1.34244" rx="0.671222" transform="matrix(-1 0 0 1 110.494 128.128)" fill="#1C1F34"/>
<rect width="3.9834" height="1.34244" rx="0.671222" transform="matrix(-1 0 0 1 244.167 128.129)" fill="#1C1F34"/>
<path fill-rule="evenodd" clip-rule="evenodd" d="M100.218 109.741C100.168 109.155 99.6732 108.72 99.1157 108.769L83.5154 110.147C82.9572 110.196 82.5459 110.712 82.5966 111.297L82.8271 113.956C82.8779 114.542 83.3724 114.977 83.9298 114.928L99.5302 113.55C100.088 113.501 100.5 112.985 100.449 112.4L100.218 109.741Z" fill="#1C1F34"/>
<path fill-rule="evenodd" clip-rule="evenodd" d="M100.635 110.328L83.5236 111.793L83.6586 113.43C83.6843 113.726 83.9279 113.947 84.2135 113.922L100.819 112.455C101.1 112.43 101.307 112.174 101.281 111.873L101.19 110.82C101.164 110.524 100.92 110.303 100.635 110.328Z" fill="url(#paint0_linear_1266_18272)"/>
<path fill-rule="evenodd" clip-rule="evenodd" d="M97.3892 114.022C97.3892 114.022 96.5342 106.503 96.6401 102.753C96.7187 99.9662 97.8619 95.8578 97.8619 95.8578C98.2079 94.4787 100.659 93.3607 102.084 93.3607H165.697C165.697 93.3607 165.697 90.6632 165.697 90.147C165.697 81.0222 166.772 77.8227 166.772 77.8227C167.029 76.7118 168.155 75.7496 169.281 75.6795C169.281 75.6795 186.775 74.4122 193.798 75.8112C200.821 77.2102 213.985 90.2357 213.985 90.2357C214.189 90.4341 214.584 90.6203 214.868 90.6521C214.868 90.6521 240.06 93.3607 241.561 96.5731C243.063 99.7855 243.51 115.138 240.06 117.62C236.609 120.103 101.349 117.684 101.349 117.684C99.3667 117.649 97.5897 116.014 97.3892 114.022Z" fill="#1C1F34"/>
<path fill-rule="evenodd" clip-rule="evenodd" d="M98.4118 114.08C98.4118 114.08 97.1957 106.592 97.3017 102.868C97.3805 100.102 98.7603 96.9662 98.7603 96.9662C99.2609 95.6426 100.812 94.5696 102.239 94.5696H166.975C166.975 94.5696 166.975 90.8669 166.975 90.3545C166.975 81.2962 167.645 79.1617 167.645 79.1617C167.842 78.0496 168.925 77.0851 170.054 77.0138C170.054 77.0138 187.057 75.7591 194.09 77.148C201.123 78.5368 213.8 91.4604 213.8 91.4604C214 91.6612 214.396 91.8453 214.679 91.8716C214.679 91.8716 239.392 94.0572 240.896 97.2461C242.4 100.435 242.848 115.163 239.392 117.628C235.937 120.092 102.536 117.692 102.536 117.692C100.549 117.657 98.6957 116.039 98.4118 114.08Z" fill="white"/>
<path fill-rule="evenodd" clip-rule="evenodd" d="M201.498 97.8952L201.522 98.3686C201.578 99.4358 201.199 99.8646 199.755 101.704C198.311 103.543 197.675 107.56 197.675 107.56C197.076 108.18 192.816 108.682 191.938 108.682H185.835C184.961 108.682 184.258 107.99 184.266 107.134L184.342 98.1898C184.35 97.335 185.063 96.6283 185.933 96.6114L200.25 96.7617C200.906 96.749 201.464 97.2566 201.498 97.8952Z" fill="white"/>
<path fill-rule="evenodd" clip-rule="evenodd" d="M201.498 97.8952L201.522 98.3686C201.578 99.4358 201.199 99.8646 199.755 101.704C198.311 103.543 197.675 107.56 197.675 107.56C197.076 108.18 192.816 108.682 191.938 108.682H185.835C184.961 108.682 184.258 107.99 184.266 107.134L184.342 98.1898C184.35 97.335 185.063 96.6283 185.933 96.6114L200.25 96.7617C200.906 96.749 201.464 97.2566 201.498 97.8952Z" fill="url(#paint1_linear_1266_18272)" fill-opacity="0.05"/>
<path opacity="0.1" fill-rule="evenodd" clip-rule="evenodd" d="M241.806 98.2935C241.806 98.2935 231.272 95.3907 224.84 94.372C218.408 93.3534 210.975 93.4108 210.975 93.4108L210.905 93.9121C210.905 93.9121 215.796 93.4519 224.778 94.8744C233.76 96.2969 241.736 98.7949 241.736 98.7949L241.806 98.2935Z" fill="#242D5F"/>
<path opacity="0.1" fill-rule="evenodd" clip-rule="evenodd" d="M193.329 99.9639H147.983L137.793 100.364H203.519L193.329 99.9639Z" fill="#242D5F"/>
<path opacity="0.1" fill-rule="evenodd" clip-rule="evenodd" d="M198.872 109.352H144.432L148.753 110.695H193.736L198.872 109.352Z" fill="#242D5F"/>
<path fill-rule="evenodd" clip-rule="evenodd" d="M205.315 93.7262C207.029 93.7494 207.879 92.4909 207.211 90.9104L207.085 90.6114C206.529 89.2967 205.261 87.4185 204.234 86.4188C204.234 86.4188 196.78 78.8311 193.923 78.3332C191.066 77.8353 182.815 77.8465 182.815 77.8465C181.679 77.8403 180.766 78.7621 180.776 79.9017L180.876 91.3299C180.886 92.4712 181.818 93.4088 182.963 93.4243L205.315 93.7262Z" fill="#1C1F34"/>
<path fill-rule="evenodd" clip-rule="evenodd" d="M204.289 92.6899C205.999 92.7149 206.574 91.6031 205.58 90.2153L206.032 90.8464C205.202 89.6872 203.707 87.9324 202.682 86.9378C202.682 86.9378 195.746 79.8641 192.889 79.3662C190.032 78.8683 182.951 78.9863 182.951 78.9863C182.386 78.9921 181.927 79.457 181.927 80.0346L181.927 90.2968C181.927 91.4381 182.848 92.3767 183.989 92.3934L204.289 92.6899Z" fill="url(#paint2_linear_1266_18272)"/>
<path fill-rule="evenodd" clip-rule="evenodd" d="M176.502 79.9038C176.502 78.7614 175.576 77.8352 174.434 77.8352H172.199C171.057 77.8352 170.021 78.7507 169.89 79.8841C169.89 79.8841 169.269 84.9396 169.269 86.3669V91.7838C169.269 92.9232 170.193 93.8469 171.332 93.8469H174.439C175.579 93.8469 176.502 92.9168 176.502 91.7782V79.9038Z" fill="#1C1F34"/>
<g opacity="0.1">
<path fill-rule="evenodd" clip-rule="evenodd" d="M174.631 84.4843C174.723 84.4109 174.736 84.281 174.657 84.1919L172.299 81.5435C172.221 81.4554 172.082 81.4429 171.989 81.5168C171.896 81.5901 171.884 81.72 171.963 81.8091L174.321 84.4575C174.399 84.5456 174.537 84.5581 174.631 84.4843Z" fill="white"/>
<path fill-rule="evenodd" clip-rule="evenodd" d="M172.532 83.7526C172.578 83.716 172.585 83.652 172.547 83.6084L171.63 82.578C171.592 82.535 171.522 82.5309 171.477 82.5665C171.431 82.6031 171.424 82.6671 171.463 82.7107L172.379 83.7411C172.417 83.7841 172.487 83.7882 172.532 83.7526Z" fill="white"/>
</g>
<g opacity="0.1">
<path fill-rule="evenodd" clip-rule="evenodd" d="M198.019 86.4571L193.233 81.1108C193.087 80.9482 192.829 80.927 192.653 81.0655C192.478 81.203 192.457 81.4496 192.599 81.6088L197.386 86.9551C197.531 87.1177 197.79 87.1389 197.966 87.0004C198.141 86.8629 198.162 86.6163 198.019 86.4571Z" fill="white"/>
<path fill-rule="evenodd" clip-rule="evenodd" d="M194.405 84.9394C194.492 84.8707 194.502 84.7465 194.43 84.6664L192.571 82.5895C192.497 82.5074 192.364 82.4987 192.28 82.5655C192.192 82.6342 192.183 82.7584 192.254 82.8385L194.114 84.9154C194.187 84.9975 194.32 85.0062 194.405 84.9394Z" fill="white"/>
</g>
<path fill-rule="evenodd" clip-rule="evenodd" d="M182.964 96.4297C182.534 96.4297 182.186 96.7736 182.186 97.2045C182.186 97.6324 182.535 97.9792 182.964 97.9792H186.057C186.487 97.9792 186.835 97.6353 186.835 97.2045C186.835 96.7766 186.486 96.4297 186.057 96.4297H182.964Z" fill="#1C1F34"/>
<path fill-rule="evenodd" clip-rule="evenodd" d="M182.912 81.4074C182.879 80.8608 182.406 80.4177 181.854 80.4177H182.151C181.6 80.4177 181.152 80.8635 181.152 81.4074V85.1096C181.152 85.6562 181.595 86.0993 182.149 86.0993H182.196C182.747 86.0993 183.166 85.6534 183.133 85.1096L182.912 81.4074Z" fill="#1C1F34"/>
<path fill-rule="evenodd" clip-rule="evenodd" d="M184.033 88.6389C183.869 88.0923 183.274 87.6492 182.7 87.6492H182.189C181.617 87.6492 181.245 88.1075 181.355 88.6573L182.186 92.8142H185.286L184.033 88.6389Z" fill="#1C1F34"/>
<path fill-rule="evenodd" clip-rule="evenodd" d="M206.438 91.5316C206.438 91.0905 205.493 89.744 205.493 89.744L204.046 88.0991L197.263 93.3297H205.493C205.493 93.3297 206.438 92.2857 206.438 91.5316Z" fill="#1C1F34"/>
<path fill-rule="evenodd" clip-rule="evenodd" d="M198.676 92.8527L198.536 93.106C198.328 93.4803 197.859 93.6115 197.485 93.404C197.108 93.1951 196.974 92.7268 197.18 92.3548L199.689 87.8294C199.897 87.4551 200.366 87.3239 200.741 87.5314C201.118 87.7403 201.251 88.2086 201.045 88.5806L199.681 91.0409L201.381 92.4235L200.628 93.6757L198.676 92.8527Z" fill="#1C1F34"/>
<path opacity="0.1" fill-rule="evenodd" clip-rule="evenodd" d="M207.485 92.7844C207.641 91.1073 206.649 88.2298 206.649 88.2298C206.47 87.6579 205.832 87.0468 205.225 86.865L204.558 86.6655C203.95 86.4836 203.413 86.8154 203.357 87.4139L202.551 96.086C202.495 96.6813 202.967 97.2063 203.599 97.2583L204.75 97.3531C205.384 97.4052 206.086 96.9926 206.31 96.4362C206.31 96.4362 207.376 93.9577 207.485 92.7844Z" fill="#242D5F"/>
<path fill-rule="evenodd" clip-rule="evenodd" d="M207.485 91.778C207.61 90.345 207.005 88.0268 207.005 88.0268C206.877 87.4713 206.338 86.8622 205.803 86.6672L205.825 86.6754C205.289 86.48 204.814 86.7804 204.765 87.347L204.135 94.5476C204.085 95.1139 204.502 95.613 205.074 95.663L205.331 95.6855C205.9 95.7352 206.51 95.3328 206.687 94.793C206.687 94.793 207.397 92.7804 207.485 91.778Z" fill="#1C1F34"/>
<path fill-rule="evenodd" clip-rule="evenodd" d="M99.9371 102.736C99.9994 100.934 100.356 97.367 100.356 97.367C100.421 96.6848 99.8324 96.1092 99.034 96.081L98.8164 96.0733C98.0209 96.0453 97.3221 96.5765 97.2568 97.2618C97.2568 97.2618 96.9023 100.79 96.8406 102.574C96.7566 105.003 97.0935 109.702 97.0935 109.702C97.1383 110.385 97.8166 110.962 98.615 110.99L98.8327 110.997C99.6281 111.025 100.235 110.493 100.191 109.804C100.191 109.804 99.8537 105.148 99.9371 102.736Z" fill="#1C1F34"/>
<path fill-rule="evenodd" clip-rule="evenodd" d="M99.1159 102.806C99.1713 101.205 99.5933 97.3699 99.5933 97.3699C99.6177 97.1433 99.4225 96.9521 99.159 96.9428L98.5212 96.9203C98.257 96.911 98.0226 97.0876 97.9977 97.3186C97.9977 97.3186 97.5776 101.117 97.5227 102.703C97.448 104.862 97.7236 109.746 97.7236 109.746C97.7359 109.974 97.961 110.166 98.2244 110.175L98.8622 110.198C99.1265 110.207 99.3305 110.03 99.3181 109.8C99.3181 109.8 99.0417 104.95 99.1159 102.806Z" fill="#C10000"/>
<mask id="mask1_1266_18272" style="mask-type:alpha" maskUnits="userSpaceOnUse" x="97" y="96" width="3" height="15">
<path fill-rule="evenodd" clip-rule="evenodd" d="M99.1159 102.806C99.1713 101.205 99.5933 97.3699 99.5933 97.3699C99.6177 97.1433 99.4225 96.9521 99.159 96.9428L98.5212 96.9203C98.257 96.911 98.0226 97.0876 97.9977 97.3186C97.9977 97.3186 97.5776 101.117 97.5227 102.703C97.448 104.862 97.7236 109.746 97.7236 109.746C97.7359 109.974 97.961 110.166 98.2244 110.175L98.8622 110.198C99.1265 110.207 99.3305 110.03 99.3181 109.8C99.3181 109.8 99.0417 104.95 99.1159 102.806Z" fill="white"/>
</mask>
<g mask="url(#mask1_1266_18272)">
<path opacity="0.4" fill-rule="evenodd" clip-rule="evenodd" d="M98.133 104.781L97.5228 104.792L97.6499 109.762L98.3683 109.749L98.133 104.781Z" fill="white"/>
</g>
<path fill-rule="evenodd" clip-rule="evenodd" d="M218.125 96.1707C218.125 95.6738 217.787 95.271 217.373 95.271H216.371C215.956 95.271 215.62 95.6704 215.62 96.1707C215.62 96.6676 215.958 97.0705 216.371 97.0705H217.373C217.788 97.0705 218.125 96.6711 218.125 96.1707Z" fill="#1C1F34"/>
<path fill-rule="evenodd" clip-rule="evenodd" d="M217.625 96.1711C217.625 96.0054 217.516 95.8711 217.376 95.8711H216.37C216.234 95.8711 216.122 96.0102 216.122 96.1711C216.122 96.3367 216.23 96.471 216.37 96.471H217.376C217.513 96.471 217.625 96.3319 217.625 96.1711Z" fill="#F5A623"/>
<mask id="mask2_1266_18272" style="mask-type:alpha" maskUnits="userSpaceOnUse" x="216" y="95" width="2" height="2">
<path fill-rule="evenodd" clip-rule="evenodd" d="M217.625 96.1711C217.625 96.0054 217.516 95.8711 217.376 95.8711H216.37C216.234 95.8711 216.122 96.0102 216.122 96.1711C216.122 96.3367 216.23 96.471 216.37 96.471H217.376C217.513 96.471 217.625 96.3319 217.625 96.1711Z" fill="white"/>
</mask>
<g mask="url(#mask2_1266_18272)">
<path fill-rule="evenodd" clip-rule="evenodd" d="M218.125 95.8711H217.125V96.4704H218.125V95.8711Z" fill="white"/>
</g>
<rect width="86.4883" height="6.49801" transform="matrix(-1 0 0 1 213.478 112.706)" fill="#1C1F34"/>
<path fill-rule="evenodd" clip-rule="evenodd" d="M179.62 75.1533H178.292V117.399H179.62V75.1533Z" fill="#1C1F34"/>
<path fill-rule="evenodd" clip-rule="evenodd" d="M167.005 93.9287H165.013V118.74H167.005V93.9287Z" fill="#1C1F34"/>
<path fill-rule="evenodd" clip-rule="evenodd" d="M208.733 102.475C212.435 100.005 211.089 88.9221 211.089 88.9221L209.822 89.0115C209.822 89.0115 211.911 98.5606 207.618 102.223C203.324 105.884 203.223 119.055 203.223 119.055L204.231 118.984C204.231 118.984 203.923 106.769 208.733 102.475Z" fill="#1C1F34"/>
<path fill-rule="evenodd" clip-rule="evenodd" d="M214.806 91.2466C214.806 91.2466 209.752 86.1926 206.971 83.9189C204.73 82.0873 199.74 78.9305 199.74 78.9305L197.93 77.8352L197.353 77.9606C196.802 78.0802 196.724 78.4516 197.168 78.7833C197.168 78.7833 202.434 82.6808 204.587 84.5964C206.929 86.6806 210.595 90.849 210.595 90.849L214.806 91.2466Z" fill="#1C1F34"/>
<ellipse opacity="0.1" cx="14.3809" cy="8.61692" rx="14.3809" ry="8.61692" transform="matrix(-1 0 0 1 234.4 102.922)" fill="#242D5F"/>
<ellipse cx="13.3046" cy="8.48445" rx="13.3046" ry="8.48445" transform="matrix(-1 0 0 1 233.376 104.478)" fill="#1C1F34"/>
<path fill-rule="evenodd" clip-rule="evenodd" d="M243.123 111.139C243.234 110.002 242.411 109.098 241.281 109.12L231.622 109.307C230.494 109.329 229.925 110.203 230.343 111.27C230.343 111.27 231.369 113.709 231.567 114.907C231.909 116.963 231.727 120.536 231.727 120.536C231.706 121.105 232.142 121.512 232.709 121.444L238.162 120.792C240.409 120.523 242.41 118.458 242.633 116.173L243.123 111.139Z" fill="#1C1F34"/>
<path opacity="0.1" fill-rule="evenodd" clip-rule="evenodd" d="M229.004 100.714C226.163 99.2937 222.766 99.2937 219.923 99.2937C217.254 99.2937 213.474 99.3131 211.268 100.363C206.253 102.75 204.102 107.977 204.102 113.816C204.307 108.306 206.485 103.446 211.268 101.169C213.474 100.12 217.254 100.1 219.923 100.1C222.766 100.1 223.528 99.7176 227.651 100.714C230.323 101.359 238.279 105.349 229.004 100.714Z" fill="#242D5F"/>
<path fill-rule="evenodd" clip-rule="evenodd" d="M243.791 109.352C244.711 109.373 245.405 108.718 245.341 107.895L244.663 99.1721C244.599 98.3462 243.815 97.8149 242.918 97.9844L242.879 97.9917C241.979 98.1616 241.302 98.9717 241.366 99.7962L241.989 107.817C242.053 108.644 242.849 109.331 243.772 109.352L243.791 109.352Z" fill="#1C1F34"/>
<path fill-rule="evenodd" clip-rule="evenodd" d="M244.003 108.008C244.405 108.044 244.708 107.741 244.679 107.325L244.124 99.1855C244.096 98.7724 243.762 98.5338 243.374 98.6543L243.34 98.6647C242.954 98.7845 242.663 99.2148 242.691 99.623L243.208 107.201C243.236 107.61 243.585 107.971 243.986 108.007L244.003 108.008Z" fill="url(#paint3_linear_1266_18272)"/>
<path fill-rule="evenodd" clip-rule="evenodd" d="M242.078 99.2937H235.446C234.883 99.2937 234.522 99.7606 234.639 100.332L235.744 105.72C235.861 106.293 236.412 106.758 236.978 106.758H242.077C242.641 106.758 243.132 106.28 243.171 105.697L243.026 100.355C243.066 99.769 242.645 99.2937 242.078 99.2937Z" fill="#1C1F34"/>
<path fill-rule="evenodd" clip-rule="evenodd" d="M242.061 100.361H235.492L236.651 105.692H242.185L242.061 100.361Z" fill="url(#paint4_linear_1266_18272)"/>
<mask id="mask3_1266_18272" style="mask-type:alpha" maskUnits="userSpaceOnUse" x="235" y="100" width="8" height="6">
<path fill-rule="evenodd" clip-rule="evenodd" d="M242.061 100.361H235.492L236.651 105.692H242.185L242.061 100.361Z" fill="white"/>
</mask>
<g mask="url(#mask3_1266_18272)">
<ellipse cx="0.765244" cy="1.59949" rx="0.765244" ry="1.59949" transform="matrix(-0.999845 0.0176275 0.017279 0.999851 242.323 101.422)" fill="white"/>
<path opacity="0.2" fill-rule="evenodd" clip-rule="evenodd" d="M233.986 99.8267H237.488L237.998 106.758H233.986V99.8267Z" fill="#FF0000"/>
</g>
<path fill-rule="evenodd" clip-rule="evenodd" d="M206.797 118.781C207.026 119.869 206.292 120.752 205.156 120.752H174.532C173.396 120.752 172.738 119.889 173.063 118.822L173.113 118.657C173.437 117.592 174.625 116.728 175.756 116.728H204.309C205.444 116.728 206.551 117.611 206.78 118.699L206.797 118.781Z" fill="#1C1F34"/>
<path fill-rule="evenodd" clip-rule="evenodd" d="M205.07 120.081H175.32C174.255 120.081 174.152 119.65 174.457 119.117L174.504 119.034C174.808 118.501 175.408 118.07 176.468 118.07H204.275C205.34 118.07 205.863 118.511 206.078 119.055L206.094 119.096C206.309 119.64 206.135 120.081 205.07 120.081Z" fill="url(#paint5_linear_1266_18272)"/>
<path fill-rule="evenodd" clip-rule="evenodd" d="M98.3414 115.034C98.1683 113.902 98.9495 112.985 100.092 112.985H117.094C118.234 112.985 119.158 113.915 119.158 115.061V117.646C119.158 118.793 118.236 119.723 117.102 119.723H101.115C99.9794 119.723 98.9186 118.807 98.7452 117.674L98.3414 115.034Z" fill="#1C1F34"/>
<path fill-rule="evenodd" clip-rule="evenodd" d="M96.2201 111.938C96.1273 111.085 96.7474 110.393 97.6029 110.393H101.116C101.973 110.393 102.667 111.088 102.667 111.946V115.059C102.667 115.917 101.974 116.613 101.122 116.613H98.2735C97.4203 116.613 96.6537 115.923 96.5606 115.067L96.2201 111.938Z" fill="#1C1F34"/>
<path fill-rule="evenodd" clip-rule="evenodd" d="M97.1947 111.947C97.163 111.661 97.3666 111.43 97.6533 111.43H101.12C101.405 111.43 101.636 111.665 101.636 111.947V115.06C101.636 115.345 101.407 115.577 101.124 115.577H98.109C97.8265 115.577 97.5714 115.342 97.5401 115.06L97.1947 111.947Z" fill="url(#paint6_linear_1266_18272)"/>
<ellipse opacity="0.1" cx="120.705" cy="111.234" rx="14.4304" ry="8.61692" fill="#242D5F"/>
<path opacity="0.1" fill-rule="evenodd" clip-rule="evenodd" d="M130.466 99.372C127.988 98.1095 123.76 97.9521 120.705 97.9521C117.836 97.9521 113.772 97.9716 111.402 99.0214C106.01 101.409 103.698 106.635 103.698 112.475C103.918 106.964 106.26 102.105 111.402 99.8278C113.772 98.778 117.836 98.7586 120.705 98.7586C123.76 98.7586 127.988 98.9159 130.466 100.178C135.361 102.672 137.505 106.767 137.698 112.051C137.712 106.375 135.607 101.991 130.466 99.372Z" fill="#242D5F"/>
<ellipse cx="120.705" cy="112.322" rx="13.3997" ry="8.14916" fill="#1C1F34"/>
<ellipse cx="11.4315" cy="11.4039" rx="11.4315" ry="11.4039" transform="matrix(-1 0 0 1 230.739 106.67)" fill="#1C1F34"/>
<ellipse cx="5.71575" cy="5.70191" rx="5.71575" ry="5.70191" transform="matrix(-1 0 0 1 225.023 112.372)" fill="url(#paint7_linear_1266_18272)"/>
<ellipse opacity="0.2" cx="4.20022" cy="4.19005" rx="4.20022" ry="4.19005" transform="matrix(-1 0 0 1 223.508 113.884)" fill="#242D5F"/>
<ellipse cx="2.59806" cy="2.59178" rx="2.59806" ry="2.59178" transform="matrix(-1 0 0 1 221.905 115.482)" fill="#1C1F34"/>
<ellipse cx="0.518708" cy="0.517958" rx="0.518708" ry="0.517958" transform="matrix(-1 0 0 1 219.827 113.409)" fill="#1C1F34"/>
<ellipse cx="0.518708" cy="0.517958" rx="0.518708" ry="0.517958" transform="matrix(-1 0 0 1 219.827 121.702)" fill="#1C1F34"/>
<ellipse cx="0.523004" cy="0.513726" rx="0.523004" ry="0.513726" transform="matrix(-0.496251 0.868179 0.863845 0.503758 215.522 115.287)" fill="#1C1F34"/>
<ellipse cx="0.523004" cy="0.513726" rx="0.523004" ry="0.513726" transform="matrix(-0.496251 0.868179 0.863845 0.503758 222.722 119.434)" fill="#1C1F34"/>
<ellipse cx="0.523004" cy="0.513726" rx="0.523004" ry="0.513726" transform="matrix(0.496251 0.868179 0.863845 -0.503758 215.002 119.953)" fill="#1C1F34"/>
<ellipse cx="0.523004" cy="0.513726" rx="0.523004" ry="0.513726" transform="matrix(0.496249 0.86818 0.863844 -0.50376 222.203 115.806)" fill="#1C1F34"/>
<ellipse cx="11.4315" cy="11.4039" rx="11.4315" ry="11.4039" transform="matrix(-1 0 0 1 131.817 106.67)" fill="#1C1F34"/>
<ellipse cx="5.71575" cy="5.70191" rx="5.71575" ry="5.70191" transform="matrix(-1 0 0 1 126.102 112.372)" fill="url(#paint8_linear_1266_18272)"/>
<ellipse opacity="0.2" cx="4.20022" cy="4.19005" rx="4.20022" ry="4.19005" transform="matrix(-1 0 0 1 124.586 113.884)" fill="#242D5F"/>
<ellipse cx="2.59806" cy="2.59178" rx="2.59806" ry="2.59178" transform="matrix(-1 0 0 1 122.983 115.482)" fill="#1C1F34"/>
<ellipse cx="0.518708" cy="0.517958" rx="0.518708" ry="0.517958" transform="matrix(-1 0 0 1 120.905 113.409)" fill="#1C1F34"/>
<ellipse cx="0.518708" cy="0.517958" rx="0.518708" ry="0.517958" transform="matrix(-1 0 0 1 120.905 121.702)" fill="#1C1F34"/>
<ellipse cx="0.523004" cy="0.513726" rx="0.523004" ry="0.513726" transform="matrix(-0.496254 0.868177 0.863846 0.503755 116.601 115.287)" fill="#1C1F34"/>
<ellipse cx="0.523004" cy="0.513726" rx="0.523004" ry="0.513726" transform="matrix(-0.496256 0.868176 0.863847 0.503753 123.801 119.434)" fill="#1C1F34"/>
<ellipse cx="0.523004" cy="0.513726" rx="0.523004" ry="0.513726" transform="matrix(0.496254 0.868178 0.863846 -0.503756 116.082 119.952)" fill="#1C1F34"/>
<ellipse cx="0.523004" cy="0.513726" rx="0.523004" ry="0.513726" transform="matrix(0.496251 0.868179 0.863845 -0.503758 123.281 115.805)" fill="#1C1F34"/>
<g clip-path="url(#clip0_1266_18272)">
<path fill-rule="evenodd" clip-rule="evenodd" d="M104.6 81.1873H103.936V87.2224H104.6V81.1873ZM158.376 81.1877H157.712V83.8698H143.106V84.5411H157.712V87.2229H158.376V81.1877ZM119.205 84.5411V83.8698H104.6V84.5411H119.205Z" fill="#090A0A"/>
<path d="M129.098 80.7426C128.79 80.5282 128.268 80.3605 127.671 80.3605C125.805 80.3605 124.331 81.7491 124.331 84.2002C124.331 86.4183 125.646 87.2478 126.878 87.2478C128.137 87.2478 129.294 86.4369 129.294 85.0203C129.294 83.5665 128.333 82.7743 127.036 82.7743C126.141 82.7743 125.544 83.1937 125.273 83.641C125.32 82.2617 126.206 81.1899 127.615 81.1899C128.137 81.1899 128.566 81.3484 128.818 81.4882L129.098 80.7426ZM125.413 85.011C125.413 84.0884 126.104 83.5665 126.887 83.5665C127.68 83.5665 128.37 84.0884 128.37 85.011C128.37 85.9244 127.68 86.4556 126.887 86.4556C126.15 86.4556 125.413 85.915 125.413 85.011Z" fill="#090A0A"/>
<path d="M135.011 83.4173V82.6252H133.929V81.9169C133.929 81.2925 134.33 81.1527 134.638 81.1527C134.862 81.1527 134.974 81.1806 135.021 81.2086V80.4257C134.983 80.3978 134.797 80.3325 134.498 80.3325C133.687 80.3325 133.024 80.8637 133.024 81.8703V82.6252H132.194V83.4173H133.024V87.108H133.929V83.4173H135.011Z" fill="#090A0A"/>
<path d="M137.127 81.2086H136.324V81.9355C136.324 82.3363 136.119 82.6252 135.634 82.6252H135.392V83.4173H136.25V85.8778C136.25 86.6979 136.726 87.1546 137.5 87.1546C137.798 87.1546 138.022 87.0986 138.097 87.0707V86.3251C138.022 86.3531 137.864 86.3624 137.752 86.3624C137.295 86.3624 137.127 86.1573 137.127 85.7473V83.4173H138.097V82.6252H137.127V81.2086Z" fill="#090A0A"/>
</g>
<path fill-rule="evenodd" clip-rule="evenodd" d="M227.674 84.2606C227.674 84.2606 226.425 84.8337 225.127 84.8337C223.829 84.8337 222.953 84.0874 222.953 84.0874L222.784 86.1373V87.9038H227.879V86.1373L227.674 84.2606Z" fill="#FFD3B2"/>
<path fill-rule="evenodd" clip-rule="evenodd" d="M229.607 105.008H221.021L220.66 108.904L220.206 113.785L219.062 126.926C219.062 126.926 217.364 126.631 217.364 128.632H221.826L223.319 117.689L225.314 110.144L227.295 117.593L228.801 128.632H233.097C233.097 128.632 233.362 126.926 231.755 126.926C231.755 126.926 231.156 120.305 230.916 116.82C230.751 114.432 230.175 109.427 230.175 109.427L229.607 105.008Z" fill="#282E53"/>
<path fill-rule="evenodd" clip-rule="evenodd" d="M239.907 89.9558C239.907 89.9558 239.631 88.1411 239.145 87.1483C238.267 85.3534 236.288 82.6572 236.288 82.6572C236.087 82.4429 235.223 81.711 234.676 81.0683C234.128 80.4255 232.854 81.0607 232.854 81.0607L231.898 82.639L232.864 83.5473L234.872 84.7428C235.509 85.3301 235.026 85.1046 236.99 88.2323C236.99 88.2323 236.825 87.1879 236.061 87.1356C235.187 87.0757 233.774 87.1261 233.774 87.1261L234.526 92.0946C234.526 92.0946 235.955 92.2808 237.731 91.5657C239.507 90.8506 239.907 89.9558 239.907 89.9558Z" fill="#FFD3B2"/>
<path fill-rule="evenodd" clip-rule="evenodd" d="M216.929 89.8978C216.929 89.8978 218.127 87.7067 220.574 87.7067L222.784 87.216C222.784 87.216 223.791 87.6782 225.314 87.7067C226.838 87.6782 227.844 87.216 227.844 87.216L230.292 86.8807L231.147 87.3586C231.147 87.3586 231.83 87.6638 232.624 87.216C233.417 86.7683 234.458 86.8807 234.458 86.8807C234.22 89.0347 234.558 90.072 235.107 91.8591C235.107 91.8591 233.822 92.2394 233.169 92.2394C232.457 92.2394 231.147 92.1042 231.147 92.1042L230.054 99.1229L229.774 105.084C229.774 105.084 229.404 106.316 225.314 106.316C221.225 106.316 220.855 105.084 220.855 105.084L220.574 99.1229L219.79 93.9697V95.3758C219.79 95.3758 215.806 97.1312 215.806 94.4161L216.929 89.8978Z" fill="#434D9E"/>
<path d="M231.271 92.1059C233.739 92.4771 237.568 91.9253 239.631 90.2967C240.188 89.6184 239.284 87.3224 238.405 85.445C237.526 83.5675 236.595 83.1699 235.125 81.4907C233.425 79.5506 231.966 81.6688 231.863 82.2256C231.805 82.5345 231.891 83.03 232.3 83.4391C232.745 83.8838 234.432 84.4357 234.432 84.4357C235.985 84.4432 235.15 86.9973 237.225 88.4447" stroke="#1C1F34" stroke-width="0.832118" stroke-linecap="round" stroke-linejoin="round"/>
<path d="M232.986 83.3577C232.986 83.3577 233.126 82.0829 234.266 82.7666" stroke="#1C1F34" stroke-width="0.499271" stroke-linecap="round" stroke-linejoin="round"/>
<path fill-rule="evenodd" clip-rule="evenodd" d="M218.72 105.866C218.72 105.866 219.418 100.566 219.033 99.3446C219.033 99.3446 219.788 98.4932 219.743 95.1392C218.351 95.2268 216.969 95.0498 215.843 94.2441C215.71 94.9643 215.657 95.5802 215.66 96.1766C215.666 97.4481 215.723 98.4156 215.843 99.3615C216.173 101.963 216.769 107.584 216.769 107.584C216.769 107.584 217.174 110.055 218.45 110.868C219.725 111.681 220.866 110.839 220.415 109.636C219.964 108.432 219.966 107.69 219.966 107.69C219.966 107.69 220.403 108.827 220.344 108.084C220.285 107.34 218.72 105.866 218.72 105.866Z" fill="#FFD3B2"/>
<path fill-rule="evenodd" clip-rule="evenodd" d="M222.532 92.9013C222.412 92.9013 222.34 92.8571 222.34 92.7198V90.739C222.34 90.6947 222.302 90.6625 222.26 90.6694C222.134 90.6903 221.892 90.7298 221.787 90.7469L221.737 90.755C221.71 90.7595 221.681 90.7848 221.681 90.822L221.681 92.7995C221.681 93.4027 222.114 93.4598 222.357 93.4598C222.512 93.4598 222.62 93.4378 222.678 93.4218C222.712 93.4125 222.729 93.3844 222.729 93.3548V92.9595C222.729 92.9236 222.698 92.8822 222.65 92.8909C222.619 92.8966 222.579 92.9013 222.532 92.9013ZM226.6 91.2654C226.818 91.2447 226.958 91.2035 227.034 91.1796C227.08 91.1651 227.113 91.1973 227.122 91.2295L227.13 91.26C227.148 91.3222 227.188 91.4626 227.209 91.5483C227.219 91.5886 227.193 91.6182 227.166 91.6308C227.126 91.6491 227.067 91.6675 226.999 91.6862C227.074 91.8174 227.102 91.9575 227.102 92.0706C227.102 92.3926 226.904 92.83 226.176 92.83H226.109C225.957 92.83 225.828 92.8108 225.719 92.7775C225.692 92.8033 225.671 92.8388 225.671 92.8874C225.671 92.9725 225.74 93.0346 225.811 93.0346L226.379 93.0347C226.779 93.0347 227.129 93.2384 227.129 93.7763C227.129 94.2811 226.723 94.4845 226.143 94.4845C225.525 94.4845 225.158 94.2968 225.158 93.8064C225.158 93.5482 225.328 93.3384 225.328 93.3384C225.328 93.3384 225.17 93.2053 225.17 92.9458C225.17 92.7473 225.271 92.6114 225.345 92.5383C225.226 92.3943 225.184 92.2201 225.184 92.0706C225.184 91.7685 225.383 91.2732 226.143 91.272L226.152 91.2723C226.201 91.2737 226.443 91.2804 226.6 91.2654ZM228.809 91.2666C229.027 91.246 229.167 91.2047 229.243 91.1808C229.289 91.1663 229.322 91.1985 229.33 91.2307L229.339 91.2612C229.356 91.3234 229.396 91.4638 229.417 91.5495C229.427 91.5898 229.402 91.6194 229.374 91.632C229.334 91.6503 229.275 91.6687 229.207 91.6874C229.282 91.8186 229.31 91.9587 229.31 92.0718C229.31 92.3938 229.112 92.8312 228.385 92.8312H228.318C228.166 92.8312 228.037 92.812 227.928 92.7787C227.9 92.8045 227.88 92.84 227.88 92.8886C227.88 92.9737 227.949 93.0358 228.019 93.0358L228.587 93.0359C228.988 93.0359 229.338 93.2396 229.338 93.7775C229.338 94.2823 228.932 94.4858 228.351 94.4858C227.733 94.4858 227.366 94.298 227.366 93.8076C227.366 93.5494 227.537 93.3396 227.537 93.3396C227.537 93.3396 227.379 93.2065 227.379 92.947C227.379 92.7485 227.479 92.6126 227.553 92.5395C227.435 92.3955 227.392 92.2213 227.392 92.0718C227.392 91.7697 227.592 91.2744 228.351 91.2732L228.36 91.2735C228.41 91.2749 228.651 91.2817 228.809 91.2666ZM228.361 91.6691C228.196 91.6701 228.046 91.8044 228.046 92.0512C228.046 92.2814 228.169 92.431 228.35 92.4318C228.531 92.431 228.654 92.2814 228.654 92.0512C228.654 91.8044 228.526 91.6701 228.361 91.6691ZM228.752 93.7568C228.752 93.6161 228.674 93.5052 228.51 93.5052C228.232 93.5052 228.075 93.5055 228.075 93.5055C228.075 93.5055 227.972 93.6047 227.972 93.787C227.972 93.8985 228.035 94.0265 228.367 94.0265C228.688 94.0265 228.752 93.8843 228.752 93.7568ZM225.839 92.0513C225.839 91.8044 225.989 91.6701 226.153 91.6691C226.318 91.6701 226.446 91.8044 226.446 92.0513C226.446 92.2814 226.324 92.431 226.142 92.4318C225.961 92.431 225.839 92.2814 225.839 92.0513ZM226.544 93.7569C226.544 93.6161 226.466 93.5052 226.303 93.5052C226.024 93.5052 225.867 93.5055 225.867 93.5055C225.867 93.5055 225.764 93.6047 225.764 93.787C225.764 93.8985 225.827 94.0265 226.16 94.0265C226.481 94.0265 226.544 93.8843 226.544 93.7569ZM224.19 91.3766C224.19 91.3459 224.216 91.3109 224.258 91.3109H224.781C224.82 91.3109 224.849 91.3428 224.849 91.3779V93.3499C224.849 93.4024 224.806 93.421 224.783 93.421H224.338C224.298 93.421 224.278 93.3901 224.274 93.3712C224.27 93.3575 224.227 93.2061 224.204 93.1243C224.06 93.2639 223.808 93.4595 223.521 93.4595C223.067 93.4595 222.972 93.1304 222.972 92.791V91.3792C222.972 91.3373 223.007 91.3109 223.038 91.3109H223.562C223.6 91.3109 223.631 91.3409 223.631 91.3802V92.6781C223.631 92.8362 223.683 92.8952 223.8 92.8952C223.986 92.8952 224.142 92.735 224.189 92.6807L224.19 91.3766Z" fill="white"/>
<path fill-rule="evenodd" clip-rule="evenodd" d="M225.308 84.3096C221.698 84.3096 221.764 82.447 221.481 79.682C221.198 76.9171 222.662 75.8389 225.308 75.8389C227.955 75.8389 229.537 77.0485 229.269 79.682C229.001 82.3155 228.918 84.3096 225.308 84.3096Z" fill="#74605F" stroke="#1C1F34" stroke-width="0.832118"/>
<path d="M225.315 110.644L223.333 117.594L221.827 128.633H217.698C217.698 128.633 217.494 126.777 219.026 126.943L220.495 109.569L220.994 105.502L220.575 98.6754C220.575 98.6754 219.667 94.2068 219.667 91.4734" stroke="#1C1F34" stroke-width="0.832118" stroke-linecap="round" stroke-linejoin="round"/>
<path d="M220.853 127.459C220.38 127.159 219.287 126.966 217.988 127.459" stroke="#1C1F34" stroke-width="0.499271" stroke-linecap="round" stroke-linejoin="round"/>
<path d="M225.472 110.644L227.454 117.594L228.96 128.633H233.089C233.089 128.633 233.293 126.777 231.762 126.943L230.292 109.569L229.793 105.502L230.212 98.6754C230.212 98.6754 231.12 94.2068 231.12 91.4734" stroke="#1C1F34" stroke-width="0.832118" stroke-linecap="round" stroke-linejoin="round"/>
<path d="M229.933 127.459C230.406 127.159 231.499 126.966 232.797 127.459" stroke="#1C1F34" stroke-width="0.499271" stroke-linecap="round" stroke-linejoin="round"/>
<path d="M226.808 110.309H223.819" stroke="#1C1F34" stroke-width="0.499271" stroke-linecap="round" stroke-linejoin="round"/>
<path d="M222.995 87.4644C220.665 87.4644 219.392 88.1066 218.418 88.4598C217.444 88.813 216.688 90.5471 216.311 91.9958C215.843 93.7957 215.843 95.9393 215.843 98.8009C215.843 101.662 216.769 107.292 216.769 107.292C216.769 107.292 217.175 109.843 218.45 110.683C219.726 111.522 220.866 110.654 220.415 109.41C219.965 108.168 219.966 107.401 219.966 107.401C219.966 107.401 220.403 108.576 220.344 107.808C220.286 107.04 218.721 105.518 218.721 105.518C218.721 105.518 219.441 100.045 219.056 98.7834C219.056 98.7834 220.406 96.7282 219.73 93.0216" stroke="#1C1F34" stroke-width="0.832118" stroke-linecap="round" stroke-linejoin="round"/>
<path d="M222.544 87.2152C222.544 87.2152 222.954 86.4891 222.954 85.6128" stroke="#1C1F34" stroke-width="0.832118" stroke-linecap="round" stroke-linejoin="round"/>
<path d="M237.231 88.445C236.858 88.1989 236.55 86.9952 233.757 87.1379C232.955 87.1789 231.79 87.7359 231.79 87.7359C231.79 87.7359 230.677 87.1399 229.99 87.1399C228.75 87.1399 227.552 87.5519 227.552 87.5519" stroke="#1C1F34" stroke-width="0.832118" stroke-linecap="round" stroke-linejoin="round"/>
<path d="M228.084 87.2152C228.084 87.2152 227.675 86.4891 227.675 85.6128" stroke="#1C1F34" stroke-width="0.832118" stroke-linecap="round" stroke-linejoin="round"/>
<path d="M223.085 85.2235C222.738 84.9964 222.413 84.6579 222.201 84.1537C222.118 83.9558 221.927 82.987 221.779 81.9736" stroke="#1C1F34" stroke-width="0.998542" stroke-linecap="round" stroke-linejoin="round"/>
<path d="M227.662 85.2231C228.008 84.9958 228.332 84.657 228.544 84.1523C228.627 83.9546 228.811 82.9333 228.956 81.9041" stroke="#1C1F34" stroke-width="0.998542" stroke-linecap="round" stroke-linejoin="round"/>
<ellipse cx="3.48049" cy="3.8397" rx="3.48049" ry="3.8397" transform="matrix(-1 0 0 1 228.831 77.999)" fill="#FFD3B2"/>
<ellipse cx="0.504554" cy="1.00574" rx="0.504554" ry="1.00574" transform="matrix(0.990074 0.140547 -0.137812 0.990458 229.065 80.8391)" stroke="#1C1F34" stroke-width="0.832118" stroke-linecap="round" stroke-linejoin="round"/>
<ellipse cx="0.672766" cy="1.00576" rx="0.672766" ry="1.00576" transform="matrix(0.990074 0.140544 -0.137815 0.990458 228.399 80.7451)" fill="#FFD3B2"/>
<ellipse cx="0.504554" cy="1.00574" rx="0.504554" ry="1.00574" transform="matrix(-0.990075 0.140542 0.137817 0.990458 221.721 80.8396)" stroke="#1C1F34" stroke-width="0.832118" stroke-linecap="round" stroke-linejoin="round"/>
<ellipse cx="0.672766" cy="1.00576" rx="0.672766" ry="1.00576" transform="matrix(-0.990074 0.140544 0.137815 0.990458 222.387 80.7456)" fill="#FFD3B2"/>
<path fill-rule="evenodd" clip-rule="evenodd" d="M228.868 78.2266C228.533 77.4904 227.776 76.9089 227.776 76.9089C227.776 76.9089 227.25 77.828 227.501 78.0571C227.651 78.1949 228.23 78.8647 228.326 79.2614C228.581 80.3218 228.49 81.5601 228.515 81.8827C228.539 82.2052 228.594 82.2495 228.703 81.8827C228.765 81.6733 228.824 81.6001 228.868 80.9762C228.891 80.6466 229.112 80.6913 229.117 80.3391C229.124 79.9349 229.203 78.9628 228.868 78.2266Z" fill="#E07833"/>
<path fill-rule="evenodd" clip-rule="evenodd" d="M221.896 78.2266C222.231 77.4904 222.988 76.9089 222.988 76.9089C222.988 76.9089 223.514 77.828 223.264 78.0571C223.113 78.1949 222.534 78.8647 222.439 79.2614C222.183 80.3218 222.274 81.5601 222.249 81.8827C222.225 82.2052 222.17 82.2495 222.061 81.8827C221.999 81.6733 221.941 81.6001 221.896 80.9762C221.873 80.6466 221.652 80.6913 221.647 80.3391C221.641 79.9349 221.561 78.9628 221.896 78.2266Z" fill="#E07833"/>
<path d="M226.57 83.8706C226.57 83.8706 225.949 84.7226 224.198 84.1182" stroke="#1C1F34" stroke-width="0.499271" stroke-linecap="round" stroke-linejoin="round"/>
<path opacity="0.2" d="M224.348 85.5466C225.547 85.9862 224.952 85.9636 226.132 85.6545" stroke="#1C1F34" stroke-width="0.332847" stroke-linecap="round" stroke-linejoin="round"/>
<path fill-rule="evenodd" clip-rule="evenodd" d="M221.202 79.673C221.202 78.6644 221.202 75.488 225.232 75.488C229.261 75.488 229.43 78.3468 229.43 79.5553C229.43 80.1588 227.378 79.4346 225.324 79.4397C223.264 79.4449 221.202 80.178 221.202 79.673Z" fill="#434D9E" stroke="#1C1F34" stroke-width="0.832118"/>
<rect width="2.01826" height="1.00683" rx="0.332847" transform="matrix(-1 0 0 1 226.234 76.8286)" fill="white"/>
<path opacity="0.3" fill-rule="evenodd" clip-rule="evenodd" d="M221.437 80.4778C221.437 80.8926 223.432 80.1597 225.396 80.1684C227.36 80.177 229.43 80.9628 229.43 80.5129C229.43 80.0629 227.352 79.5183 225.396 79.5097C223.44 79.5011 221.437 80.0629 221.437 80.4778Z" fill="#1C1F34" stroke="#1C1F34" stroke-width="0.499271"/>
<path fill-rule="evenodd" clip-rule="evenodd" d="M220.764 80.0919C220.764 80.6281 223.011 79.6808 225.223 79.692C227.435 79.7031 229.766 80.7189 229.766 80.1372C229.766 79.5556 227.426 78.5164 225.223 78.5053C223.021 78.4942 220.764 79.5557 220.764 80.0919Z" fill="#434D9E" stroke="#1C1F34" stroke-width="0.499271"/>
<ellipse cx="0.671605" cy="0.335039" rx="0.671605" ry="0.335039" transform="matrix(-1 0 0 1 225.897 74.7502)" fill="#1C1F34"/>
</g>
<defs>
<linearGradient id="paint0_linear_1266_18272" x1="84.1326" y1="113.82" x2="83.9502" y2="111.755" gradientUnits="userSpaceOnUse">
<stop stop-color="#A4ACBC"/>
<stop offset="0.9859" stop-color="#B5BBCA"/>
</linearGradient>
<linearGradient id="paint1_linear_1266_18272" x1="201.527" y1="108.682" x2="201.527" y2="96.6114" gradientUnits="userSpaceOnUse">
<stop offset="0.0118583" stop-color="#1C1F34" stop-opacity="0.2"/>
<stop offset="1" stop-color="#1C1F34"/>
</linearGradient>
<linearGradient id="paint2_linear_1266_18272" x1="204.294" y1="78.9741" x2="204.294" y2="90.6749" gradientUnits="userSpaceOnUse">
<stop stop-color="#8388A4"/>
<stop offset="0.986707" stop-color="#A5A9C1"/>
</linearGradient>
<linearGradient id="paint3_linear_1266_18272" x1="242.739" y1="107.546" x2="242.739" y2="98.623" gradientUnits="userSpaceOnUse">
<stop stop-color="#A4ACBC"/>
<stop offset="0.9859" stop-color="#B5BBCA"/>
</linearGradient>
<linearGradient id="paint4_linear_1266_18272" x1="242.185" y1="100.361" x2="242.185" y2="105.692" gradientUnits="userSpaceOnUse">
<stop stop-color="#FFC900"/>
<stop offset="1" stop-color="#FFF15E"/>
</linearGradient>
<linearGradient id="paint5_linear_1266_18272" x1="175.097" y1="119.982" x2="175.097" y2="118.07" gradientUnits="userSpaceOnUse">
<stop stop-color="#A4ACBC"/>
<stop offset="0.9859" stop-color="#B5BBCA"/>
</linearGradient>
<linearGradient id="paint6_linear_1266_18272" x1="101.526" y1="115.371" x2="101.526" y2="111.43" gradientUnits="userSpaceOnUse">
<stop stop-color="#A4ACBC"/>
<stop offset="0.9859" stop-color="#B5BBCA"/>
</linearGradient>
<linearGradient id="paint7_linear_1266_18272" x1="11.1481" y1="10.8385" x2="11.1481" y2="0" gradientUnits="userSpaceOnUse">
<stop stop-color="#A4ACBC"/>
<stop offset="0.9859" stop-color="#B5BBCA"/>
</linearGradient>
<linearGradient id="paint8_linear_1266_18272" x1="11.1481" y1="10.8385" x2="11.1481" y2="0" gradientUnits="userSpaceOnUse">
<stop stop-color="#A4ACBC"/>
<stop offset="0.9859" stop-color="#B5BBCA"/>
</linearGradient>
<clipPath id="clip0_1266_18272">
<rect width="54.4398" height="12.0703" fill="white" transform="translate(103.935 77.8354)"/>
</clipPath>
</defs>
</svg>
