<svg fill="none" height="22" viewBox="0 0 64 22" width="64" xmlns="http://www.w3.org/2000/svg" xmlns:xlink="http://www.w3.org/1999/xlink"><linearGradient id="a"><stop offset="0" stop-color="#a4acbc"/><stop offset=".9859" stop-color="#b5bbca"/></linearGradient><linearGradient id="b" gradientUnits="userSpaceOnUse" x1="1.43116" x2="1.36032" xlink:href="#a" y1="15.3887" y2="14.5878"/><linearGradient id="c" gradientUnits="userSpaceOnUse" x1="46.9639" x2="46.9639" y1="13.3945" y2="8.70842"><stop offset=".0118583" stop-color="#1c1f34" stop-opacity=".2"/><stop offset="1" stop-color="#1c1f34"/></linearGradient><linearGradient id="d" gradientUnits="userSpaceOnUse" x1="48.0367" x2="48.0367" y1="1.85937" y2="6.40204"><stop offset="0" stop-color="#8388a4"/><stop offset=".986707" stop-color="#a5a9c1"/></linearGradient><linearGradient id="e" gradientUnits="userSpaceOnUse" x1="62.9478" x2="62.9478" xlink:href="#a" y1="12.9523" y2="9.48828"/><linearGradient id="f" gradientUnits="userSpaceOnUse" x1="62.7334" x2="62.7334" y1="10.1641" y2="12.234"><stop offset="0" stop-color="#ffc900"/><stop offset="1" stop-color="#fff15e"/></linearGradient><linearGradient id="g" gradientUnits="userSpaceOnUse" x1="36.713" x2="36.713" xlink:href="#a" y1="17.7814" y2="17.0391"/><linearGradient id="h" gradientUnits="userSpaceOnUse" x1="8.17718" x2="8.17718" xlink:href="#a" y1="15.9911" y2="14.4609"/><linearGradient id="i" gradientUnits="userSpaceOnUse" x1="4.32391" x2="4.32391" xlink:href="#a" y1="4.20788" y2="0"/><mask id="j" height="6" maskUnits="userSpaceOnUse" width="2" x="6" y="8"><path clip-rule="evenodd" d="m7.24389 11.1117c.02147-.6217.18513-2.11041.18513-2.11041.00948-.08796-.06629-.16221-.16849-.16582l-.24746-.00874c-.10253-.00362-.19345.06494-.2031.15462 0 0-.16296 1.47475-.18422 2.09035-.02896.8383.07805 2.7342.07805 2.7342.00478.0885.0921.1632.1943.1668l.24746.0087c.10254.0037.1817-.0649.17688-.1545 0 0-.1073-1.8829-.07855-2.7152z" fill="#fff" fill-rule="evenodd"/></mask><mask id="k" height="1" maskUnits="userSpaceOnUse" width="2" x="52" y="8"><path clip-rule="evenodd" d="m53.207 8.53655c0-.06441-.042-.11663-.0964-.11663h-.3911c-.0533 0-.0965.0541-.0965.11663 0 .06441.042.11662.0965.11662h.3911c.0533 0 .0964-.0541.0964-.11662z" fill="#fff" fill-rule="evenodd"/></mask><mask id="l" height="3" maskUnits="userSpaceOnUse" width="3" x="60" y="10"><path clip-rule="evenodd" d="m62.6854 10.1641h-2.5478l.4496 2.0699h2.1462z" fill="#fff" fill-rule="evenodd"/></mask><rect fill="#1c1f34" height=".520679" rx=".260339" transform="matrix(-1 0 0 1 60.2695 20.9434)" width="47.7222"/><rect fill="#1c1f34" height=".520679" rx=".260339" transform="matrix(-1 0 0 1 11.6562 20.9434)" width="4.40461"/><rect fill="#1c1f34" height=".520679" rx=".260339" transform="matrix(-1 0 0 1 63.502 20.9434)" width="1.545"/><g clip-rule="evenodd" fill-rule="evenodd"><path d="m7.67041 13.8045c-.01969-.2275-.21147-.3964-.42767-.3772l-6.05087.5352c-.216509.0191-.376038.2194-.356382.4465l.089313 1.0321c.019684.2275.211459.3964.427669.3772l6.05087-.5352c.21651-.0191.37604-.2194.35638-.4465z" fill="#1c1f34"/><path d="m7.83171 14.0335-6.63664.5689.05228.6349c.00994.1149.10443.2005.21519.1907l6.44055-.5697c.1089-.0096.18927-.1089.17917-.2256l-.03535-.4085c-.00995-.115-.10443-.2005-.2152-.1907z" fill="url(#b)"/><path d="m6.57293 15.4672s-.33162-2.919-.29057-4.3752c.0305-1.0818.47392-2.67684.47392-2.67684.13418-.53543 1.08472-.96948 1.63736-.96948h24.67296s0-1.04726 0-1.24765c0-3.54257.4172-4.78471.4172-4.78471.0994-.431315.5362-.804878.9729-.832081 0 0 6.7854-.4920313 9.5092.051121 2.7239.54315 7.8299 5.60009 7.8299 5.60009.0789.07705.2323.14933.3424.16169 0 0 9.7707 1.05154 10.3531 2.29871.5825 1.24716.7558 7.20745-.5824 8.17125s-53.80032.0249-53.80032.0249c-.76868-.0137-1.4579-.6485-1.53565-1.4218z" fill="#1c1f34"/><path d="m6.97007 15.4908s-.47165-2.9073-.43054-4.3528c.03055-1.074.5657-2.29149.5657-2.29149.19418-.51388.79592-.93047 1.34938-.93047h25.10829s0-1.43749 0-1.63642c0-3.51676.2598-4.34543.2598-4.34543.0767-.43179.4966-.80623.9343-.8339 0 0 6.5948-.487117 9.3227.05208 2.7279.53919 7.6447 5.5566 7.6447 5.5566.0776.07796.2313.14942.3408.15964 0 0 9.5853.8485 10.1687 2.08658.5833 1.23811.7569 6.95601-.5834 7.91281-1.3402.9567-53.08081.0251-53.08081.0251-.77086-.0139-1.48952-.6419-1.59962-1.4023z" fill="#fff"/><path d="m46.9523 9.20686.0096.18379c.0215.41433-.1254.5808-.6855 1.29475-.5601.714-.8067 2.2737-.8067 2.2737-.2323.2405-1.8846.4354-2.2253.4354h-2.367c-.339 0-.6115-.2684-.6085-.6009l.0296-3.47236c.003-.33188.2795-.60626.6168-.61282l5.5531.05838c.2543-.00495.471.19214.4839.44006z" fill="#fff"/><path d="m46.9523 9.20686.0096.18379c.0215.41433-.1254.5808-.6855 1.29475-.5601.714-.8067 2.2737-.8067 2.2737-.2323.2405-1.8846.4354-2.2253.4354h-2.367c-.339 0-.6115-.2684-.6085-.6009l.0296-3.47236c.003-.33188.2795-.60626.6168-.61282l5.5531.05838c.2543-.00495.471.19214.4839.44006z" fill="url(#c)" fill-opacity=".05"/><path d="m62.5865 9.36003s-4.0855-1.12698-6.5803-1.52247c-2.4947-.39548-5.3776-.37318-5.3776-.37318l-.027.19463s1.8968-.17865 5.3805.3736c3.4836.55225 6.5774 1.52206 6.5774 1.52206z" fill="#242d5f" opacity=".1"/><path d="m43.784 10.0098h-17.5878l-3.9523.1552h25.4924z" fill="#242d5f" opacity=".1"/><path d="m45.9346 13.6543h-21.115l1.6758.5207h17.4472z" fill="#242d5f" opacity=".1"/><path d="m48.433 7.58696c.6649.00899.9945-.47961.7354-1.09321l-.049-.11608c-.2156-.51039-.7074-1.23958-1.1058-1.62771 0 0-2.891-2.9458-3.9992-3.1391-1.1081-.1933-4.3081-.18897-4.3081-.18897-.4407-.00239-.7949.35549-.791.79791l.0388 4.43684c.0039.44307.3653.80709.8094.81309z" fill="#1c1f34"/><path d="m48.035 7.18431c.6632.0097.8863-.42193.5006-.9607l.1754.245c-.3222-.45004-.9018-1.13133-1.2994-1.51747 0 0-2.6901-2.74624-3.7982-2.93954-1.1081-.19329-3.8547-.14749-3.8547-.14749-.2193.00226-.3971.18272-.3971.40697v3.98414c0 .4431.3573.80752.7997.81399z" fill="url(#d)"/><path d="m37.2578 2.22109c0-.44355-.3594-.80312-.8024-.80312h-.8666c-.4432 0-.8447.35544-.8959.79545 0 0-.2405 1.96271-.2405 2.51686v2.10302c0 .44235.3582.80096.8002.80096h1.2051c.4419 0 .8001-.36109.8001-.80312z" fill="#1c1f34"/><g fill="#fff" opacity=".1"><path d="m36.5312 3.99895c.0359-.02847.0408-.0789.01-.1135l-.9144-1.02821c-.0304-.03421-.084-.03905-.1202-.01038-.036.02847-.0408.0789-.0101.1135l.9145 1.02821c.0304.03421.084.03906.1202.01038z"/><path d="m35.717 3.71704c.018-.01426.0207-.03914.0056-.05611l-.3566-.40103c-.0149-.01672-.0421-.01831-.0595-.00446-.0181.01426-.0208.03914-.0057.05611l.3566.40103c.0149.01673.0421.01831.0596.00446z"/></g><g fill="#fff" opacity=".1"><path d="m45.6032 4.76551-1.8565-2.07563c-.0565-.06311-.1567-.07136-.225-.0176-.0678.05339-.0759.14913-.0206.21094l1.8565 2.07563c.0564.06311.1567.07136.225.01759.0678-.05339.0758-.14912.0206-.21093z"/><path d="m44.2021 4.17721c.0339-.0267.0377-.07493.0099-.10599l-.7213-.80636c-.0284-.03184-.08-.03523-.1129-.00932-.0339.0267-.0376.07493-.0099.10599l.7213.80636c.0284.03184.08.03523.1129.00932z"/></g><path d="m39.764 8.63672c-.1667 0-.3019.13351-.3019.30079 0 .16613.1356.3008.3019.3008h1.1998c.1667 0 .3018-.13351.3018-.3008 0-.16612-.1355-.30079-.3018-.30079z" fill="#1c1f34"/><path d="m39.7434 2.80414c-.0126-.2122-.1962-.38422-.4104-.38422h.1154c-.214 0-.3874.17309-.3874.38422v1.43734c0 .2122.1717.38422.3864.38422h.0185c.2135 0 .3761-.17309.3635-.38422z" fill="#1c1f34"/><path d="m40.1781 5.61278c-.0636-.21222-.2943-.38426-.5169-.38426h-.1985c-.2218 0-.3662.17795-.3235.39139l.3226 1.61386h1.2023z" fill="#1c1f34"/><path d="m48.8691 6.73494c0-.17125-.3666-.69401-.3666-.69401l-.5613-.63859-2.6309 2.03072h3.1922s.3666-.40533.3666-.69812z" fill="#1c1f34"/><path d="m45.8573 7.24859-.0545.09835c-.0805.14534-.2626.19625-.4078.11571-.1462-.08109-.198-.26292-.118-.40736l.9732-1.75689c.0805-.14535.2626-.19626.4078-.11572.1462.0811.198.26292.118.40737l-.5291.95515.6593.53678-.2919.48616z" fill="#1c1f34"/><path d="m49.2748 7.22108c.0605-.65112-.3245-1.76826-.3245-1.76826-.0693-.22203-.3166-.4593-.5523-.52988l-.2585-.07745c-.2358-.07061-.4442.0582-.4658.29058l-.3128 3.36681c-.0215.23109.1613.43492.4064.45511l.4466.0368c.2459.02025.5184-.13995.6052-.35596 0 0 .4134-.96226.4557-1.41775z" fill="#242d5f" opacity=".1"/><path d="m49.2746 6.83033c.0487-.55633-.186-1.45631-.186-1.45631-.0498-.21569-.2589-.45214-.4665-.52788l.0087.00318c-.2078-.07585-.3919.04078-.4112.26076l-.2444 2.79552c-.0192.21986.1426.41363.3643.43304l.0998.00874c.2205.0193.4572-.13693.5259-.34649 0 0 .2754-.78137.3094-1.17056z" fill="#1c1f34"/><path d="m7.56201 11.0846c.02415-.6993.16252-2.08431.16252-2.08431.02534-.26482-.20315-.4883-.51283-.49924l-.08444-.00298c-.30856-.01089-.57964.19532-.60494.46141 0 0-.13754 1.36972-.16146 2.06232-.03257.9432.09813 2.7674.09813 2.7674.01738.2652.2805.489.59018.4999l.08444.003c.30856.0109.54405-.1957.52676-.4635 0 0-.13071-1.8076-.09836-2.744z" fill="#1c1f34"/><path d="m7.24389 11.1117c.02147-.6217.18513-2.11041.18513-2.11041.00948-.08796-.06629-.16221-.16849-.16582l-.24746-.00874c-.10253-.00362-.19345.06494-.2031.15462 0 0-.16296 1.47475-.18422 2.09035-.02896.8383.07805 2.7342.07805 2.7342.00478.0885.0921.1632.1943.1668l.24746.0087c.10254.0037.1817-.0649.17688-.1545 0 0-.1073-1.8829-.07855-2.7152z" fill="#c10000"/></g><g mask="url(#j)"><path clip-rule="evenodd" d="m6.86284 11.878-.23659.0042.04939 1.9294.27858-.0049z" fill="#fff" fill-rule="evenodd" opacity=".4"/></g><path clip-rule="evenodd" d="m53.4014 8.53681c0-.19292-.1311-.34931-.2916-.34931h-.3886c-.161 0-.2915.15505-.2915.34931 0 .19292.131.34931.2915.34931h.3886c.161 0 .2916-.15505.2916-.34931z" fill="#1c1f34" fill-rule="evenodd"/><path clip-rule="evenodd" d="m53.207 8.53655c0-.06441-.042-.11663-.0964-.11663h-.3911c-.0533 0-.0965.0541-.0965.11663 0 .06441.042.11662.0965.11662h.3911c.0533 0 .0964-.0541.0964-.11662z" fill="#f5a623" fill-rule="evenodd"/><g mask="url(#k)"><path clip-rule="evenodd" d="m53.4014 8.41992h-.3893v.23325h.3893z" fill="#fff" fill-rule="evenodd"/></g><path d="m0 0h33.5452v2.52275h-33.5452z" fill="#1c1f34" transform="matrix(-1 0 0 1 51.5986 14.957)"/><path clip-rule="evenodd" d="m38.4668.376953h-.515v16.401347h.515z" fill="#1c1f34" fill-rule="evenodd"/><path clip-rule="evenodd" d="m33.5742 7.66602h-.7725v9.63258h.7725z" fill="#1c1f34" fill-rule="evenodd"/><path clip-rule="evenodd" d="m49.7588 10.9853c1.4359-.9591.914-5.26181.914-5.26181l-.4914.03474s.8101 3.70727-.8551 5.12897-1.7045 6.5349-1.7045 6.5349l.3911-.0276s-.1195-4.7421 1.7459-6.4092z" fill="#1c1f34" fill-rule="evenodd"/><path clip-rule="evenodd" d="m52.1143 6.62476s-1.9602-1.96214-3.0391-2.84488c-.869-.71111-2.8046-1.93666-2.8046-1.93666l-.7017-.42525-.2241.04868c-.2137.04643-.2438.19064-.0716.3194 0 0 2.0424 1.51314 2.8773 2.25686.9084.80916 2.3303 2.42748 2.3303 2.42748z" fill="#1c1f34" fill-rule="evenodd"/><ellipse cx="5.57775" cy="3.34539" fill="#242d5f" opacity=".1" rx="5.57775" ry="3.34539" transform="matrix(-1 0 0 1 59.7139 11.1582)"/><ellipse cx="5.16032" cy="3.29396" fill="#1c1f34" rx="5.16032" ry="3.29396" transform="matrix(-1 0 0 1 59.3174 11.7617)"/><path clip-rule="evenodd" d="m63.0977 14.3485c.043-.4414-.2761-.7924-.7145-.7839l-3.7462.0726c-.4376.0085-.6585.3481-.4963.7622 0 0 .3979.9467.475 1.4119.1323.7984.0617 2.1855.0617 2.1855-.0081.2208.161.3788.3811.3525l2.1149-.2533c.8714-.1044 1.6476-.9061 1.734-1.7931z" fill="#1c1f34" fill-rule="evenodd"/><path clip-rule="evenodd" d="m57.6216 10.3012c-1.1019-.5512-2.4196-.5512-3.5221-.5512-1.0352 0-2.5014.00755-3.3569.4151-1.9452.9268-2.7797 2.956-2.7797 5.223.0796-2.1393.9244-4.026 2.7797-4.9099.8555-.4076 2.3217-.4151 3.3569-.4151 1.1025 0 1.3981-.14851 2.9971.2381 1.0366.2507 4.1222 1.7995.525 0z" fill="#242d5f" fill-rule="evenodd" opacity=".1"/><path clip-rule="evenodd" d="m63.3563 13.6541c.3568.0081.6259-.2461.6011-.5659l-.2629-3.38633c-.0248-.32064-.3289-.52692-.677-.46113l-.015.00283c-.349.06597-.6117.3805-.5869.7006l.2417 3.11393c.0249.3209.3337.5877.6913.5958z" fill="#1c1f34" fill-rule="evenodd"/><path clip-rule="evenodd" d="m63.4382 13.1319c.1558.0139.2733-.1037.2623-.2653l-.2153-3.15996c-.0109-.16039-.1403-.253-.2911-.20622l-.013.00404c-.1499.0465-.2625.21356-.2517.37206l.2004 2.94188c.0108.159.1463.2991.3017.3129z" fill="url(#e)" fill-rule="evenodd"/><path clip-rule="evenodd" d="m62.6923 9.75h-2.5723c-.2186 0-.3586.18128-.3132.4029l.4285 2.0921c.0456.2225.2594.4029.4789.4029h1.9776c.2188 0 .4089-.1857.4244-.4121l-.0563-2.0737c.0156-.22759-.1479-.4121-.3676-.4121z" fill="#1c1f34" fill-rule="evenodd"/><path clip-rule="evenodd" d="m62.6854 10.1641h-2.5478l.4496 2.0699h2.1462z" fill="url(#f)" fill-rule="evenodd"/><g mask="url(#l)"><ellipse cx=".296807" cy=".620977" fill="#fff" rx=".296807" ry=".620977" transform="matrix(-.999844 .0176446 .0172623 .999851 62.7871 10.5762)"/><path clip-rule="evenodd" d="m59.5537 9.95703h1.358l.1979 2.69097h-1.5559z" fill="#f00" fill-rule="evenodd" opacity=".2"/></g><path clip-rule="evenodd" d="m49.0082 17.3146c.0889.4225-.196.765-.6365.765h-11.878c-.4404 0-.6955-.3351-.5696-.749l.0195-.064c.1258-.4137.5865-.749 1.0251-.749h11.0745c.4403 0 .8694.3428.9582.765z" fill="#1c1f34" fill-rule="evenodd"/><path clip-rule="evenodd" d="m48.3379 17.8201h-11.5387c-.413 0-.4527-.1676-.3347-.3745l.0183-.032c.118-.2069.3505-.3745.7618-.3745h10.7853c.413 0 .6158.1714.6991.3825l.0064.016c.0833.2112.0157.3825-.3975.3825z" fill="url(#g)" fill-rule="evenodd"/><path clip-rule="evenodd" d="m6.94291 15.8601c-.06715-.4394.23584-.7956.67917-.7956h6.59402c.4423 0 .8008.361.8008.8062v1.0037c0 .4453-.3578.8062-.7977.8062h-6.20044c-.44053 0-.85198-.3555-.91922-.7956z" fill="#1c1f34" fill-rule="evenodd"/><path clip-rule="evenodd" d="m6.11978 14.6586c-.03602-.3314.20451-.6.53634-.6h1.36263c.33222 0 .60155.27.60155.6032v1.2086c0 .3331-.26872.6031-.59914.6031h-1.10498c-.3309 0-.62824-.2677-.66436-.6z" fill="#1c1f34" fill-rule="evenodd"/><path clip-rule="evenodd" d="m6.49735 14.6616c-.01228-.1108.06668-.2007.17791-.2007h1.3445c.11054 0 .20015.0912.20015.2007v1.2087c0 .1108-.0887.2006-.19837.2006h-1.16957c-.10956 0-.20848-.0912-.22062-.2006z" fill="url(#h)" fill-rule="evenodd"/><ellipse cx="15.6165" cy="14.3845" fill="#242d5f" opacity=".1" rx="5.59696" ry="3.34539"/><path clip-rule="evenodd" d="m19.4029 9.77974c-.9612-.49014-2.6009-.55122-3.786-.55122-1.1127 0-2.6888.00754-3.6084.41511-2.09099.92677-2.98799 2.95597-2.98799 5.22297.08554-2.1393.99369-4.026 2.98799-4.90989.9196-.40756 2.4957-.41511 3.6084-.41511 1.1851 0 2.8248.06108 3.786.5512 1.8986.9682 2.7299 2.5579 2.8049 4.6093.0056-2.2036-.8112-3.9057-2.8049-4.92236z" fill="#242d5f" fill-rule="evenodd" opacity=".1"/><ellipse cx="15.6161" cy="14.8064" fill="#1c1f34" rx="5.19718" ry="3.16379"/><ellipse cx="4.43381" cy="4.42738" fill="#1c1f34" rx="4.43381" ry="4.42738" transform="matrix(-1 0 0 1 58.2939 12.6133)"/><ellipse cx="2.2169" cy="2.21368" fill="url(#i)" rx="2.2169" ry="2.21368" transform="matrix(-1 0 0 1 56.0771 14.8262)"/><ellipse cx="1.62909" cy="1.62672" fill="#242d5f" opacity=".2" rx="1.62909" ry="1.62672" transform="matrix(-1 0 0 1 55.4893 15.4141)"/><ellipse cx="1.00768" cy="1.00622" fill="#1c1f34" rx="1.00768" ry="1.00622" transform="matrix(-1 0 0 1 54.8672 16.0352)"/><ellipse cx=".201867" cy=".201575" fill="#1c1f34" rx=".201867" ry=".201575" transform="matrix(-1 0 0 1 54.0615 15.2305)"/><ellipse cx=".201867" cy=".201575" fill="#1c1f34" rx=".201867" ry=".201575" transform="matrix(-1 0 0 1 54.0615 18.4492)"/><ellipse cx=".203539" cy=".199928" fill="#1c1f34" rx=".203539" ry=".199928" transform="matrix(-.495889 .868386 .863632 .504123 52.3926 15.959)"/><ellipse cx=".203539" cy=".199928" fill="#1c1f34" rx=".203539" ry=".199928" transform="matrix(-.495889 .868386 .863632 .504123 55.1846 17.5703)"/><ellipse cx=".203539" cy=".199928" fill="#1c1f34" rx=".203539" ry=".199928" transform="matrix(.495889 .868386 .863632 -.504123 52.1904 17.7715)"/><ellipse cx=".203539" cy=".199928" fill="#1c1f34" rx=".203539" ry=".199928" transform="matrix(.495886 .868387 .863631 -.504125 54.9834 16.1602)"/><ellipse cx="4.43381" cy="4.42738" fill="#1c1f34" rx="4.43381" ry="4.42738" transform="matrix(-1 0 0 1 19.9268 12.6133)"/><ellipse cx="2.2169" cy="2.21368" fill="url(#i)" rx="2.2169" ry="2.21368" transform="matrix(-1 0 0 1 17.71 14.8262)"/><ellipse cx="1.62909" cy="1.62672" fill="#242d5f" opacity=".2" rx="1.62909" ry="1.62672" transform="matrix(-1 0 0 1 17.1221 15.4141)"/><ellipse cx="1.00768" cy="1.00622" fill="#1c1f34" rx="1.00768" ry="1.00622" transform="matrix(-1 0 0 1 16.5 16.0352)"/><ellipse cx=".201867" cy=".201575" fill="#1c1f34" rx=".201867" ry=".201575" transform="matrix(-1 0 0 1 15.6943 15.2305)"/><ellipse cx=".201867" cy=".201575" fill="#1c1f34" rx=".201867" ry=".201575" transform="matrix(-1 0 0 1 15.6943 18.4492)"/><ellipse cx=".203539" cy=".199928" fill="#1c1f34" rx=".203539" ry=".199928" transform="matrix(-.495891 .868385 .863634 .50412 14.0254 15.959)"/><ellipse cx=".203539" cy=".199928" fill="#1c1f34" rx=".203539" ry=".199928" transform="matrix(-.495893 .868384 .863635 .504118 16.8174 17.5703)"/><ellipse cx=".203539" cy=".199928" fill="#1c1f34" rx=".203539" ry=".199928" transform="matrix(.495891 .868385 .863633 -.50412 13.8232 17.7715)"/><ellipse cx=".203539" cy=".199928" fill="#1c1f34" rx=".203539" ry=".199928" transform="matrix(.495889 .868386 .863632 -.504123 16.6152 16.1602)"/></svg>