<svg width="327" height="136" viewBox="0 0 327 136" fill="none" xmlns="http://www.w3.org/2000/svg">
<mask id="mask0_1266_18529" style="mask-type:alpha" maskUnits="userSpaceOnUse" x="0" y="0" width="327" height="136">
<rect width="326.923" height="136" fill="white"/>
</mask>
<g mask="url(#mask0_1266_18529)">
<g opacity="0.03">
<path fill-rule="evenodd" clip-rule="evenodd" d="M295.983 52.1265V130.909V52.1265Z" stroke="#1F2857" stroke-width="0.750061" stroke-linecap="round" stroke-linejoin="round"/>
<path d="M39.3218 77.0561V77.0561C36.0677 73.9295 30.9626 73.9295 27.7088 77.0561C24.4547 73.9295 19.3496 73.9295 16.0954 77.0561V77.0561C12.8413 73.9295 7.73654 73.9295 4.48242 77.0561V127.465" stroke="#1F2857" stroke-width="0.750061" stroke-linecap="round" stroke-linejoin="round"/>
<path d="M27.7085 77.0564V80.3962" stroke="#1F2857" stroke-width="0.750061" stroke-linecap="round" stroke-linejoin="round"/>
<path d="M39.5825 119.162H140.864" stroke="#1F2857" stroke-width="0.750061" stroke-linecap="round" stroke-linejoin="round"/>
<path d="M139.596 107.416H142.328" stroke="#ECECF2" stroke-width="0.750061" stroke-linecap="round" stroke-linejoin="round"/>
<path d="M137.903 95.668H154.49" stroke="#ECECF2" stroke-width="0.750061" stroke-linecap="round" stroke-linejoin="round"/>
<path d="M137.903 83.9214H154.49" stroke="#ECECF2" stroke-width="0.750061" stroke-linecap="round" stroke-linejoin="round"/>
<path d="M192.677 83.9214H200.242" stroke="#1F2857" stroke-width="0.750061" stroke-linecap="round" stroke-linejoin="round"/>
<path d="M137.903 72.1743H154.49" stroke="#1F2857" stroke-width="0.750061" stroke-linecap="round" stroke-linejoin="round"/>
<path d="M137.903 60.4275H200.242" stroke="#1F2857" stroke-width="0.750061" stroke-linecap="round" stroke-linejoin="round"/>
<path d="M39.5825 107.416H48.1083" stroke="#1F2857" stroke-width="0.750061" stroke-linecap="round" stroke-linejoin="round"/>
<path d="M39.5825 95.668H49.8017" stroke="#1F2857" stroke-width="0.750061" stroke-linecap="round" stroke-linejoin="round"/>
<path d="M39.5825 83.9214H49.8017" stroke="#1F2857" stroke-width="0.750061" stroke-linecap="round" stroke-linejoin="round"/>
<path d="M39.5825 72.1743H49.8017" stroke="#1F2857" stroke-width="0.750061" stroke-linecap="round" stroke-linejoin="round"/>
<path d="M39.5825 60.4275H49.8017" stroke="#1F2857" stroke-width="0.750061" stroke-linecap="round" stroke-linejoin="round"/>
<path d="M148.122 100.527V52.1265H39.5825V130.911" stroke="#1F2857" stroke-width="0.750061" stroke-linecap="round" stroke-linejoin="round"/>
<path fill-rule="evenodd" clip-rule="evenodd" d="M151.188 46.5408H36.9146V49.7383C36.9146 51.0573 37.9716 52.1261 39.2752 52.1261H148.827C150.131 52.1261 151.188 51.0573 151.188 49.7383V46.5408Z" stroke="#1F2857" stroke-width="0.750061" stroke-linecap="round" stroke-linejoin="round"/>
<path d="M148.122 52.1261H296.323C297.627 52.1261 298.684 51.0569 298.684 49.7383V46.5408H151.188" stroke="#1F2857" stroke-width="0.750061" stroke-linecap="round" stroke-linejoin="round"/>
<path fill-rule="evenodd" clip-rule="evenodd" d="M94.0511 33.5256L36.9146 46.5404H151.188L94.0511 33.5256Z" stroke="#1F2857" stroke-width="0.750061" stroke-linecap="round" stroke-linejoin="round"/>
<path d="M298.684 46.5408L193.347 22.6855L119.69 39.3664" stroke="#1F2857" stroke-width="0.750061" stroke-linecap="round" stroke-linejoin="round"/>
<path fill-rule="evenodd" clip-rule="evenodd" d="M49.8018 104.75H137.903V57.9924H49.8018V104.75Z" stroke="#1F2857" stroke-width="0.750061" stroke-linecap="round" stroke-linejoin="round"/>
<path d="M6.47212 130.841H0" stroke="#1F2857" stroke-width="0.750061" stroke-linecap="round" stroke-linejoin="round"/>
<path d="M16.0957 77.0564V81.1601" stroke="#1F2857" stroke-width="0.750061" stroke-linecap="round" stroke-linejoin="round"/>
<path d="M9.59229 130.911H347.962" stroke="#1F2857" stroke-width="0.750061" stroke-linecap="round" stroke-linejoin="round"/>
<path fill-rule="evenodd" clip-rule="evenodd" d="M49.1301 114.923H138.574L139.937 104.75H47.7676L49.1301 114.923Z" stroke="#1F2857" stroke-width="0.750061" stroke-linecap="round" stroke-linejoin="round"/>
<path d="M52.5273 104.75V60.7485H92.4903V104.659" stroke="#1F2857" stroke-width="0.750061" stroke-linecap="round" stroke-linejoin="round"/>
<path d="M95.2148 104.659V60.7485H135.178V104.75" stroke="#1F2857" stroke-width="0.750061" stroke-linecap="round" stroke-linejoin="round"/>
<path d="M58.9961 67.6516L52.5273 74.1948" stroke="#1F2857" stroke-width="0.750061" stroke-linecap="round" stroke-linejoin="round"/>
<path d="M55.5897 66.6174L52.5273 69.715" stroke="#1F2857" stroke-width="0.750061" stroke-linecap="round" stroke-linejoin="round"/>
<path d="M128.424 60.7485L119.69 69.5824" stroke="#1F2857" stroke-width="0.750061" stroke-linecap="round" stroke-linejoin="round"/>
<path d="M132.736 60.7485L128.079 65.4601" stroke="#1F2857" stroke-width="0.750061" stroke-linecap="round" stroke-linejoin="round"/>
<path d="M189.953 130.909V68.729H157.215V109.519" stroke="#1F2857" stroke-width="0.750061" stroke-linecap="round" stroke-linejoin="round"/>
<path d="M192.678 130.909V65.9727H154.49V108.682" stroke="#1F2857" stroke-width="0.750061" stroke-linecap="round" stroke-linejoin="round"/>
<path fill-rule="evenodd" clip-rule="evenodd" d="M163.425 96.7266C163.425 95.8373 162.713 95.1165 161.833 95.1165C160.954 95.1165 160.242 95.8373 160.242 96.7266C160.242 97.6159 160.954 98.3367 161.833 98.3367C162.713 98.3367 163.425 97.6159 163.425 96.7266Z" stroke="#1F2857" stroke-width="0.750061" stroke-linecap="round" stroke-linejoin="round"/>
<path d="M192.677 119.162H295.983" stroke="#1F2857" stroke-width="0.750061" stroke-linecap="round" stroke-linejoin="round"/>
<path d="M192.677 72.1743H200.242" stroke="#1F2857" stroke-width="0.750061" stroke-linecap="round" stroke-linejoin="round"/>
<path d="M192.677 95.668H200.242" stroke="#1F2857" stroke-width="0.750061" stroke-linecap="round" stroke-linejoin="round"/>
<path d="M192.677 107.416H198.564" stroke="#ECECF2" stroke-width="0.750061" stroke-linecap="round" stroke-linejoin="round"/>
<path d="M95.2148 98.2201L98.4202 94.9778" stroke="#1F2857" stroke-width="0.750061" stroke-linecap="round" stroke-linejoin="round"/>
<path fill-rule="evenodd" clip-rule="evenodd" d="M200.242 104.75H288.343V57.9924H200.242V104.75Z" stroke="#1F2857" stroke-width="0.750061" stroke-linecap="round" stroke-linejoin="round"/>
<path fill-rule="evenodd" clip-rule="evenodd" d="M199.571 114.923H289.015L290.377 104.75H198.208L199.571 114.923Z" stroke="#1F2857" stroke-width="0.750061" stroke-linecap="round" stroke-linejoin="round"/>
<path d="M202.967 104.75V60.7485H242.93V104.659" stroke="#1F2857" stroke-width="0.750061" stroke-linecap="round" stroke-linejoin="round"/>
<path d="M245.655 104.659V60.7485H285.618V104.75" stroke="#1F2857" stroke-width="0.750061" stroke-linecap="round" stroke-linejoin="round"/>
<path d="M232.274 60.8904L227.508 65.7108" stroke="#1F2857" stroke-width="0.750061" stroke-linecap="round" stroke-linejoin="round"/>
<path d="M227.578 60.8931L220.037 68.5209" stroke="#1F2857" stroke-width="0.750061" stroke-linecap="round" stroke-linejoin="round"/>
<path d="M245.655 98.2201L248.86 94.9778" stroke="#1F2857" stroke-width="0.750061" stroke-linecap="round" stroke-linejoin="round"/>
<path fill-rule="evenodd" clip-rule="evenodd" d="M31.8413 115.561H14.6963V117.726L15.9151 117.728L16.9861 130.837H29.4759L30.5469 117.711L31.8413 117.726V115.561Z" fill="#39437C"/>
<path fill-rule="evenodd" clip-rule="evenodd" d="M31.8413 115.561H14.6963V117.833L15.9151 117.835L16.9861 131.593H29.4759L30.5469 117.817L31.8413 117.833V115.561Z" stroke="#1F2857" stroke-width="0.750061" stroke-linecap="round" stroke-linejoin="round"/>
<path d="M15.9155 117.729C16.1955 117.755 30.5473 117.729 30.5473 117.729" stroke="#1F2857" stroke-width="0.750061" stroke-linecap="round" stroke-linejoin="round"/>
<path fill-rule="evenodd" clip-rule="evenodd" d="M17.5475 115.561C17.5475 115.561 14.6156 112.015 15.5425 107.794C16.4693 103.573 17.3666 102.165 16.1992 99.4191C15.0318 96.673 14.928 93.3449 17.0947 93.3449C19.2615 93.3449 19.6833 94.3189 19.6833 94.3189C19.6833 94.3189 15.7874 88.4745 18.6654 84.4969C21.5435 80.5193 26.713 80.9252 29.4418 85.1464C32.1707 89.3673 33.2788 95.752 32.0716 98.6476C30.8644 101.543 33.3261 112.908 33.3261 112.908L30.3418 115.561H17.5475Z" fill="#39437C"/>
<path fill-rule="evenodd" clip-rule="evenodd" d="M17.5475 115.561C17.5475 115.561 14.6156 112.015 15.5425 107.794C16.4693 103.573 17.3666 102.165 16.1992 99.4191C15.0318 96.673 14.928 93.3449 17.0947 93.3449C19.2615 93.3449 19.6833 94.3189 19.6833 94.3189C19.6833 94.3189 15.7874 88.4745 18.6654 84.4969C21.5435 80.5193 26.713 80.9252 29.4418 85.1464C32.1707 89.3673 33.2788 95.752 32.0716 98.6476C30.8644 101.543 33.3261 112.908 33.3261 112.908L30.3418 115.561H17.5475Z" stroke="#1F2857" stroke-width="0.750061" stroke-linecap="round" stroke-linejoin="round"/>
<path d="M24.4741 115.561C24.4741 115.561 22.1193 108.896 23.2679 103.921C24.4165 98.9459 26.2308 93.9929 25.0286 90.1379" stroke="#1F2857" stroke-width="0.750061" stroke-linecap="round" stroke-linejoin="round"/>
<path d="M28.0558 93.9131C28.0558 93.9131 27.239 96.0563 25.0957 96.2427" stroke="#1F2857" stroke-width="0.750061" stroke-linecap="round" stroke-linejoin="round"/>
<path fill-rule="evenodd" clip-rule="evenodd" d="M20.7476 100.712L23.1569 102.85L20.7476 100.712Z" fill="white"/>
<path d="M20.7476 100.712L23.1569 102.85" stroke="#1F2857" stroke-width="0.750061" stroke-linecap="round" stroke-linejoin="round"/>
<path fill-rule="evenodd" clip-rule="evenodd" d="M25.7929 109.905L23.5981 112.367L25.7929 109.905Z" fill="white"/>
<path d="M25.7929 109.905L23.5981 112.367" stroke="#1F2857" stroke-width="0.750061" stroke-linecap="round" stroke-linejoin="round"/>
<path fill-rule="evenodd" clip-rule="evenodd" d="M39.5994 121.539C39.5994 121.539 41.9284 118.49 41.7679 115.06C41.6075 111.629 38.4518 110.759 39.5994 107.664C40.747 104.568 41.68 100.312 39.3487 98.8615C37.0177 97.4105 33.5752 97.4605 31.3757 99.4668C29.1762 101.473 28.2592 105.342 29.4828 108.147C30.7064 110.952 30.4175 113.854 28.9361 116.078C27.455 118.303 28.9361 121.539 28.9361 121.539" fill="#39437C"/>
<path d="M39.5994 121.539C39.5994 121.539 41.9284 118.49 41.7679 115.06C41.6075 111.629 38.4518 110.759 39.5994 107.664C40.747 104.568 41.68 100.312 39.3487 98.8615C37.0177 97.4105 33.5752 97.4605 31.3757 99.4668C29.1762 101.473 28.2592 105.342 29.4828 108.147C30.7064 110.952 30.4175 113.854 28.9361 116.078C27.455 118.303 28.9361 121.539 28.9361 121.539" stroke="#1F2857" stroke-width="0.750061" stroke-linecap="round" stroke-linejoin="round"/>
<path fill-rule="evenodd" clip-rule="evenodd" d="M41.1234 121.539H27.5483V123.704L28.7675 123.706L29.4815 130.911H39.115L39.829 123.688L41.1234 123.704V121.539Z" fill="#39437C"/>
<path fill-rule="evenodd" clip-rule="evenodd" d="M41.1234 121.539H27.5483V123.878L28.7675 123.88L29.4815 131.667H39.115L39.829 123.862L41.1234 123.878V121.539Z" stroke="#1F2857" stroke-width="0.750061" stroke-linecap="round" stroke-linejoin="round"/>
<path d="M34.2119 121.539C34.2119 121.539 35.7141 118.013 35.0271 110.856C34.3403 103.698 35.2069 102.731 35.2069 102.731" stroke="#1F2857" stroke-width="0.750061" stroke-linecap="round" stroke-linejoin="round"/>
<path d="M32.9058 115.498L35.2068 117.336L37.4001 115.498" stroke="#1F2857" stroke-width="0.750061" stroke-linecap="round" stroke-linejoin="round"/>
<path d="M32.9058 104.114L34.7091 105.343" stroke="#1F2857" stroke-width="0.750061" stroke-linecap="round" stroke-linejoin="round"/>
<path d="M28.7671 123.706C29.0471 123.732 39.8286 123.706 39.8286 123.706" stroke="#1F2857" stroke-width="0.750061" stroke-linecap="round" stroke-linejoin="round"/>
<path d="M145.846 129.19C145.846 129.19 142.044 126.469 141.047 122.516C140.049 118.563 141.84 117.55 143.243 117.825C144.646 118.1 146.288 115.775 144.975 113.259C143.662 110.743 141.493 105.8 143.524 103.131C145.556 100.461 148.679 100.213 150.669 101.613C152.658 103.012 153.594 106.549 153.885 107.593C154.597 110.145 156.345 107.959 157.318 109.519C157.902 110.456 159.202 113.388 158.881 117.714C158.196 126.954 153.855 129.609 153.855 129.609" stroke="#1F2857" stroke-width="0.750061" stroke-linecap="round" stroke-linejoin="round"/>
<path d="M150.127 128.586C150.127 128.586 151.147 124.947 150.995 118.766C150.842 112.586 148.556 107.86 148.556 107.86" stroke="#1F2857" stroke-width="0.750061" stroke-linecap="round" stroke-linejoin="round"/>
<path d="M154.5 114.427C154.5 114.427 153.695 118.334 151.24 120.338" stroke="#1F2857" stroke-width="0.750061" stroke-linecap="round" stroke-linejoin="round"/>
<path d="M147.793 123.615C147.793 123.615 149.548 125.322 150.691 125.663" stroke="#1F2857" stroke-width="0.750061" stroke-linecap="round" stroke-linejoin="round"/>
<path d="M143.049 130.909C143.049 130.909 145.556 128.854 147.878 128.58C150.199 128.307 152.893 129.023 154.1 129.745C155.307 130.467 155.493 130.909 155.493 130.909" stroke="#1F2857" stroke-width="0.750061" stroke-linecap="round" stroke-linejoin="round"/>
<path d="M157.215 130.911V125.044" stroke="#1F2857" stroke-width="0.750061" stroke-linecap="round" stroke-linejoin="round"/>
<path d="M331.086 127.281V77.7573C327.832 74.6307 322.727 74.6307 319.473 77.7573C316.219 74.6307 311.114 74.6307 307.86 77.7573C304.606 74.6307 299.501 74.6307 296.247 77.7573" stroke="#1F2857" stroke-width="0.750061" stroke-linecap="round" stroke-linejoin="round"/>
<path d="M307.861 124.962V130.983" stroke="#1F2857" stroke-width="0.750061" stroke-linecap="round" stroke-linejoin="round"/>
<path d="M319.451 77.7576V84.9365" stroke="#1F2857" stroke-width="0.750061" stroke-linecap="round" stroke-linejoin="round"/>
<path d="M0.698242 40.2353H6.5906C6.5906 40.2353 3.78476 35.1665 7.01162 31.7278C10.2385 28.2887 10.6592 35.9814 10.6592 35.9814C10.6592 35.9814 11.0802 27.1007 15.5695 26.1762C20.0591 25.2521 22.6241 35.9435 15.7497 40.2353H22.0232" stroke="#1F2857" stroke-width="0.750061" stroke-linecap="round" stroke-linejoin="round"/>
<path d="M24.5684 40.2354H25.4937" stroke="#1F2857" stroke-width="0.750061" stroke-linecap="round" stroke-linejoin="round"/>
<path d="M341.927 50.5808H335.74C335.74 50.5808 340.097 45.2583 337.665 41.6473C335.233 38.0364 332.651 46.1142 332.651 46.1142C332.651 46.1142 334.68 36.7887 330.222 35.8184C325.766 34.8481 320.098 46.0743 326.123 50.5808H319.536" stroke="#1F2857" stroke-width="0.750061" stroke-linecap="round" stroke-linejoin="round"/>
<path d="M316.86 50.5803H315.889" stroke="#1F2857" stroke-width="0.750061" stroke-linecap="round" stroke-linejoin="round"/>
<path d="M111.321 20.3997H112.571" stroke="#1F2857" stroke-width="0.750061" stroke-linecap="round" stroke-linejoin="round"/>
<path d="M288.343 60.4275H295.983" stroke="#1F2857" stroke-width="0.750061" stroke-linecap="round" stroke-linejoin="round"/>
<path d="M288.343 72.1743H295.983" stroke="#1F2857" stroke-width="0.750061" stroke-linecap="round" stroke-linejoin="round"/>
<path d="M288.343 83.9214H295.983" stroke="#1F2857" stroke-width="0.750061" stroke-linecap="round" stroke-linejoin="round"/>
<path d="M288.343 95.668H295.983" stroke="#1F2857" stroke-width="0.750061" stroke-linecap="round" stroke-linejoin="round"/>
<path d="M290.021 107.416H295.983" stroke="#1F2857" stroke-width="0.750061" stroke-linecap="round" stroke-linejoin="round"/>
</g>
<rect width="123.04" height="1.34244" rx="0.671222" transform="matrix(-1 0 0 1 235.832 128.128)" fill="#1C1F34"/>
<rect width="11.3562" height="1.34244" rx="0.671222" transform="matrix(-1 0 0 1 110.494 128.128)" fill="#1C1F34"/>
<rect width="3.9834" height="1.34244" rx="0.671222" transform="matrix(-1 0 0 1 244.167 128.128)" fill="#1C1F34"/>
<path fill-rule="evenodd" clip-rule="evenodd" d="M100.219 109.741C100.169 109.155 99.6741 108.719 99.1167 108.769L83.5164 110.146C82.9582 110.196 82.5469 110.711 82.5976 111.297L82.8281 113.956C82.8789 114.542 83.3734 114.977 83.9308 114.928L99.5312 113.55C100.089 113.501 100.501 112.985 100.45 112.4L100.219 109.741Z" fill="#1C1F34"/>
<path fill-rule="evenodd" clip-rule="evenodd" d="M100.636 110.328L83.5246 111.793L83.6596 113.43C83.6852 113.726 83.9289 113.947 84.2145 113.921L100.82 112.455C101.101 112.43 101.308 112.174 101.282 111.873L101.191 110.82C101.165 110.523 100.921 110.303 100.636 110.328Z" fill="url(#paint0_linear_1266_18529)"/>
<path fill-rule="evenodd" clip-rule="evenodd" d="M97.3897 114.022C97.3897 114.022 96.5347 106.503 96.6406 102.753C96.7192 99.966 97.8624 95.8576 97.8624 95.8576C98.2084 94.4784 100.659 93.3604 102.084 93.3604H165.697C165.697 93.3604 165.697 90.6629 165.697 90.1468C165.697 81.0219 166.773 77.8225 166.773 77.8225C167.029 76.7115 168.155 75.7493 169.281 75.6793C169.281 75.6793 186.776 74.4119 193.799 75.8109C200.821 77.21 213.986 90.2354 213.986 90.2354C214.189 90.4339 214.585 90.6201 214.869 90.6519C214.869 90.6519 240.06 93.3604 241.562 96.5728C243.063 99.7852 243.51 115.137 240.06 117.62C236.61 120.102 101.349 117.684 101.349 117.684C99.3672 117.649 97.5902 116.014 97.3897 114.022Z" fill="#1C1F34"/>
<path fill-rule="evenodd" clip-rule="evenodd" d="M98.4128 114.08C98.4128 114.08 97.1967 106.592 97.3027 102.868C97.3815 100.102 98.7612 96.9662 98.7612 96.9662C99.2619 95.6426 100.813 94.5696 102.24 94.5696H166.976C166.976 94.5696 166.976 90.8669 166.976 90.3545C166.976 81.2962 167.646 79.1617 167.646 79.1617C167.843 78.0496 168.926 77.0851 170.055 77.0138C170.055 77.0138 187.058 75.7591 194.091 77.148C201.124 78.5368 213.801 91.4604 213.801 91.4604C214.001 91.6612 214.397 91.8453 214.68 91.8716C214.68 91.8716 239.393 94.0572 240.897 97.2461C242.401 100.435 242.849 115.163 239.393 117.628C235.938 120.092 102.537 117.692 102.537 117.692C100.55 117.657 98.6966 116.039 98.4128 114.08Z" fill="white"/>
<path fill-rule="evenodd" clip-rule="evenodd" d="M201.499 97.8952L201.523 98.3686C201.579 99.4358 201.2 99.8646 199.756 101.704C198.312 103.543 197.676 107.56 197.676 107.56C197.077 108.18 192.817 108.682 191.939 108.682H185.836C184.962 108.682 184.259 107.99 184.267 107.134L184.343 98.1898C184.351 97.335 185.064 96.6283 185.934 96.6114L200.251 96.7617C200.907 96.749 201.465 97.2566 201.499 97.8952Z" fill="white"/>
<path fill-rule="evenodd" clip-rule="evenodd" d="M201.499 97.8952L201.523 98.3686C201.579 99.4358 201.2 99.8646 199.756 101.704C198.312 103.543 197.676 107.56 197.676 107.56C197.077 108.18 192.817 108.682 191.939 108.682H185.836C184.962 108.682 184.259 107.99 184.267 107.134L184.343 98.1898C184.351 97.335 185.064 96.6283 185.934 96.6114L200.251 96.7617C200.907 96.749 201.465 97.2566 201.499 97.8952Z" fill="url(#paint1_linear_1266_18529)" fill-opacity="0.05"/>
<path opacity="0.1" fill-rule="evenodd" clip-rule="evenodd" d="M241.806 98.2938C241.806 98.2938 231.273 95.3909 224.841 94.3723C218.408 93.3536 210.976 93.411 210.976 93.411L210.906 93.9124C210.906 93.9124 215.797 93.4522 224.778 94.8747C233.76 96.2971 241.736 98.7951 241.736 98.7951L241.806 98.2938Z" fill="#242D5F"/>
<path opacity="0.1" fill-rule="evenodd" clip-rule="evenodd" d="M193.33 99.9641H147.984L137.794 100.364H203.52L193.33 99.9641Z" fill="#242D5F"/>
<path opacity="0.1" fill-rule="evenodd" clip-rule="evenodd" d="M198.873 109.352H144.433L148.754 110.695H193.737L198.873 109.352Z" fill="#242D5F"/>
<path fill-rule="evenodd" clip-rule="evenodd" d="M205.315 93.726C207.03 93.7491 207.879 92.4906 207.211 90.9101L207.085 90.6111C206.529 89.2965 205.261 87.4183 204.234 86.4185C204.234 86.4185 196.78 78.8309 193.923 78.333C191.066 77.8351 182.816 77.8462 182.816 77.8462C181.679 77.8401 180.766 78.7619 180.776 79.9015L180.876 91.3297C180.886 92.4709 181.818 93.4085 182.963 93.424L205.315 93.726Z" fill="#1C1F34"/>
<path fill-rule="evenodd" clip-rule="evenodd" d="M204.29 92.6901C206 92.7151 206.575 91.6033 205.581 90.2156L206.033 90.8466C205.202 89.6874 203.708 87.9326 202.683 86.938C202.683 86.938 195.747 79.8644 192.89 79.3665C190.033 78.8686 182.951 78.9866 182.951 78.9866C182.386 78.9924 181.928 79.4572 181.928 80.0348L181.928 90.297C181.928 91.4383 182.849 92.377 183.989 92.3936L204.29 92.6901Z" fill="url(#paint2_linear_1266_18529)"/>
<path fill-rule="evenodd" clip-rule="evenodd" d="M176.503 79.9038C176.503 78.7614 175.576 77.8352 174.434 77.8352H172.2C171.057 77.8352 170.022 78.7507 169.89 79.8841C169.89 79.8841 169.27 84.9396 169.27 86.3669V91.7838C169.27 92.9232 170.193 93.8469 171.333 93.8469H174.44C175.579 93.8469 176.503 92.9168 176.503 91.7782V79.9038Z" fill="#1C1F34"/>
<g opacity="0.1">
<path fill-rule="evenodd" clip-rule="evenodd" d="M174.631 84.4845C174.723 84.4112 174.736 84.2813 174.657 84.1922L172.299 81.5437C172.221 81.4556 172.082 81.4431 171.989 81.517C171.896 81.5903 171.884 81.7202 171.963 81.8094L174.321 84.4578C174.399 84.5459 174.537 84.5584 174.631 84.4845Z" fill="white"/>
<path fill-rule="evenodd" clip-rule="evenodd" d="M172.532 83.7531C172.578 83.7165 172.585 83.6525 172.547 83.6089L171.63 82.5785C171.592 82.5355 171.522 82.5314 171.477 82.567C171.431 82.6036 171.424 82.6675 171.463 82.7112L172.379 83.7416C172.417 83.7846 172.487 83.7887 172.532 83.7531Z" fill="white"/>
</g>
<g opacity="0.1">
<path fill-rule="evenodd" clip-rule="evenodd" d="M198.02 86.4574L193.233 81.111C193.088 80.9485 192.829 80.9272 192.653 81.0657C192.478 81.2032 192.457 81.4498 192.6 81.609L197.386 86.9554C197.532 87.1179 197.79 87.1392 197.967 87.0007C198.141 86.8632 198.162 86.6166 198.02 86.4574Z" fill="white"/>
<path fill-rule="evenodd" clip-rule="evenodd" d="M194.405 84.9397C194.493 84.8709 194.502 84.7467 194.431 84.6667L192.571 82.5897C192.498 82.5077 192.365 82.499 192.28 82.5657C192.193 82.6345 192.183 82.7587 192.255 82.8387L194.114 84.9157C194.188 84.9977 194.321 85.0064 194.405 84.9397Z" fill="white"/>
</g>
<path fill-rule="evenodd" clip-rule="evenodd" d="M182.964 96.4299C182.534 96.4299 182.186 96.7738 182.186 97.2047C182.186 97.6326 182.535 97.9795 182.964 97.9795H186.057C186.487 97.9795 186.835 97.6356 186.835 97.2047C186.835 96.7768 186.486 96.4299 186.057 96.4299H182.964Z" fill="#1C1F34"/>
<path fill-rule="evenodd" clip-rule="evenodd" d="M182.913 81.4076C182.88 80.861 182.407 80.418 181.855 80.418H182.152C181.6 80.418 181.153 80.8638 181.153 81.4076V85.1099C181.153 85.6564 181.596 86.0995 182.15 86.0995H182.197C182.748 86.0995 183.167 85.6537 183.134 85.1099L182.913 81.4076Z" fill="#1C1F34"/>
<path fill-rule="evenodd" clip-rule="evenodd" d="M184.034 88.6389C183.87 88.0923 183.275 87.6492 182.701 87.6492H182.189C181.617 87.6492 181.245 88.1075 181.355 88.6573L182.187 92.8142H185.287L184.034 88.6389Z" fill="#1C1F34"/>
<path fill-rule="evenodd" clip-rule="evenodd" d="M206.439 91.5316C206.439 91.0905 205.494 89.744 205.494 89.744L204.046 88.0991L197.263 93.3297H205.494C205.494 93.3297 206.439 92.2857 206.439 91.5316Z" fill="#1C1F34"/>
<path fill-rule="evenodd" clip-rule="evenodd" d="M198.677 92.8529L198.537 93.1062C198.329 93.4806 197.86 93.6117 197.486 93.4043C197.109 93.1954 196.975 92.7271 197.181 92.355L199.69 87.8297C199.898 87.4553 200.367 87.3242 200.742 87.5316C201.119 87.7405 201.252 88.2088 201.046 88.5809L199.682 91.0411L201.382 92.4238L200.629 93.676L198.677 92.8529Z" fill="#1C1F34"/>
<path opacity="0.1" fill-rule="evenodd" clip-rule="evenodd" d="M207.486 92.7847C207.642 91.1075 206.649 88.2301 206.649 88.2301C206.471 87.6582 205.833 87.047 205.225 86.8652L204.559 86.6657C203.951 86.4839 203.413 86.8156 203.358 87.4142L202.551 96.0863C202.496 96.6815 202.967 97.2065 203.599 97.2585L204.751 97.3533C205.385 97.4055 206.087 96.9928 206.311 96.4365C206.311 96.4365 207.377 93.9579 207.486 92.7847Z" fill="#242D5F"/>
<path fill-rule="evenodd" clip-rule="evenodd" d="M207.485 91.7782C207.611 90.3452 207.006 88.0271 207.006 88.0271C206.877 87.4715 206.338 86.8625 205.803 86.6674L205.825 86.6756C205.29 86.4802 204.815 86.7806 204.765 87.3472L204.135 94.5478C204.086 95.1141 204.503 95.6132 205.074 95.6632L205.332 95.6857C205.9 95.7354 206.511 95.3331 206.688 94.7933C206.688 94.7933 207.398 92.7806 207.485 91.7782Z" fill="#1C1F34"/>
<path fill-rule="evenodd" clip-rule="evenodd" d="M99.938 102.736C100 100.934 100.357 97.367 100.357 97.367C100.422 96.6848 99.8334 96.1092 99.035 96.081L98.8173 96.0733C98.0219 96.0453 97.323 96.5765 97.2578 97.2618C97.2578 97.2618 96.9032 100.79 96.8416 102.574C96.7576 105.003 97.0945 109.702 97.0945 109.702C97.1393 110.385 97.8176 110.962 98.6159 110.99L98.8336 110.997C99.6291 111.025 100.236 110.493 100.192 109.804C100.192 109.804 99.8547 105.148 99.938 102.736Z" fill="#1C1F34"/>
<path fill-rule="evenodd" clip-rule="evenodd" d="M99.1169 102.806C99.1723 101.204 99.5943 97.3697 99.5943 97.3697C99.6187 97.1431 99.4234 96.9518 99.16 96.9426L98.5222 96.9201C98.2579 96.9108 98.0236 97.0874 97.9987 97.3184C97.9987 97.3184 97.5786 101.117 97.5237 102.703C97.449 104.862 97.7246 109.745 97.7246 109.745C97.7369 109.973 97.962 110.166 98.2254 110.175L98.8632 110.197C99.1275 110.207 99.3315 110.03 99.3191 109.799C99.3191 109.799 99.0427 104.949 99.1169 102.806Z" fill="#C10000"/>
<mask id="mask1_1266_18529" style="mask-type:alpha" maskUnits="userSpaceOnUse" x="97" y="96" width="3" height="15">
<path fill-rule="evenodd" clip-rule="evenodd" d="M99.1169 102.806C99.1723 101.204 99.5943 97.3697 99.5943 97.3697C99.6187 97.1431 99.4234 96.9518 99.16 96.9426L98.5222 96.9201C98.2579 96.9108 98.0236 97.0874 97.9987 97.3184C97.9987 97.3184 97.5786 101.117 97.5237 102.703C97.449 104.862 97.7246 109.745 97.7246 109.745C97.7369 109.973 97.962 110.166 98.2254 110.175L98.8632 110.197C99.1275 110.207 99.3315 110.03 99.3191 109.799C99.3191 109.799 99.0427 104.949 99.1169 102.806Z" fill="white"/>
</mask>
<g mask="url(#mask1_1266_18529)">
<path opacity="0.4" fill-rule="evenodd" clip-rule="evenodd" d="M98.1339 104.781L97.5237 104.792L97.6508 109.762L98.3693 109.749L98.1339 104.781Z" fill="white"/>
</g>
<path fill-rule="evenodd" clip-rule="evenodd" d="M218.125 96.1707C218.125 95.6738 217.788 95.271 217.374 95.271H216.372C215.957 95.271 215.62 95.6704 215.62 96.1707C215.62 96.6676 215.958 97.0705 216.372 97.0705H217.374C217.789 97.0705 218.125 96.6711 218.125 96.1707Z" fill="#1C1F34"/>
<path fill-rule="evenodd" clip-rule="evenodd" d="M217.625 96.1708C217.625 96.0051 217.517 95.8708 217.377 95.8708H216.371C216.234 95.8708 216.123 96.01 216.123 96.1708C216.123 96.3365 216.231 96.4708 216.371 96.4708H217.377C217.514 96.4708 217.625 96.3316 217.625 96.1708Z" fill="#F5A623"/>
<mask id="mask2_1266_18529" style="mask-type:alpha" maskUnits="userSpaceOnUse" x="216" y="95" width="2" height="2">
<path fill-rule="evenodd" clip-rule="evenodd" d="M217.625 96.1708C217.625 96.0051 217.517 95.8708 217.377 95.8708H216.371C216.234 95.8708 216.123 96.01 216.123 96.1708C216.123 96.3365 216.231 96.4708 216.371 96.4708H217.377C217.514 96.4708 217.625 96.3316 217.625 96.1708Z" fill="white"/>
</mask>
<g mask="url(#mask2_1266_18529)">
<path fill-rule="evenodd" clip-rule="evenodd" d="M218.125 95.8708H217.125V96.4702H218.125V95.8708Z" fill="white"/>
</g>
<rect width="86.4883" height="6.49801" transform="matrix(-1 0 0 1 213.478 112.705)" fill="#1C1F34"/>
<path fill-rule="evenodd" clip-rule="evenodd" d="M179.62 75.1531H178.292V117.399H179.62V75.1531Z" fill="#1C1F34"/>
<path fill-rule="evenodd" clip-rule="evenodd" d="M167.005 93.9285H165.014V118.74H167.005V93.9285Z" fill="#1C1F34"/>
<path fill-rule="evenodd" clip-rule="evenodd" d="M208.734 102.475C212.436 100.005 211.09 88.9221 211.09 88.9221L209.823 89.0115C209.823 89.0115 211.912 98.5606 207.619 102.223C203.325 105.884 203.224 119.055 203.224 119.055L204.232 118.984C204.232 118.984 203.924 106.769 208.734 102.475Z" fill="#1C1F34"/>
<path fill-rule="evenodd" clip-rule="evenodd" d="M214.807 91.2466C214.807 91.2466 209.753 86.1926 206.971 83.9189C204.731 82.0873 199.74 78.9305 199.74 78.9305L197.931 77.8352L197.353 77.9606C196.802 78.0802 196.725 78.4516 197.169 78.7833C197.169 78.7833 202.435 82.6808 204.587 84.5964C206.929 86.6806 210.595 90.849 210.595 90.849L214.807 91.2466Z" fill="#1C1F34"/>
<ellipse opacity="0.1" cx="14.3809" cy="8.61692" rx="14.3809" ry="8.61692" transform="matrix(-1 0 0 1 234.4 102.922)" fill="#242D5F"/>
<ellipse cx="13.3046" cy="8.48445" rx="13.3046" ry="8.48445" transform="matrix(-1 0 0 1 233.376 104.477)" fill="#1C1F34"/>
<path fill-rule="evenodd" clip-rule="evenodd" d="M243.124 111.139C243.235 110.002 242.412 109.098 241.282 109.12L231.623 109.307C230.495 109.328 229.925 110.203 230.343 111.27C230.343 111.27 231.369 113.708 231.568 114.906C231.909 116.963 231.727 120.536 231.727 120.536C231.706 121.105 232.142 121.512 232.71 121.444L238.163 120.791C240.409 120.522 242.411 118.457 242.633 116.173L243.124 111.139Z" fill="#1C1F34"/>
<path opacity="0.1" fill-rule="evenodd" clip-rule="evenodd" d="M229.005 100.713C226.164 99.2935 222.766 99.2935 219.924 99.2935C217.255 99.2935 213.474 99.3129 211.269 100.363C206.254 102.75 204.102 107.976 204.102 113.816C204.307 108.305 206.486 103.446 211.269 101.169C213.474 100.119 217.255 100.1 219.924 100.1C222.766 100.1 223.529 99.7174 227.651 100.713C230.324 101.359 238.279 105.348 229.005 100.713Z" fill="#242D5F"/>
<path fill-rule="evenodd" clip-rule="evenodd" d="M243.792 109.352C244.712 109.373 245.406 108.718 245.342 107.895L244.664 99.1721C244.6 98.3462 243.816 97.8149 242.918 97.9844L242.88 97.9917C241.98 98.1616 241.302 98.9717 241.366 99.7962L241.99 107.817C242.054 108.644 242.85 109.331 243.772 109.352L243.792 109.352Z" fill="#1C1F34"/>
<path fill-rule="evenodd" clip-rule="evenodd" d="M244.004 108.008C244.405 108.044 244.708 107.741 244.68 107.325L244.125 99.1855C244.097 98.7724 243.763 98.5338 243.374 98.6543L243.341 98.6647C242.954 98.7845 242.664 99.2148 242.692 99.623L243.208 107.201C243.236 107.61 243.586 107.971 243.986 108.007L244.004 108.008Z" fill="url(#paint3_linear_1266_18529)"/>
<path fill-rule="evenodd" clip-rule="evenodd" d="M242.079 99.2935H235.447C234.884 99.2935 234.523 99.7604 234.64 100.331L235.745 105.72C235.862 106.293 236.413 106.758 236.979 106.758H242.078C242.642 106.758 243.133 106.28 243.172 105.696L243.027 100.355C243.067 99.7687 242.646 99.2935 242.079 99.2935Z" fill="#1C1F34"/>
<path fill-rule="evenodd" clip-rule="evenodd" d="M242.062 100.361H235.493L236.652 105.693H242.186L242.062 100.361Z" fill="url(#paint4_linear_1266_18529)"/>
<mask id="mask3_1266_18529" style="mask-type:alpha" maskUnits="userSpaceOnUse" x="235" y="100" width="8" height="6">
<path fill-rule="evenodd" clip-rule="evenodd" d="M242.062 100.361H235.493L236.652 105.693H242.186L242.062 100.361Z" fill="white"/>
</mask>
<g mask="url(#mask3_1266_18529)">
<ellipse cx="0.765244" cy="1.59949" rx="0.765244" ry="1.59949" transform="matrix(-0.999845 0.0176275 0.017279 0.999851 242.324 101.422)" fill="white"/>
<path opacity="0.2" fill-rule="evenodd" clip-rule="evenodd" d="M233.988 99.8269H237.489L237.999 106.758H233.988V99.8269Z" fill="#FF0000"/>
</g>
<path fill-rule="evenodd" clip-rule="evenodd" d="M206.798 118.781C207.027 119.869 206.293 120.752 205.157 120.752H174.533C173.397 120.752 172.739 119.889 173.064 118.822L173.114 118.657C173.438 117.592 174.626 116.728 175.757 116.728H204.31C205.445 116.728 206.552 117.611 206.781 118.699L206.798 118.781Z" fill="#1C1F34"/>
<path fill-rule="evenodd" clip-rule="evenodd" d="M205.07 120.081H175.32C174.255 120.081 174.153 119.65 174.457 119.117L174.504 119.034C174.809 118.501 175.408 118.07 176.469 118.07H204.276C205.341 118.07 205.864 118.511 206.078 119.055L206.095 119.096C206.31 119.64 206.135 120.081 205.07 120.081Z" fill="url(#paint5_linear_1266_18529)"/>
<path fill-rule="evenodd" clip-rule="evenodd" d="M98.3429 115.034C98.1697 113.902 98.9509 112.985 100.094 112.985H117.095C118.235 112.985 119.16 113.915 119.16 115.061V117.646C119.16 118.793 118.237 119.723 117.103 119.723H101.117C99.9809 119.723 98.9201 118.807 98.7467 117.674L98.3429 115.034Z" fill="#1C1F34"/>
<path fill-rule="evenodd" clip-rule="evenodd" d="M96.2211 111.938C96.1283 111.085 96.7484 110.393 97.6039 110.393H101.117C101.974 110.393 102.668 111.088 102.668 111.946V115.059C102.668 115.917 101.975 116.613 101.123 116.613H98.2744C97.4213 116.613 96.6547 115.923 96.5615 115.067L96.2211 111.938Z" fill="#1C1F34"/>
<path fill-rule="evenodd" clip-rule="evenodd" d="M97.1956 111.947C97.164 111.661 97.3675 111.43 97.6543 111.43H101.121C101.406 111.43 101.637 111.665 101.637 111.947V115.06C101.637 115.345 101.408 115.577 101.125 115.577H98.1099C97.8275 115.577 97.5724 115.342 97.5411 115.06L97.1956 111.947Z" fill="url(#paint6_linear_1266_18529)"/>
<ellipse opacity="0.1" cx="120.706" cy="111.234" rx="14.4304" ry="8.61692" fill="#242D5F"/>
<path opacity="0.1" fill-rule="evenodd" clip-rule="evenodd" d="M130.467 99.372C127.989 98.1095 123.761 97.9521 120.706 97.9521C117.837 97.9521 113.773 97.9716 111.403 99.0214C106.011 101.409 103.699 106.635 103.699 112.475C103.919 106.964 106.261 102.105 111.403 99.8278C113.773 98.778 117.837 98.7586 120.706 98.7586C123.761 98.7586 127.989 98.9159 130.467 100.178C135.362 102.672 137.506 106.767 137.699 112.051C137.713 106.375 135.608 101.991 130.467 99.372Z" fill="#242D5F"/>
<ellipse cx="120.706" cy="112.322" rx="13.3997" ry="8.14916" fill="#1C1F34"/>
<ellipse cx="11.4315" cy="11.4039" rx="11.4315" ry="11.4039" transform="matrix(-1 0 0 1 230.74 106.67)" fill="#1C1F34"/>
<ellipse cx="5.71575" cy="5.70191" rx="5.71575" ry="5.70191" transform="matrix(-1 0 0 1 225.024 112.372)" fill="url(#paint7_linear_1266_18529)"/>
<ellipse opacity="0.2" cx="4.20022" cy="4.19005" rx="4.20022" ry="4.19005" transform="matrix(-1 0 0 1 223.509 113.884)" fill="#242D5F"/>
<ellipse cx="2.59806" cy="2.59178" rx="2.59806" ry="2.59178" transform="matrix(-1 0 0 1 221.906 115.482)" fill="#1C1F34"/>
<ellipse cx="0.518708" cy="0.517957" rx="0.518708" ry="0.517957" transform="matrix(-1 0 0 1 219.828 113.409)" fill="#1C1F34"/>
<ellipse cx="0.518708" cy="0.517957" rx="0.518708" ry="0.517957" transform="matrix(-1 0 0 1 219.828 121.702)" fill="#1C1F34"/>
<ellipse cx="0.523004" cy="0.513726" rx="0.523004" ry="0.513726" transform="matrix(-0.496251 0.868179 0.863845 0.503758 215.523 115.287)" fill="#1C1F34"/>
<ellipse cx="0.523004" cy="0.513726" rx="0.523004" ry="0.513726" transform="matrix(-0.496251 0.868179 0.863845 0.503758 222.723 119.434)" fill="#1C1F34"/>
<ellipse cx="0.523004" cy="0.513726" rx="0.523004" ry="0.513726" transform="matrix(0.496251 0.868179 0.863845 -0.503758 215.003 119.953)" fill="#1C1F34"/>
<ellipse cx="0.523004" cy="0.513726" rx="0.523004" ry="0.513726" transform="matrix(0.496249 0.86818 0.863844 -0.50376 222.203 115.806)" fill="#1C1F34"/>
<ellipse cx="11.4315" cy="11.4039" rx="11.4315" ry="11.4039" transform="matrix(-1 0 0 1 131.818 106.67)" fill="#1C1F34"/>
<ellipse cx="5.71575" cy="5.70191" rx="5.71575" ry="5.70191" transform="matrix(-1 0 0 1 126.103 112.372)" fill="url(#paint8_linear_1266_18529)"/>
<ellipse opacity="0.2" cx="4.20022" cy="4.19005" rx="4.20022" ry="4.19005" transform="matrix(-1 0 0 1 124.587 113.884)" fill="#242D5F"/>
<ellipse cx="2.59806" cy="2.59178" rx="2.59806" ry="2.59178" transform="matrix(-1 0 0 1 122.984 115.482)" fill="#1C1F34"/>
<ellipse cx="0.518708" cy="0.517957" rx="0.518708" ry="0.517957" transform="matrix(-1 0 0 1 120.906 113.409)" fill="#1C1F34"/>
<ellipse cx="0.518708" cy="0.517957" rx="0.518708" ry="0.517957" transform="matrix(-1 0 0 1 120.906 121.702)" fill="#1C1F34"/>
<ellipse cx="0.523004" cy="0.513726" rx="0.523004" ry="0.513726" transform="matrix(-0.496254 0.868177 0.863846 0.503755 116.603 115.287)" fill="#1C1F34"/>
<ellipse cx="0.523004" cy="0.513726" rx="0.523004" ry="0.513726" transform="matrix(-0.496256 0.868176 0.863847 0.503753 123.802 119.434)" fill="#1C1F34"/>
<ellipse cx="0.523004" cy="0.513726" rx="0.523004" ry="0.513726" transform="matrix(0.496254 0.868178 0.863846 -0.503756 116.083 119.952)" fill="#1C1F34"/>
<ellipse cx="0.523004" cy="0.513726" rx="0.523004" ry="0.513726" transform="matrix(0.496251 0.868179 0.863845 -0.503758 123.282 115.805)" fill="#1C1F34"/>
<g clip-path="url(#clip0_1266_18529)">
<path fill-rule="evenodd" clip-rule="evenodd" d="M104.601 81.1877H103.938V87.2229H104.601V81.1877ZM158.377 81.1882H157.713V83.8704H143.107V84.5416H157.713V87.2234H158.377V81.1882ZM119.207 84.5416V83.8704H104.601V84.5416H119.207Z" fill="#090A0A"/>
<path d="M129.1 80.7428C128.792 80.5285 128.269 80.3607 127.672 80.3607C125.806 80.3607 124.333 81.7494 124.333 84.2005C124.333 86.4185 125.648 87.248 126.879 87.248C128.139 87.248 129.295 86.4372 129.295 85.0206C129.295 83.5667 128.335 82.7745 127.038 82.7745C126.142 82.7745 125.545 83.1939 125.275 83.6413C125.321 82.2619 126.208 81.1902 127.616 81.1902C128.139 81.1902 128.568 81.3486 128.82 81.4884L129.1 80.7428ZM125.415 85.0113C125.415 84.0886 126.105 83.5667 126.889 83.5667C127.682 83.5667 128.372 84.0886 128.372 85.0113C128.372 85.9246 127.682 86.4558 126.889 86.4558C126.152 86.4558 125.415 85.9153 125.415 85.0113Z" fill="#090A0A"/>
<path d="M135.013 83.4176V82.6254H133.931V81.9171C133.931 81.2927 134.332 81.1529 134.64 81.1529C134.863 81.1529 134.975 81.1809 135.022 81.2088V80.426C134.985 80.398 134.798 80.3328 134.5 80.3328C133.688 80.3328 133.026 80.864 133.026 81.8705V82.6254H132.195V83.4176H133.026V87.1082H133.931V83.4176H135.013Z" fill="#090A0A"/>
<path d="M137.128 81.2088H136.326V81.9358C136.326 82.3365 136.121 82.6254 135.636 82.6254H135.393V83.4176H136.251V85.878C136.251 86.6981 136.727 87.1548 137.501 87.1548C137.8 87.1548 138.024 87.0989 138.098 87.0709V86.3253C138.024 86.3533 137.865 86.3626 137.753 86.3626C137.296 86.3626 137.128 86.1576 137.128 85.7475V83.4176H138.098V82.6254H137.128V81.2088Z" fill="#090A0A"/>
</g>
<path fill-rule="evenodd" clip-rule="evenodd" d="M197.913 84.2601C197.913 84.2601 199.166 84.8333 200.469 84.8333C201.771 84.8333 202.65 84.0869 202.65 84.0869L202.82 86.1368V87.9034H197.707V86.1368L197.913 84.2601Z" fill="#A1694D"/>
<path fill-rule="evenodd" clip-rule="evenodd" d="M195.972 105.007H204.59L204.951 108.904L205.407 113.785L206.555 126.926C206.555 126.926 208.259 126.631 208.259 128.632H203.781L202.283 117.689L200.281 110.144L198.292 117.593L196.781 128.632H192.47C192.47 128.632 192.204 126.926 193.816 126.926C193.816 126.926 194.418 120.305 194.659 116.819C194.825 114.432 195.403 109.427 195.403 109.427L195.972 105.007Z" fill="#282E53"/>
<path fill-rule="evenodd" clip-rule="evenodd" d="M208.697 89.8981C208.697 89.8981 207.495 87.707 205.038 87.707L202.82 87.2163C202.82 87.2163 201.81 87.6785 200.281 87.707C198.752 87.6785 197.742 87.2163 197.742 87.2163L195.274 87.707C193.319 88.5185 192.565 89.246 192.565 89.246C192.565 89.246 191.992 90.4611 191.449 90.8425C191.034 91.1335 190.595 94.4164 190.595 94.4164C190.955 97.2923 196.904 95.8679 194.813 95.5654L194.428 93.5091L195.525 99.1232L195.806 105.085C195.806 105.085 196.177 106.316 200.281 106.316C204.385 106.316 204.757 105.085 204.757 105.085L205.038 99.1232L205.825 93.97V95.3761C205.825 95.3761 209.824 97.1315 209.824 94.4164L208.697 89.8981Z" fill="#434D9E"/>
<path fill-rule="evenodd" clip-rule="evenodd" d="M206.897 105.866C206.897 105.866 206.197 100.566 206.583 99.3449C206.583 99.3449 205.826 98.4934 205.871 95.1394C207.268 95.2271 208.655 95.05 209.785 94.2444C209.918 94.9645 209.972 95.5804 209.969 96.1769C209.963 97.4484 209.906 98.4158 209.785 99.3617C209.454 101.963 208.856 107.584 208.856 107.584C208.856 107.584 208.449 110.055 207.169 110.868C205.889 111.681 204.745 110.84 205.197 109.636C205.649 108.432 205.648 107.69 205.648 107.69C205.648 107.69 205.209 108.827 205.268 108.084C205.327 107.34 206.897 105.866 206.897 105.866Z" fill="#A1694D"/>
<path fill-rule="evenodd" clip-rule="evenodd" d="M197.354 92.9017C197.233 92.9017 197.161 92.8576 197.161 92.7203V90.7395C197.161 90.6952 197.123 90.663 197.081 90.6699C196.955 90.6908 196.712 90.7303 196.606 90.7474L196.556 90.7555C196.529 90.76 196.5 90.7853 196.5 90.8225L196.5 92.8C196.5 93.4031 196.934 93.4602 197.178 93.4602C197.333 93.4602 197.442 93.4383 197.501 93.4223C197.534 93.413 197.552 93.3848 197.552 93.3553V92.96C197.552 92.9241 197.52 92.8827 197.472 92.8914C197.441 92.8971 197.401 92.9017 197.354 92.9017ZM201.435 91.2655C201.653 91.2449 201.794 91.2036 201.87 91.1797C201.916 91.1652 201.949 91.1975 201.958 91.2296L201.966 91.2602C201.984 91.3223 202.024 91.4627 202.045 91.5484C202.055 91.5888 202.03 91.6183 202.002 91.6309C201.962 91.6492 201.903 91.6676 201.835 91.6864C201.91 91.8175 201.938 91.9577 201.938 92.0707C201.938 92.3927 201.739 92.8301 201.009 92.8301H200.942C200.789 92.8301 200.66 92.8109 200.55 92.7777C200.523 92.8035 200.502 92.839 200.502 92.8875C200.502 92.9727 200.572 93.0348 200.642 93.0348L201.212 93.0348C201.614 93.0348 201.965 93.2386 201.965 93.7764C201.965 94.2813 201.558 94.4847 200.975 94.4847C200.355 94.4847 199.987 94.2969 199.987 93.8066C199.987 93.5483 200.158 93.3385 200.158 93.3385C200.158 93.3385 199.999 93.2055 199.999 92.946C199.999 92.7474 200.1 92.6115 200.175 92.5384C200.056 92.3945 200.013 92.2202 200.013 92.0707C200.013 91.7686 200.213 91.2733 200.975 91.2722L200.984 91.2724C201.034 91.2738 201.276 91.2806 201.435 91.2655ZM203.649 91.2666C203.868 91.246 204.008 91.2047 204.084 91.1808C204.131 91.1663 204.164 91.1986 204.172 91.2307L204.181 91.2613C204.199 91.3234 204.239 91.4638 204.26 91.5495C204.27 91.5899 204.244 91.6194 204.216 91.632C204.176 91.6503 204.117 91.6687 204.049 91.6875C204.124 91.8186 204.152 91.9588 204.152 92.0718C204.152 92.3938 203.954 92.8312 203.223 92.8312H203.156C203.003 92.8312 202.874 92.812 202.765 92.7788C202.737 92.8046 202.717 92.8401 202.717 92.8886C202.717 92.9738 202.786 93.0358 202.857 93.0358L203.427 93.0359C203.829 93.0359 204.18 93.2397 204.18 93.7775C204.18 94.2824 203.772 94.4858 203.19 94.4858C202.569 94.4858 202.201 94.298 202.201 93.8077C202.201 93.5494 202.372 93.3396 202.372 93.3396C202.372 93.3396 202.214 93.2066 202.214 92.9471C202.214 92.7485 202.315 92.6126 202.389 92.5395C202.27 92.3956 202.227 92.2213 202.227 92.0718C202.227 91.7697 202.428 91.2744 203.19 91.2733L203.199 91.2735C203.249 91.2749 203.491 91.2817 203.649 91.2666ZM203.2 91.6692C203.034 91.6703 202.884 91.8045 202.884 92.0514C202.884 92.2815 203.007 92.4311 203.189 92.4319C203.371 92.4311 203.493 92.2815 203.493 92.0514C203.493 91.8045 203.365 91.6703 203.2 91.6692ZM203.592 93.7569C203.592 93.6162 203.514 93.5052 203.35 93.5052C203.071 93.5052 202.913 93.5055 202.913 93.5055C202.913 93.5055 202.81 93.6047 202.81 93.787C202.81 93.8985 202.873 94.0265 203.207 94.0265C203.528 94.0265 203.592 93.8843 203.592 93.7569ZM200.67 92.0514C200.67 91.8045 200.82 91.6703 200.985 91.6692C201.151 91.6703 201.279 91.8045 201.279 92.0514C201.279 92.2815 201.156 92.4312 200.974 92.4319C200.792 92.4312 200.67 92.2815 200.67 92.0514ZM201.378 93.7569C201.378 93.6162 201.3 93.5052 201.136 93.5052C200.857 93.5052 200.699 93.5055 200.699 93.5055C200.699 93.5055 200.596 93.6047 200.596 93.787C200.596 93.8985 200.659 94.0266 200.993 94.0266C201.315 94.0266 201.378 93.8843 201.378 93.7569ZM199.016 91.3771C199.016 91.3464 199.043 91.3114 199.084 91.3114H199.61C199.649 91.3114 199.678 91.3433 199.678 91.3784V93.3504C199.678 93.4029 199.635 93.4216 199.611 93.4216H199.165C199.125 93.4216 199.105 93.3906 199.1 93.3717C199.097 93.358 199.054 93.2066 199.03 93.1248C198.886 93.2644 198.633 93.46 198.345 93.46C197.89 93.46 197.794 93.1309 197.794 92.7915V91.3797C197.794 91.3378 197.829 91.3114 197.86 91.3114H198.386C198.425 91.3114 198.456 91.3415 198.456 91.3807V92.6786C198.456 92.8367 198.508 92.8957 198.625 92.8957C198.811 92.8957 198.968 92.7355 199.016 92.6812L199.016 91.3771Z" fill="white"/>
<path fill-rule="evenodd" clip-rule="evenodd" d="M200.287 84.3098C203.909 84.3098 203.844 82.4473 204.128 79.6823C204.412 76.9173 202.942 75.8391 200.287 75.8391C197.631 75.8391 196.043 77.0488 196.312 79.6823C196.58 82.3158 196.664 84.3098 200.287 84.3098Z" fill="#74605F" stroke="#1C1F34" stroke-width="0.832118"/>
<path d="M200.28 110.644L202.269 117.594L203.78 128.632H207.924C207.924 128.632 208.129 126.776 206.592 126.943L205.118 109.569L204.617 105.502L205.037 98.6751C205.037 98.6751 205.948 94.2065 205.948 91.4731" stroke="#1C1F34" stroke-width="0.832118" stroke-linecap="round" stroke-linejoin="round"/>
<path d="M204.758 127.458C205.232 127.159 206.329 126.965 207.632 127.458" stroke="#1C1F34" stroke-width="0.499271" stroke-linecap="round" stroke-linejoin="round"/>
<path d="M200.122 110.644L198.133 117.594L196.622 128.632H192.478C192.478 128.632 192.273 126.776 193.81 126.943L195.284 109.569L195.785 105.502L195.365 98.6751C195.365 98.6751 194.453 94.2065 194.453 91.4731" stroke="#1C1F34" stroke-width="0.832118" stroke-linecap="round" stroke-linejoin="round"/>
<path d="M195.644 127.458C195.169 127.159 194.072 126.965 192.769 127.458" stroke="#1C1F34" stroke-width="0.499271" stroke-linecap="round" stroke-linejoin="round"/>
<path d="M198.781 110.309H201.781" stroke="#1C1F34" stroke-width="0.499271" stroke-linecap="round" stroke-linejoin="round"/>
<path d="M202.608 87.4644C204.946 87.4644 206.223 88.1066 207.201 88.4598C208.179 88.813 208.937 90.5471 209.315 91.9958C209.785 93.7957 209.785 95.9393 209.785 98.8009C209.785 101.662 208.856 107.292 208.856 107.292C208.856 107.292 208.448 109.843 207.168 110.683C205.889 111.522 204.744 110.654 205.197 109.41C205.649 108.168 205.647 107.401 205.647 107.401C205.647 107.401 205.209 108.576 205.268 107.808C205.327 107.04 206.897 105.518 206.897 105.518C206.897 105.518 206.174 100.045 206.561 98.7834C206.561 98.7834 205.206 96.7282 205.884 93.0216" stroke="#1C1F34" stroke-width="0.832118" stroke-linecap="round" stroke-linejoin="round"/>
<path fill-rule="evenodd" clip-rule="evenodd" d="M193.506 105.866C193.506 105.866 194.206 100.566 193.82 99.3451C193.82 99.3451 194.577 98.4937 194.532 95.1397C193.135 95.2273 191.749 95.0503 190.618 94.2446C190.485 94.9648 190.432 95.5807 190.435 96.1771C190.441 97.4486 190.498 98.4161 190.618 99.362C190.949 101.964 191.547 107.584 191.547 107.584C191.547 107.584 191.955 110.056 193.234 110.868C194.515 111.681 195.659 110.84 195.206 109.636C194.754 108.433 194.756 107.69 194.756 107.69C194.756 107.69 195.194 108.828 195.135 108.084C195.076 107.34 193.506 105.866 193.506 105.866Z" fill="#A1694D"/>
<path d="M197.795 87.4641C195.457 87.4641 194.18 88.1064 193.202 88.4596C192.224 88.8128 191.465 90.5468 191.088 91.9955C190.618 93.7954 190.618 95.9391 190.618 98.8006C190.618 101.662 191.547 107.292 191.547 107.292C191.547 107.292 191.955 109.843 193.234 110.683C194.514 111.522 195.659 110.653 195.206 109.41C194.754 108.167 194.755 107.401 194.755 107.401C194.755 107.401 195.194 108.575 195.135 107.807C195.076 107.039 193.506 105.517 193.506 105.517C193.506 105.517 194.229 100.044 193.842 98.7832C193.842 98.7832 195.197 96.7279 194.519 93.0214" stroke="#1C1F34" stroke-width="0.832118" stroke-linecap="round" stroke-linejoin="round"/>
<path d="M203.06 87.2157C203.06 87.2157 202.649 86.4896 202.649 85.6133" stroke="#1C1F34" stroke-width="0.832118" stroke-linecap="round" stroke-linejoin="round"/>
<path d="M197.5 87.2157C197.5 87.2157 197.911 86.4896 197.911 85.6133" stroke="#1C1F34" stroke-width="0.832118" stroke-linecap="round" stroke-linejoin="round"/>
<path d="M202.517 85.2233C202.865 84.9962 203.191 84.6577 203.404 84.1534C203.488 83.9556 203.679 82.9867 203.828 81.9734" stroke="#1C1F34" stroke-width="0.998542" stroke-linecap="round" stroke-linejoin="round"/>
<path d="M197.925 85.2236C197.578 84.9963 197.252 84.6575 197.04 84.1528C196.957 83.9551 196.772 82.9338 196.626 81.9045" stroke="#1C1F34" stroke-width="0.998542" stroke-linecap="round" stroke-linejoin="round"/>
<ellipse cx="200.244" cy="81.8382" rx="3.49291" ry="3.8397" fill="#A1694D"/>
<ellipse cx="0.506355" cy="1.00574" rx="0.506355" ry="1.00574" transform="matrix(-0.990074 0.140544 0.137815 0.990458 196.516 80.8386)" stroke="#1C1F34" stroke-width="0.832118" stroke-linecap="round" stroke-linejoin="round"/>
<ellipse cx="0.675167" cy="1.00576" rx="0.675167" ry="1.00576" transform="matrix(-0.990075 0.140543 0.137816 0.990458 197.185 80.7441)" fill="#A1694D"/>
<ellipse cx="0.506355" cy="1.00574" rx="0.506355" ry="1.00574" transform="matrix(0.990075 0.140541 -0.137818 0.990458 203.886 80.8386)" stroke="#1C1F34" stroke-width="0.832118" stroke-linecap="round" stroke-linejoin="round"/>
<ellipse cx="0.675167" cy="1.00576" rx="0.675167" ry="1.00576" transform="matrix(0.990075 0.140542 -0.137817 0.990458 203.217 80.7441)" fill="#A1694D"/>
<path fill-rule="evenodd" clip-rule="evenodd" d="M196.713 78.2268C197.049 77.4906 197.809 76.9092 197.809 76.9092C197.809 76.9092 198.337 77.8283 198.085 78.0573C197.934 78.1952 197.353 78.865 197.257 79.2616C197.001 80.3221 197.092 81.5604 197.067 81.8829C197.043 82.2055 196.988 82.2498 196.879 81.8829C196.816 81.6736 196.758 81.6003 196.713 80.9765C196.69 80.6469 196.468 80.6915 196.463 80.3393C196.457 79.9352 196.377 78.963 196.713 78.2268Z" fill="#1C1F34"/>
<path fill-rule="evenodd" clip-rule="evenodd" d="M203.71 78.2268C203.373 77.4906 202.614 76.9092 202.614 76.9092C202.614 76.9092 202.086 77.8283 202.338 78.0573C202.489 78.1952 203.069 78.865 203.165 79.2616C203.422 80.3221 203.331 81.5604 203.355 81.8829C203.38 82.2055 203.435 82.2498 203.544 81.8829C203.607 81.6736 203.665 81.6003 203.71 80.9765C203.733 80.6469 203.955 80.6915 203.96 80.3393C203.966 79.9352 204.046 78.963 203.71 78.2268Z" fill="#1C1F34"/>
<path d="M199.02 83.8708C199.02 83.8708 199.643 84.7228 201.4 84.1184" stroke="#1C1F34" stroke-width="0.499271" stroke-linecap="round" stroke-linejoin="round"/>
<path opacity="0.2" d="M201.25 85.5466C200.046 85.9862 200.643 85.9636 199.459 85.6545" stroke="#1C1F34" stroke-width="0.332847" stroke-linecap="round" stroke-linejoin="round"/>
<path fill-rule="evenodd" clip-rule="evenodd" d="M204.407 79.6733C204.407 78.6646 204.407 75.4883 200.362 75.4883C196.318 75.4883 196.149 78.3471 196.149 79.5555C196.149 80.159 198.208 79.4348 200.27 79.44C202.337 79.4451 204.407 80.1782 204.407 79.6733Z" fill="#434D9E" stroke="#1C1F34" stroke-width="0.832118"/>
<rect x="199.356" y="76.8286" width="2.02546" height="1.00683" rx="0.332847" fill="white"/>
<path opacity="0.3" fill-rule="evenodd" clip-rule="evenodd" d="M204.171 80.4778C204.171 80.8926 202.168 80.1597 200.197 80.1684C198.227 80.177 196.149 80.9628 196.149 80.5129C196.149 80.0629 198.235 79.5183 200.197 79.5097C202.16 79.5011 204.171 80.0629 204.171 80.4778Z" fill="#1C1F34" stroke="#1C1F34" stroke-width="0.499271"/>
<path fill-rule="evenodd" clip-rule="evenodd" d="M204.847 80.0926C204.847 80.6289 202.591 79.6815 200.372 79.6927C198.152 79.7038 195.812 80.7196 195.812 80.138C195.812 79.5564 198.161 78.5171 200.372 78.5061C202.582 78.495 204.847 79.5564 204.847 80.0926Z" fill="#434D9E" stroke="#1C1F34" stroke-width="0.499271"/>
<ellipse cx="200.369" cy="75.0856" rx="0.674655" ry="0.335364" fill="#1C1F34"/>
<path fill-rule="evenodd" clip-rule="evenodd" d="M227.674 84.2601C227.674 84.2601 226.425 84.8333 225.127 84.8333C223.829 84.8333 222.953 84.0869 222.953 84.0869L222.784 86.1368V87.9034H227.879V86.1368L227.674 84.2601Z" fill="#FFD3B2"/>
<path fill-rule="evenodd" clip-rule="evenodd" d="M229.607 105.007H221.021L220.66 108.904L220.206 113.784L219.062 126.925C219.062 126.925 217.364 126.63 217.364 128.631H221.826L223.319 117.689L225.314 110.144L227.295 117.592L228.801 128.631H233.097C233.097 128.631 233.362 126.925 231.755 126.925C231.755 126.925 231.156 120.304 230.916 116.819C230.751 114.431 230.175 109.426 230.175 109.426L229.607 105.007Z" fill="#282E53"/>
<path fill-rule="evenodd" clip-rule="evenodd" d="M239.907 89.9556C239.907 89.9556 239.631 88.1409 239.145 87.1481C238.267 85.3532 236.288 82.6569 236.288 82.6569C236.087 82.4427 235.223 81.7107 234.676 81.068C234.128 80.4253 232.854 81.0605 232.854 81.0605L231.898 82.6388L232.864 83.5471L234.872 84.7426C235.509 85.3298 235.026 85.1044 236.99 88.2321C236.99 88.2321 236.825 87.1876 236.061 87.1353C235.187 87.0755 233.774 87.1259 233.774 87.1259L234.526 92.0944C234.526 92.0944 235.955 92.2805 237.731 91.5654C239.507 90.8503 239.907 89.9556 239.907 89.9556Z" fill="#FFD3B2"/>
<path fill-rule="evenodd" clip-rule="evenodd" d="M216.929 89.8973C216.929 89.8973 218.127 87.7062 220.574 87.7062L222.784 87.2155C222.784 87.2155 223.791 87.6777 225.314 87.7062C226.838 87.6777 227.844 87.2155 227.844 87.2155L230.292 86.8803L231.147 87.3581C231.147 87.3581 231.83 87.6633 232.624 87.2155C233.417 86.7678 234.458 86.8803 234.458 86.8803C234.22 89.0342 234.558 90.0715 235.107 91.8586C235.107 91.8586 233.822 92.2389 233.169 92.2389C232.457 92.2389 231.147 92.1037 231.147 92.1037L230.054 99.1224L229.774 105.084C229.774 105.084 229.404 106.315 225.314 106.315C221.225 106.315 220.855 105.084 220.855 105.084L220.574 99.1224L219.79 93.9692V95.3753C219.79 95.3753 215.806 97.1307 215.806 94.4156L216.929 89.8973Z" fill="#434D9E"/>
<path d="M231.271 92.1052C233.739 92.4764 237.568 91.9246 239.631 90.296C240.188 89.6177 239.284 87.3217 238.405 85.4442C237.526 83.5668 236.595 83.1692 235.125 81.4899C233.425 79.5498 231.966 81.668 231.863 82.2248C231.805 82.5338 231.891 83.0293 232.3 83.4383C232.745 83.883 234.432 84.435 234.432 84.435C235.985 84.4425 235.15 86.9966 237.225 88.444" stroke="#1C1F34" stroke-width="0.832118" stroke-linecap="round" stroke-linejoin="round"/>
<path d="M232.986 83.3572C232.986 83.3572 233.126 82.0824 234.266 82.7661" stroke="#1C1F34" stroke-width="0.499271" stroke-linecap="round" stroke-linejoin="round"/>
<path fill-rule="evenodd" clip-rule="evenodd" d="M218.721 105.866C218.721 105.866 219.419 100.566 219.034 99.3444C219.034 99.3444 219.788 98.4929 219.743 95.139C218.352 95.2266 216.97 95.0495 215.843 94.2439C215.711 94.9641 215.657 95.5799 215.66 96.1764C215.666 97.4479 215.723 98.4153 215.843 99.3612C216.173 101.963 216.769 107.584 216.769 107.584C216.769 107.584 217.175 110.055 218.45 110.868C219.726 111.681 220.866 110.839 220.415 109.636C219.964 108.432 219.966 107.69 219.966 107.69C219.966 107.69 220.403 108.827 220.344 108.083C220.286 107.34 218.721 105.866 218.721 105.866Z" fill="#FFD3B2"/>
<path fill-rule="evenodd" clip-rule="evenodd" d="M222.532 92.901C222.412 92.901 222.34 92.8569 222.34 92.7195V90.7388C222.34 90.6945 222.302 90.6623 222.26 90.6691C222.134 90.6901 221.892 90.7296 221.787 90.7467L221.787 90.7467L221.737 90.7547C221.71 90.7592 221.681 90.7846 221.681 90.8217L221.681 92.7993C221.681 93.4024 222.114 93.4595 222.357 93.4595C222.512 93.4595 222.62 93.4375 222.678 93.4216C222.712 93.4123 222.729 93.3841 222.729 93.3546V92.9593C222.729 92.9233 222.698 92.8819 222.65 92.8906C222.619 92.8963 222.579 92.901 222.532 92.901ZM226.6 91.2653C226.818 91.2446 226.958 91.2034 227.034 91.1795C227.08 91.1649 227.113 91.1972 227.121 91.2294L227.13 91.2599C227.148 91.3221 227.188 91.4625 227.209 91.5482C227.218 91.5885 227.193 91.6181 227.165 91.6307C227.125 91.649 227.067 91.6674 226.999 91.6861C227.073 91.8173 227.101 91.9574 227.101 92.0705C227.101 92.3925 226.903 92.8299 226.176 92.8299H226.109C225.957 92.8299 225.828 92.8107 225.719 92.7774C225.692 92.8032 225.671 92.8387 225.671 92.8873C225.671 92.9724 225.74 93.0345 225.81 93.0345L226.378 93.0346C226.779 93.0346 227.129 93.2383 227.129 93.7762C227.129 94.281 226.723 94.4844 226.142 94.4844C225.524 94.4844 225.157 94.2967 225.157 93.8063C225.157 93.5481 225.328 93.3383 225.328 93.3383C225.328 93.3383 225.17 93.2052 225.17 92.9457C225.17 92.7472 225.271 92.6112 225.345 92.5382C225.226 92.3942 225.183 92.22 225.183 92.0705C225.183 91.7684 225.383 91.273 226.143 91.2719L226.151 91.2721C226.201 91.2735 226.442 91.2803 226.6 91.2653ZM228.808 91.2664C229.026 91.2457 229.166 91.2045 229.242 91.1806C229.288 91.166 229.321 91.1983 229.33 91.2305L229.338 91.261C229.356 91.3232 229.396 91.4636 229.417 91.5493C229.427 91.5896 229.401 91.6192 229.374 91.6318C229.334 91.6501 229.275 91.6685 229.207 91.6872C229.282 91.8184 229.31 91.9585 229.31 92.0715C229.31 92.3936 229.112 92.831 228.384 92.831H228.317C228.165 92.831 228.036 92.8118 227.927 92.7785C227.9 92.8043 227.879 92.8398 227.879 92.8884C227.879 92.9735 227.949 93.0356 228.019 93.0356L228.587 93.0357C228.988 93.0357 229.337 93.2394 229.337 93.7773C229.337 94.2821 228.931 94.4855 228.351 94.4855C227.733 94.4855 227.366 94.2978 227.366 93.8074C227.366 93.5492 227.536 93.3394 227.536 93.3394C227.536 93.3394 227.378 93.2063 227.378 92.9468C227.378 92.7483 227.479 92.6123 227.553 92.5393C227.434 92.3953 227.392 92.2211 227.392 92.0715C227.392 91.7695 227.591 91.2741 228.351 91.273L228.36 91.2732C228.409 91.2746 228.651 91.2814 228.808 91.2664ZM228.361 91.669C228.196 91.67 228.046 91.8043 228.046 92.0512C228.046 92.2813 228.168 92.4309 228.349 92.4317C228.531 92.4309 228.653 92.2813 228.653 92.0512C228.653 91.8043 228.525 91.67 228.361 91.669ZM228.751 93.7568C228.751 93.616 228.673 93.5051 228.51 93.5051C228.232 93.5051 228.075 93.5054 228.075 93.5054C228.075 93.5054 227.971 93.6046 227.971 93.7869C227.971 93.8984 228.034 94.0264 228.367 94.0264C228.688 94.0264 228.751 93.8842 228.751 93.7568ZM225.838 92.0512C225.838 91.8043 225.988 91.67 226.153 91.669C226.318 91.67 226.446 91.8043 226.446 92.0512C226.446 92.2813 226.323 92.4309 226.142 92.4317C225.961 92.4309 225.838 92.2813 225.838 92.0512ZM226.544 93.7568C226.544 93.616 226.466 93.5051 226.302 93.5051C226.024 93.5051 225.867 93.5054 225.867 93.5054C225.867 93.5054 225.764 93.6046 225.764 93.7869C225.764 93.8984 225.827 94.0264 226.16 94.0264C226.48 94.0264 226.544 93.8842 226.544 93.7568ZM224.189 91.3765C224.189 91.3458 224.216 91.3108 224.257 91.3108H224.781C224.82 91.3108 224.849 91.3427 224.849 91.3778V93.3498C224.849 93.4023 224.806 93.4209 224.782 93.4209H224.338C224.298 93.4209 224.278 93.39 224.273 93.3711C224.27 93.3574 224.227 93.206 224.203 93.1242C224.06 93.2638 223.808 93.4594 223.521 93.4594C223.067 93.4594 222.971 93.1303 222.971 92.7909V91.3791C222.971 91.3372 223.007 91.3108 223.037 91.3108H223.562C223.6 91.3108 223.631 91.3408 223.631 91.3801V92.678C223.631 92.8361 223.683 92.8951 223.8 92.8951C223.985 92.8951 224.141 92.7349 224.189 92.6806L224.189 91.3765Z" fill="white"/>
<path fill-rule="evenodd" clip-rule="evenodd" d="M225.308 84.3093C221.698 84.3093 221.764 82.4468 221.481 79.6818C221.198 76.9168 222.662 75.8386 225.308 75.8386C227.955 75.8386 229.537 77.0483 229.269 79.6818C229.001 82.3153 228.918 84.3093 225.308 84.3093Z" fill="#74605F" stroke="#1C1F34" stroke-width="0.832118"/>
<path d="M225.315 110.644L223.333 117.593L221.827 128.632H217.698C217.698 128.632 217.494 126.776 219.026 126.942L220.495 109.568L220.994 105.502L220.575 98.6749C220.575 98.6749 219.667 94.2063 219.667 91.4729" stroke="#1C1F34" stroke-width="0.832118" stroke-linecap="round" stroke-linejoin="round"/>
<path d="M220.852 127.458C220.38 127.159 219.286 126.966 217.988 127.458" stroke="#1C1F34" stroke-width="0.499271" stroke-linecap="round" stroke-linejoin="round"/>
<path d="M225.472 110.644L227.454 117.593L228.96 128.632H233.089C233.089 128.632 233.293 126.776 231.762 126.942L230.292 109.568L229.793 105.502L230.212 98.6749C230.212 98.6749 231.12 94.2063 231.12 91.4729" stroke="#1C1F34" stroke-width="0.832118" stroke-linecap="round" stroke-linejoin="round"/>
<path d="M229.934 127.458C230.406 127.159 231.499 126.966 232.798 127.458" stroke="#1C1F34" stroke-width="0.499271" stroke-linecap="round" stroke-linejoin="round"/>
<path d="M226.808 110.308H223.819" stroke="#1C1F34" stroke-width="0.499271" stroke-linecap="round" stroke-linejoin="round"/>
<path d="M222.995 87.4639C220.666 87.4639 219.393 88.1061 218.419 88.4593C217.444 88.8125 216.688 90.5466 216.312 91.9953C215.844 93.7952 215.844 95.9388 215.844 98.8004C215.844 101.662 216.77 107.291 216.77 107.291C216.77 107.291 217.176 109.843 218.451 110.682C219.726 111.522 220.866 110.653 220.416 109.41C219.965 108.167 219.966 107.401 219.966 107.401C219.966 107.401 220.404 108.575 220.345 107.807C220.286 107.039 218.721 105.517 218.721 105.517C218.721 105.517 219.441 100.044 219.056 98.783C219.056 98.783 220.406 96.7277 219.731 93.0211" stroke="#1C1F34" stroke-width="0.832118" stroke-linecap="round" stroke-linejoin="round"/>
<path d="M222.544 87.215C222.544 87.215 222.954 86.4889 222.954 85.6125" stroke="#1C1F34" stroke-width="0.832118" stroke-linecap="round" stroke-linejoin="round"/>
<path d="M237.231 88.4447C236.858 88.1986 236.55 86.995 233.757 87.1377C232.955 87.1787 231.79 87.7357 231.79 87.7357C231.79 87.7357 230.677 87.1397 229.99 87.1397C228.75 87.1397 227.552 87.5516 227.552 87.5516" stroke="#1C1F34" stroke-width="0.832118" stroke-linecap="round" stroke-linejoin="round"/>
<path d="M228.084 87.215C228.084 87.215 227.675 86.4889 227.675 85.6125" stroke="#1C1F34" stroke-width="0.832118" stroke-linecap="round" stroke-linejoin="round"/>
<path d="M223.085 85.2233C222.739 84.9962 222.414 84.6577 222.202 84.1534C222.118 83.9556 221.928 82.9867 221.779 81.9734" stroke="#1C1F34" stroke-width="0.998542" stroke-linecap="round" stroke-linejoin="round"/>
<path d="M227.662 85.2229C228.008 84.9955 228.333 84.6567 228.544 84.152C228.627 83.9544 228.812 82.933 228.956 81.9038" stroke="#1C1F34" stroke-width="0.998542" stroke-linecap="round" stroke-linejoin="round"/>
<ellipse cx="3.48049" cy="3.8397" rx="3.48049" ry="3.8397" transform="matrix(-1 0 0 1 228.831 77.9988)" fill="#FFD3B2"/>
<ellipse cx="0.504554" cy="1.00574" rx="0.504554" ry="1.00574" transform="matrix(0.990074 0.140547 -0.137812 0.990458 229.064 80.8391)" stroke="#1C1F34" stroke-width="0.832118" stroke-linecap="round" stroke-linejoin="round"/>
<ellipse cx="0.672766" cy="1.00576" rx="0.672766" ry="1.00576" transform="matrix(0.990074 0.140544 -0.137815 0.990458 228.398 80.7449)" fill="#FFD3B2"/>
<ellipse cx="0.504554" cy="1.00574" rx="0.504554" ry="1.00574" transform="matrix(-0.990075 0.140542 0.137817 0.990458 221.72 80.8394)" stroke="#1C1F34" stroke-width="0.832118" stroke-linecap="round" stroke-linejoin="round"/>
<ellipse cx="0.672766" cy="1.00576" rx="0.672766" ry="1.00576" transform="matrix(-0.990074 0.140544 0.137815 0.990458 222.386 80.7451)" fill="#FFD3B2"/>
<path fill-rule="evenodd" clip-rule="evenodd" d="M228.868 78.2261C228.533 77.4899 227.776 76.9084 227.776 76.9084C227.776 76.9084 227.25 77.8275 227.501 78.0566C227.651 78.1944 228.23 78.8643 228.326 79.2609C228.581 80.3213 228.49 81.5596 228.515 81.8822C228.539 82.2048 228.594 82.2491 228.703 81.8822C228.765 81.6728 228.824 81.5996 228.868 80.9757C228.891 80.6461 229.112 80.6908 229.117 80.3386C229.124 79.9345 229.203 78.9623 228.868 78.2261Z" fill="#E07833"/>
<path fill-rule="evenodd" clip-rule="evenodd" d="M221.897 78.2261C222.232 77.4899 222.988 76.9084 222.988 76.9084C222.988 76.9084 223.514 77.8275 223.264 78.0566C223.113 78.1944 222.535 78.8643 222.439 79.2609C222.183 80.3213 222.274 81.5596 222.25 81.8822C222.225 82.2048 222.171 82.2491 222.062 81.8822C221.999 81.6728 221.941 81.5996 221.897 80.9757C221.873 80.6461 221.653 80.6908 221.647 80.3386C221.641 79.9345 221.562 78.9623 221.897 78.2261Z" fill="#E07833"/>
<path d="M226.57 83.8701C226.57 83.8701 225.949 84.7221 224.198 84.1177" stroke="#1C1F34" stroke-width="0.499271" stroke-linecap="round" stroke-linejoin="round"/>
<path opacity="0.2" d="M224.348 85.5461C225.547 85.9857 224.952 85.9631 226.132 85.654" stroke="#1C1F34" stroke-width="0.332847" stroke-linecap="round" stroke-linejoin="round"/>
<path fill-rule="evenodd" clip-rule="evenodd" d="M221.202 79.673C221.202 78.6644 221.202 75.488 225.232 75.488C229.262 75.488 229.43 78.3468 229.43 79.5553C229.43 80.1588 227.378 79.4346 225.324 79.4397C223.265 79.4449 221.202 80.178 221.202 79.673Z" fill="#434D9E" stroke="#1C1F34" stroke-width="0.832118"/>
<rect width="2.01826" height="1.00683" rx="0.332847" transform="matrix(-1 0 0 1 226.234 76.8284)" fill="white"/>
<path opacity="0.3" fill-rule="evenodd" clip-rule="evenodd" d="M221.437 80.4775C221.437 80.8924 223.433 80.1595 225.397 80.1681C227.36 80.1767 229.43 80.9626 229.43 80.5126C229.43 80.0627 227.352 79.5181 225.397 79.5095C223.441 79.5009 221.437 80.0627 221.437 80.4775Z" fill="#1C1F34" stroke="#1C1F34" stroke-width="0.499271"/>
<path fill-rule="evenodd" clip-rule="evenodd" d="M220.764 80.0916C220.764 80.6279 223.011 79.6806 225.223 79.6917C227.435 79.7029 229.766 80.7186 229.766 80.137C229.766 79.5554 227.426 78.5162 225.223 78.5051C223.021 78.494 220.764 79.5554 220.764 80.0916Z" fill="#434D9E" stroke="#1C1F34" stroke-width="0.499271"/>
<ellipse cx="0.671605" cy="0.335039" rx="0.671605" ry="0.335039" transform="matrix(-1 0 0 1 225.897 74.75)" fill="#1C1F34"/>
</g>
<defs>
<linearGradient id="paint0_linear_1266_18529" x1="84.1335" y1="113.82" x2="83.9512" y2="111.755" gradientUnits="userSpaceOnUse">
<stop stop-color="#A4ACBC"/>
<stop offset="0.9859" stop-color="#B5BBCA"/>
</linearGradient>
<linearGradient id="paint1_linear_1266_18529" x1="201.528" y1="108.682" x2="201.528" y2="96.6114" gradientUnits="userSpaceOnUse">
<stop offset="0.0118583" stop-color="#1C1F34" stop-opacity="0.2"/>
<stop offset="1" stop-color="#1C1F34"/>
</linearGradient>
<linearGradient id="paint2_linear_1266_18529" x1="204.294" y1="78.9744" x2="204.294" y2="90.6752" gradientUnits="userSpaceOnUse">
<stop stop-color="#8388A4"/>
<stop offset="0.986707" stop-color="#A5A9C1"/>
</linearGradient>
<linearGradient id="paint3_linear_1266_18529" x1="242.739" y1="107.546" x2="242.739" y2="98.623" gradientUnits="userSpaceOnUse">
<stop stop-color="#A4ACBC"/>
<stop offset="0.9859" stop-color="#B5BBCA"/>
</linearGradient>
<linearGradient id="paint4_linear_1266_18529" x1="242.186" y1="100.361" x2="242.186" y2="105.693" gradientUnits="userSpaceOnUse">
<stop stop-color="#FFC900"/>
<stop offset="1" stop-color="#FFF15E"/>
</linearGradient>
<linearGradient id="paint5_linear_1266_18529" x1="175.098" y1="119.982" x2="175.098" y2="118.07" gradientUnits="userSpaceOnUse">
<stop stop-color="#A4ACBC"/>
<stop offset="0.9859" stop-color="#B5BBCA"/>
</linearGradient>
<linearGradient id="paint6_linear_1266_18529" x1="101.527" y1="115.371" x2="101.527" y2="111.43" gradientUnits="userSpaceOnUse">
<stop stop-color="#A4ACBC"/>
<stop offset="0.9859" stop-color="#B5BBCA"/>
</linearGradient>
<linearGradient id="paint7_linear_1266_18529" x1="11.1481" y1="10.8385" x2="11.1481" y2="0" gradientUnits="userSpaceOnUse">
<stop stop-color="#A4ACBC"/>
<stop offset="0.9859" stop-color="#B5BBCA"/>
</linearGradient>
<linearGradient id="paint8_linear_1266_18529" x1="11.1481" y1="10.8385" x2="11.1481" y2="0" gradientUnits="userSpaceOnUse">
<stop stop-color="#A4ACBC"/>
<stop offset="0.9859" stop-color="#B5BBCA"/>
</linearGradient>
<clipPath id="clip0_1266_18529">
<rect width="54.4398" height="12.0703" fill="white" transform="translate(103.937 77.8354)"/>
</clipPath>
</defs>
</svg>
