<svg fill="none" height="153" width="228" xmlns="http://www.w3.org/2000/svg" xmlns:xlink="http://www.w3.org/1999/xlink"><clipPath id="a"><rect height="137" rx="24" transform="matrix(.83205 -.5547 .83014 .55756 .14 75.994)" width="137"/></clipPath><filter id="b" color-interpolation-filters="sRGB" filterUnits="userSpaceOnUse" height="119.167" width="108.333" x="59.473" y="23.167"><feFlood flood-opacity="0" result="BackgroundImageFix"/><feColorMatrix in="SourceAlpha" result="hardAlpha" values="0 0 0 0 0 0 0 0 0 0 0 0 0 0 0 0 0 0 127 0"/><feOffset dy="10.833"/><feGaussianBlur stdDeviation="10.833"/><feComposite in2="hardAlpha" operator="out"/><feColorMatrix values="0 0 0 0 0 0 0 0 0 0 0 0 0 0 0 0 0 0 0.16 0"/><feBlend in2="BackgroundImageFix" result="effect1_dropShadow_1557_40904"/><feBlend in="SourceGraphic" in2="effect1_dropShadow_1557_40904" result="shape"/></filter><mask id="c" fill="#fff"><path d="m136.621 87.622c12.692-12.267 12.692-32.155 0-44.422s-33.27-12.267-45.962 0-12.692 32.155 0 44.422l22.981 22.211 22.981-22.21z" fill="#fff"/></mask><g clip-path="url(#a)"><rect fill="#fff" height="137" rx="24" transform="matrix(.83205 -.5547 .83014 .55756 .14 75.994)" width="137"/><g stroke="#edeef1" stroke-width="20"><path d="m127.23 115.698 10.816-7.212c7.353-4.901 7.366-12.869.031-17.796l-12.452-8.363"/><path d="m138.132 58.435-10.816 7.211c-7.353 4.902-7.366 12.87-.031 17.796l19.923 13.381m110.566-17.05-54.916 36.611c-7.352 4.901-19.259 4.881-26.595-.046l-11.622-7.806c-7.335-4.927-19.242-4.947-26.595-.046l-71.556 47.705m-14.803-91.231 10.817-7.211c7.352-4.902 7.366-12.87.03-17.796l-12.452-8.364"/><path d="m182.231 29.036-54.915 36.61c-7.353 4.902-19.26 4.881-26.595-.046l-11.622-7.805c-7.336-4.927-19.243-4.948-26.595-.046l-71.557 47.704m185.316 10.885-173.499-116.53"/></g><rect fill="#c7c8ca" height="59" rx="6" transform="matrix(.83205 -.5547 .83014 .55756 8.39 111.6)" width="80"/><rect fill="#c7c8ca" height="59" rx="6" transform="matrix(.83205 -.5547 .83014 .55756 -67.153 60.863)" width="80"/><rect fill="#e0e7ff" height="59" rx="6" transform="matrix(.83205 -.5547 .83014 .55756 140.598 74.567)" width="80"/><rect fill="#a4dc9e" height="118" rx="6" transform="matrix(.83205 -.5547 .83014 .55756 16.077 -9.067)" width="80"/><rect fill="#a4dc9e" height="101" rx="6" transform="matrix(.83205 -.5547 .83014 .55756 83.933 162.338)" width="80"/><ellipse cx="113.64" cy="109.833" fill="#090a0a" rx="8.125" ry="2.708"/><g filter="url(#b)"><path d="m136.621 87.622c12.692-12.267 12.692-32.155 0-44.422s-33.27-12.267-45.962 0-12.692 32.155 0 44.422l22.981 22.211 22.981-22.21z" fill="#3d4ba3"/><path d="m90.659 87.622-1.882 1.948zm22.981 22.211-1.882 1.948 1.882 1.819 1.882-1.819zm21.099-64.685c11.59 11.202 11.59 29.325 0 40.527l3.764 3.895c13.794-13.332 13.794-34.986 0-48.317zm-42.198 0c11.643-11.253 30.555-11.253 42.198 0l3.764-3.895c-13.742-13.282-35.984-13.282-49.726 0zm0 40.527c-11.59-11.202-11.59-29.325 0-40.527l-3.764-3.895c-13.794 13.331-13.794 34.985 0 48.317zm22.981 22.211-22.98-22.211-3.765 3.895 22.981 22.211zm19.217-22.211-22.981 22.211 3.764 3.895 22.981-22.211z" fill="#fff" mask="url(#c)"/></g><path clip-rule="evenodd" d="m102.741 66.024a1.624 1.624 0 0 1 0-2.298l9.75-9.75a1.625 1.625 0 0 1 2.298 0l9.75 9.75a1.624 1.624 0 1 1 -2.298 2.298l-6.976-6.976v18.827a1.625 1.625 0 0 1 -3.25 0v-18.827l-6.976 6.976a1.625 1.625 0 0 1 -2.298 0z" fill="#fff" fill-rule="evenodd"/></g></svg>