<svg fill="none" height="25" viewBox="0 0 65 25" width="65" xmlns="http://www.w3.org/2000/svg" xmlns:xlink="http://www.w3.org/1999/xlink"><linearGradient id="a"><stop offset="0" stop-color="#fff"/><stop offset=".979592" stop-color="#f9f9fc"/></linearGradient><linearGradient id="b" gradientUnits="userSpaceOnUse" x1="8.61628" x2="8.32787" xlink:href="#a" y1="2.0764" y2="18.4188"/><linearGradient id="c" gradientUnits="userSpaceOnUse" x1="2.1146" x2="2.1146" y1="15.7541" y2="13.7873"><stop offset="0" stop-color="#1c1f34" stop-opacity=".2"/><stop offset="1" stop-color="#1c1f34"/></linearGradient><linearGradient id="d"><stop offset="0" stop-color="#e0e0e0"/><stop offset="1" stop-color="#e7e7e8"/></linearGradient><linearGradient id="e" gradientUnits="userSpaceOnUse" x1="7.68452" x2="7.43756" xlink:href="#d" y1="3.05213" y2="10.0471"/><linearGradient id="f"><stop offset="0" stop-opacity=".2"/><stop offset="1"/></linearGradient><linearGradient id="g" gradientUnits="userSpaceOnUse" x1="1.79943" x2="2.05281" xlink:href="#f" y1="10.0301" y2="2.8533"/><linearGradient id="h" gradientUnits="userSpaceOnUse" x1="2.00925" x2="2.24868" xlink:href="#f" y1="9.84585" y2="3.06441"/><linearGradient id="i" gradientUnits="userSpaceOnUse" x1="63.3792" x2="63.3792" xlink:href="#a" y1="1.0332" y2="20.3178"/><linearGradient id="j" gradientUnits="userSpaceOnUse" x1="54.3213" x2="54.3213" y1="15.0918" y2="10.4057"><stop offset=".0118583" stop-color="#1c1f34" stop-opacity=".2"/><stop offset="1" stop-color="#1c1f34"/></linearGradient><linearGradient id="k" gradientUnits="userSpaceOnUse" x1="43.9283" x2="43.9283" xlink:href="#d" y1="2.33594" y2="10.4837"/><linearGradient id="l" gradientUnits="userSpaceOnUse" x1="9.41365" x2="9.41365" xlink:href="#f" y1="10.6954" y2="2.33594"/><linearGradient id="m" gradientUnits="userSpaceOnUse" x1="9.59596" x2="9.59596" xlink:href="#f" y1="10.5049" y2="2.52539"/><linearGradient id="n" gradientUnits="userSpaceOnUse" x1="10.9117" x2="10.9117" y1="9.62599" y2="3.0957"><stop offset="0" stop-color="#fff"/><stop offset="1" stop-color="#f9f9fc"/></linearGradient><linearGradient id="o" gradientUnits="userSpaceOnUse" x1="64.5801" x2="64.5801" y1="13.7129" y2="15.2645"><stop offset="0" stop-color="#ffc900"/><stop offset="1" stop-color="#fff15e"/></linearGradient><linearGradient id="p" gradientUnits="userSpaceOnUse" x1="56.1065" x2="56.1065" y1="2.57227" y2="8.39269"><stop offset="0" stop-color="#8388a4"/><stop offset=".986707" stop-color="#a5a9c1"/></linearGradient><linearGradient id="q" gradientUnits="userSpaceOnUse" x1="5.56898" x2="5.56898" y1="5.3777" y2="0"><stop offset="0" stop-color="#a4acbc"/><stop offset=".9859" stop-color="#b5bbca"/></linearGradient><mask id="r" height="17" maskUnits="userSpaceOnUse" width="9" x="0" y="2"><path clip-rule="evenodd" d="m8.70923 2.34004c.00443-.14575-.11253-.26636-.25835-.2664l-6.57975-.00187c-.259-.00007-.47726.18999-.5074.44722-.12703 1.08404-.434486 4.01677-.493849 7.45382-.061341 3.55159.139849 7.10719.216209 8.29869.01566.2443.20229.4341.4469.4425.34794.0119.95732.0212 1.98517.0077 1.4679-.0192 3.35266-.0954 4.2209-.1331.26959-.0117.48312-.2295.49132-.4992z" fill="#fff" fill-rule="evenodd"/></mask><mask id="s" height="2" maskUnits="userSpaceOnUse" width="2" x="58" y="11"><path clip-rule="evenodd" d="m59.2666 12.0701c0-.0668-.0439-.1209-.1007-.1209h-.4087c-.0556 0-.1007.0561-.1007.1209 0 .0668.0439.1209.1007.1209h.4087c.0556 0 .1007-.0561.1007-.1209z" fill="#fff" fill-rule="evenodd"/></mask><mask id="t" height="10" maskUnits="userSpaceOnUse" width="2" x="6" y="7"><path clip-rule="evenodd" d="m6.94577 11.4336c.03634-1.0521.25193-3.574.25193-3.574.01251-.14899-.07286-.27315-.18984-.27728l-.28324-.01c-.11736-.00415-.22277.1136-.23552.26551 0 0-.21451 2.49817-.2505 3.54007-.04901 1.4189.03771 4.6243.03771 4.6243.0038.1496.10239.2743.21937.2785l.28325.01c.11735.0041.20931-.1134.20549-.2649 0 0-.0873-3.1835-.03865-4.5922z" fill="#fff" fill-rule="evenodd"/></mask><mask id="u" height="3" maskUnits="userSpaceOnUse" width="3" x="62" y="13"><path clip-rule="evenodd" d="m64.5049 13.7129h-2.0432l.3972 1.5516h1.7212z" fill="#fff" fill-rule="evenodd"/></mask><rect fill="#1c1f34" height=".520679" rx=".260339" transform="matrix(-1 0 0 1 59.1279 23.9434)" width="47.7222"/><rect fill="#1c1f34" height=".520679" rx=".260339" transform="matrix(-1 0 0 1 10.5156 23.9434)" width="4.40461"/><rect fill="#1c1f34" height=".520679" rx=".260339" transform="matrix(-1 0 0 1 62.3613 23.9434)" width="1.545"/><path clip-rule="evenodd" d="m8.30036 2.22476c.00868-.2911-.22474-.532-.51597-.53249l-6.08272-.01043c-.39077-.00067-.719854.2887-.761955.67719-.138713 1.27996-.419082 4.22968-.477721 7.62489-.06112 3.53888.116398 7.08128.198447 8.48288.021434.3661.300328.6494.666989.658.36655.0087.92931.0127 1.77607.0005 1.4686-.0213 3.35447-.1024 4.22223-.1425.2691-.0125.48184-.2302.48987-.4995z" fill="#1c1f34" fill-rule="evenodd"/><path clip-rule="evenodd" d="m8.70923 2.34004c.00443-.14575-.11253-.26636-.25835-.2664l-6.57975-.00187c-.259-.00007-.47726.18999-.5074.44722-.12703 1.08404-.434486 4.01677-.493849 7.45382-.061341 3.55159.139849 7.10719.216209 8.29869.01566.2443.20229.4341.4469.4425.34794.0119.95732.0212 1.98517.0077 1.4679-.0192 3.35266-.0954 4.2209-.1331.26959-.0117.48312-.2295.49132-.4992z" fill="url(#b)" fill-rule="evenodd"/><g clip-rule="evenodd" fill-rule="evenodd" mask="url(#r)"><g fill="#1c1f34"><path d="m7.02539 16.7598h-6.048121v.5971h6.048121z"/><path d="m7.02832 16.957h-6.048121v2.1895h6.048121z"/><path d="m2.32018 10.5827c-.1635-.0029-.29836.1292-.3012.2937l-.02679 1.552c-.00285.1651.12623.3013.29087.3042.16349.0029.29836-.1293.30119-.2937l.0268-1.5521c.00285-.1651-.12624-.3012-.29087-.3041z"/></g><path d="m12.0039 12.1367-11.446601-.202-.003436.199 11.446637.202z" fill="#242d5f" opacity=".1"/><path d="m5.64648 14.1617c0-.2198-.17619-.398-.3938-.398h-2.76535c-.21749 0-.3938.1766-.3938.398v1.1944c0 .2198.17619.398.3938.398h2.76535c.21749 0 .3938-.1766.3938-.398z" fill="#fff"/><path d="m5.64648 14.1617c0-.2198-.17619-.398-.3938-.398h-2.76535c-.21749 0-.3938.1766-.3938.398v1.1944c0 .2198.17619.398.3938.398h2.76535c.21749 0 .3938-.1766.3938-.398z" fill="url(#c)" fill-opacity=".2"/><path d="m5.25879 14.329c0-.0889-.07109-.161-.15649-.161h-2.45042c-.08642 0-.15649.0711-.15649.161v.8722c0 .0889.07109.161.15649.161h2.45042c.08643 0 .15649-.0711.15649-.161z" fill="#fff"/><path d="m4.79883 14.3184h-1.84228v.1674h1.84228z" fill="#000" opacity=".1"/><path d="m4.79883 15.0645h-1.84228v.1674h1.84228z" fill="#000" opacity=".1"/><path d="m3.01366 14.6872v-.1119h.05598c.00533 0 .01047.0008.01542.0023.00495.0016.00933.0044.01314.0084s.00686.0096.00914.0168c.00229.0071.00343.0163.00343.0274 0 .0201-.00343.0346-.01028.0436-.00686.0089-.01562.0134-.02628.0134zm-.05956-.1931v.4764h.1307c.01209 0 .02386-.0026.03532-.008.01146-.0053.02166-.0135.0306-.0247.00894-.0111.01605-.0254.02134-.043s.00794-.0384.00794-.0624c0-.0298-.0041-.0552-.01228-.0764-.00819-.0211-.02059-.0359-.03721-.0443.01209-.0103.02122-.0234.02739-.0394s.00925-.036.00925-.0601c0-.0222-.00208-.0409-.00623-.056-.00416-.0151-.01001-.0273-.01757-.0364-.00755-.0091-.01662-.0157-.02719-.0197-.01058-.004-.02229-.006-.03513-.006zm.05956.3952v-.1316h.06501c.01293 0 .02332.0053.03118.0158.00785.0105.01178.0281.01178.0527 0 .0125-.0012.0228-.00361.0309-.00241.008-.00564.0144-.0097.0191-.00405.0047-.00874.0081-.01406.0101s-.0109.003-.01673.003zm.32974-.2677v.1625h-.06992l.06878-.1625zm-.0005.2402v.1081h.051v-.1081h.03513v-.0781h-.03513v-.2809h-.04798l-.11485.2722v.0868zm.18845-.2316c0-.0108.00108-.0202.00324-.0282.00217-.0081.00515-.0148.00897-.0202.00382-.0053.0082-.0095.01316-.0124.00497-.0029.01012-.0044.01546-.0044.00839 0 .0152.0023.02041.0068.00522.0044.00929.01.01221.0167.00293.0068.0049.0138.00592.0212s.00152.0142.00152.0205c0 .0201-.00381.0355-.01144.046-.00764.0105-.01717.0158-.02862.0158-.01094 0-.02048-.0053-.02862-.0158s-.01221-.0259-.01221-.046zm-.049-.0092c0 .0231.00327.0433.00982.0607.00655.0173.01624.0291.02909.0353v.0014c-.01587.0067-.02815.02-.03684.04-.00868.02-.01303.0449-.01303.0747 0 .0254.00284.0472.0085.0654.00567.0183.01322.0334.02267.0454.00944.012.02015.0208.03211.0264.01196.0055.02436.0083.03721.0083.01234 0 .02443-.003.03627-.009.01183-.006.02241-.015.03173-.027s.01681-.0272.02248-.0454c.00566-.0182.0085-.0398.0085-.0647 0-.0294-.00429-.0542-.01285-.0744-.00856-.0203-.02078-.0335-.03664-.0397v-.0014c.01284-.0075.02247-.02.0289-.0373.00642-.0174.00963-.0376.00963-.0607 0-.0116-.00151-.0246-.00453-.0391-.00303-.0144-.008-.028-.01493-.0407-.00692-.0127-.01605-.0234-.02738-.0323-.01134-.0089-.02519-.0134-.04156-.0134-.01083 0-.02153.0027-.03211.008-.01058.0054-.02008.0134-.02852.024-.00844.0107-.0153.0241-.02059.0401s-.00793.0345-.00793.0554zm.04315.2078c0-.0241.00458-.0426.01374-.0554.00915-.0127.02034-.0191.03357-.0191.00636 0 .01227.0018.01774.0054s.0103.0087.0145.0154.0075.0147.00992.0239c.00242.0091.00363.0193.00363.0305 0 .0117-.00115.0224-.00344.0322-.00229.0099-.00553.0183-.00973.0252-.00419.007-.00903.0123-.0145.0161-.00546.0039-.01151.0058-.01812.0058-.00636 0-.01246-.0019-.01831-.0058-.00585-.0038-.01088-.0091-.01507-.0161-.0042-.0069-.00757-.0153-.01011-.0252-.00255-.0098-.00382-.0208-.00382-.0329zm.37702-.2446v-.0814h-.18057v.0881h.12542c-.02519.0538-.04552.1129-.06101.1774s-.02475.1317-.02777.2016h.05742c.00026-.0312.00233-.0648.00624-.1008.0039-.036.00944-.0716.01662-.1068.00718-.0351.01612-.0682.02682-.0994.0107-.0311.02298-.0574.03683-.0787zm.30103.2056v-.2963h-.05932v.2963c0 .0356-.00402.0617-.01208.0784s-.02267.025-.04383.025c-.01209 0-.02172-.003-.0289-.009-.00717-.006-.01278-.0138-.01681-.0234-.00403-.0095-.00667-.0205-.00793-.033-.00126-.0124-.00189-.0251-.00189-.038v-.2963h-.05931v.2963c0 .0649.01001.113.03003.1441.02003.0312.0483.0467.08481.0467.03602 0 .06423-.0157.08463-.047.0204-.0314.0306-.0793.0306-.1438zm.1218.0223h-.05743c-.00025.0293.00277.0547.00907.076.0063.0214.0148.0389.0255.0527s.02304.0239.03702.0304c.01398.0064.0284.0097.04326.0097.01838 0 .03457-.0038.04854-.0114.01398-.0075.02569-.0181.03514-.0317.00944-.0135.01656-.0297.02134-.0483.00479-.0187.00718-.039.00718-.0608 0-.0267-.00321-.0486-.00963-.0657-.00643-.0171-.01404-.0308-.02286-.041-.00881-.0103-.01769-.0177-.02663-.0224s-.01593-.0079-.02097-.0097c-.01687-.0075-.03054-.0137-.04099-.0186s-.01864-.0098-.02455-.0147c-.00592-.0049-.00989-.0103-.01191-.016-.00201-.0058-.00302-.0134-.00302-.0227 0-.0103.00126-.0187.00378-.0254s.00573-.0122.00963-.0167c.00391-.0044.00825-.0075.01304-.0093.00478-.0018.00957-.0027.01435-.0027.00731 0 .01404.0011.02021.0034.00618.0022.01165.006.01644.0113.00478.0053.00862.0127.01152.022.0029.0094.0046.0212.0051.0354h.05742c0-.0276-.00296-.0511-.00887-.0704-.00592-.0194-.01392-.0353-.02399-.0477-.01008-.0125-.0216-.0215-.03457-.027-.01297-.0056-.02651-.0084-.04061-.0084-.01209 0-.02418.0029-.03627.0087s-.02292.0147-.03249.0267-.01731.027-.02323.045-.00888.0393-.00888.0638c0 .0217.00233.0403.00699.0557.00466.0153.01077.0281.01832.0383.00756.0103.01612.0186.02569.0251.00957.0064.01939.0119.02947.0163.00982.0049.01952.0093.02909.0134.00957.004.01813.0086.02569.014.00755.0053.01366.012.01832.02s.00699.0184.00699.0313c0 .0121-.00177.022-.00529.0297-.00353.0078-.00794.0139-.01322.0184-.00529.0044-.01096.0074-.017.009-.00605.0016-.01172.0023-.017.0023-.00781 0-.01537-.0016-.02267-.005-.00731-.0033-.01366-.0084-.01908-.0153-.00541-.0069-.00976-.0159-.01303-.027-.00328-.0112-.00491-.0247-.00491-.0407zm.30377-.0258.03533-.1752h.00076l.03419.1752zm.00596-.2928-.10199.4764h.05968l.02116-.1061h.10086l.0204.1061h.06157l-.10086-.4764z" fill="#1c1f34"/><g opacity=".5"><path d="m7.71438 4.28286c.02802-.6594-.47759-1.2166-1.13099-1.2446l-3.30661-.14171c-.65265-.02797-1.2045.48462-1.23244 1.14134l-.20154 4.73755c-.028.65831.47751 1.21797 1.13076 1.25006l3.30589.1627c.65251.0321 1.20421-.47695 1.23222-1.13587z" fill="url(#e)"/><path d="m7.71438 4.28286c.02802-.6594-.47759-1.2166-1.13099-1.2446l-3.30661-.14171c-.65265-.02797-1.2045.48462-1.23244 1.14134l-.20154 4.73755c-.028.65831.47751 1.21797 1.13076 1.25006l3.30589.1627c.65251.0321 1.20421-.47695 1.23222-1.13587z" fill="url(#g)" fill-opacity=".3"/></g><path d="m7.52504 4.27903c.02327-.54893-.39881-1.01288-.94447-1.03632l-3.30502-.14201c-.54489-.02342-1.00555.40418-1.02872.95017l-.20117 4.74166c-.02325.54818.39874 1.01434.94428 1.04129l3.30429.16322c.54476.02686 1.00518-.39486 1.02851-.9452z" fill="#fff"/><path d="m7.52504 4.27903c.02327-.54893-.39881-1.01288-.94447-1.03632l-3.30502-.14201c-.54489-.02342-1.00555.40418-1.02872.95017l-.20117 4.74166c-.02325.54818.39874 1.01434.94428 1.04129l3.30429.16322c.54476.02686 1.00518-.39486 1.02851-.9452z" fill="url(#h)" fill-opacity=".05"/><path d="m6.95694 4.27401c.00918-.21879-.15967-.4038-.37677-.41323l-3.31598-.14401c-.21727-.00943-.40087.16105-.41013.38153l-.1992 4.74533c-.00924.22015.15951.40746.37656.41837l3.3152.16656c.21722.01092.40081-.15927.40992-.37639z" fill="#fff"/><path d="m7.41948 19.0177-3.06797.0728s-.24557-3.3984.13613-8.6379c.38169-5.23951 1.19679-9.510514 1.19679-9.510514l2.50481.169934z" fill="#242d5f" opacity=".1"/></g><path clip-rule="evenodd" d="m6.2374 19.1695s-.06868-2.3849-.06868-7.3838c0-4.99885.84983-9.49478.84983-9.49478.13594-.83808.92357-1.517482 1.76043-1.517482 0 0 33.14832-.000002 38.43642 0 1.5205.000001 3.2792.451652 4.2169 1.220582 2.5923 2.12571 5.83 5.06232 7.2048 5.93113 1.9463 1.22998 4.4618 1.81789 5.6452 4.82775.6992 1.7783.3146 6.0393-1.1396 7.0967-.3818.2776-1.1159 1.2423-7.2507 1.2884-.0082.111-.1008.2023-.214.2023h-47.797c-.1171 0-.21448-.0977-.21448-.2181v-.4657c-.69341-.1737-1.30258-.7774-1.42912-1.487z" fill="#1c1f34" fill-rule="evenodd"/><path clip-rule="evenodd" d="m58.4414 21.3398h-43.2599v.7811h43.2599z" fill="#1c1f34" fill-rule="evenodd"/><path clip-rule="evenodd" d="m6.75273 19.0578s-.06867-2.3817-.06867-7.3737c0-4.99196.91075-9.47733.91075-9.47733.10218-.59684.66888-1.08068 1.26836-1.08068 0 0 32.19323-.208997 38.15563 0 1.4828.05198 2.8541.14443 4.0693 1.08068 2.9874 2.30165 6.2966 5.75335 7.6488 6.30453 1.7999.73363 4.5671 2.251 5.1271 4.363.8354 3.151-.7514 7.212-.8085 7.2535-.7133.518-12.1067.6477-26.375.6587-6.1049.0047-11.7242.0708-16.8104 0h-11.90656c-.11709 0-.21445-.0975-.21445-.2178v-.1937c-.50068-.2694-.897-.7607-.99636-1.3172z" fill="url(#i)" fill-rule="evenodd"/><path clip-rule="evenodd" d="m63.7558 12.4993s-3.1582-1.8477-4.8511-2.52835c-1.2614-.50721-4.0116-1.0354-4.0116-1.0354l-.0775.22755s2.7582.5314 4.0236 1.0402c1.6888.6791 4.8391 2.5235 4.8391 2.5235z" fill="#242d5f" fill-rule="evenodd" opacity=".1"/><path clip-rule="evenodd" d="m54.3094 11.3074.0103.1661c.0232.3744-.2124.899-.5245 1.1701l-2.3651 2.0547c-.2502.2173-.7471.3935-1.1141.3935h-2.5493c-.3652 0-.6586-.2426-.6554-.5431l.0319-3.5892c.0032-.2999.3011-.5479.6643-.5538l5.9807.5041c.274-.0045.5073.1736.5212.3976z" fill="#fff" fill-rule="evenodd"/><path clip-rule="evenodd" d="m54.3094 11.3074.0103.1661c.0232.3744-.2124.899-.5245 1.1701l-2.3651 2.0547c-.2502.2173-.7471.3935-1.1141.3935h-2.5493c-.3652 0-.6586-.2426-.6554-.5431l.0319-3.5892c.0032-.2999.3011-.5479.6643-.5538l5.9807.5041c.274-.0045.5073.1736.5212.3976z" fill="url(#j)" fill-opacity=".05" fill-rule="evenodd"/><path clip-rule="evenodd" d="m55.6084 14.3107s-8.5622-1.8224-12.8433-1.8224c-12.113 0-36.3391 0-36.3391 0v.2278h36.2263c4.2435 0 12.7305 1.5946 12.7305 1.5946z" fill="#242d5f" fill-rule="evenodd" opacity=".1"/><path clip-rule="evenodd" d="m53.0342 17.1738h-34.5049v.781h34.5049z" fill="#000" fill-rule="evenodd" opacity=".2"/><path d="m0 0h39.3508v2.91891h-39.3508z" fill="#1c1f34" transform="matrix(-1 0 0 1 56.8965 16.1328)"/><path clip-rule="evenodd" d="m56.6714 13.646c1.3405-1.602 1.5888-5.57966 1.5888-5.57966l-.2079-.51287s-.1188 4.07543-1.4334 5.58533c-1.3147 1.5099-1.5604 5.9498-1.5604 5.9498l.445 1.4193s-.1725-5.2598 1.1679-6.8619z" fill="#1c1f34" fill-rule="evenodd"/><path clip-rule="evenodd" d="m48.0303 11.3472c0 .2005-.1574.3629-.3504.3629h-1.3925c-.1935 0-.3503-.161-.3503-.3629 0-.2004.1573-.3628.3503-.3628h1.3925c.1935 0 .3504.161.3504.3628z" fill="#1c1f34" fill-rule="evenodd"/><path clip-rule="evenodd" d="m59.4707 12.0697c0-.2003-.1371-.3627-.3051-.3627h-.4066c-.1685 0-.3051.161-.3051.3627 0 .2004.1371.3628.3051.3628h.4066c.1685 0 .3051-.161.3051-.3628z" fill="#1c1f34" fill-rule="evenodd"/><path clip-rule="evenodd" d="m59.2666 12.0701c0-.0668-.0439-.1209-.1007-.1209h-.4087c-.0556 0-.1007.0561-.1007.1209 0 .0668.0439.1209.1007.1209h.4087c.0556 0 .1007-.0561.1007-.1209z" fill="#f5a623" fill-rule="evenodd"/><g mask="url(#s)"><path clip-rule="evenodd" d="m59.4697 11.9492h-.4074v.2422h.4074z" fill="#fff" fill-rule="evenodd"/></g><g clip-rule="evenodd" fill-rule="evenodd" opacity=".5"><path d="m44.371 2.33594h-32.4181c-1.0615 0-2.00185.57991-2.10014 1.62403l-.43075 5.11143c-.09834 1.0447.68229 1.624 1.74389 1.624h33.2052z" fill="url(#k)"/><path d="m44.371 2.33594h-32.4181c-1.0615 0-2.00185.57991-2.10014 1.62403l-.43075 5.11143c-.09834 1.0447.68229 1.624 1.74389 1.624h33.2052z" fill="url(#l)" fill-opacity=".3"/></g><path clip-rule="evenodd" d="m44.3701 2.52539h-32.4238c-.9558 0-1.8048.49385-1.8965 1.43438l-.44578 5.11077c-.09158.93996.60768 1.43436 1.56518 1.43436h33.2005z" fill="#fff" fill-rule="evenodd"/><path clip-rule="evenodd" d="m44.3701 2.52539h-32.4238c-.9558 0-1.8048.49385-1.8965 1.43438l-.44578 5.11077c-.09158.93996.60768 1.43436 1.56518 1.43436h33.2005z" fill="url(#m)" fill-opacity=".05" fill-rule="evenodd"/><path clip-rule="evenodd" d="m44.3691 3.0957h-32.4456c-.6373 0-1.2097.24085-1.2781.86561l-.501 5.10837c-.0685.62588.3907.86561 1.0307.86561h33.1932z" fill="url(#n)" fill-rule="evenodd"/><path clip-rule="evenodd" d="m7.31223 11.3816c.04089-1.1837.22553-3.52953.22553-3.52953.03402-.44853-.22342-.82221-.57786-.83472l-.09665-.00341c-.35317-.01247-.66752.34164-.70153.7923 0 0-.1834 2.32006-.22388 3.49226-.05514 1.5963.06007 4.6801.06007 4.6801.01489.4483.31199.8218.66643.8343l.09665.0034c.35317.0125.62676-.3416.61202-.7943 0 0-.11551-3.0556-.06078-4.6404z" fill="#1c1f34" fill-rule="evenodd"/><path clip-rule="evenodd" d="m6.94577 11.4336c.03634-1.0521.25193-3.574.25193-3.574.01251-.14899-.07286-.27315-.18984-.27728l-.28324-.01c-.11736-.00415-.22277.1136-.23552.26551 0 0-.21451 2.49817-.2505 3.54007-.04901 1.4189.03771 4.6243.03771 4.6243.0038.1496.10239.2743.21937.2785l.28325.01c.11735.0041.20931-.1134.20549-.2649 0 0-.0873-3.1835-.03865-4.5922z" fill="#c10000" fill-rule="evenodd"/><g mask="url(#t)"><path clip-rule="evenodd" d="m6.46772 12.7395-.27078.0047.07479 3.2659.31884-.0057z" fill="#fff" fill-rule="evenodd" opacity=".4"/></g><path clip-rule="evenodd" d="m64.5153 13.2695h-2.0791c-.2284 0-.3704.1914-.3165.4303l.3555 1.5776c.0536.2377.2838.4303.5117.4303h1.5515c.2291 0 .4297-.1995.4479-.4415l-.0907-1.5551c.0183-.2439-.1523-.4416-.3803-.4416z" fill="#1c1f34" fill-rule="evenodd"/><path clip-rule="evenodd" d="m64.5049 13.7129h-2.0432l.3972 1.5516h1.7212z" fill="url(#o)" fill-rule="evenodd"/><g mask="url(#u)"><ellipse cx=".27474" cy=".522453" fill="#fff" rx=".27474" ry=".522453" transform="matrix(-.998599 .0529117 .0517665 .998659 64.5439 13.9551)"/><path clip-rule="evenodd" d="m62.9638 13.2695h-.7828v2.2641h1.1979z" fill="#f00" fill-rule="evenodd" opacity=".2"/></g><g clip-rule="evenodd" fill-rule="evenodd"><path d="m39.7725 11.4471c0 .2157.1548.3906.3448.3906h1.3704c.1904 0 .3448-.1734.3448-.3906 0-.2156-.1549-.3905-.3448-.3905h-1.3704c-.1905 0-.3448.1734-.3448.3905z" fill="#1c1f34"/><path d="m17.2412 9.88477v.78103h13.1325v-.78103z" fill="#1c1f34"/><path d="m30.8887 2.33594h-.4881v19.26516h.4881z" fill="#1c1f34"/><path d="m44.5361 1.0332h-.488v20.3065h.488z" fill="#1c1f34"/><path d="m57.2546 8.67077s-5.4918-5.41144-6.8116-5.968c-1.3198-.55655-2.1725-.49417-2.7263-.54261l-.856.02929c-.7792-.06816-1.331.47313-1.2322 1.21247l.1094 4.13665c.0987.73778.8082 1.40463 1.5854 1.48952l9.1481.87391c.9986.1091 1.3584-.4489.7832-1.23123z" fill="#1c1f34"/><path d="m56.8139 8.98584s-4.1841-4.18573-5.7667-5.40986c-1.5825-1.22413-2.7496-.9669-3.1861-1.00371l-1.1178.01394c-.4378-.03692-.7473.26985-.6913.68418l.1582 4.39993c.056.41479.457.78916.8931.83592l9.4568.88461c.3273.03509.4415-.14552.2538-.40501z" fill="url(#p)"/><path d="m46.4126 4.20644c-.0128-.20354-.1979-.36855-.4139-.36855h.1164c-.2159 0-.3908.16603-.3908.36855v1.37872c0 .20355.1732.36855.3897.36855h.0187c.2153 0 .3793-.16602.3666-.36855z" fill="#1c1f34"/><path d="m46.3293 6.53125h-.2001c-.2238 0-.3557.22135-.2937.49806l.6969 1.56504h.8084l-.4641-1.57939c-.0786-.26715-.3229-.48371-.5474-.48371z" fill="#1c1f34"/><path d="m52.5541 9.24925c-.0812.15514-.2649-.00456-.4113-.09052-.1475-.08656-.1997-.0666-.119-.22078l.9815-1.87528c.0812-.15514.2648-.20948.4113-.12351.1474.08656.1997.28063.119.43481l-.5336 1.01952.665.57295-.2944.51892-.7636-.34108z" fill="#1c1f34"/><path d="m57.2637 9.02073-1.8942-1.82932-2.5129 1.82932 4.205.71492z" fill="#1c1f34"/><path d="m57.1178 9.46725c.0763-.7807-.4091-2.12018-.4091-2.12018-.0873-.26622-.3991-.55071-.6962-.63534l-.326-.09286c-.2972-.08467-.56.06978-.5872.34841l-.3943 4.03692c-.0271.277.2033.5214.5123.5456l.5631.0442c.31.0243.6534-.1678.7629-.4268 0 0 .5212-1.1538.5745-1.69995z" fill="#242d5f" opacity=".1"/><path d="m57.1176 8.99874c.0613-.66705-.2345-1.74616-.2345-1.74616-.0627-.25861-.3265-.54212-.5881-.63293l.011.00381c-.2621-.09095-.4942.04889-.5184.31266l-.3082 3.35188c-.0242.2636.1798.496.4593.5192l.1258.0105c.2779.0231.5764-.1642.663-.4154 0 0 .3472-.93692.3901-1.40356z" fill="#1c1f34"/><g fill="#fff" opacity=".1"><path d="m52.8143 5.81249-2.3405-2.65466c-.0712-.08071-.1976-.09126-.2837-.0225-.0855.06828-.0956.19072-.0259.26978l2.3405 2.65465c.0712.08071.1976.09126.2837.0225.0855-.06828.0956-.19072.0259-.26977z"/><path d="m51.0473 5.05828c.0427-.03414.0474-.09582.0124-.13556l-.9093-1.0313c-.0359-.04073-.1009-.04507-.1424-.01192-.0428.03414-.0474.09583-.0124.13556l.9093 1.0313c.0359.04073.1009.04507.1424.01192z"/></g><path d="m64.8435 17.2355c.1341-.5141-.1355-.9308-.6038-.9308h-6.6463c-.4676 0-.8467.4353-.8467.9712v4.6155c0 .5363.372.888.8283.786l5.4157-1.3299c.4574-.1022.9374-.6035 1.0711-1.116z" fill="#1c1f34"/></g><ellipse cx="6.05256" cy="3.71349" fill="#242d5f" opacity=".1" rx="6.05256" ry="3.71349" transform="matrix(-1 0 0 1 61.6084 14.3105)"/><ellipse cx="5.42735" cy="3.60669" fill="#1c1f34" rx="5.42735" ry="3.60669" transform="matrix(-1 0 0 1 60.9756 14.9746)"/><path clip-rule="evenodd" d="m12.0987 19.161c.4847 0 .8791-.3955.8791-.8833v-1.0995c0-.4878.0453-.8833-.4406-.8833h-5.91417c-.48577 0-.85503.3937-.82438.8794l.10986 1.4342c.03674.4866.80031 2.3969 1.01104 2.7147.21072.3177.98895.3011.98895.3011.47987.0649.82266-.5059.76213-.9902l-.18413-1.4731z" fill="#1c1f34" fill-rule="evenodd"/><ellipse cx="15.5854" cy="17.7395" fill="#242d5f" opacity=".1" rx="6.14981" ry="3.42896"/><ellipse cx="15.5566" cy="18.4085" fill="#1c1f34" rx="5.47943" ry="3.43581"/><ellipse cx="4.61236" cy="4.57008" fill="#1c1f34" rx="4.61236" ry="4.57008" transform="matrix(-1 0 0 1 59.9863 15.3516)"/><ellipse cx="2.85526" cy="2.8291" fill="url(#q)" rx="2.85526" ry="2.8291" transform="matrix(-1 0 0 1 58.2285 17.0918)"/><ellipse cx="1.53745" cy="1.52336" fill="#1c1f34" rx="1.53745" ry="1.52336" transform="matrix(-1 0 0 1 56.9111 18.3984)"/><ellipse cx=".220001" cy=".21798" fill="#1c1f34" rx=".220001" ry=".21798" transform="matrix(-1 0 0 1 55.5938 21.8809)"/><ellipse cx=".220287" cy=".217703" fill="#1c1f34" rx=".220287" ry=".217703" transform="matrix(-.938474 .34535 .338714 .940889 54.7559 17.5957)"/><ellipse cx=".221007" cy=".217001" fill="#1c1f34" rx=".221007" ry=".217001" transform="matrix(-.762559 .646919 .638646 .769501 56.8154 21.2793)"/><ellipse cx=".221824" cy=".216199" fill="#1c1f34" rx=".221824" ry=".216199" transform="matrix(-.495889 .868386 .863632 .504123 53.3945 18.5332)"/><ellipse cx=".222355" cy=".215674" fill="#1c1f34" rx=".222355" ry=".215674" transform="matrix(-.171811 .98513 .984479 .175504 57.3633 20.043)"/><ellipse cx=".222355" cy=".215674" fill="#1c1f34" rx=".222355" ry=".215674" transform="matrix(.171809 .98513 .984478 -.175506 52.9609 20.1191)"/><ellipse cx=".221824" cy=".216199" fill="#1c1f34" rx=".221824" ry=".216199" transform="matrix(.495889 .868386 .863632 -.504122 56.9795 18.75)"/><ellipse cx=".221007" cy=".217001" fill="#1c1f34" rx=".221007" ry=".217001" transform="matrix(.762557 .646921 .638644 -.769502 53.6562 21.6133)"/><ellipse cx=".220287" cy=".217703" fill="#1c1f34" rx=".220287" ry=".217703" transform="matrix(.938477 .345343 .338721 -.940887 55.8457 18.0059)"/><ellipse cx="4.61236" cy="4.57008" fill="#1c1f34" rx="4.61236" ry="4.57008" transform="matrix(-1 0 0 1 20.3311 15.3516)"/><ellipse cx="2.85526" cy="2.8291" fill="url(#q)" rx="2.85526" ry="2.8291" transform="matrix(-1 0 0 1 18.5742 17.0918)"/><ellipse cx="1.53745" cy="1.52336" fill="#1c1f34" rx="1.53745" ry="1.52336" transform="matrix(-1 0 0 1 17.2568 18.3984)"/><ellipse cx=".220001" cy=".21798" fill="#1c1f34" rx=".220001" ry=".21798" transform="matrix(-1 0 0 1 15.9385 21.8809)"/><ellipse cx=".220287" cy=".217703" fill="#1c1f34" rx=".220287" ry=".217703" transform="matrix(-.938476 .345345 .338719 .940888 15.1006 17.5957)"/><ellipse cx=".221007" cy=".217001" fill="#1c1f34" rx=".221007" ry=".217001" transform="matrix(-.762557 .646921 .638644 .769502 17.1611 21.2793)"/><ellipse cx=".221824" cy=".216199" fill="#1c1f34" rx=".221824" ry=".216199" transform="matrix(-.495891 .868385 .863633 .50412 13.7402 18.5332)"/><ellipse cx=".222355" cy=".215674" fill="#1c1f34" rx=".222355" ry=".215674" transform="matrix(-.17181 .98513 .984479 .175505 17.708 20.043)"/><ellipse cx=".222355" cy=".215674" fill="#1c1f34" rx=".222355" ry=".215674" transform="matrix(.171809 .98513 .984478 -.175506 13.3066 20.1191)"/><ellipse cx=".221824" cy=".216199" fill="#1c1f34" rx=".221824" ry=".216199" transform="matrix(.495893 .868384 .863635 -.504118 17.3252 18.75)"/><ellipse cx=".221007" cy=".217001" fill="#1c1f34" rx=".221007" ry=".217001" transform="matrix(.762559 .646919 .638646 -.769501 14.001 21.6133)"/><ellipse cx=".220287" cy=".217703" fill="#1c1f34" rx=".220287" ry=".217703" transform="matrix(.938477 .345343 .338721 -.940887 16.1904 18.0059)"/></svg>