<svg width="327" height="136" viewBox="0 0 327 136" fill="none" xmlns="http://www.w3.org/2000/svg">
<mask id="mask0_1266_18836" style="mask-type:alpha" maskUnits="userSpaceOnUse" x="0" y="0" width="327" height="136">
<rect width="326.923" height="136" fill="white"/>
</mask>
<g mask="url(#mask0_1266_18836)">
<g opacity="0.03">
<path fill-rule="evenodd" clip-rule="evenodd" d="M295.983 52.1262V130.909V52.1262Z" stroke="#1F2652" stroke-width="0.750061" stroke-linecap="round" stroke-linejoin="round"/>
<path d="M39.3218 77.0558V77.0558C36.0677 73.9293 30.9626 73.9293 27.7088 77.0558C24.4547 73.9293 19.3496 73.9293 16.0954 77.0558V77.0558C12.8413 73.9293 7.73654 73.9293 4.48242 77.0558V127.465" stroke="#1F2652" stroke-width="0.750061" stroke-linecap="round" stroke-linejoin="round"/>
<path d="M27.709 77.0564V80.3962" stroke="#1F2652" stroke-width="0.750061" stroke-linecap="round" stroke-linejoin="round"/>
<path d="M39.5825 119.162H140.864" stroke="#1F2652" stroke-width="0.750061" stroke-linecap="round" stroke-linejoin="round"/>
<path d="M139.596 107.415H142.328" stroke="#1F2652" stroke-width="0.750061" stroke-linecap="round" stroke-linejoin="round"/>
<path d="M137.903 95.668H154.49" stroke="#1F2652" stroke-width="0.750061" stroke-linecap="round" stroke-linejoin="round"/>
<path d="M137.903 83.9214H154.49" stroke="#1F2652" stroke-width="0.750061" stroke-linecap="round" stroke-linejoin="round"/>
<path d="M192.677 83.9214H200.242" stroke="#1F2652" stroke-width="0.750061" stroke-linecap="round" stroke-linejoin="round"/>
<path d="M137.903 72.1741H154.49" stroke="#1F2652" stroke-width="0.750061" stroke-linecap="round" stroke-linejoin="round"/>
<path d="M137.903 60.4272H200.242" stroke="#1F2652" stroke-width="0.750061" stroke-linecap="round" stroke-linejoin="round"/>
<path d="M39.5825 107.415H48.1083" stroke="#1F2652" stroke-width="0.750061" stroke-linecap="round" stroke-linejoin="round"/>
<path d="M39.5825 95.668H49.8017" stroke="#1F2652" stroke-width="0.750061" stroke-linecap="round" stroke-linejoin="round"/>
<path d="M39.5825 83.9214H49.8017" stroke="#1F2652" stroke-width="0.750061" stroke-linecap="round" stroke-linejoin="round"/>
<path d="M39.5825 72.1741H49.8017" stroke="#1F2652" stroke-width="0.750061" stroke-linecap="round" stroke-linejoin="round"/>
<path d="M39.5825 60.4272H49.8017" stroke="#1F2652" stroke-width="0.750061" stroke-linecap="round" stroke-linejoin="round"/>
<path d="M148.122 100.526V52.1262H39.5825V130.911" stroke="#1F2652" stroke-width="0.750061" stroke-linecap="round" stroke-linejoin="round"/>
<path fill-rule="evenodd" clip-rule="evenodd" d="M151.188 46.5408H36.9146V49.7383C36.9146 51.0573 37.9716 52.1261 39.2752 52.1261H148.827C150.131 52.1261 151.188 51.0573 151.188 49.7383V46.5408Z" stroke="#1F2652" stroke-width="0.750061" stroke-linecap="round" stroke-linejoin="round"/>
<path d="M148.123 52.1261H296.324C297.627 52.1261 298.684 51.0569 298.684 49.7383V46.5408H151.188" stroke="#1F2652" stroke-width="0.750061" stroke-linecap="round" stroke-linejoin="round"/>
<path fill-rule="evenodd" clip-rule="evenodd" d="M94.0511 33.5256L36.9146 46.5404H151.188L94.0511 33.5256Z" stroke="#1F2652" stroke-width="0.750061" stroke-linecap="round" stroke-linejoin="round"/>
<path d="M298.684 46.5408L193.347 22.6855L119.69 39.3664" stroke="#1F2652" stroke-width="0.750061" stroke-linecap="round" stroke-linejoin="round"/>
<path fill-rule="evenodd" clip-rule="evenodd" d="M49.8018 104.75H137.903V57.9922H49.8018V104.75Z" stroke="#1F2652" stroke-width="0.750061" stroke-linecap="round" stroke-linejoin="round"/>
<path d="M6.47212 130.841H0" stroke="#1F2652" stroke-width="0.750061" stroke-linecap="round" stroke-linejoin="round"/>
<path d="M16.0957 77.0564V81.1601" stroke="#1F2652" stroke-width="0.750061" stroke-linecap="round" stroke-linejoin="round"/>
<path d="M9.59229 130.911H347.962" stroke="#1F2652" stroke-width="0.750061" stroke-linecap="round" stroke-linejoin="round"/>
<path fill-rule="evenodd" clip-rule="evenodd" d="M49.1301 114.923H138.574L139.937 104.75H47.7676L49.1301 114.923Z" stroke="#1F2652" stroke-width="0.750061" stroke-linecap="round" stroke-linejoin="round"/>
<path d="M52.5273 104.75V60.7483H92.4903V104.659" stroke="#1F2652" stroke-width="0.750061" stroke-linecap="round" stroke-linejoin="round"/>
<path d="M95.2148 104.659V60.7483H135.178V104.75" stroke="#1F2652" stroke-width="0.750061" stroke-linecap="round" stroke-linejoin="round"/>
<path d="M58.9961 67.6514L52.5273 74.1946" stroke="#1F2652" stroke-width="0.750061" stroke-linecap="round" stroke-linejoin="round"/>
<path d="M55.5897 66.6174L52.5273 69.715" stroke="#1F2652" stroke-width="0.750061" stroke-linecap="round" stroke-linejoin="round"/>
<path d="M128.424 60.7483L119.69 69.5821" stroke="#1F2652" stroke-width="0.750061" stroke-linecap="round" stroke-linejoin="round"/>
<path d="M132.736 60.7483L128.079 65.4598" stroke="#1F2652" stroke-width="0.750061" stroke-linecap="round" stroke-linejoin="round"/>
<path d="M189.953 130.909V68.7288H157.215V109.519" stroke="#1F2652" stroke-width="0.750061" stroke-linecap="round" stroke-linejoin="round"/>
<path d="M192.678 130.909V65.9727H154.49V108.682" stroke="#1F2652" stroke-width="0.750061" stroke-linecap="round" stroke-linejoin="round"/>
<path fill-rule="evenodd" clip-rule="evenodd" d="M163.425 96.7263C163.425 95.837 162.713 95.1162 161.834 95.1162C160.954 95.1162 160.242 95.837 160.242 96.7263C160.242 97.6157 160.954 98.3365 161.834 98.3365C162.713 98.3365 163.425 97.6157 163.425 96.7263Z" stroke="#1F2652" stroke-width="0.750061" stroke-linecap="round" stroke-linejoin="round"/>
<path d="M192.677 119.162H295.982" stroke="#1F2652" stroke-width="0.750061" stroke-linecap="round" stroke-linejoin="round"/>
<path d="M192.677 72.1741H200.242" stroke="#1F2652" stroke-width="0.750061" stroke-linecap="round" stroke-linejoin="round"/>
<path d="M192.677 95.668H200.242" stroke="#1F2652" stroke-width="0.750061" stroke-linecap="round" stroke-linejoin="round"/>
<path d="M192.677 107.415H198.564" stroke="#1F2652" stroke-width="0.750061" stroke-linecap="round" stroke-linejoin="round"/>
<path d="M95.2148 98.2201L98.4202 94.9778" stroke="#1F2652" stroke-width="0.750061" stroke-linecap="round" stroke-linejoin="round"/>
<path fill-rule="evenodd" clip-rule="evenodd" d="M200.242 104.75H288.343V57.9922H200.242V104.75Z" stroke="#1F2652" stroke-width="0.750061" stroke-linecap="round" stroke-linejoin="round"/>
<path fill-rule="evenodd" clip-rule="evenodd" d="M199.571 114.923H289.015L290.377 104.75H198.208L199.571 114.923Z" stroke="#1F2652" stroke-width="0.750061" stroke-linecap="round" stroke-linejoin="round"/>
<path d="M202.967 104.75V60.7483H242.93V104.659" stroke="#1F2652" stroke-width="0.750061" stroke-linecap="round" stroke-linejoin="round"/>
<path d="M245.655 104.659V60.7483H285.618V104.75" stroke="#1F2652" stroke-width="0.750061" stroke-linecap="round" stroke-linejoin="round"/>
<path d="M232.274 60.8901L227.508 65.7105" stroke="#1F2652" stroke-width="0.750061" stroke-linecap="round" stroke-linejoin="round"/>
<path d="M227.578 60.8928L220.037 68.5207" stroke="#1F2652" stroke-width="0.750061" stroke-linecap="round" stroke-linejoin="round"/>
<path d="M245.655 98.2201L248.861 94.9778" stroke="#1F2652" stroke-width="0.750061" stroke-linecap="round" stroke-linejoin="round"/>
<path fill-rule="evenodd" clip-rule="evenodd" d="M31.8418 115.561H14.6968V117.726L15.9156 117.728L16.9865 130.837H29.4764L30.5473 117.71L31.8418 117.726V115.561Z" fill="#1F2652" stroke="#1F2652" stroke-width="0.750061"/>
<path fill-rule="evenodd" clip-rule="evenodd" d="M31.8418 115.561H14.6968V117.833L15.9156 117.835L16.9865 131.593H29.4764L30.5473 117.817L31.8418 117.833V115.561Z" stroke="#1F2652" stroke-width="0.750061" stroke-linecap="round" stroke-linejoin="round"/>
<path d="M15.9155 117.729C16.1955 117.755 30.5473 117.729 30.5473 117.729" stroke="#1F2652" stroke-width="0.750061" stroke-linecap="round" stroke-linejoin="round"/>
<path fill-rule="evenodd" clip-rule="evenodd" d="M17.5479 115.561C17.5479 115.561 14.6161 112.015 15.543 107.794C16.4698 103.573 17.3671 102.165 16.1997 99.4191C15.0323 96.673 14.9284 93.3449 17.0952 93.3449C19.262 93.3449 19.6837 94.3189 19.6837 94.3189C19.6837 94.3189 15.7879 88.4745 18.6659 84.4969C21.544 80.5193 26.7135 80.9252 29.4423 85.1464C32.1712 89.3673 33.2793 95.752 32.0721 98.6476C30.8648 101.543 33.3266 112.908 33.3266 112.908L30.3423 115.561H17.5479Z" fill="#1F2652" stroke="#1F2652" stroke-width="0.750061"/>
<path fill-rule="evenodd" clip-rule="evenodd" d="M17.5479 115.561C17.5479 115.561 14.6161 112.015 15.543 107.794C16.4698 103.573 17.3671 102.165 16.1997 99.4191C15.0323 96.673 14.9284 93.3449 17.0952 93.3449C19.262 93.3449 19.6837 94.3189 19.6837 94.3189C19.6837 94.3189 15.7879 88.4745 18.6659 84.4969C21.544 80.5193 26.7135 80.9252 29.4423 85.1464C32.1712 89.3673 33.2793 95.752 32.0721 98.6476C30.8648 101.543 33.3266 112.908 33.3266 112.908L30.3423 115.561H17.5479Z" stroke="#1F2652" stroke-width="0.750061" stroke-linecap="round" stroke-linejoin="round"/>
<path d="M24.4736 115.562C24.4736 115.562 22.1188 108.897 23.2674 103.922C24.416 98.9462 26.2303 93.9931 25.0282 90.1382" stroke="#1F2652" stroke-width="0.750061" stroke-linecap="round" stroke-linejoin="round"/>
<path d="M28.0554 93.9131C28.0554 93.9131 27.2385 96.0563 25.0952 96.2427" stroke="#1F2652" stroke-width="0.750061" stroke-linecap="round" stroke-linejoin="round"/>
<path fill-rule="evenodd" clip-rule="evenodd" d="M20.748 100.712L23.1574 102.85L20.748 100.712Z" fill="#1F2652"/>
<path d="M20.748 100.712L23.1574 102.85" stroke="#1F2652" stroke-width="0.750061"/>
<path d="M20.748 100.712L23.1574 102.85" stroke="#1F2652" stroke-width="0.750061" stroke-linecap="round" stroke-linejoin="round"/>
<path fill-rule="evenodd" clip-rule="evenodd" d="M25.7929 109.904L23.5981 112.367L25.7929 109.904Z" fill="#1F2652"/>
<path d="M25.7929 109.904L23.5981 112.367" stroke="#1F2652" stroke-width="0.750061"/>
<path d="M25.7929 109.904L23.5981 112.367" stroke="#1F2652" stroke-width="0.750061" stroke-linecap="round" stroke-linejoin="round"/>
<path fill-rule="evenodd" clip-rule="evenodd" d="M39.5989 121.539C39.5989 121.539 41.9279 118.49 41.7674 115.06C41.607 111.629 38.4513 110.759 39.5989 107.664C40.7465 104.568 41.6796 100.312 39.3482 98.8615C37.0172 97.4105 33.5748 97.4605 31.3753 99.4668C29.1758 101.473 28.2588 105.342 29.4823 108.147C30.7059 110.952 30.417 113.854 28.9356 116.078C27.4545 118.303 28.9356 121.539 28.9356 121.539" fill="#1F2652"/>
<path d="M39.5989 121.539C39.5989 121.539 41.9279 118.49 41.7674 115.06C41.607 111.629 38.4513 110.759 39.5989 107.664C40.7465 104.568 41.6796 100.312 39.3482 98.8615C37.0172 97.4105 33.5748 97.4605 31.3753 99.4668C29.1758 101.473 28.2588 105.342 29.4823 108.147C30.7059 110.952 30.417 113.854 28.9356 116.078C27.4545 118.303 28.9356 121.539 28.9356 121.539" stroke="#1F2652" stroke-width="0.750061"/>
<path d="M39.5989 121.539C39.5989 121.539 41.9279 118.49 41.7674 115.06C41.607 111.629 38.4513 110.759 39.5989 107.664C40.7465 104.568 41.6796 100.312 39.3482 98.8615C37.0172 97.4105 33.5748 97.4605 31.3753 99.4668C29.1758 101.473 28.2588 105.342 29.4823 108.147C30.7059 110.952 30.417 113.854 28.9356 116.078C27.4545 118.303 28.9356 121.539 28.9356 121.539" stroke="#1F2652" stroke-width="0.750061" stroke-linecap="round" stroke-linejoin="round"/>
<path fill-rule="evenodd" clip-rule="evenodd" d="M41.1234 121.539H27.5483V123.704L28.7675 123.706L29.4815 130.911H39.115L39.829 123.688L41.1234 123.704V121.539Z" fill="#1F2652" stroke="#1F2652" stroke-width="0.750061"/>
<path fill-rule="evenodd" clip-rule="evenodd" d="M41.1234 121.539H27.5483V123.878L28.7675 123.88L29.4815 131.667H39.115L39.829 123.862L41.1234 123.878V121.539Z" stroke="#1F2652" stroke-width="0.750061" stroke-linecap="round" stroke-linejoin="round"/>
<path d="M34.2119 121.539C34.2119 121.539 35.7141 118.013 35.0271 110.856C34.3403 103.698 35.2069 102.73 35.2069 102.73" stroke="#1F2652" stroke-width="0.750061" stroke-linecap="round" stroke-linejoin="round"/>
<path d="M32.9058 115.498L35.2068 117.336L37.4001 115.498" stroke="#1F2652" stroke-width="0.750061" stroke-linecap="round" stroke-linejoin="round"/>
<path d="M32.9058 104.114L34.7091 105.343" stroke="#1F2652" stroke-width="0.750061" stroke-linecap="round" stroke-linejoin="round"/>
<path d="M28.7671 123.706C29.0471 123.732 39.8286 123.706 39.8286 123.706" stroke="#1F2652" stroke-width="0.750061" stroke-linecap="round" stroke-linejoin="round"/>
<path d="M145.846 129.189C145.846 129.189 142.044 126.468 141.047 122.516C140.049 118.563 141.84 117.55 143.243 117.825C144.646 118.099 146.288 115.775 144.975 113.259C143.662 110.742 141.493 105.8 143.524 103.13C145.556 100.461 148.679 100.213 150.669 101.613C152.658 103.012 153.594 106.549 153.885 107.593C154.597 110.145 156.345 107.958 157.318 109.519C157.902 110.455 159.202 113.388 158.881 117.714C158.196 126.954 153.855 129.608 153.855 129.608" stroke="#1F2652" stroke-width="0.750061" stroke-linecap="round" stroke-linejoin="round"/>
<path d="M150.127 128.586C150.127 128.586 151.147 124.947 150.995 118.766C150.842 112.586 148.556 107.86 148.556 107.86" stroke="#1F2652" stroke-width="0.750061" stroke-linecap="round" stroke-linejoin="round"/>
<path d="M154.5 114.427C154.5 114.427 153.694 118.334 151.24 120.338" stroke="#1F2652" stroke-width="0.750061" stroke-linecap="round" stroke-linejoin="round"/>
<path d="M147.793 123.615C147.793 123.615 149.548 125.322 150.69 125.663" stroke="#1F2652" stroke-width="0.750061" stroke-linecap="round" stroke-linejoin="round"/>
<path d="M143.049 130.909C143.049 130.909 145.556 128.854 147.878 128.58C150.199 128.307 152.893 129.023 154.1 129.745C155.307 130.467 155.493 130.909 155.493 130.909" stroke="#1F2652" stroke-width="0.750061" stroke-linecap="round" stroke-linejoin="round"/>
<path d="M157.215 130.911V125.044" stroke="#1F2652" stroke-width="0.750061" stroke-linecap="round" stroke-linejoin="round"/>
<path d="M331.086 127.281V77.7573C327.832 74.6307 322.727 74.6307 319.473 77.7573C316.219 74.6307 311.114 74.6307 307.86 77.7573C304.605 74.6307 299.5 74.6307 296.247 77.7573" stroke="#1F2652" stroke-width="0.750061" stroke-linecap="round" stroke-linejoin="round"/>
<path d="M307.861 124.962V130.983" stroke="#1F2652" stroke-width="0.750061" stroke-linecap="round" stroke-linejoin="round"/>
<path d="M319.451 77.7573V84.9362" stroke="#1F2652" stroke-width="0.750061" stroke-linecap="round" stroke-linejoin="round"/>
<path d="M0.698242 40.2351H6.5906C6.5906 40.2351 3.78476 35.1662 7.01162 31.7275C10.2385 28.2885 10.6592 35.9811 10.6592 35.9811C10.6592 35.9811 11.0802 27.1004 15.5695 26.176C20.0591 25.2518 22.6241 35.9432 15.7497 40.2351H22.0232" stroke="#1F2652" stroke-width="0.750061" stroke-linecap="round" stroke-linejoin="round"/>
<path d="M24.5684 40.2354H25.4937" stroke="#1F2652" stroke-width="0.750061" stroke-linecap="round" stroke-linejoin="round"/>
<path d="M341.927 50.5805H335.74C335.74 50.5805 340.097 45.2581 337.665 41.6471C335.233 38.0361 332.651 46.114 332.651 46.114C332.651 46.114 334.68 36.7885 330.222 35.8182C325.766 34.8479 320.098 46.074 326.123 50.5805H319.536" stroke="#1F2652" stroke-width="0.750061" stroke-linecap="round" stroke-linejoin="round"/>
<path d="M316.86 50.5803H315.889" stroke="#1F2652" stroke-width="0.750061" stroke-linecap="round" stroke-linejoin="round"/>
<path d="M111.321 20.3997H112.571" stroke="#1F2652" stroke-width="0.750061" stroke-linecap="round" stroke-linejoin="round"/>
<path d="M288.343 60.4272H295.983" stroke="#1F2652" stroke-width="0.750061" stroke-linecap="round" stroke-linejoin="round"/>
<path d="M288.343 72.1741H295.983" stroke="#1F2652" stroke-width="0.750061" stroke-linecap="round" stroke-linejoin="round"/>
<path d="M288.343 83.9214H295.983" stroke="#1F2652" stroke-width="0.750061" stroke-linecap="round" stroke-linejoin="round"/>
<path d="M288.343 95.668H295.983" stroke="#1F2652" stroke-width="0.750061" stroke-linecap="round" stroke-linejoin="round"/>
<path d="M290.021 107.415H295.983" stroke="#1F2652" stroke-width="0.750061" stroke-linecap="round" stroke-linejoin="round"/>
</g>
<rect width="123.04" height="1.34244" rx="0.671222" transform="matrix(-1 0 0 1 239.938 128.127)" fill="#1C1F34"/>
<rect width="11.3562" height="1.34244" rx="0.671222" transform="matrix(-1 0 0 1 114.601 128.127)" fill="#1C1F34"/>
<rect width="3.9834" height="1.34244" rx="0.671222" transform="matrix(-1 0 0 1 248.273 128.128)" fill="#1C1F34"/>
<path fill-rule="evenodd" clip-rule="evenodd" d="M108.89 72.1882C108.913 71.4384 108.311 70.818 107.561 70.8167L91.876 70.7901C90.8695 70.7884 90.0219 71.5337 89.9134 72.5342C89.5557 75.831 88.8327 83.429 88.6814 92.1744C88.5236 101.29 88.9812 110.414 89.1926 114.024C89.2479 114.967 89.9663 115.697 90.9108 115.719C91.8558 115.742 93.307 115.752 95.4912 115.72C99.2781 115.666 104.141 115.456 106.378 115.353C107.071 115.321 107.619 114.76 107.64 114.067L108.89 72.1882Z" fill="#1C1F34"/>
<path fill-rule="evenodd" clip-rule="evenodd" d="M109.947 72.4857C109.958 72.1102 109.657 71.7996 109.281 71.7995L92.3156 71.795C91.6485 71.7948 91.0863 72.2843 91.0086 72.9468C90.6811 75.7389 89.8882 83.2931 89.735 92.1463C89.5767 101.294 90.0953 110.453 90.2921 113.522C90.3325 114.151 90.8132 114.64 91.4433 114.662C92.3402 114.692 93.9115 114.716 96.5624 114.681C100.347 114.632 105.208 114.436 107.446 114.338C108.14 114.308 108.69 113.747 108.711 113.052L109.947 72.4857Z" fill="url(#paint0_linear_1266_18836)"/>
<mask id="mask1_1266_18836" style="mask-type:alpha" maskUnits="userSpaceOnUse" x="89" y="71" width="21" height="44">
<path fill-rule="evenodd" clip-rule="evenodd" d="M109.947 72.4857C109.958 72.1102 109.657 71.7996 109.281 71.7995L92.3156 71.795C91.6485 71.7948 91.0863 72.2843 91.0086 72.9468C90.6811 75.7389 89.8882 83.2931 89.735 92.1463C89.5767 101.294 90.0953 110.453 90.2921 113.522C90.3325 114.151 90.8132 114.64 91.4433 114.662C92.3402 114.692 93.9115 114.716 96.5624 114.681C100.347 114.632 105.208 114.436 107.446 114.338C108.14 114.308 108.69 113.747 108.711 113.052L109.947 72.4857Z" fill="white"/>
</mask>
<g mask="url(#mask1_1266_18836)">
<path fill-rule="evenodd" clip-rule="evenodd" d="M105.603 109.624L90.0094 109.624L90.0094 111.162L105.603 111.161L105.603 109.624Z" fill="#1C1F34"/>
<path fill-rule="evenodd" clip-rule="evenodd" d="M105.612 110.136L90.0188 110.136L90.0187 115.776L105.612 115.775L105.612 110.136Z" fill="#1C1F34"/>
<path fill-rule="evenodd" clip-rule="evenodd" d="M93.4731 93.7129C93.0516 93.7055 92.7039 94.0458 92.6966 94.4694L92.6274 98.4671C92.6201 98.8924 92.9529 99.2431 93.3773 99.2505C93.7988 99.258 94.1465 98.9176 94.1539 98.494L94.223 94.4963C94.2304 94.0711 93.8976 93.7204 93.4731 93.7129Z" fill="#1C1F34"/>
<path opacity="0.1" fill-rule="evenodd" clip-rule="evenodd" d="M118.438 97.7166L88.9262 97.1965L88.9173 97.7096L118.43 98.2296L118.438 97.7166Z" fill="#242D5F"/>
<path fill-rule="evenodd" clip-rule="evenodd" d="M102.05 102.934C102.05 102.367 101.596 101.908 101.034 101.908L93.9048 101.909C93.344 101.909 92.8895 102.364 92.8894 102.934L92.8894 106.01C92.8894 106.576 93.3436 107.035 93.9047 107.035L101.034 107.035C101.595 107.035 102.05 106.58 102.05 106.01L102.05 102.934Z" fill="white"/>
<path fill-rule="evenodd" clip-rule="evenodd" d="M102.05 102.934C102.05 102.367 101.596 101.908 101.034 101.908L93.9048 101.909C93.344 101.909 92.8895 102.364 92.8894 102.934L92.8894 106.01C92.8894 106.576 93.3436 107.035 93.9047 107.035L101.034 107.035C101.595 107.035 102.05 106.58 102.05 106.01L102.05 102.934Z" fill="url(#paint1_linear_1266_18836)" fill-opacity="0.2"/>
<path fill-rule="evenodd" clip-rule="evenodd" d="M101.049 103.367C101.049 103.138 100.866 102.952 100.646 102.952L94.3281 102.952C94.1053 102.952 93.9246 103.135 93.9246 103.367L93.9246 105.613C93.9246 105.842 94.1078 106.028 94.328 106.028L100.646 106.028C100.869 106.028 101.049 105.845 101.049 105.613L101.049 103.367Z" fill="white"/>
<path opacity="0.1" fill-rule="evenodd" clip-rule="evenodd" d="M99.8633 103.336L95.1134 103.336L95.1134 103.767L99.8633 103.767L99.8633 103.336Z" fill="black"/>
<path opacity="0.1" fill-rule="evenodd" clip-rule="evenodd" d="M99.8633 105.259L95.1134 105.259L95.1134 105.691L99.8633 105.691L99.8633 105.259Z" fill="black"/>
<path fill-rule="evenodd" clip-rule="evenodd" d="M95.2607 104.283L95.2607 103.997L95.4038 103.997C95.4174 103.997 95.4306 103.999 95.4432 104.003C95.4559 104.007 95.4671 104.014 95.4768 104.024C95.4866 104.035 95.4944 104.049 95.5002 104.067C95.506 104.086 95.509 104.109 95.509 104.138C95.509 104.189 95.5002 104.226 95.4827 104.249C95.4651 104.272 95.4427 104.283 95.4155 104.283L95.2607 104.283ZM95.1074 103.788L95.1074 105.012L95.4432 105.012C95.4743 105.012 95.5046 105.005 95.534 104.991C95.5634 104.978 95.5897 104.956 95.6126 104.928C95.6356 104.899 95.6539 104.862 95.6675 104.817C95.6811 104.772 95.6879 104.719 95.6879 104.657C95.6879 104.58 95.6773 104.515 95.6563 104.461C95.6353 104.406 95.6034 104.368 95.5607 104.347C95.5918 104.32 95.6152 104.287 95.6311 104.246C95.6469 104.204 95.6549 104.153 95.6549 104.091C95.6549 104.034 95.6495 103.986 95.6388 103.947C95.6282 103.908 95.6131 103.877 95.5937 103.854C95.5743 103.83 95.551 103.813 95.5238 103.803C95.4967 103.793 95.4666 103.788 95.4336 103.788L95.1074 103.788ZM95.2604 104.803L95.2604 104.468L95.4263 104.468C95.4593 104.468 95.4858 104.481 95.5058 104.508C95.5259 104.535 95.5359 104.58 95.5359 104.642C95.5359 104.674 95.5328 104.701 95.5267 104.721C95.5205 104.742 95.5123 104.758 95.502 104.77C95.4916 104.782 95.4796 104.791 95.4661 104.796C95.4525 104.801 95.4383 104.803 95.4234 104.803L95.2604 104.803ZM96.1094 104.117L96.1094 104.533L95.9302 104.533L96.1065 104.117L96.1094 104.117ZM96.1092 104.733L96.1091 105.011L96.2402 105.011L96.2402 104.733L96.3305 104.733L96.3305 104.533L96.2402 104.533L96.2402 103.811L96.1169 103.811L95.8218 104.51L95.8218 104.733L96.1092 104.733ZM96.5949 104.137C96.5949 104.11 96.5977 104.086 96.6032 104.065C96.6087 104.045 96.6163 104.028 96.6261 104.014C96.6358 104 96.647 103.99 96.6596 103.982C96.6723 103.975 96.6854 103.971 96.6991 103.971C96.7205 103.971 96.7379 103.977 96.7512 103.988C96.7645 104 96.7749 104.014 96.7823 104.031C96.7898 104.048 96.7948 104.066 96.7974 104.085C96.8 104.104 96.8013 104.121 96.8013 104.137C96.8013 104.189 96.7916 104.228 96.7721 104.255C96.7526 104.282 96.7283 104.295 96.6991 104.295C96.6712 104.295 96.6468 104.282 96.626 104.255C96.6053 104.228 96.5949 104.189 96.5949 104.137ZM96.4697 104.115C96.4697 104.174 96.4781 104.226 96.4949 104.271C96.5117 104.315 96.5366 104.346 96.5696 104.362L96.5696 104.365C96.5289 104.382 96.4973 104.416 96.475 104.468C96.4527 104.519 96.4415 104.583 96.4415 104.66C96.4415 104.725 96.4488 104.781 96.4633 104.828C96.4779 104.875 96.4973 104.914 96.5216 104.945C96.5458 104.975 96.5733 104.998 96.6041 105.012C96.6348 105.027 96.6667 105.034 96.6997 105.034C96.7314 105.034 96.7625 105.026 96.7929 105.011C96.8233 104.995 96.8505 104.972 96.8744 104.941C96.8984 104.91 96.9176 104.871 96.9322 104.824C96.9467 104.778 96.954 104.722 96.954 104.658C96.954 104.583 96.943 104.519 96.921 104.467C96.899 104.415 96.8676 104.381 96.8269 104.365L96.8269 104.362C96.8599 104.342 96.8846 104.31 96.9011 104.266C96.9176 104.221 96.9259 104.169 96.9259 104.11C96.9259 104.08 96.922 104.046 96.9142 104.009C96.9065 103.972 96.8937 103.937 96.8759 103.905C96.8581 103.872 96.8346 103.844 96.8055 103.821C96.7764 103.799 96.7408 103.787 96.6987 103.787C96.6709 103.787 96.6434 103.794 96.6162 103.808C96.5891 103.821 96.5646 103.842 96.5429 103.869C96.5213 103.897 96.5036 103.931 96.49 103.972C96.4765 104.014 96.4697 104.061 96.4697 104.115ZM96.58 104.65C96.58 104.588 96.5917 104.54 96.6151 104.508C96.6385 104.475 96.6672 104.459 96.701 104.459C96.7173 104.459 96.7324 104.463 96.7464 104.473C96.7604 104.482 96.7727 104.495 96.7835 104.512C96.7942 104.529 96.8027 104.55 96.8089 104.573C96.815 104.597 96.8181 104.623 96.8181 104.651C96.8181 104.681 96.8152 104.709 96.8093 104.734C96.8035 104.759 96.7952 104.78 96.7845 104.798C96.7737 104.816 96.7614 104.83 96.7474 104.839C96.7334 104.849 96.7179 104.854 96.701 104.854C96.6847 104.854 96.6691 104.849 96.6541 104.839C96.6392 104.83 96.6263 104.816 96.6156 104.798C96.6049 104.78 96.5962 104.759 96.5897 104.734C96.5832 104.709 96.58 104.68 96.58 104.65ZM97.5515 104.02L97.5515 103.811L97.0875 103.811L97.0875 104.037L97.4097 104.037C97.345 104.175 97.2928 104.327 97.253 104.493C97.2131 104.659 97.1894 104.831 97.1816 105.011L97.3291 105.011C97.3298 104.931 97.3351 104.845 97.3452 104.752C97.3552 104.659 97.3694 104.568 97.3879 104.478C97.4063 104.387 97.4293 104.302 97.4568 104.222C97.4843 104.142 97.5159 104.075 97.5515 104.02ZM98.3267 104.548L98.3267 103.787L98.1743 103.787L98.1742 104.548C98.1742 104.64 98.1639 104.707 98.1432 104.75C98.1225 104.793 98.0849 104.814 98.0306 104.814C97.9995 104.814 97.9748 104.806 97.9563 104.791C97.9379 104.776 97.9235 104.756 97.9131 104.731C97.9028 104.706 97.896 104.678 97.8927 104.646C97.8895 104.614 97.8879 104.582 97.8879 104.548L97.8879 103.787L97.7355 103.787L97.7355 104.548C97.7355 104.715 97.7612 104.839 97.8126 104.919C97.8641 104.999 97.9367 105.039 98.0306 105.039C98.1231 105.039 98.1956 104.999 98.248 104.918C98.3004 104.837 98.3266 104.714 98.3267 104.548ZM98.6429 104.605L98.4954 104.605C98.4947 104.681 98.5025 104.746 98.5186 104.801C98.5348 104.856 98.5567 104.901 98.5842 104.936C98.6117 104.972 98.6434 104.998 98.6793 105.014C98.7152 105.031 98.7523 105.039 98.7904 105.039C98.8377 105.039 98.8793 105.029 98.9152 105.01C98.9511 104.99 98.9812 104.963 99.0055 104.928C99.0297 104.894 99.048 104.852 99.0603 104.804C99.0726 104.756 99.0788 104.704 99.0788 104.648C99.0788 104.58 99.0705 104.523 99.054 104.479C99.0375 104.435 99.0179 104.4 98.9953 104.374C98.9726 104.347 98.9498 104.328 98.9268 104.316C98.9039 104.304 98.8859 104.296 98.873 104.291C98.8296 104.272 98.7945 104.256 98.7676 104.243C98.7408 104.231 98.7198 104.218 98.7046 104.206C98.6893 104.193 98.6792 104.179 98.674 104.165C98.6688 104.15 98.6662 104.13 98.6662 104.106C98.6662 104.08 98.6694 104.058 98.6759 104.041C98.6824 104.024 98.6906 104.01 98.7007 103.998C98.7107 103.987 98.7219 103.979 98.7342 103.974C98.7465 103.97 98.7588 103.967 98.7711 103.967C98.7898 103.967 98.8071 103.97 98.823 103.976C98.8388 103.982 98.8529 103.991 98.8652 104.005C98.8775 104.019 98.8874 104.038 98.8948 104.062C98.9023 104.086 98.9066 104.116 98.9079 104.153L99.0555 104.153C99.0555 104.082 99.0479 104.021 99.0327 103.972C99.0175 103.922 98.9969 103.881 98.971 103.849C98.9451 103.817 98.9155 103.794 98.8822 103.78C98.8489 103.765 98.8141 103.758 98.7778 103.758C98.7468 103.758 98.7157 103.766 98.6847 103.781C98.6536 103.795 98.6258 103.818 98.6012 103.849C98.5766 103.88 98.5567 103.919 98.5415 103.965C98.5263 104.011 98.5187 104.066 98.5187 104.129C98.5187 104.185 98.5246 104.232 98.5366 104.272C98.5486 104.311 98.5643 104.344 98.5837 104.37C98.6031 104.397 98.6251 104.418 98.6497 104.435C98.6743 104.451 98.6995 104.465 98.7254 104.477C98.7507 104.489 98.7756 104.501 98.8002 104.511C98.8248 104.521 98.8468 104.533 98.8662 104.547C98.8856 104.561 98.9013 104.578 98.9133 104.598C98.9252 104.619 98.9312 104.646 98.9312 104.679C98.9312 104.71 98.9267 104.735 98.9176 104.755C98.9086 104.775 98.8972 104.791 98.8836 104.802C98.8701 104.814 98.8555 104.822 98.84 104.826C98.8244 104.83 98.8099 104.832 98.7963 104.832C98.7762 104.832 98.7568 104.827 98.738 104.819C98.7193 104.81 98.7029 104.797 98.689 104.779C98.6751 104.762 98.6639 104.738 98.6555 104.71C98.6471 104.681 98.6429 104.646 98.6429 104.605ZM99.427 104.539L99.5176 104.09L99.5195 104.09L99.6072 104.539L99.427 104.539ZM99.4403 103.787L99.1783 105.011L99.3316 105.011L99.386 104.739L99.6451 104.739L99.6976 105.011L99.8558 105.011L99.5966 103.787L99.4403 103.787Z" fill="#1C1F34"/>
<g opacity="0.5">
<path fill-rule="evenodd" clip-rule="evenodd" d="M107.38 77.4878C107.452 75.7893 106.149 74.3541 104.464 74.2821L95.9392 73.9175C94.2566 73.8455 92.8338 75.1659 92.7617 76.8575L92.2415 89.0608C92.1692 90.7565 93.4724 92.198 95.1566 92.2807L103.679 92.6992C105.362 92.7818 106.784 91.4706 106.856 89.7733L107.38 77.4878Z" fill="url(#paint2_linear_1266_18836)"/>
<path fill-rule="evenodd" clip-rule="evenodd" d="M107.38 77.4878C107.452 75.7893 106.149 74.3541 104.464 74.2821L95.9392 73.9175C94.2566 73.8455 92.8338 75.1659 92.7617 76.8575L92.2415 89.0608C92.1692 90.7565 93.4724 92.198 95.1566 92.2807L103.679 92.6992C105.362 92.7818 106.784 91.4706 106.856 89.7733L107.38 77.4878Z" fill="url(#paint3_linear_1266_18836)" fill-opacity="0.3"/>
</g>
<path fill-rule="evenodd" clip-rule="evenodd" d="M106.891 77.4801C106.951 76.0661 105.863 74.8711 104.456 74.8108L95.9357 74.4454C94.531 74.3852 93.3433 75.4866 93.2835 76.893L92.7642 89.1069C92.7042 90.5189 93.7921 91.7196 95.1986 91.789L103.717 92.209C105.122 92.2782 106.309 91.1917 106.369 89.7741L106.891 77.4801Z" fill="white"/>
<path fill-rule="evenodd" clip-rule="evenodd" d="M106.891 77.4801C106.951 76.0661 105.863 74.8711 104.456 74.8108L95.9357 74.4454C94.531 74.3852 93.3433 75.4866 93.2835 76.893L92.7642 89.1069C92.7042 90.5189 93.7921 91.7196 95.1986 91.789L103.717 92.209C105.122 92.2782 106.309 91.1917 106.369 89.7741L106.891 77.4801Z" fill="url(#paint4_linear_1266_18836)" fill-opacity="0.05"/>
<path fill-rule="evenodd" clip-rule="evenodd" d="M105.426 77.4642C105.45 76.9006 105.014 76.4241 104.455 76.3998L95.9056 76.0293C95.3455 76.005 94.8721 76.4442 94.8482 77.0121L94.334 89.2354C94.3102 89.8024 94.7452 90.2849 95.3048 90.313L103.852 90.7416C104.412 90.7697 104.885 90.3313 104.909 89.772L105.426 77.4642Z" fill="white"/>
<path opacity="0.1" fill-rule="evenodd" clip-rule="evenodd" d="M106.62 115.441L98.7106 115.629C98.7106 115.629 98.0776 106.876 99.0619 93.3799C100.046 79.8841 102.148 68.883 102.148 68.883L108.605 69.3206L106.62 115.441Z" fill="#242D5F"/>
</g>
<path fill-rule="evenodd" clip-rule="evenodd" d="M103.572 115.83C103.572 115.83 103.395 109.688 103.395 96.8117C103.395 83.9359 105.586 72.3555 105.586 72.3555C105.936 70.1968 107.967 68.4468 110.125 68.4468C110.125 68.4468 195.59 68.4468 209.224 68.4468C213.144 68.4468 217.678 69.6101 220.096 71.5907C226.78 77.066 235.127 84.63 238.672 86.8679C243.69 90.036 250.175 91.5503 253.227 99.3029C255.029 103.883 254.038 114.859 250.288 117.582C249.304 118.297 247.411 120.782 231.594 120.901C231.573 121.187 231.334 121.422 231.043 121.422H107.81C107.508 121.422 107.257 121.17 107.257 120.86V119.661C105.469 119.213 103.898 117.658 103.572 115.83Z" fill="#1C1F34"/>
<path fill-rule="evenodd" clip-rule="evenodd" d="M238.166 121.422H126.631V123.434H238.166V121.422Z" fill="#1C1F34"/>
<path fill-rule="evenodd" clip-rule="evenodd" d="M104.899 115.544C104.899 115.544 104.722 109.41 104.722 96.5517C104.722 83.6935 107.07 72.1403 107.07 72.1403C107.333 70.6029 108.794 69.3567 110.34 69.3567C110.34 69.3567 193.343 68.8184 208.715 69.3567C212.538 69.4906 216.074 69.7287 219.207 72.1403C226.909 78.0687 235.441 86.9595 238.928 88.3792C243.568 90.2688 250.703 94.1773 252.146 99.6172C254.3 107.733 250.209 118.194 250.062 118.3C248.223 119.635 218.848 119.969 182.06 119.997C166.32 120.009 151.832 120.179 138.719 119.997H108.021C107.719 119.997 107.468 119.746 107.468 119.436V118.937C106.177 118.243 105.155 116.978 104.899 115.544Z" fill="url(#paint5_linear_1266_18836)"/>
<path opacity="0.1" fill-rule="evenodd" clip-rule="evenodd" d="M251.869 98.6495C251.869 98.6495 243.726 93.8905 239.361 92.1372C236.109 90.8307 229.018 89.4703 229.018 89.4703L228.819 90.0564C228.819 90.0564 235.93 91.4251 239.193 92.7357C243.547 94.4849 251.669 99.2356 251.669 99.2356L251.869 98.6495Z" fill="#242D5F"/>
<path fill-rule="evenodd" clip-rule="evenodd" d="M227.513 95.5808L227.539 96.0086C227.599 96.973 226.992 98.3241 226.187 99.0225L220.089 104.315C219.444 104.875 218.163 105.328 217.217 105.328L210.644 105.328C209.703 105.328 208.946 104.703 208.954 103.93L209.037 94.6845C209.045 93.912 209.813 93.2734 210.749 93.2581L226.169 94.5564C226.875 94.5449 227.477 95.0037 227.513 95.5808Z" fill="white"/>
<path fill-rule="evenodd" clip-rule="evenodd" d="M227.513 95.5808L227.539 96.0086C227.599 96.973 226.992 98.3241 226.187 99.0225L220.089 104.315C219.444 104.875 218.163 105.328 217.217 105.328L210.644 105.328C209.703 105.328 208.946 104.703 208.954 103.93L209.037 94.6845C209.045 93.912 209.813 93.2734 210.749 93.2581L226.169 94.5564C226.875 94.5449 227.477 95.0037 227.513 95.5808Z" fill="url(#paint6_linear_1266_18836)" fill-opacity="0.05"/>
<path opacity="0.1" fill-rule="evenodd" clip-rule="evenodd" d="M230.861 103.317C230.861 103.317 208.786 98.6228 197.748 98.6228C166.517 98.6228 104.056 98.6228 104.056 98.6228V99.2096C104.056 99.2096 166.13 99.2096 197.457 99.2096C208.398 99.2096 230.28 103.317 230.28 103.317H230.861Z" fill="#242D5F"/>
<path opacity="0.2" fill-rule="evenodd" clip-rule="evenodd" d="M224.224 110.692H135.261V112.704H224.224V110.692Z" fill="black"/>
<rect width="101.456" height="7.5184" transform="matrix(-1 0 0 1 234.182 108.01)" fill="#1C1F34"/>
<path fill-rule="evenodd" clip-rule="evenodd" d="M233.602 101.605C237.058 97.4785 237.698 87.2331 237.698 87.2331L237.162 85.9121C237.162 85.9121 236.856 96.4094 233.466 100.299C230.077 104.188 229.443 115.624 229.443 115.624L230.591 119.28C230.591 119.28 230.146 105.732 233.602 101.605Z" fill="#1C1F34"/>
<path fill-rule="evenodd" clip-rule="evenodd" d="M211.324 95.6837C211.324 96.1999 210.918 96.6184 210.42 96.6184H206.83C206.331 96.6184 205.927 96.2035 205.927 95.6837C205.927 95.1675 206.333 94.749 206.83 94.749H210.42C210.919 94.749 211.324 95.1639 211.324 95.6837Z" fill="#1C1F34"/>
<path fill-rule="evenodd" clip-rule="evenodd" d="M240.82 97.5448C240.82 97.0289 240.466 96.6106 240.033 96.6106H238.985C238.55 96.6106 238.198 97.0253 238.198 97.5448C238.198 98.0608 238.552 98.4791 238.985 98.4791H240.033C240.468 98.4791 240.82 98.0644 240.82 97.5448Z" fill="#1C1F34"/>
<path fill-rule="evenodd" clip-rule="evenodd" d="M240.294 97.5437C240.294 97.3716 240.181 97.2322 240.034 97.2322H238.982C238.838 97.2322 238.722 97.3767 238.722 97.5437C238.722 97.7157 238.835 97.8551 238.982 97.8551H240.034C240.178 97.8551 240.294 97.7106 240.294 97.5437Z" fill="#F5A623"/>
<mask id="mask2_1266_18836" style="mask-type:alpha" maskUnits="userSpaceOnUse" x="238" y="97" width="3" height="1">
<path fill-rule="evenodd" clip-rule="evenodd" d="M240.294 97.5437C240.294 97.3716 240.181 97.2322 240.034 97.2322H238.982C238.838 97.2322 238.722 97.3767 238.722 97.5437C238.722 97.7157 238.835 97.8551 238.982 97.8551H240.034C240.178 97.8551 240.294 97.7106 240.294 97.5437Z" fill="white"/>
</mask>
<g mask="url(#mask2_1266_18836)">
<path fill-rule="evenodd" clip-rule="evenodd" d="M240.818 97.2322H239.771V97.8545H240.818V97.2322Z" fill="white"/>
</g>
<g opacity="0.5">
<path fill-rule="evenodd" clip-rule="evenodd" d="M201.888 72.47H118.306C115.569 72.47 113.145 73.9637 112.892 76.6531L111.781 89.8189C111.527 92.5099 113.54 94.002 116.277 94.002H201.889L201.888 72.47Z" fill="url(#paint7_linear_1266_18836)"/>
<path fill-rule="evenodd" clip-rule="evenodd" d="M201.888 72.47H118.306C115.569 72.47 113.145 73.9637 112.892 76.6531L111.781 89.8189C111.527 92.5099 113.54 94.002 116.277 94.002H201.889L201.888 72.47Z" fill="url(#paint8_linear_1266_18836)" fill-opacity="0.3"/>
</g>
<path fill-rule="evenodd" clip-rule="evenodd" d="M201.887 72.9597H118.29C115.825 72.9597 113.636 74.2318 113.4 76.6543L112.251 89.8184C112.015 92.2397 113.818 93.513 116.286 93.513H201.886L201.887 72.9597Z" fill="white"/>
<path fill-rule="evenodd" clip-rule="evenodd" d="M201.887 72.9597H118.29C115.825 72.9597 113.636 74.2318 113.4 76.6543L112.251 89.8184C112.015 92.2397 113.818 93.513 116.286 93.513H201.886L201.887 72.9597Z" fill="url(#paint9_linear_1266_18836)" fill-opacity="0.05"/>
<path fill-rule="evenodd" clip-rule="evenodd" d="M201.885 74.428H118.232C116.589 74.428 115.113 75.0483 114.937 76.6576L113.645 89.8155C113.468 91.4276 114.652 92.0451 116.302 92.0451H201.883L201.885 74.428Z" fill="url(#paint10_linear_1266_18836)"/>
<path fill-rule="evenodd" clip-rule="evenodd" d="M106.341 95.7697C106.446 92.7209 106.922 86.6786 106.922 86.6786C107.01 85.5232 106.346 84.5607 105.433 84.5285L105.183 84.5197C104.273 84.4876 103.463 85.3997 103.375 86.5605C103.375 86.5605 102.902 92.5365 102.798 95.5557C102.656 99.6674 102.953 107.611 102.953 107.611C102.991 108.765 103.757 109.727 104.671 109.76L104.92 109.768C105.83 109.8 106.535 108.888 106.497 107.722C106.497 107.722 106.2 99.8518 106.341 95.7697Z" fill="#1C1F34"/>
<path fill-rule="evenodd" clip-rule="evenodd" d="M105.398 95.9044C105.491 93.1943 106.047 86.6986 106.047 86.6986C106.079 86.3148 105.859 85.995 105.558 85.9844L104.828 85.9587C104.526 85.948 104.254 86.2513 104.221 86.6426C104.221 86.6426 103.668 93.0773 103.575 95.761C103.449 99.4159 103.672 107.672 103.672 107.672C103.682 108.058 103.936 108.379 104.237 108.389L104.967 108.415C105.27 108.426 105.507 108.123 105.497 107.733C105.497 107.733 105.272 99.5329 105.398 95.9044Z" fill="#C10000"/>
<mask id="mask3_1266_18836" style="mask-type:alpha" maskUnits="userSpaceOnUse" x="103" y="85" width="4" height="24">
<path fill-rule="evenodd" clip-rule="evenodd" d="M105.398 95.9044C105.491 93.1943 106.047 86.6986 106.047 86.6986C106.079 86.3148 105.859 85.995 105.558 85.9844L104.828 85.9587C104.526 85.948 104.254 86.2513 104.221 86.6426C104.221 86.6426 103.668 93.0773 103.575 95.761C103.449 99.4159 103.672 107.672 103.672 107.672C103.682 108.058 103.936 108.379 104.237 108.389L104.967 108.415C105.27 108.426 105.507 108.123 105.497 107.733C105.497 107.733 105.272 99.5329 105.398 95.9044Z" fill="white"/>
</mask>
<g mask="url(#mask3_1266_18836)">
<path opacity="0.4" fill-rule="evenodd" clip-rule="evenodd" d="M104.164 99.2696L103.465 99.282L103.657 107.694L104.48 107.679L104.164 99.2696Z" fill="white"/>
</g>
<path fill-rule="evenodd" clip-rule="evenodd" d="M253.826 100.635H248.465C247.876 100.635 247.51 101.128 247.649 101.743L248.566 105.807C248.704 106.419 249.297 106.915 249.885 106.915H253.885C254.476 106.915 254.993 106.401 255.04 105.778L254.806 101.772C254.853 101.144 254.413 100.635 253.826 100.635Z" fill="#1C1F34"/>
<path fill-rule="evenodd" clip-rule="evenodd" d="M253.798 101.777H248.53L249.555 105.773H253.992L253.798 101.777Z" fill="url(#paint11_linear_1266_18836)"/>
<mask id="mask4_1266_18836" style="mask-type:alpha" maskUnits="userSpaceOnUse" x="248" y="101" width="6" height="5">
<path fill-rule="evenodd" clip-rule="evenodd" d="M253.798 101.777H248.53L249.555 105.773H253.992L253.798 101.777Z" fill="white"/>
</mask>
<g mask="url(#mask4_1266_18836)">
<ellipse cx="0.708347" cy="1.34572" rx="0.708347" ry="1.34572" transform="matrix(-0.998602 0.0528605 0.0518166 0.998657 253.899 102.402)" fill="white"/>
<path opacity="0.2" fill-rule="evenodd" clip-rule="evenodd" d="M249.826 100.635H247.807V106.466H250.896L249.826 100.635Z" fill="#FF0000"/>
</g>
<path fill-rule="evenodd" clip-rule="evenodd" d="M190.032 95.9407C190.032 96.4962 190.431 96.9465 190.921 96.9465H194.454C194.945 96.9465 195.343 96.5001 195.343 95.9407C195.343 95.3852 194.944 94.9348 194.454 94.9348H190.921C190.43 94.9348 190.032 95.3813 190.032 95.9407Z" fill="#1C1F34"/>
<path fill-rule="evenodd" clip-rule="evenodd" d="M131.942 91.917V93.9287H165.801V91.917H131.942Z" fill="#1C1F34"/>
<path fill-rule="evenodd" clip-rule="evenodd" d="M167.128 72.47H165.87V122.092H167.128V72.47Z" fill="#1C1F34"/>
<path fill-rule="evenodd" clip-rule="evenodd" d="M202.315 69.1174H201.057V121.422H202.315V69.1174Z" fill="#1C1F34"/>
<path fill-rule="evenodd" clip-rule="evenodd" d="M235.106 88.7864C235.106 88.7864 220.946 74.8478 217.544 73.4142C214.141 71.9807 211.942 72.1414 210.515 72.0166L208.308 72.092C206.299 71.9165 204.876 73.3107 205.131 75.2151L205.413 85.8701C205.667 87.7704 207.496 89.4881 209.5 89.7067L233.086 91.9577C235.661 92.2387 236.589 90.8015 235.106 88.7864Z" fill="#1C1F34"/>
<path fill-rule="evenodd" clip-rule="evenodd" d="M233.97 89.5989C233.97 89.5989 223.182 78.8175 219.102 75.6644C215.022 72.5114 212.013 73.1739 210.887 73.0791L208.006 73.115C206.877 73.0199 206.079 73.8101 206.223 74.8773L206.631 86.2104C206.775 87.2788 207.809 88.2431 208.934 88.3636L233.316 90.6421C234.16 90.7325 234.454 90.2673 233.97 89.5989Z" fill="url(#paint12_linear_1266_18836)"/>
<path fill-rule="evenodd" clip-rule="evenodd" d="M207.152 77.2896C207.119 76.7653 206.641 76.3403 206.084 76.3403H206.384C205.828 76.3403 205.377 76.768 205.377 77.2896V80.8409C205.377 81.3652 205.823 81.7902 206.382 81.7902H206.43C206.985 81.7902 207.408 81.3625 207.375 80.8409L207.152 77.2896Z" fill="#1C1F34"/>
<path fill-rule="evenodd" clip-rule="evenodd" d="M206.938 83.2764H206.422C205.845 83.2764 205.505 83.8465 205.665 84.5593L207.462 88.5904H209.546L208.349 84.5223C208.147 83.8342 207.517 83.2764 206.938 83.2764Z" fill="#1C1F34"/>
<path fill-rule="evenodd" clip-rule="evenodd" d="M222.987 90.2783C222.778 90.6779 222.305 90.2665 221.927 90.0451C221.547 89.8221 221.412 89.8736 221.62 89.4764L224.151 84.6462C224.36 84.2466 224.834 84.1066 225.211 84.328C225.591 84.551 225.726 85.0509 225.518 85.448L224.142 88.074L225.857 89.5498L225.098 90.8864L223.129 90.0079L222.987 90.2783Z" fill="#1C1F34"/>
<path fill-rule="evenodd" clip-rule="evenodd" d="M235.129 89.688L230.246 84.9761L223.767 89.688L234.608 91.5294L235.129 89.688Z" fill="#1C1F34"/>
<path opacity="0.1" fill-rule="evenodd" clip-rule="evenodd" d="M234.752 90.8359C234.949 88.825 233.698 85.3748 233.698 85.3748C233.473 84.6891 232.669 83.9563 231.903 83.7383L231.062 83.4991C230.296 83.281 229.618 83.6789 229.548 84.3965L228.531 94.7946C228.462 95.5083 229.056 96.1378 229.852 96.2001L231.304 96.3138C232.103 96.3763 232.989 95.8816 233.271 95.2144C233.271 95.2144 234.615 92.2426 234.752 90.8359Z" fill="#242D5F"/>
<path fill-rule="evenodd" clip-rule="evenodd" d="M234.752 89.6291C234.91 87.9109 234.147 85.1314 234.147 85.1314C233.985 84.4653 233.306 83.735 232.631 83.5011L232.659 83.511C231.984 83.2767 231.385 83.6369 231.323 84.3163L230.528 92.9499C230.466 93.629 230.992 94.2274 231.712 94.2873L232.037 94.3143C232.753 94.3739 233.523 93.8914 233.746 93.2442C233.746 93.2442 234.641 90.831 234.752 89.6291Z" fill="#1C1F34"/>
<g opacity="0.1">
<path fill-rule="evenodd" clip-rule="evenodd" d="M223.657 81.422L217.623 74.5843C217.439 74.3764 217.113 74.3492 216.891 74.5263C216.671 74.7022 216.645 75.0176 216.824 75.2212L222.859 82.059C223.042 82.2669 223.368 82.294 223.59 82.1169C223.811 81.941 223.837 81.6257 223.657 81.422Z" fill="white"/>
<path fill-rule="evenodd" clip-rule="evenodd" d="M219.1 79.4801C219.211 79.3921 219.223 79.2333 219.132 79.1309L216.788 76.4745C216.695 76.3696 216.528 76.3585 216.421 76.4438C216.311 76.5318 216.298 76.6907 216.389 76.793L218.733 79.4494C218.826 79.5543 218.993 79.5655 219.1 79.4801Z" fill="white"/>
</g>
<path fill-rule="evenodd" clip-rule="evenodd" d="M254.671 110.853C255.017 109.529 254.322 108.455 253.115 108.455H235.979C234.773 108.455 233.796 109.576 233.796 110.957V122.845C233.796 124.227 234.755 125.132 235.932 124.87L249.894 121.444C251.074 121.181 252.311 119.89 252.656 118.57L254.671 110.853Z" fill="#1C1F34"/>
<ellipse opacity="0.1" cx="15.605" cy="9.56504" rx="15.605" ry="9.56504" transform="matrix(-1 0 0 1 246.332 103.317)" fill="#242D5F"/>
<ellipse cx="13.9931" cy="9.28995" rx="13.9931" ry="9.28995" transform="matrix(-1 0 0 1 244.697 105.03)" fill="#1C1F34"/>
<path fill-rule="evenodd" clip-rule="evenodd" d="M118.684 115.81C119.934 115.81 120.951 114.791 120.951 113.535V110.703C120.951 109.446 121.068 108.427 119.815 108.427H104.567C103.314 108.427 102.362 109.442 102.441 110.693L102.724 114.387C102.819 115.64 104.788 120.561 105.331 121.379C105.874 122.197 107.881 122.155 107.881 122.155C109.118 122.322 110.002 120.852 109.846 119.604L109.371 115.81H118.684Z" fill="#1C1F34"/>
<ellipse opacity="0.1" cx="127.673" cy="112.149" rx="15.8558" ry="8.83218" fill="#242D5F"/>
<ellipse cx="127.6" cy="113.87" rx="14.1274" ry="8.84981" fill="#1C1F34"/>
<ellipse cx="11.8919" cy="11.7714" rx="11.8919" ry="11.7714" transform="matrix(-1 0 0 1 242.149 105.999)" fill="#1C1F34"/>
<ellipse cx="7.3616" cy="7.28707" rx="7.3616" ry="7.28707" transform="matrix(-1 0 0 1 237.619 110.482)" fill="url(#paint13_linear_1266_18836)"/>
<ellipse cx="3.96394" cy="3.9238" rx="3.96394" ry="3.9238" transform="matrix(-1 0 0 1 234.221 113.846)" fill="#1C1F34"/>
<ellipse cx="0.565305" cy="0.560111" rx="0.565305" ry="0.560111" transform="matrix(-1 0 0 1 230.824 122.815)" fill="#1C1F34"/>
<ellipse cx="0.566038" cy="0.5594" rx="0.566038" ry="0.5594" transform="matrix(-0.938583 0.345055 0.339005 0.940785 228.663 111.78)" fill="#1C1F34"/>
<ellipse cx="0.567889" cy="0.557595" rx="0.567889" ry="0.557595" transform="matrix(-0.762868 0.646554 0.639013 0.769196 233.974 121.268)" fill="#1C1F34"/>
<ellipse cx="0.569988" cy="0.555535" rx="0.569988" ry="0.555535" transform="matrix(-0.496252 0.868179 0.863845 0.503758 225.155 114.192)" fill="#1C1F34"/>
<ellipse cx="0.571353" cy="0.554186" rx="0.571353" ry="0.554186" transform="matrix(-0.171973 0.985102 0.984508 0.175339 235.386 118.083)" fill="#1C1F34"/>
<ellipse cx="0.571353" cy="0.554186" rx="0.571353" ry="0.554186" transform="matrix(0.17197 0.985102 0.984508 -0.175341 224.036 118.277)" fill="#1C1F34"/>
<ellipse cx="0.569988" cy="0.555535" rx="0.569988" ry="0.555535" transform="matrix(0.496252 0.868179 0.863845 -0.503758 234.397 114.752)" fill="#1C1F34"/>
<ellipse cx="0.567889" cy="0.557595" rx="0.567889" ry="0.557595" transform="matrix(0.762867 0.646556 0.639011 -0.769198 225.827 122.125)" fill="#1C1F34"/>
<ellipse cx="0.566038" cy="0.5594" rx="0.566038" ry="0.5594" transform="matrix(0.938585 0.345048 0.339012 -0.940782 231.473 112.834)" fill="#1C1F34"/>
<ellipse cx="11.8919" cy="11.7714" rx="11.8919" ry="11.7714" transform="matrix(-1 0 0 1 139.908 105.999)" fill="#1C1F34"/>
<ellipse cx="7.3616" cy="7.28707" rx="7.3616" ry="7.28707" transform="matrix(-1 0 0 1 135.377 110.482)" fill="url(#paint14_linear_1266_18836)"/>
<ellipse cx="3.96394" cy="3.9238" rx="3.96394" ry="3.9238" transform="matrix(-1 0 0 1 131.98 113.846)" fill="#1C1F34"/>
<ellipse cx="0.565305" cy="0.560111" rx="0.565305" ry="0.560111" transform="matrix(-1 0 0 1 128.582 122.815)" fill="#1C1F34"/>
<ellipse cx="0.566038" cy="0.5594" rx="0.566038" ry="0.5594" transform="matrix(-0.938584 0.34505 0.33901 0.940783 126.422 111.78)" fill="#1C1F34"/>
<ellipse cx="0.567889" cy="0.557595" rx="0.567889" ry="0.557595" transform="matrix(-0.762867 0.646556 0.639011 0.769198 131.732 121.268)" fill="#1C1F34"/>
<ellipse cx="0.569988" cy="0.555535" rx="0.569988" ry="0.555535" transform="matrix(-0.496254 0.868178 0.863846 0.503756 122.915 114.192)" fill="#1C1F34"/>
<ellipse cx="0.571353" cy="0.554186" rx="0.571353" ry="0.554186" transform="matrix(-0.171972 0.985102 0.984508 0.17534 133.144 118.083)" fill="#1C1F34"/>
<ellipse cx="0.571353" cy="0.554186" rx="0.571353" ry="0.554186" transform="matrix(0.171971 0.985102 0.984508 -0.175341 121.794 118.277)" fill="#1C1F34"/>
<ellipse cx="0.569988" cy="0.555535" rx="0.569988" ry="0.555535" transform="matrix(0.496256 0.868176 0.863847 -0.503754 132.156 114.752)" fill="#1C1F34"/>
<ellipse cx="0.567889" cy="0.557595" rx="0.567889" ry="0.557595" transform="matrix(0.762869 0.646554 0.639013 -0.769196 123.585 122.125)" fill="#1C1F34"/>
<ellipse cx="0.566038" cy="0.5594" rx="0.566038" ry="0.5594" transform="matrix(0.938585 0.345048 0.339012 -0.940782 129.23 112.834)" fill="#1C1F34"/>
<g clip-path="url(#clip0_1266_18836)">
<path fill-rule="evenodd" clip-rule="evenodd" d="M196.34 56.3755H195.676V59.0576H168.456V59.7288H195.676V62.4106H196.34V56.3755ZM139.244 59.7288V59.0576H112.025V59.7288H139.244ZM112.025 56.3763H111.361V62.4114H112.025V56.3763Z" fill="#090A0A"/>
<path d="M149.427 62.4367C150.947 62.4367 151.796 61.5979 151.796 60.5635C151.796 59.734 151.236 59.1469 150.527 58.9232C151.134 58.6995 151.619 58.1217 151.619 57.3761C151.619 56.295 150.667 55.5494 149.427 55.5494C148.195 55.5494 147.244 56.295 147.244 57.3761C147.244 58.131 147.757 58.6995 148.326 58.9232C147.617 59.1469 147.057 59.7433 147.057 60.5635C147.057 61.5979 147.915 62.4367 149.427 62.4367ZM149.427 58.5318C148.708 58.5038 148.158 58.0937 148.158 57.4134C148.158 56.7796 148.652 56.3137 149.427 56.3137C150.21 56.3137 150.705 56.7796 150.705 57.4134C150.705 58.0937 150.145 58.5038 149.427 58.5318ZM149.427 61.6352C148.494 61.6352 147.99 61.132 147.99 60.4889C147.99 59.8179 148.522 59.3239 149.427 59.3239C150.332 59.3239 150.863 59.8179 150.863 60.4889C150.863 61.132 150.35 61.6352 149.427 61.6352Z" fill="#090A0A"/>
<path d="M157.602 58.6063V57.8141H156.52V57.1058C156.52 56.4814 156.921 56.3416 157.229 56.3416C157.453 56.3416 157.565 56.3696 157.612 56.3975V55.6147C157.574 55.5867 157.388 55.5215 157.089 55.5215C156.278 55.5215 155.615 56.0527 155.615 57.0592V57.8141H154.785V58.6063H155.615V62.2969H156.52V58.6063H157.602Z" fill="#090A0A"/>
<path d="M159.718 56.3975H158.916V57.1245C158.916 57.5252 158.71 57.8141 158.225 57.8141H157.983V58.6063H158.841V61.0667C158.841 61.8869 159.317 62.3435 160.091 62.3435C160.39 62.3435 160.613 62.2876 160.688 62.2596V61.5141C160.613 61.542 160.455 61.5513 160.343 61.5513C159.886 61.5513 159.718 61.3463 159.718 60.9362V58.6063H160.688V57.8141H159.718V56.3975Z" fill="#090A0A"/>
</g>
<g clip-path="url(#clip1_1266_18836)">
<path fill-rule="evenodd" clip-rule="evenodd" d="M81.4863 73.1414H75.5112V73.8126H81.4863V73.1414ZM81.4864 112.035H78.8308V108H78.1669V112.035H75.5113V112.706H81.4864V112.035ZM78.1669 77H78.8308V73.8128H78.1669V77Z" fill="#090A0A"/>
<path d="M79.5281 103.317H78.4676L74.5182 100.537V99.2667H78.687V98.1514H79.5281V99.2667H81V100.126H79.5281V103.317ZM78.687 100.126H75.3502L78.687 102.485V100.126ZM80.4149 97.3551C80.0584 97.3551 79.775 97.0809 79.775 96.7243C79.775 96.3678 80.0584 96.0844 80.4149 96.0844C80.7714 96.0844 81.0457 96.3678 81.0457 96.7243C81.0457 97.0809 80.7714 97.3551 80.4149 97.3551ZM79.2356 95.0852L78.9705 94.2075C79.8024 94.1618 80.3509 93.5402 80.3509 92.6991C80.3509 91.9037 79.8207 91.2638 78.9979 91.2638C78.0745 91.2638 77.6083 91.9312 77.6083 92.7082C77.6083 93.1745 77.7637 93.6224 78.0837 93.9241C77.9374 94.299 77.8368 94.4544 77.718 94.8201L74.5182 93.9607V90.6055H75.3593V93.3756L77.3157 93.8876C76.9775 93.595 76.8129 93.0648 76.8129 92.5437C76.8129 91.2821 77.6083 90.3587 78.9522 90.3587C80.1681 90.3587 81.1371 91.2912 81.1371 92.6991C81.1371 94.0613 80.2503 94.9846 79.2356 95.0852ZM77.3797 84.7665V85.8269H81V86.7137H77.3797V87.5274H76.6026V86.7137H75.8621C74.8748 86.7137 74.3537 86.0646 74.3537 85.2693C74.3537 84.9767 74.4177 84.7939 74.4451 84.7573H75.213C75.1856 84.803 75.1582 84.9127 75.1582 85.1321C75.1582 85.4338 75.2953 85.8269 75.9078 85.8269H76.6026V84.7665H77.3797ZM75.213 82.6933H76.6026V81.7425H77.3797V82.6933H79.6653C80.0675 82.6933 80.2686 82.5287 80.2686 82.0807C80.2686 81.971 80.2595 81.8156 80.2321 81.7425H80.9634C80.9909 81.8156 81.0457 82.035 81.0457 82.3276C81.0457 83.0864 80.5977 83.5526 79.7932 83.5526H77.3797V84.3937H76.6026V84.156C76.6026 83.6806 76.3192 83.4795 75.9261 83.4795H75.213V82.6933Z" fill="#090A0A"/>
</g>
<path fill-rule="evenodd" clip-rule="evenodd" d="M199.031 84.2604C199.031 84.2604 200.284 84.8335 201.586 84.8335C202.888 84.8335 203.766 84.0872 203.766 84.0872L203.936 86.1371V87.9036H198.826V86.1371L199.031 84.2604Z" fill="#634739"/>
<path fill-rule="evenodd" clip-rule="evenodd" d="M197.093 105.008H205.705L206.067 108.905L206.523 113.786L207.669 126.927C207.669 126.927 209.373 126.632 209.373 128.633H204.897L203.4 117.69L201.399 110.145L199.412 117.594L197.901 128.633H193.593C193.593 128.633 193.327 126.927 194.938 126.927C194.938 126.927 195.539 120.306 195.781 116.82C195.946 114.433 196.524 109.428 196.524 109.428L197.093 105.008Z" fill="#282E53"/>
<path fill-rule="evenodd" clip-rule="evenodd" d="M209.81 89.8981C209.81 89.8981 208.608 87.707 206.153 87.707L203.936 87.2163C203.936 87.2163 202.927 87.6785 201.399 87.707C199.87 87.6785 198.861 87.2163 198.861 87.2163L196.405 87.707C194.451 88.5185 193.686 89.246 193.686 89.246C193.686 89.246 192.787 90.5346 192.555 91.2104C192.17 92.3308 192.13 94.6346 192.13 94.6346C192.49 97.5105 195.549 95.3761 195.549 95.3761V93.5091L196.644 99.1232L196.926 105.085C196.926 105.085 197.297 106.316 201.399 106.316C205.5 106.316 205.872 105.085 205.872 105.085L206.153 99.1232L206.94 93.97V95.3761C206.94 95.3761 210.594 97.3497 210.594 94.6346L209.81 89.8981Z" fill="#434D9E"/>
<rect x="195.415" y="95.1624" width="0.336816" height="1.11374" fill="#C99073"/>
<rect x="206.886" y="95.1624" width="0.336816" height="1.11374" fill="#C99073"/>
<path fill-rule="evenodd" clip-rule="evenodd" d="M198.473 92.9013C198.352 92.9013 198.28 92.8571 198.28 92.7198V90.739C198.28 90.6947 198.242 90.6625 198.201 90.6694C198.074 90.6903 197.831 90.7298 197.726 90.7469L197.676 90.755C197.648 90.7595 197.619 90.7848 197.619 90.822L197.619 92.7995C197.619 93.4027 198.053 93.4598 198.298 93.4598C198.453 93.4598 198.561 93.4378 198.62 93.4218C198.653 93.4125 198.671 93.3844 198.671 93.3548V92.9595C198.671 92.9236 198.64 92.8822 198.591 92.8909C198.56 92.8966 198.52 92.9013 198.473 92.9013ZM204.769 91.2651C204.987 91.2444 205.128 91.2032 205.204 91.1793C205.25 91.1647 205.283 91.197 205.292 91.2292L205.3 91.2597L205.3 91.2598C205.318 91.322 205.358 91.4623 205.379 91.548C205.389 91.5883 205.363 91.6179 205.336 91.6305C205.295 91.6488 205.237 91.6672 205.168 91.6859C205.243 91.8171 205.271 91.9572 205.271 92.0702C205.271 92.3923 205.073 92.8297 204.343 92.8297H204.276C204.123 92.8297 203.994 92.8105 203.885 92.7772C203.858 92.803 203.837 92.8385 203.837 92.8871C203.837 92.9722 203.906 93.0343 203.977 93.0343L204.546 93.0344C204.948 93.0344 205.299 93.2381 205.299 93.776C205.299 94.2808 204.892 94.4842 204.31 94.4842C203.69 94.4842 203.321 94.2965 203.321 93.8061C203.321 93.5479 203.493 93.3381 203.493 93.3381C203.493 93.3381 203.334 93.205 203.334 92.9455C203.334 92.747 203.435 92.611 203.509 92.538C203.391 92.394 203.348 92.2198 203.348 92.0702C203.348 91.7682 203.548 91.2728 204.31 91.2717L204.319 91.2719C204.368 91.2733 204.61 91.2801 204.769 91.2651ZM204.32 91.6671C204.155 91.6681 204.004 91.8024 204.004 92.0492C204.004 92.2794 204.127 92.429 204.309 92.4298C204.49 92.429 204.613 92.2794 204.613 92.0492C204.613 91.8024 204.485 91.6681 204.32 91.6671ZM204.712 93.7558C204.712 93.6151 204.634 93.5042 204.47 93.5042C204.191 93.5042 204.033 93.5044 204.033 93.5044C204.033 93.5044 203.93 93.6037 203.93 93.786C203.93 93.8975 203.993 94.0255 204.327 94.0255C204.648 94.0255 204.712 93.8833 204.712 93.7558ZM202.554 91.2659C202.772 91.2452 202.913 91.204 202.989 91.1801C203.035 91.1656 203.068 91.1978 203.077 91.23L203.085 91.2605L203.085 91.2606C203.103 91.3227 203.143 91.4631 203.164 91.5488C203.174 91.5891 203.148 91.6187 203.121 91.6313C203.08 91.6496 203.022 91.668 202.953 91.6867C203.028 91.8179 203.057 91.958 203.057 92.0711C203.057 92.3931 202.858 92.8305 202.128 92.8305H202.061C201.909 92.8305 201.779 92.8113 201.67 92.778C201.643 92.8038 201.622 92.8393 201.622 92.8879C201.622 92.973 201.691 93.0351 201.762 93.0351L202.331 93.0352C202.733 93.0352 203.084 93.2389 203.084 93.7768C203.084 94.2816 202.677 94.485 202.095 94.485C201.475 94.485 201.106 94.2973 201.106 93.8069C201.106 93.5487 201.278 93.3389 201.278 93.3389C201.278 93.3389 201.119 93.2058 201.119 92.9463C201.119 92.7478 201.22 92.6119 201.294 92.5388C201.176 92.3948 201.133 92.2206 201.133 92.0711C201.133 91.769 201.333 91.2737 202.095 91.2725L202.104 91.2728C202.153 91.2742 202.396 91.2809 202.554 91.2659ZM201.789 92.0512C201.789 91.8043 201.939 91.67 202.104 91.669C202.269 91.67 202.398 91.8043 202.398 92.0512C202.398 92.2813 202.275 92.4309 202.093 92.4317C201.911 92.4309 201.789 92.2813 201.789 92.0512ZM202.497 93.757C202.497 93.6163 202.419 93.5054 202.255 93.5054C201.976 93.5054 201.818 93.5057 201.818 93.5057C201.818 93.5057 201.715 93.6049 201.715 93.7872C201.715 93.8987 201.778 94.0267 202.112 94.0267C202.433 94.0267 202.497 93.8845 202.497 93.757ZM200.135 91.3767C200.135 91.346 200.161 91.311 200.203 91.311H200.728C200.767 91.311 200.796 91.3429 200.796 91.378V93.3501C200.796 93.4025 200.753 93.4212 200.73 93.4212H200.284C200.244 93.4212 200.224 93.3902 200.219 93.3714C200.215 93.3576 200.172 93.2062 200.149 93.1245C200.005 93.2641 199.752 93.4596 199.464 93.4596C199.009 93.4596 198.913 93.1305 198.913 92.7911V91.3793C198.913 91.3375 198.949 91.311 198.979 91.311H199.505C199.544 91.311 199.575 91.3411 199.575 91.3803V92.6782C199.575 92.8363 199.627 92.8954 199.744 92.8954C199.93 92.8954 200.087 92.7351 200.134 92.6808L200.135 91.3767Z" fill="white"/>
<path fill-rule="evenodd" clip-rule="evenodd" d="M201.405 84.3096C205.026 84.3096 204.96 82.447 205.244 79.682C205.528 76.9171 204.059 75.8389 201.405 75.8389C198.751 75.8389 197.164 77.0485 197.432 79.682C197.701 82.3155 197.784 84.3096 201.405 84.3096Z" fill="#74605F" stroke="#1C1F34" stroke-width="0.832119"/>
<path d="M201.399 110.644L203.386 117.594L204.897 128.632H209.039C209.039 128.632 209.244 126.776 207.707 126.943L206.234 109.569L205.733 105.502L206.153 98.6751C206.153 98.6751 207.064 94.2065 207.064 91.4731" stroke="#1C1F34" stroke-width="0.832119" stroke-linecap="round" stroke-linejoin="round"/>
<path d="M205.875 127.457C206.348 127.158 207.445 126.964 208.747 127.457" stroke="#1C1F34" stroke-width="0.499271" stroke-linecap="round" stroke-linejoin="round"/>
<path d="M201.24 110.644L199.253 117.594L197.742 128.632H193.601C193.601 128.632 193.395 126.776 194.932 126.943L196.406 109.569L196.906 105.502L196.486 98.6751C196.486 98.6751 195.575 94.2065 195.575 91.4731" stroke="#1C1F34" stroke-width="0.832119" stroke-linecap="round" stroke-linejoin="round"/>
<path d="M196.765 127.457C196.291 127.158 195.195 126.964 193.892 127.457" stroke="#1C1F34" stroke-width="0.499271" stroke-linecap="round" stroke-linejoin="round"/>
<path d="M199.9 110.309H202.898" stroke="#1C1F34" stroke-width="0.499271" stroke-linecap="round" stroke-linejoin="round"/>
<path d="M198.912 87.4648C196.575 87.4648 195.299 88.1071 194.321 88.4603C193.344 88.8135 192.749 90.2264 192.372 91.6751" stroke="#1C1F34" stroke-width="0.832119" stroke-linecap="round" stroke-linejoin="round"/>
<path fill-rule="evenodd" clip-rule="evenodd" d="M203.513 95.318C203.2 95.1363 197.202 95.4881 195.915 95.9303C195.591 95.9303 195.59 96.1747 195.466 95.1632C195.425 95.1658 193.173 95.0265 192.076 94.2444C191.943 94.9645 192.366 95.6508 192.369 96.2473C192.375 97.5188 192.597 98.6097 193.078 99.1661C193.419 99.5608 193.914 99.3444 195.151 99.3444C195.919 99.3444 198.255 98.6793 200.327 98.1088C201.587 97.7619 202.837 97.2309 203.321 97.5383C204.601 98.3514 204.63 98.2149 206.429 97.5383C207.456 97.1518 205.667 94.9812 205.642 94.6623C205.583 93.9187 203.827 95.4998 203.513 95.318Z" fill="#634739"/>
<path d="M192.792 90.274C192.013 92.2277 191.848 95.1422 192.995 98.9281C193.52 100.621 203.245 97.4502 203.245 97.4502C203.245 97.4502 203.197 98.2136 205.399 97.8834C207.942 97.502 206.62 95.0414 206.62 95.0414C205.47 95.2232 205.305 95.1321 205.642 94.7204C206.431 93.7544 203.287 95.2262 203.287 95.2262C199.968 95.2169 198.398 95.548 195.415 95.9665" stroke="#1C1F34" stroke-width="0.832119" stroke-linecap="round" stroke-linejoin="round"/>
<path d="M203.725 87.4648C206.061 87.4648 207.338 88.1071 208.315 88.4603C209.293 88.8135 209.887 90.2264 210.265 91.6751" stroke="#1C1F34" stroke-width="0.832119" stroke-linecap="round" stroke-linejoin="round"/>
<path fill-rule="evenodd" clip-rule="evenodd" d="M199.123 95.318C199.436 95.1363 205.434 95.4881 206.721 95.9303C207.045 95.9303 207.046 96.1747 207.17 95.1632C207.211 95.1658 209.463 95.0265 210.56 94.2444C210.693 94.9645 210.307 95.593 210.304 96.1895C210.298 97.461 210.039 98.6097 209.558 99.1661C209.217 99.5608 208.722 99.3444 207.485 99.3444C206.717 99.3444 204.381 98.6793 202.309 98.1088C201.049 97.7619 199.799 97.2309 199.315 97.5383C198.035 98.3514 196.994 98.2149 195.195 97.5383C194.168 97.1518 193.908 95.5792 194.72 94.9623C195.33 94.4991 196.969 94.9812 196.994 94.6623C197.053 93.9187 198.809 95.4998 199.123 95.318Z" fill="#634739"/>
<path d="M209.844 90.2725C210.623 92.2262 210.787 95.1407 209.641 98.9266C209.116 100.62 199.391 97.4487 199.391 97.4487C199.391 97.4487 198.427 98.215 196.225 97.8847C193.682 97.5034 194.237 95.4011 194.645 95.0099C194.871 94.7929 195.747 95.0037 195.747 95.0037C196.897 95.1856 197.33 95.1306 196.994 94.719C196.205 93.7529 199.349 95.2247 199.349 95.2247C202.668 95.2154 204.237 95.5465 207.221 95.9651" stroke="#1C1F34" stroke-width="0.832119" stroke-linecap="round" stroke-linejoin="round"/>
<path d="M204.177 87.2152C204.177 87.2152 203.766 86.4891 203.766 85.6128" stroke="#1C1F34" stroke-width="0.832119" stroke-linecap="round" stroke-linejoin="round"/>
<path d="M198.621 87.2152C198.621 87.2152 199.032 86.4891 199.032 85.6128" stroke="#1C1F34" stroke-width="0.832119" stroke-linecap="round" stroke-linejoin="round"/>
<path d="M203.634 85.2233C203.981 84.9962 204.308 84.6577 204.52 84.1534C204.604 83.9556 204.795 82.9867 204.944 81.9734" stroke="#1C1F34" stroke-width="0.998542" stroke-linecap="round" stroke-linejoin="round"/>
<path d="M199.044 85.2231C198.697 84.9958 198.371 84.657 198.159 84.1523C198.076 83.9546 197.891 82.9333 197.746 81.9041" stroke="#1C1F34" stroke-width="0.998542" stroke-linecap="round" stroke-linejoin="round"/>
<ellipse cx="201.363" cy="81.839" rx="3.491" ry="3.8397" fill="#634739"/>
<ellipse cx="0.506078" cy="1.00574" rx="0.506078" ry="1.00574" transform="matrix(-0.990074 0.140544 0.137815 0.990458 197.636 80.8391)" stroke="#1C1F34" stroke-width="0.832119" stroke-linecap="round" stroke-linejoin="round"/>
<ellipse cx="0.674798" cy="1.00576" rx="0.674798" ry="1.00576" transform="matrix(-0.990074 0.140544 0.137815 0.990458 198.305 80.7454)" fill="#634739"/>
<ellipse cx="0.506078" cy="1.00574" rx="0.506078" ry="1.00574" transform="matrix(0.990075 0.140542 -0.137817 0.990458 205.002 80.8391)" stroke="#1C1F34" stroke-width="0.832119" stroke-linecap="round" stroke-linejoin="round"/>
<ellipse cx="0.674798" cy="1.00576" rx="0.674798" ry="1.00576" transform="matrix(0.990074 0.140544 -0.137815 0.990458 204.334 80.7456)" fill="#634739"/>
<path fill-rule="evenodd" clip-rule="evenodd" d="M197.834 78.2276C198.17 77.4914 198.928 76.9099 198.928 76.9099C198.928 76.9099 199.456 77.829 199.205 78.058C199.054 78.1959 198.473 78.8657 198.378 79.2624C198.121 80.3228 198.212 81.5611 198.188 81.8837C198.163 82.2062 198.108 82.2505 197.999 81.8837C197.936 81.6743 197.878 81.601 197.834 80.9772C197.81 80.6476 197.589 80.6922 197.583 80.34C197.577 79.9359 197.498 78.9638 197.834 78.2276Z" fill="#1C1F34"/>
<path fill-rule="evenodd" clip-rule="evenodd" d="M204.826 78.2276C204.49 77.4914 203.731 76.9099 203.731 76.9099C203.731 76.9099 203.204 77.829 203.455 78.058C203.606 78.1959 204.186 78.8657 204.282 79.2624C204.539 80.3228 204.448 81.5611 204.472 81.8837C204.496 82.2062 204.551 82.2505 204.661 81.8837C204.723 81.6743 204.782 81.601 204.826 80.9772C204.849 80.6476 205.071 80.6922 205.076 80.34C205.083 79.9359 205.162 78.9638 204.826 78.2276Z" fill="#1C1F34"/>
<path d="M200.138 83.8704C200.138 83.8704 200.76 84.7223 202.517 84.1179" stroke="#1C1F34" stroke-width="0.499271" stroke-linecap="round" stroke-linejoin="round"/>
<path opacity="0.2" d="M202.367 85.5466C201.164 85.9862 201.761 85.9636 200.578 85.6545" stroke="#1C1F34" stroke-width="0.332847" stroke-linecap="round" stroke-linejoin="round"/>
<path fill-rule="evenodd" clip-rule="evenodd" d="M205.523 79.6735C205.523 78.6649 205.523 75.4885 201.481 75.4885C197.439 75.4885 197.271 78.3473 197.271 79.5558C197.271 80.1593 199.328 79.4351 201.389 79.4402C203.455 79.4454 205.523 80.1785 205.523 79.6735Z" fill="#434D9E" stroke="#1C1F34" stroke-width="0.832119"/>
<rect x="200.477" y="76.8281" width="2.02435" height="1.00683" rx="0.332847" fill="white"/>
<path opacity="0.3" fill-rule="evenodd" clip-rule="evenodd" d="M205.288 80.4783C205.288 80.8931 203.286 80.1602 201.316 80.1689C199.347 80.1775 197.271 80.9633 197.271 80.5134C197.271 80.0634 199.355 79.5188 201.316 79.5102C203.278 79.5016 205.288 80.0634 205.288 80.4783Z" fill="#1C1F34" stroke="#1C1F34" stroke-width="0.499271"/>
<path fill-rule="evenodd" clip-rule="evenodd" d="M205.963 80.0921C205.963 80.6284 203.709 79.6811 201.49 79.6922C199.272 79.7033 196.934 80.7191 196.934 80.1375C196.934 79.5559 199.281 78.5167 201.49 78.5056C203.699 78.4945 205.963 79.5559 205.963 80.0921Z" fill="#434D9E" stroke="#1C1F34" stroke-width="0.499271"/>
<ellipse cx="201.488" cy="75.0856" rx="0.674286" ry="0.335364" fill="#1C1F34"/>
<path fill-rule="evenodd" clip-rule="evenodd" d="M228.302 84.2604C228.302 84.2604 227.069 84.8335 225.788 84.8335C224.508 84.8335 223.643 84.0872 223.643 84.0872L223.476 86.1371V87.9036H228.504V86.1371L228.302 84.2604Z" fill="#A1694D"/>
<path fill-rule="evenodd" clip-rule="evenodd" d="M230.21 105.008H221.737L221.381 108.905L220.933 113.786L219.804 126.927C219.804 126.927 218.129 126.632 218.129 128.633H222.532L224.005 117.69L225.974 110.145L227.929 117.594L229.415 128.633H233.654C233.654 128.633 233.916 126.927 232.33 126.927C232.33 126.927 231.739 120.306 231.502 116.82C231.339 114.433 230.771 109.428 230.771 109.428L230.21 105.008Z" fill="#282E53"/>
<path fill-rule="evenodd" clip-rule="evenodd" d="M238.977 96.5975C238.977 96.5975 240.078 94.8143 240.442 93.7845C241.098 91.9227 242.035 87.9227 242.035 87.9227C242.035 87.9227 242.838 87.2278 243.228 85.6848C243.618 84.1416 243.155 82.769 242.251 82.6864C241.346 82.6039 240.821 82.7021 240.821 82.7021L240.442 85.2687C240.442 85.2687 239.77 84.1652 239.025 84.1837C238.28 84.2022 238.983 85.4388 238.983 85.4388L239.94 87.2211C239.94 87.2211 238.481 89.1361 237.639 92.6934L235.734 90.8203L232.405 91.9573C232.405 91.9573 232.405 94.2683 234.068 95.4041C235.731 96.54 238.977 96.5975 238.977 96.5975Z" fill="#A1694D"/>
<path fill-rule="evenodd" clip-rule="evenodd" d="M217.698 89.8981C217.698 89.8981 218.88 87.707 221.295 87.707L223.476 87.2163C223.476 87.2163 224.469 87.6785 225.973 87.707C227.476 87.6785 228.469 87.2163 228.469 87.2163H230.885C232.807 88.0278 233.561 89.246 233.561 89.246C233.561 89.246 234.629 89.6736 235.164 90.0551C235.571 90.346 236.386 91.2633 236.386 91.2633C236.032 94.1392 233.561 95.0736 233.561 95.0736L231.729 93.5091L230.65 99.1232L230.374 105.085C230.374 105.085 230.008 106.316 225.973 106.316C221.937 106.316 221.572 105.085 221.572 105.085L221.295 99.1232L220.521 93.97V95.3761C220.521 95.3761 216.589 97.1315 216.589 94.4164L217.698 89.8981Z" fill="#434D9E"/>
<path d="M231.77 93.3728C233.281 95.0125 234.672 96.0966 238.48 96.7851C240.231 96.7851 242.034 87.9228 242.034 87.9228C242.034 87.9228 243.033 87.2315 243.349 85.039C243.713 82.506 241.567 82.4147 241.081 82.6871C240.812 82.8382 240.761 83.7342 240.761 83.7342C240.605 84.8824 240.43 85.2783 240.136 84.8369C239.448 83.8008 238.235 84.0864 238.828 85.2003C239.322 86.1313 239.943 87.227 239.943 87.227C238.48 90.359 238.344 90.0938 237.614 92.9411" stroke="#1C1F34" stroke-width="0.832119" stroke-linecap="round" stroke-linejoin="round"/>
<path fill-rule="evenodd" clip-rule="evenodd" d="M219.468 105.865C219.468 105.865 220.157 100.565 219.777 99.3441C219.777 99.3441 220.521 98.4927 220.477 95.1387C219.104 95.2263 217.74 95.0493 216.628 94.2437C216.498 94.9638 216.445 95.5797 216.448 96.1761C216.454 97.4477 216.51 98.4151 216.628 99.361C216.954 101.963 217.542 107.583 217.542 107.583C217.542 107.583 217.943 110.055 219.201 110.867C220.46 111.68 221.585 110.839 221.14 109.635C220.695 108.432 220.697 107.689 220.697 107.689C220.697 107.689 221.128 108.827 221.07 108.083C221.012 107.339 219.468 105.865 219.468 105.865Z" fill="#A1694D"/>
<path fill-rule="evenodd" clip-rule="evenodd" d="M223.229 92.9013C223.111 92.9013 223.04 92.8571 223.04 92.7198V90.739C223.04 90.6947 223.002 90.6625 222.961 90.6694C222.837 90.6903 222.598 90.7298 222.494 90.7469L222.445 90.755C222.418 90.7595 222.389 90.7848 222.389 90.822L222.389 92.7995C222.389 93.4027 222.817 93.4598 223.057 93.4598C223.209 93.4598 223.316 93.4378 223.374 93.4218C223.407 93.4125 223.424 93.3844 223.424 93.3548V92.9595C223.424 92.9236 223.393 92.8822 223.346 92.8909C223.315 92.8966 223.276 92.9013 223.229 92.9013ZM229.422 91.2651C229.637 91.2444 229.775 91.2032 229.85 91.1793C229.895 91.1647 229.928 91.197 229.936 91.2292L229.945 91.2597L229.945 91.2597L229.945 91.2598L229.945 91.2598C229.962 91.322 230.002 91.4623 230.022 91.548C230.032 91.5883 230.007 91.6179 229.98 91.6305C229.94 91.6488 229.882 91.6672 229.815 91.6859C229.889 91.8171 229.917 91.9572 229.917 92.0702C229.917 92.3923 229.721 92.8297 229.003 92.8297H228.937C228.787 92.8297 228.66 92.8105 228.552 92.7772C228.525 92.803 228.505 92.8385 228.505 92.8871C228.505 92.9722 228.573 93.0343 228.643 93.0343L229.203 93.0344C229.599 93.0344 229.944 93.2381 229.944 93.776C229.944 94.2808 229.543 94.4842 228.97 94.4842C228.36 94.4842 227.998 94.2965 227.998 93.8061C227.998 93.5479 228.166 93.3381 228.166 93.3381C228.166 93.3381 228.011 93.205 228.011 92.9455C228.011 92.747 228.11 92.611 228.183 92.538C228.066 92.394 228.024 92.2198 228.024 92.0702C228.024 91.7682 228.221 91.2728 228.97 91.2717L228.979 91.2719C229.028 91.2733 229.266 91.2801 229.422 91.2651ZM228.981 91.6672C228.818 91.6682 228.67 91.8025 228.67 92.0493C228.67 92.2795 228.791 92.4291 228.97 92.4299C229.149 92.4291 229.27 92.2795 229.27 92.0493C229.27 91.8025 229.143 91.6682 228.981 91.6672ZM229.367 93.7558C229.367 93.6151 229.29 93.5042 229.128 93.5042C228.854 93.5042 228.699 93.5044 228.699 93.5044C228.699 93.5044 228.597 93.6037 228.597 93.786C228.597 93.8975 228.659 94.0255 228.987 94.0255C229.304 94.0255 229.367 93.8833 229.367 93.7558ZM227.242 91.2659C227.457 91.2452 227.595 91.204 227.67 91.1801C227.715 91.1656 227.748 91.1978 227.756 91.23L227.765 91.2605L227.765 91.2605L227.765 91.2606C227.782 91.3227 227.821 91.4631 227.842 91.5488C227.852 91.5891 227.827 91.6187 227.799 91.6313C227.76 91.6496 227.702 91.668 227.635 91.6867C227.709 91.8179 227.736 91.958 227.736 92.0711C227.736 92.3931 227.541 92.8305 226.823 92.8305H226.757C226.607 92.8305 226.48 92.8113 226.372 92.778C226.345 92.8038 226.325 92.8393 226.325 92.8879C226.325 92.973 226.393 93.0351 226.462 93.0351L227.023 93.0352C227.418 93.0352 227.763 93.2389 227.763 93.7768C227.763 94.2816 227.363 94.485 226.79 94.485C226.18 94.485 225.818 94.2973 225.818 93.8069C225.818 93.5487 225.986 93.3389 225.986 93.3389C225.986 93.3389 225.83 93.2058 225.83 92.9463C225.83 92.7478 225.93 92.6119 226.003 92.5388C225.886 92.3948 225.844 92.2206 225.844 92.0711C225.844 91.769 226.041 91.2737 226.79 91.2725L226.799 91.2728C226.848 91.2742 227.086 91.2809 227.242 91.2659ZM226.491 92.0512C226.491 91.8043 226.639 91.67 226.801 91.669C226.964 91.67 227.09 91.8043 227.09 92.0512C227.09 92.2813 226.969 92.4309 226.79 92.4317C226.612 92.4309 226.491 92.2813 226.491 92.0512ZM227.187 93.757C227.187 93.6163 227.11 93.5054 226.949 93.5054C226.675 93.5054 226.52 93.5057 226.52 93.5057C226.52 93.5057 226.418 93.6049 226.418 93.7872C226.418 93.8987 226.48 94.0267 226.808 94.0267C227.125 94.0267 227.187 93.8845 227.187 93.757ZM224.864 91.3767C224.864 91.346 224.89 91.311 224.931 91.311H225.448C225.486 91.311 225.515 91.3429 225.515 91.378V93.3501C225.515 93.4025 225.473 93.4212 225.449 93.4212H225.011C224.971 93.4212 224.952 93.3902 224.947 93.3714C224.943 93.3576 224.901 93.2062 224.878 93.1245C224.737 93.2641 224.488 93.4596 224.204 93.4596C223.757 93.4596 223.662 93.1305 223.662 92.7911V91.3793C223.662 91.3375 223.697 91.311 223.727 91.311H224.245C224.283 91.311 224.313 91.3411 224.313 91.3803V92.6782C224.313 92.8363 224.364 92.8954 224.48 92.8954C224.663 92.8954 224.817 92.7351 224.864 92.6808L224.864 91.3767Z" fill="white"/>
<path fill-rule="evenodd" clip-rule="evenodd" d="M225.968 84.3096C222.406 84.3096 222.47 82.447 222.191 79.682C221.912 76.9171 223.357 75.8389 225.968 75.8389C228.58 75.8389 230.141 77.0485 229.877 79.682C229.613 82.3155 229.531 84.3096 225.968 84.3096Z" fill="#74605F" stroke="#1C1F34" stroke-width="0.832119"/>
<path d="M225.973 110.644L224.017 117.593L222.531 128.632H218.456C218.456 128.632 218.254 126.776 219.766 126.942L221.216 109.568L221.708 105.502L221.295 98.6749C221.295 98.6749 220.399 94.2063 220.399 91.4729" stroke="#1C1F34" stroke-width="0.832119" stroke-linecap="round" stroke-linejoin="round"/>
<path d="M221.569 127.457C221.103 127.158 220.024 126.964 218.743 127.457" stroke="#1C1F34" stroke-width="0.499271" stroke-linecap="round" stroke-linejoin="round"/>
<path d="M226.13 110.644L228.086 117.593L229.572 128.632H233.647C233.647 128.632 233.849 126.776 232.337 126.942L230.887 109.568L230.395 105.502L230.808 98.6749C230.808 98.6749 231.704 94.2063 231.704 91.4729" stroke="#1C1F34" stroke-width="0.832119" stroke-linecap="round" stroke-linejoin="round"/>
<path d="M230.534 127.457C231 127.158 232.079 126.964 233.36 127.457" stroke="#1C1F34" stroke-width="0.499271" stroke-linecap="round" stroke-linejoin="round"/>
<path d="M227.448 110.309H224.498" stroke="#1C1F34" stroke-width="0.499271" stroke-linecap="round" stroke-linejoin="round"/>
<path d="M223.685 87.4646C221.386 87.4646 220.13 88.1068 219.168 88.4601C218.207 88.8133 217.461 90.5473 217.089 91.996C216.627 93.7959 216.627 95.9396 216.627 98.8011C216.627 101.663 217.541 107.292 217.541 107.292C217.541 107.292 217.942 109.844 219.2 110.683C220.459 111.522 221.584 110.654 221.139 109.411C220.694 108.168 220.696 107.402 220.696 107.402C220.696 107.402 221.127 108.576 221.069 107.808C221.011 107.04 219.467 105.518 219.467 105.518C219.467 105.518 220.178 100.045 219.798 98.7837C219.798 98.7837 221.13 96.7284 220.463 93.0219" stroke="#1C1F34" stroke-width="0.832119" stroke-linecap="round" stroke-linejoin="round"/>
<path d="M223.239 87.215C223.239 87.215 223.644 86.4889 223.644 85.6125" stroke="#1C1F34" stroke-width="0.832119" stroke-linecap="round" stroke-linejoin="round"/>
<path d="M237.479 92.809C237.479 92.809 236.01 89.9434 233.825 89.2508C232.923 88.4081 233.015 88.2955 231.733 87.7732C230.059 87.0909 228.182 87.2163 228.182 87.2163" stroke="#1C1F34" stroke-width="0.832119" stroke-linecap="round" stroke-linejoin="round"/>
<path d="M228.706 87.215C228.706 87.215 228.302 86.4889 228.302 85.6125" stroke="#1C1F34" stroke-width="0.832119" stroke-linecap="round" stroke-linejoin="round"/>
<path d="M223.774 85.223C223.432 84.9959 223.111 84.6574 222.902 84.1532C222.82 83.9554 222.632 82.9865 222.486 81.9731" stroke="#1C1F34" stroke-width="0.998542" stroke-linecap="round" stroke-linejoin="round"/>
<path d="M228.29 85.2231C228.631 84.9958 228.952 84.657 229.161 84.1523C229.242 83.9546 229.425 82.9333 229.567 81.9041" stroke="#1C1F34" stroke-width="0.998542" stroke-linecap="round" stroke-linejoin="round"/>
<ellipse cx="3.4347" cy="3.8397" rx="3.4347" ry="3.8397" transform="matrix(-1 0 0 1 229.444 77.9988)" fill="#A1694D"/>
<ellipse cx="0.497914" cy="1.00574" rx="0.497914" ry="1.00574" transform="matrix(0.990074 0.140546 -0.137813 0.990458 229.676 80.8406)" stroke="#1C1F34" stroke-width="0.832119" stroke-linecap="round" stroke-linejoin="round"/>
<ellipse cx="0.663913" cy="1.00576" rx="0.663913" ry="1.00576" transform="matrix(0.990074 0.140544 -0.137815 0.990458 229.02 80.7463)" fill="#A1694D"/>
<ellipse cx="0.497914" cy="1.00574" rx="0.497914" ry="1.00574" transform="matrix(-0.990075 0.140543 0.137816 0.990458 222.428 80.8406)" stroke="#1C1F34" stroke-width="0.832119" stroke-linecap="round" stroke-linejoin="round"/>
<ellipse cx="0.663913" cy="1.00576" rx="0.663913" ry="1.00576" transform="matrix(-0.990074 0.140544 0.137815 0.990458 223.084 80.7463)" fill="#A1694D"/>
<path fill-rule="evenodd" clip-rule="evenodd" d="M229.481 78.2276C229.15 77.4914 228.404 76.9099 228.404 76.9099C228.404 76.9099 227.885 77.829 228.132 78.058C228.281 78.1959 228.852 78.8657 228.946 79.2624C229.198 80.3228 229.109 81.5611 229.133 81.8837C229.157 82.2062 229.211 82.2505 229.318 81.8837C229.38 81.6743 229.437 81.601 229.481 80.9772C229.504 80.6476 229.722 80.6922 229.727 80.34C229.734 79.9359 229.812 78.9638 229.481 78.2276Z" fill="#1C1F34"/>
<path fill-rule="evenodd" clip-rule="evenodd" d="M222.6 78.2276C222.931 77.4914 223.678 76.9099 223.678 76.9099C223.678 76.9099 224.197 77.829 223.95 78.058C223.801 78.1959 223.23 78.8657 223.136 79.2624C222.883 80.3228 222.973 81.5611 222.949 81.8837C222.925 82.2062 222.871 82.2505 222.763 81.8837C222.702 81.6743 222.644 81.601 222.6 80.9772C222.577 80.6476 222.36 80.6922 222.354 80.34C222.348 79.9359 222.27 78.9638 222.6 78.2276Z" fill="#1C1F34"/>
<path d="M227.214 83.8704C227.214 83.8704 226.601 84.7223 224.873 84.1179" stroke="#1C1F34" stroke-width="0.499271" stroke-linecap="round" stroke-linejoin="round"/>
<path opacity="0.2" d="M225.02 85.5466C226.203 85.9859 225.616 85.9633 226.779 85.6544" stroke="#1C1F34" stroke-width="0.332847" stroke-linecap="round" stroke-linejoin="round"/>
<path fill-rule="evenodd" clip-rule="evenodd" d="M221.916 79.6733C221.916 78.6646 221.916 75.4883 225.893 75.4883C229.869 75.4883 230.036 78.3471 230.036 79.5555C230.036 80.159 228.011 79.4348 225.984 79.44C223.951 79.4451 221.916 80.1782 221.916 79.6733Z" fill="#434D9E" stroke="#1C1F34" stroke-width="0.832119"/>
<rect width="1.9917" height="1.00683" rx="0.332847" transform="matrix(-1 0 0 1 226.882 76.8281)" fill="white"/>
<path opacity="0.3" fill-rule="evenodd" clip-rule="evenodd" d="M222.148 80.4778C222.148 80.8926 224.117 80.1597 226.055 80.1684C227.993 80.177 230.036 80.9628 230.036 80.5129C230.036 80.0629 227.985 79.5183 226.055 79.5097C224.125 79.5011 222.148 80.0629 222.148 80.4778Z" fill="#1C1F34" stroke="#1C1F34" stroke-width="0.499271"/>
<path fill-rule="evenodd" clip-rule="evenodd" d="M221.484 80.0921C221.484 80.6284 223.702 79.6811 225.885 79.6922C228.067 79.7033 230.368 80.7191 230.368 80.1375C230.368 79.5559 228.058 78.5167 225.885 78.5056C223.711 78.4945 221.484 79.5559 221.484 80.0921Z" fill="#434D9E" stroke="#1C1F34" stroke-width="0.499271"/>
<ellipse cx="0.662768" cy="0.335039" rx="0.662768" ry="0.335039" transform="matrix(-1 0 0 1 226.551 74.7502)" fill="#1C1F34"/>
</g>
<defs>
<linearGradient id="paint0_linear_1266_18836" x1="109.707" y1="71.8066" x2="108.965" y2="113.901" gradientUnits="userSpaceOnUse">
<stop stop-color="white"/>
<stop offset="0.979592" stop-color="#F9F9FC"/>
</linearGradient>
<linearGradient id="paint1_linear_1266_18836" x1="92.9437" y1="107.035" x2="92.9436" y2="101.969" gradientUnits="userSpaceOnUse">
<stop stop-color="#1C1F34" stop-opacity="0.2"/>
<stop offset="1" stop-color="#1C1F34"/>
</linearGradient>
<linearGradient id="paint2_linear_1266_18836" x1="107.303" y1="74.3177" x2="106.668" y2="92.3359" gradientUnits="userSpaceOnUse">
<stop stop-color="#E0E0E0"/>
<stop offset="1" stop-color="#E7E7E8"/>
</linearGradient>
<linearGradient id="paint3_linear_1266_18836" x1="92.1295" y1="92.2927" x2="92.7807" y2="73.8061" gradientUnits="userSpaceOnUse">
<stop stop-opacity="0.2"/>
<stop offset="1"/>
</linearGradient>
<linearGradient id="paint4_linear_1266_18836" x1="92.6702" y1="91.8201" x2="93.2856" y2="74.352" gradientUnits="userSpaceOnUse">
<stop stop-opacity="0.2"/>
<stop offset="1"/>
</linearGradient>
<linearGradient id="paint5_linear_1266_18836" x1="250.896" y1="69.1174" x2="250.896" y2="118.79" gradientUnits="userSpaceOnUse">
<stop stop-color="white"/>
<stop offset="0.979592" stop-color="#F9F9FC"/>
</linearGradient>
<linearGradient id="paint6_linear_1266_18836" x1="227.543" y1="105.328" x2="227.543" y2="93.2581" gradientUnits="userSpaceOnUse">
<stop offset="0.0118583" stop-color="#1C1F34" stop-opacity="0.2"/>
<stop offset="1" stop-color="#1C1F34"/>
</linearGradient>
<linearGradient id="paint7_linear_1266_18836" x1="200.747" y1="72.47" x2="200.747" y2="93.4566" gradientUnits="userSpaceOnUse">
<stop stop-color="#E0E0E0"/>
<stop offset="1" stop-color="#E7E7E8"/>
</linearGradient>
<linearGradient id="paint8_linear_1266_18836" x1="111.759" y1="94.002" x2="111.759" y2="72.47" gradientUnits="userSpaceOnUse">
<stop stop-opacity="0.2"/>
<stop offset="1"/>
</linearGradient>
<linearGradient id="paint9_linear_1266_18836" x1="112.23" y1="93.513" x2="112.23" y2="72.9597" gradientUnits="userSpaceOnUse">
<stop stop-opacity="0.2"/>
<stop offset="1"/>
</linearGradient>
<linearGradient id="paint10_linear_1266_18836" x1="115.623" y1="91.2484" x2="115.623" y2="74.428" gradientUnits="userSpaceOnUse">
<stop stop-color="white"/>
<stop offset="1" stop-color="#F9F9FC"/>
</linearGradient>
<linearGradient id="paint11_linear_1266_18836" x1="253.992" y1="101.777" x2="253.992" y2="105.773" gradientUnits="userSpaceOnUse">
<stop stop-color="#FFC900"/>
<stop offset="1" stop-color="#FFF15E"/>
</linearGradient>
<linearGradient id="paint12_linear_1266_18836" x1="232.146" y1="73.0791" x2="232.146" y2="88.0711" gradientUnits="userSpaceOnUse">
<stop stop-color="#8388A4"/>
<stop offset="0.986707" stop-color="#A5A9C1"/>
</linearGradient>
<linearGradient id="paint13_linear_1266_18836" x1="14.3583" y1="13.8516" x2="14.3583" y2="0" gradientUnits="userSpaceOnUse">
<stop stop-color="#A4ACBC"/>
<stop offset="0.9859" stop-color="#B5BBCA"/>
</linearGradient>
<linearGradient id="paint14_linear_1266_18836" x1="14.3583" y1="13.8516" x2="14.3583" y2="0" gradientUnits="userSpaceOnUse">
<stop stop-color="#A4ACBC"/>
<stop offset="0.9859" stop-color="#B5BBCA"/>
</linearGradient>
<clipPath id="clip0_1266_18836">
<rect width="84.9792" height="12.0703" fill="white" transform="translate(111.361 53.0242)"/>
</clipPath>
<clipPath id="clip1_1266_18836">
<rect width="11.9502" height="39.5637" fill="white" transform="translate(72.1909 73.1411)"/>
</clipPath>
</defs>
</svg>
