<svg fill="none" height="101" viewBox="0 0 302 101" width="302" xmlns="http://www.w3.org/2000/svg" xmlns:xlink="http://www.w3.org/1999/xlink"><linearGradient id="a" gradientUnits="userSpaceOnUse" x1="48.0828" x2="47.9482" y1="56.2857" y2="63.9987"><stop offset="0" stop-color="#c4c4c5"/><stop offset="1" stop-color="#d8d8d9"/></linearGradient><linearGradient id="b"><stop offset="0" stop-color="#e0e0e0"/><stop offset="1" stop-color="#e7e7e8"/></linearGradient><linearGradient id="c" gradientUnits="userSpaceOnUse" x1="57.3245" x2="55.8492" xlink:href="#b" y1="11.9497" y2="40.1003"/><linearGradient id="d"><stop offset="0" stop-opacity=".2"/><stop offset="1"/></linearGradient><linearGradient id="e" gradientUnits="userSpaceOnUse" x1="33.1845" x2="34.6982" xlink:href="#d" y1="39.6461" y2="10.7639"/><linearGradient id="f" gradientUnits="userSpaceOnUse" x1="34.0398" x2="35.4701" xlink:href="#d" y1="38.9219" y2="11.6308"/><linearGradient id="g" gradientUnits="userSpaceOnUse" x1="251.656" x2="251.656" xlink:href="#d" y1="72.3808" y2="47.6314"/><linearGradient id="h" gradientUnits="userSpaceOnUse" x1="256.113" x2="256.113" y1="13.2257" y2="42.3644"><stop offset="0" stop-color="#a4acbc"/><stop offset="1" stop-color="#d4d7df"/></linearGradient><linearGradient id="i" gradientUnits="userSpaceOnUse" x1="294.716" x2="294.716" y1="59.5493" y2="65.3"><stop offset="0" stop-color="#ffc900"/><stop offset="1" stop-color="#fff15e"/></linearGradient><linearGradient id="j" gradientUnits="userSpaceOnUse" x1="203.134" x2="203.134" xlink:href="#b" y1="11.675" y2="45.7701"/><linearGradient id="k" gradientUnits="userSpaceOnUse" x1="60.7943" x2="60.7943" xlink:href="#d" y1="46.6562" y2="11.675"/><linearGradient id="l" gradientUnits="userSpaceOnUse" x1="61.5475" x2="61.5475" xlink:href="#d" y1="45.8598" y2="12.4687"/><linearGradient id="m" gradientUnits="userSpaceOnUse" x1="20.1218" x2="20.1218" y1="19.7419" y2="0"><stop offset="0" stop-color="#a4acbc"/><stop offset=".9859" stop-color="#b5bbca"/></linearGradient><linearGradient id="n"><stop offset="0" stop-color="#ff8563"/><stop offset=".9859" stop-color="#f97250"/></linearGradient><linearGradient id="o" gradientUnits="userSpaceOnUse" x1="22.8089" x2="22.8089" xlink:href="#n" y1="34.0455" y2="64.3794"/><linearGradient id="p" gradientUnits="userSpaceOnUse" x1="60.8638" x2="60.8638" xlink:href="#n" y1="67.602" y2="95.2136"/><mask id="q" height="73" maskUnits="userSpaceOnUse" width="33" x="29" y="4"><path clip-rule="evenodd" d="m61.5669 5.86804c.0121-.26213-.1946-.48251-.457-.4871l-27.9943-.48994c-.4769-.00835-.8825.34377-.9376.81763-.4368 3.76271-2.2048 19.66537-2.74 34.99027-.5378 15.396.1469 30.8315.3218 34.3656.0218.4404.3506.7898.7904.8217 1.1045.0801 3.6342.2033 8.9007.2248 6.5963.027 15.2927-.1969 18.0215-.2727.4865-.0135.874-.4001.8965-.8863z" fill="#fff" fill-rule="evenodd"/></mask><mask id="r" height="27" maskUnits="userSpaceOnUse" width="5" x="51" y="33"><path clip-rule="evenodd" d="m54.4192 44.9843c.1074-3.0746.8534-10.44.8534-10.44.0432-.4352-.2851-.8007-.7302-.8162l-1.0777-.0377c-.4465-.0156-.844.3255-.888.7692 0 0-.7426 7.2962-.8489 10.3409-.1448 4.1463.279 13.5188.279 13.5188.0189.4376.3975.8051.8426.8206l1.0776.0376c.4465.0156.7929-.3252.7739-.7681 0 0-.4254-9.3087-.2817-13.4251z" fill="#fff" fill-rule="evenodd"/></mask><mask id="s" height="7" maskUnits="userSpaceOnUse" width="9" x="286" y="59"><path clip-rule="evenodd" d="m294.417 59.5493h-8.145l1.583 5.7507h6.861z" fill="#fff" fill-rule="evenodd"/></mask><mask id="t" height="2" maskUnits="userSpaceOnUse" width="3" x="265" y="51"><path clip-rule="evenodd" d="m267.651 51.7447c0-.242-.176-.4382-.404-.4382h-1.64c-.223 0-.404.2033-.404.4382 0 .242.176.4381.404.4381h1.64c.223 0 .404-.2032.404-.4381z" fill="#fff" fill-rule="evenodd"/></mask><mask id="u" fill="#000" height="34" maskUnits="userSpaceOnUse" width="43" x="20.5225" y="31.6076"><path d="m20.5225 31.6076h43v34h-43z" fill="#fff"/><path clip-rule="evenodd" d="m58.3348 42.6353c-.8602 0-1.6242.2391-2.2989.6747.0845-.4137.1316-.8354.1316-1.2645 0-5.2128-6.418-9.4379-14.335-9.4379s-14.335 4.2251-14.335 9.4379c0 .4282.0453.8494.1293 1.2627-.6743-.4343-1.4373-.6729-2.2965-.6729-4.4979 0-3.7633 4.5893-3.7633 4.5893.2484 2.1841 2.7705 6.639 3.0007 16.7199.0136.5823.4871 1.0483 1.0694 1.0483h16.1954 16.1955c.5823 0 1.0558-.466 1.0693-1.0483.2302-10.0809 2.7523-14.5358 3.0008-16.7199 0 0 .734-4.5893-3.7633-4.5893z" fill="#000" fill-rule="evenodd"/></mask><mask id="v" fill="#000" height="31" maskUnits="userSpaceOnUse" width="91" x="57.04" y="65.2932"><path d="m57.04 65.2932h91v31h-91z" fill="#fff"/><path clip-rule="evenodd" d="m147.201 76.6029s.025-4.5894-3.763-4.5894c-1.354 0-2.537.6939-3.525 1.6592v-1.3374c0-3.337-2.705-6.0421-6.042-6.0421h-28.408l-2.842 1.4009-2.8428-1.4009h-28.4085c-3.337 0-6.0421 2.7051-6.0421 6.0421v1.3374c-.9877-.9653-2.171-1.6592-3.5243-1.6592-3.788 0-3.7633 4.5894-3.7633 4.5894s2.1682 6.743 3.1096 10.5633c.9419 3.8198.8256 7.5574.8256 7.5574l1.0689 1.0484h2.2835 6.0066 62.5728 6.006 2.284l1.069-1.0484s-.116-3.7376.825-7.5574c.942-3.8203 3.11-10.5633 3.11-10.5633z" fill="#000" fill-rule="evenodd"/></mask><path d="m1 99.8008h300" stroke="#ececf2" stroke-linecap="round" stroke-linejoin="round" stroke-width="1.39691"/><path clip-rule="evenodd" d="m59.9585 4.78133c.024-.52357-.3886-.9638-.9127-.97373l-27.0893-.51295c-.7182-.0136-1.3283.51394-1.4078 1.22783-.505 4.53359-2.2097 20.64672-2.7526 36.18942-.5463 15.6429.0627 31.3229.2526 35.5767.0294.6601.5215 1.1784 1.1809 1.2203 1.2627.0801 3.7857.1823 8.5243.1951 6.5984.0179 15.2986-.23 18.0251-.3134.4856-.0149.8716-.4012.8938-.8866z" fill="#1c1f34" fill-rule="evenodd"/><path clip-rule="evenodd" d="m61.5669 5.86804c.0121-.26213-.1946-.48251-.457-.4871l-27.9943-.48994c-.4769-.00835-.8825.34377-.9376.81763-.4368 3.76271-2.2048 19.66537-2.74 34.99027-.5378 15.396.1469 30.8315.3218 34.3656.0218.4404.3506.7898.7904.8217 1.1045.0801 3.6342.2033 8.9007.2248 6.5963.027 15.2927-.1969 18.0215-.2727.4865-.0135.874-.4001.8965-.8863z" fill="#fff" fill-rule="evenodd"/><g mask="url(#q)"><path clip-rule="evenodd" d="m53.6729 68.4474-24.2906-.424-.042 2.4044 24.2906.424z" fill="#1c1f34" fill-rule="evenodd"/><path clip-rule="evenodd" d="m53.6719 69.2504-24.2906-.424-.1539 8.8164 24.2906.424z" fill="#1c1f34" fill-rule="evenodd"/><path clip-rule="evenodd" d="m35.2182 43.2479c-.6565-.023-1.2075.4998-1.2307 1.1618l-.2181 6.2477c-.0232.6646.4855 1.2218 1.1465 1.2449.6565.0229 1.2075-.4999 1.2306-1.1619l.2182-6.2477c.0232-.6646-.4855-1.2218-1.1465-1.2448z" fill="#1c1f34" fill-rule="evenodd"/><path d="m0 0h45.986v.8016h-45.986z" fill="#242d5f" opacity=".1" transform="matrix(-.999391 -.0348995 -.0348995 .999391 73.9971 50.1759)"/><g clip-rule="evenodd" fill-rule="evenodd"><path d="m48.3236 57.893c.0154-.8851-.6797-1.615-1.5536-1.6303l-11.1062-.1938c-.8735-.0153-1.594.6836-1.6095 1.575l-.084 4.8096c-.0155.8851.6796 1.615 1.5536 1.6303l11.1062.1938c.8735.0153 1.594-.6836 1.6095-1.575z" fill="url(#a)"/><path d="m46.7538 58.5426c.0063-.3582-.2742-.6535-.6172-.6595l-9.8413-.1718c-.3471-.006-.6335.2755-.6398.6376l-.0613 3.5119c-.0063.3582.2741.6535.6171.6595l9.8414.1718c.3471.006.6335-.2755.6398-.6376z" fill="#fff"/><path d="m37.709 59.8217.0078-.4492.2233.0039c.0213.0004.0417.0039.0613.0105.0197.0066.037.0181.0519.0345s.0266.0391.0352.0679c.0086.0289.0126.0657.0118.1105-.0014.0807-.0161.1387-.0441.1741-.0279.0354-.0632.0527-.1057.052zm-.2244-.783-.0335 1.9152.5241.0092c.0485.0008.0959-.0091.1422-.0297.0463-.0207.0878-.053.1244-.0971s.0662-.1013.0886-.1716c.0225-.0702.0345-.1536.0362-.2502.0021-.1198-.0125-.2225-.0439-.308-.0313-.0855-.08-.1458-.146-.181.0491-.0403.0867-.0924.1125-.1563.0259-.064.0397-.1442.0414-.2408.0015-.0894-.0055-.1647-.0211-.2258s-.0382-.1102-.0679-.1474c-.0296-.0372-.0655-.0642-.1077-.081-.0421-.0169-.0889-.0257-.1404-.0266zm.2102 1.5926.0092-.5258.259.0045c.0515.0009.0925.0227.1231.0652.0306.0426.045.1131.0433.2114-.0009.0501-.0064.0911-.0166.1232-.0101.032-.0234.0572-.0399.0757s-.0354.0316-.0568.0393c-.0213.0077-.0436.0113-.0668.0109zm1.3412-1.0485-.0113.6518-.2787-.0048.2855-.6471zm-.0166.9652-.0075.4345.2044.0036.0076-.4345.1409.0024.0054-.3138-.1408-.0025.0197-1.1293-.1924-.0033-.4795 1.0864-.0061.3487zm.7723-.92c.0007-.0429.0057-.0804.0148-.1124.0092-.032.0215-.0587.037-.0799.0155-.0211.0332-.0374.0531-.0487.0199-.0112.0405-.0167.0617-.0163.0333.0006.0601.01.0805.0282.0204.0183.0362.0409.0473.0679s.0185.0553.022.0849.0051.0569.0046.0819c-.0014.0805-.0176.1415-.0486.183s-.0693.0618-.1147.061c-.0434-.0007-.0809-.0224-.1125-.065s-.0466-.1041-.0452-.1846zm-.1945-.0388c-.0017.0929.0101.1745.0351.2447s.0631.1183.1141.1442l-.0001.0054c-.064.0257-.1142.0785-.1504.1584-.0363.0798-.0555.1797-.0575.2995-.0018.1019.008.1897.0294.2635.0215.0737.0507.135.0877.1839.0371.049.0794.0851.1269.1083.0476.0231.0972.0352.1486.0361.0495.0008.0982-.0104.1461-.0337s.0909-.0588.1291-.1064.0693-.1079.0933-.1808c.024-.073.0369-.1595.0386-.2596.0021-.1181-.0133-.2181-.0462-.3-.0329-.082-.081-.136-.1442-.1622l.0001-.0054c.0521-.0295.0916-.0789.1185-.1481.027-.0693.0413-.1505.0429-.2435.0008-.0465-.0043-.0989-.0154-.1572s-.0301-.1132-.057-.1647c-.0269-.0514-.0627-.0954-.1075-.132-.0449-.0366-.1001-.0554-.1657-.0565-.0434-.0008-.0865.0092-.1293.0299s-.0815.0522-.1161.0946c-.0346.0423-.063.0955-.0853.1595-.0224.064-.0343.138-.0357.2221zm.1565.8374c.0016-.0966.0211-.17.0584-.2203.0372-.0504.0821-.0751.1346-.0742.0252.0005.0486.008.07.0227.0215.0147.0403.0356.0565.0627s.0288.0591.0377.0959c.009.0369.0131.0776.0123.1224-.0008.0464-.0061.0893-.0159.1285-.0097.0392-.0232.0725-.0404.0999-.0171.0274-.0367.0485-.0586.0634-.022.0148-.0461.022-.0724.0215-.0252-.0004-.0493-.0085-.0723-.0241s-.0425-.0374-.0587-.0654-.029-.0618-.0384-.1013-.0137-.0834-.0128-.1317zm1.5323-.9546.0057-.3273-.724-.0126-.0061.354.5028.0088c-.1047.2146-.1904.4511-.2571.7093-.0666.2582-.1084.5276-.1254.8081l.2302.004c.0032-.1251.0139-.26.0321-.4046.0181-.1446.0429-.2872.0741-.428s.0694-.2734.1145-.3978.0962-.2291.1532-.3139zm1.193.8461.0208-1.1909-.2378-.0042-.0208 1.191c-.0025.143-.0205.2478-.0539.3143-.0335.0665-.0927.099-.1775.0975-.0485-.0008-.0869-.0136-.1153-.0382-.0283-.0247-.0502-.0564-.0657-.0951s-.0253-.0832-.0295-.1333c-.0042-.0502-.0058-.1012-.0049-.153l.0208-1.191-.2378-.0041-.0208 1.1909c-.0046.2611.0322.4549.1103.5815s.1903.1911.3368.1937c.1444.0025.2586-.0586.3426-.1832.0839-.1246.1282-.3166.1327-.5759zm.4914.0964-.2302-.004c-.0031.118.0072.2201.031.3064.0237.0863.0566.1575.0985.2137.042.0562.0907.0977.1463.1247.0556.0269.1132.0408.1728.0419.0737.0013.1388-.0128.1954-.0422.0566-.0295.1042-.0711.1431-.125.0388-.0539.0684-.1182.0889-.193.0205-.0747.0315-.1559.0331-.2436.0018-.1073-.0095-.1956-.034-.2649-.0246-.0693-.0542-.1248-.0888-.1665-.0346-.0418-.0697-.0723-.1052-.0917s-.0633-.0329-.0834-.0404c-.0671-.0316-.1214-.0576-.163-.078s-.074-.0406-.0974-.0607-.0389-.0418-.0466-.0652-.0112-.0539-.0105-.0914c.0007-.0412.0063-.0751.0169-.1017.0106-.0267.0238-.0488.0398-.0664.0159-.0176.0336-.0298.0529-.0366s.0385-.0101.0577-.0098c.0293.0006.0562.0055.0808.0149.0246.0093.0463.0249.0651.0467s.0337.0516.0447.0893c.0109.0378.0169.0853.0179.1426l.2302.004c.002-.1109-.0082-.2054-.0306-.2836s-.0533-.1427-.0928-.1935-.0851-.0878-.1367-.1111c-.0516-.0232-.1057-.0353-.1623-.0363-.0484-.0009-.0971.0099-.146.0323-.0488.0224-.0929.0574-.1321.105s-.0713.1075-.0963.1795-.0383.1572-.0401.2555c-.0015.0876.0066.1625.0242.2245s.0411.1138.0707.1555.0633.0758.1013.1024c.0379.0266.0769.0492.1169.0678.0391.0203.0776.0389.1157.0557.0381.0167.0721.0361.102.0581.03.022.054.0492.0721.0817.0181.0326.0267.0747.0258.1266-.0008.0483-.0086.088-.0233.119s-.0328.0553-.0543.0728c-.0215.0176-.0444.0292-.0688.0351-.0243.0058-.0471.0085-.0683.0082-.0313-.0006-.0615-.0078-.0905-.0217-.0291-.014-.0542-.035-.0754-.0631s-.038-.0646-.0504-.1095c-.0123-.045-.0179-.0996-.0168-.164zm1.2215-.0825.1531-.7002h.0031l.124.7051zm.0436-1.1741-.4424 1.9081.2393.0042.0923-.425.4044.007.0743.4279.2469.0044-.3709-1.9224z" fill="#1c1f34"/><g opacity=".5"><path d="m57.3556 16.9074c.1601-2.6533-1.8304-4.9314-4.4526-5.0887l-13.2701-.7961c-2.6192-.1571-4.8726 1.8693-5.0322 4.5117l-1.1514 19.0627c-.16 2.6488 1.8299 4.9368 4.4512 5.1108l13.2657.8802c2.6184.1737 4.8709-1.8383 5.031-4.4896z" fill="url(#c)"/><path d="m57.3556 16.9074c.1601-2.6533-1.8304-4.9314-4.4526-5.0887l-13.2701-.7961c-2.6192-.1571-4.8726 1.8693-5.0322 4.5117l-1.1514 19.0627c-.16 2.6488 1.8299 4.9368 4.4512 5.1108l13.2657.8802c2.6184.1737 4.8709-1.8383 5.031-4.4896z" fill="url(#e)" fill-opacity=".3"/></g><path d="m56.5948 16.8825c.1331-2.2088-1.5287-4.1057-3.7185-4.2373l-13.2638-.7972c-2.1867-.1314-4.0678 1.5589-4.2002 3.7558l-1.1502 19.0792c-.133 2.2058 1.5282 4.1116 3.7173 4.2573l13.2593.8826c2.186.1455 4.0657-1.5215 4.1991-3.7359z" fill="#fff"/><path d="m56.5948 16.8825c.1331-2.2088-1.5287-4.1057-3.7185-4.2373l-13.2638-.7972c-2.1867-.1314-4.0678 1.5589-4.2002 3.7558l-1.1502 19.0792c-.133 2.2058 1.5282 4.1116 3.7173 4.2573l13.2593.8826c2.186.1455 4.0657-1.5215 4.1991-3.7359z" fill="url(#f)" fill-opacity=".05"/><path d="m54.3129 16.8181c.0526-.8804-.6122-1.6369-1.4834-1.6896l-13.3076-.806c-.8719-.0528-1.6217.6212-1.6748 1.5083l-1.1425 19.0941c-.0531.8858.6112 1.6516 1.4821 1.7103l13.3029.8968c.8716.0587 1.6212-.614 1.6735-1.4877z" fill="#fff"/><path d="m55.0977 77.5678-12.3268.0809s-.7442-13.7011 1.162-34.7726c1.9062-21.0716 5.4841-38.21325 5.4841-38.21325l10.0478.85748z" fill="#242d5f" opacity=".1"/></g></g><path clip-rule="evenodd" d="m52.1872 78.9305s-2.2608-8.7075-2.2608-26.9588c0-18.2514 5.1383-46.4312 5.1383-46.4312.5007-3.05994 3.4021-5.54049997 6.4847-5.54049997 0 0 132.9996-.00000006 153.9876 0 18.539-.00000006 52.438 40.00999997 52.438 40.00999997s23.834 10.8258 26.306 17.3245c2.471 6.4987 1.431 23.2528-3.925 27.1136-1.407 1.0136-17.247 1.5015-39.846 1.6698-.03.4051-.371.7384-.788.7384h-191.4803c-.4314 0-.7901-.3564-.7901-.7961v-1.7004c-2.5543-.6342-4.7983-2.8383-5.2644-5.4293z" fill="#1c1f34" fill-rule="evenodd"/><path d="m0 0h155.968v3.26879h-155.968z" fill="#1c1f34" transform="matrix(-1 0 0 1 256.326 86.8565)"/><path clip-rule="evenodd" d="m54.0537 79.0293s-2.2599-8.6891-2.2599-26.9019 5.3612-46.31713 5.3612-46.31713c.3763-2.17752 2.4633-3.94275 4.6711-3.94275h153.9209c18.531 0 50.027 39.12448 50.027 39.12448s24.592 10.5628 27.092 16.4869c2.501 5.9241 1.432 21.6016-3.923 25.4543-2.627 1.89-56.716 2.363-109.263 2.4031-22.483.0171-43.178.2584-61.909 0h-59.2581c-.4312 0-.7898-.3557-.7898-.7945v-.7066c-1.8439-.9828-3.3035-2.7754-3.6694-4.8059z" fill="#fff" fill-rule="evenodd"/><path clip-rule="evenodd" d="m293.742 57.9804s-10.843-6.6469-16.688-9.1041c-4.355-1.8309-13.913-3.7602-13.913-3.7602l-.295.8113s9.585 1.9408 13.954 3.7776c5.831 2.4513 16.646 9.0867 16.646 9.0867z" fill="#242d5f" fill-rule="evenodd" opacity=".1"/><path clip-rule="evenodd" d="m251.603 52.394.046.8772c.104 1.9774-.949 4.7477-2.344 6.1797l-10.569 10.8517c-1.118 1.1478-3.339 2.0782-4.979 2.0782h-11.393c-1.632 0-2.943-1.2814-2.929-2.8681l.143-18.9564c.014-1.584 1.345-2.8935 2.969-2.9249l26.727 2.6622c1.224-.0236 2.267.9171 2.329 2.1004z" fill="#fff" fill-rule="evenodd"/><path clip-rule="evenodd" d="m251.603 52.394.046.8772c.104 1.9774-.949 4.7477-2.344 6.1797l-10.569 10.8517c-1.118 1.1478-3.339 2.0782-4.979 2.0782h-11.393c-1.632 0-2.943-1.2814-2.929-2.8681l.143-18.9564c.014-1.584 1.345-2.8935 2.969-2.9249l26.727 2.6622c1.224-.0236 2.267.9171 2.329 2.1004z" fill="url(#g)" fill-opacity=".05" fill-rule="evenodd"/><path clip-rule="evenodd" d="m243.718 65.3764s-30.863-6.5375-46.295-6.5375c-43.662 0-142.3604 0-142.3604 0v.8172h141.9544c15.296 0 45.888 5.7203 45.888 5.7203z" fill="#242d5f" fill-rule="evenodd" opacity=".1"/><path clip-rule="evenodd" d="m230.643 11.206s-5.188-4.66965-19.33-4.66965c-40.011 0-155.317 0-155.317 0v.77828h155.741c14.017 0 17.313 3.11317 17.313 3.11317z" fill="#242d5f" fill-rule="evenodd" opacity=".1"/><path d="m0 0h52.7675v.933939h-52.7675z" fill="#242d5f" opacity=".1" transform="matrix(-1 0 0 1 210.096 6.53635)"/><path d="m0 0h125.148v3.26879h-125.148z" fill="#000" opacity=".2" transform="matrix(-1 0 0 1 237.647 71.447)"/><path clip-rule="evenodd" d="m250.723 68.6434h-148.496v10.7403h148.496z" fill="#1c1f34" fill-rule="evenodd"/><path d="m0 0h1.59201v79.4722h-1.59201z" fill="#1c1f34" transform="matrix(-1 0 0 1 211.259 6.53561)"/><path clip-rule="evenodd" d="m198.925 51.4894c-.662 0-1.199.5344-1.199 1.2041 0 .665.539 1.2041 1.199 1.2041h4.766c.663 0 1.2-.5345 1.2-1.2041 0-.665-.539-1.2041-1.2-1.2041z" fill="#1c1f34" fill-rule="evenodd"/><path clip-rule="evenodd" d="m257.909 61.1833c8.256-6.6735 5.098-21.6207 5.098-21.6207l-1.338-1.7202s3.076 15.2682-4.379 22.2779c-8.139 6.9244-11.005 25.8871-11.005 25.8871h1.337s3.544-18.2724 10.287-24.8241z" fill="#1c1f34" fill-rule="evenodd"/><path clip-rule="evenodd" d="m217.235 51.4894c-.663 0-1.2.5344-1.2 1.2041 0 .665.539 1.2041 1.2 1.2041h4.766c.662 0 1.199-.5345 1.199-1.2041 0-.665-.539-1.2041-1.199-1.2041z" fill="#1c1f34" fill-rule="evenodd"/><path clip-rule="evenodd" d="m255.104 45.7598c3.933.4552 5.35-1.8734 3.084-5.1384 0 0-2.262-4.0818-9.775-12.1828-7.513-8.1009-11.792-12.4158-11.792-12.4158-1.54-1.5776-4.567-3.0214-6.748-3.2236l-10.527-.9757c-3.069-.2844-5.243 1.9746-4.853 5.0602l2.393 18.9591c.388 3.0791 3.183 5.8621 6.244 6.2164z" fill="#1c1f34" fill-rule="evenodd"/><path clip-rule="evenodd" d="m255.761 43.8658c1.309.1486 1.765-.6167 1.015-1.7164l-3.776-5.5331c-1.246-1.8263-3.476-4.6252-4.967-6.2363l-12.469-13.4733c-1.199-1.2957-3.596-2.4734-5.342-2.6294l-11.626-1.0388c-1.751-.1565-2.989 1.1435-2.765 2.8993l2.595 20.3498c.224 1.7577 1.827 3.3442 3.572 3.5424z" fill="url(#h)" fill-rule="evenodd"/><path clip-rule="evenodd" d="m219.543 24.1271c-.051-.8494-.78-1.5381-1.631-1.5381h.459c-.851 0-1.54.6929-1.54 1.5381v5.754c0 .8495.683 1.5382 1.535 1.5382h.074c.848 0 1.494-.6929 1.444-1.5382z" fill="#1c1f34" fill-rule="evenodd"/><path clip-rule="evenodd" d="m219.216 33.8269h-.789c-.881 0-1.4.689-1.156 1.5504l2.745 4.8716h3.184l-1.828-4.9163c-.31-.8316-1.272-1.5057-2.156-1.5057z" fill="#1c1f34" fill-rule="evenodd"/><path clip-rule="evenodd" d="m242.819 43.1132c-.32.5818-1.043-.0171-1.62-.3395-.581-.3247-.787-.2498-.469-.828l3.866-7.0333c.32-.5819 1.043-.7857 1.62-.4633.581.3247.787 1.0526.469 1.6308l-2.102 3.8237 2.619 2.1489-1.159 1.9462-3.008-1.2792z" fill="#1c1f34" fill-rule="evenodd"/><path clip-rule="evenodd" d="m258.225 42.0812-4.529-7.554-12.043 9.0459 15.776 1.4918z" fill="#1c1f34" fill-rule="evenodd"/><path clip-rule="evenodd" d="m256.608 42.6108c.24-2.6066-1.29-7.0788-1.29-7.0788-.275-.8888-1.257-1.8386-2.193-2.1212l-1.027-.31c-.937-.2827-1.765.2329-1.851 1.1632l-1.242 13.4781c-.086.9251.641 1.7411 1.614 1.8219l1.774.1473c.977.0811 2.059-.5602 2.404-1.4249 0 0 1.643-3.8522 1.811-5.6756z" fill="#242d5f" fill-rule="evenodd" opacity=".1"/><path clip-rule="evenodd" d="m256.607 41.0466c.193-2.2272-.739-5.83-.739-5.83-.198-.8635-1.029-1.8101-1.853-2.1132l.035.0127c-.826-.3037-1.558.1632-1.634 1.0439l-.971 11.1911c-.076.8802.567 1.6559 1.447 1.7336l.397.035c.875.0772 1.816-.5482 2.089-1.3871 0 0 1.094-3.128 1.229-4.686z" fill="#1c1f34" fill-rule="evenodd"/><g clip-rule="evenodd" fill="#fff" fill-rule="evenodd" opacity=".1"><path d="m242.747 30.8228-9.219-11.079c-.28-.3369-.778-.3809-1.117-.094-.337.285-.377.796-.102 1.126l9.218 11.079c.281.3369.779.3809 1.118.0939.337-.285.377-.796.102-1.1259z"/><path d="m235.786 27.6768c.168-.1425.186-.3999.048-.5657l-3.581-4.3041c-.141-.1699-.397-.188-.561-.0497-.168.1425-.187.3999-.049.5657l3.582 4.3041c.141.1699.397.188.561.0497z"/></g><path clip-rule="evenodd" d="m55.8089 44.8398c.1208-3.4589.7543-10.3108.7543-10.3108.1162-1.3101-.8739-2.4101-2.2225-2.4572l-.3677-.0128c-1.3437-.047-2.529.9789-2.6451 2.2952 0 0-.6295 6.7767-.7491 10.2019-.1629 4.6647.3657 13.6829.3657 13.6829.0698 1.3109 1.2108 2.4114 2.5594 2.4585l.3677.0128c1.3437.047 2.3739-.98 2.3046-2.3038 0 0-.529-8.9357-.3673-13.5667z" fill="#1c1f34" fill-rule="evenodd"/><path clip-rule="evenodd" d="m54.4192 44.9843c.1074-3.0746.8534-10.44.8534-10.44.0432-.4352-.2851-.8007-.7302-.8162l-1.0777-.0377c-.4465-.0156-.844.3255-.888.7692 0 0-.7426 7.2962-.8489 10.3409-.1448 4.1463.279 13.5188.279 13.5188.0189.4376.3975.8051.8426.8206l1.0776.0376c.4465.0156.7929-.3252.7739-.7681 0 0-.4254-9.3087-.2817-13.4251z" fill="#c10000" fill-rule="evenodd"/><g mask="url(#r)"><path clip-rule="evenodd" d="m52.7096 48.7878-1.0303.018.2366 9.5431 1.2131-.0212z" fill="#fff" fill-rule="evenodd" opacity=".4"/></g><path clip-rule="evenodd" d="m294.459 57.9059h-8.288c-.911 0-1.477.7091-1.262 1.5948l1.417 5.8472c.214.8808 1.131 1.5948 2.04 1.5948h6.185c.913 0 1.713-.7395 1.785-1.6365l-.361-5.7638c.073-.9038-.607-1.6365-1.516-1.6365z" fill="#1c1f34" fill-rule="evenodd"/><path clip-rule="evenodd" d="m294.417 59.5493h-8.145l1.583 5.7507h6.861z" fill="url(#i)" fill-rule="evenodd"/><g mask="url(#s)"><ellipse fill="#fff" rx="1.09521" ry="1.93646" transform="matrix(-.99863 .052336 .052336 .99863 293.587 62.4368)"/><path clip-rule="evenodd" d="m288.276 57.9059h-3.121v8.3913h4.776z" fill="#f00" fill-rule="evenodd" opacity=".2"/></g><path clip-rule="evenodd" d="m268.467 51.7461c0-.7259-.55-1.3144-1.224-1.3144h-1.632c-.676 0-1.224.5834-1.224 1.3144 0 .726.55 1.3145 1.224 1.3145h1.632c.676 0 1.224-.5835 1.224-1.3145z" fill="#1c1f34" fill-rule="evenodd"/><path clip-rule="evenodd" d="m267.651 51.7447c0-.242-.176-.4382-.404-.4382h-1.64c-.223 0-.404.2033-.404.4382 0 .242.176.4381.404.4381h1.64c.223 0 .404-.2032.404-.4381z" fill="#f5a623" fill-rule="evenodd"/><g mask="url(#t)"><path d="m0 0h1.63206v.876284h-1.63206z" fill="#fff" transform="matrix(-1 0 0 1 268.467 51.3065)"/></g><g clip-rule="evenodd" fill-rule="evenodd" opacity=".5"><path d="m197.02 11.675h-125.7366c-4.3849 0-8.2692 3.5467-8.6752 7.9159l-1.7793 19.1494c-.4063 4.3718 2.8181 7.9159 7.2036 7.9159h128.9875c4.385 0 7.939-3.5629 7.939-7.9487v-19.0838c0-4.39-3.551-7.9487-7.939-7.9487z" fill="url(#j)"/><path d="m197.02 11.675h-125.7366c-4.3849 0-8.2692 3.5467-8.6752 7.9159l-1.7793 19.1494c-.4063 4.3718 2.8181 7.9159 7.2036 7.9159h128.9875c4.385 0 7.939-3.5629 7.939-7.9487v-19.0838c0-4.39-3.551-7.9487-7.939-7.9487z" fill="url(#k)" fill-opacity=".3"/></g><path clip-rule="evenodd" d="m197.016 12.4687h-125.76c-3.9481 0-7.4552 3.1865-7.8337 7.1222l-1.8415 19.1466c-.3783 3.9335 2.5103 7.1223 6.4654 7.1223h128.9688c3.949 0 7.15-3.2017 7.15-7.153v-19.0852c0-3.9504-3.197-7.1529-7.149-7.1529z" fill="#fff" fill-rule="evenodd"/><path clip-rule="evenodd" d="m197.016 12.4687h-125.76c-3.9481 0-7.4552 3.1865-7.8337 7.1222l-1.8415 19.1466c-.3783 3.9335 2.5103 7.1223 6.4654 7.1223h128.9688c3.949 0 7.15-3.2017 7.15-7.153v-19.0852c0-3.9504-3.197-7.1529-7.149-7.1529z" fill="url(#l)" fill-opacity=".05" fill-rule="evenodd"/><path clip-rule="evenodd" d="m197.015 14.8544h-125.8499c-2.6327 0-4.997 2.1279-5.2797 4.7423l-2.0693 19.1365c-.2832 2.6191 1.6138 4.7422 4.2575 4.7422h128.9384c2.634 0 4.77-2.1278 4.77-4.7744v-19.0722c0-2.6368-2.126-4.7744-4.767-4.7744z" fill="#fff" fill-rule="evenodd"/><path clip-rule="evenodd" d="m269.868 42.4945s-11.03-12.2562-16.943-18.3843c-3.942-4.085-11.825-10.6492-11.825-10.6492l-3.368-2.7204-2.092.2855c-.871.1189-1.054.7058-.41 1.3111 0 0 10.103 9.4304 14.798 14.5091 4.528 4.8979 12.789 14.6935 12.789 14.6935z" fill="#1c1f34" fill-rule="evenodd"/><path clip-rule="evenodd" d="m108.764 45.2969v2.3349h49.032v-2.3349z" fill="#1c1f34" fill-rule="evenodd"/><path d="m0 0h1.86788v79.3848h-1.86788z" fill="#1c1f34" transform="matrix(-1 0 0 1 158.263 6.53635)"/><path clip-rule="evenodd" d="m296.824 70.9944c.502-1.6972-.508-3.073-2.261-3.073h-26.879c-1.751 0-3.171 1.4372-3.171 3.206v15.2369c0 1.7707 1.393 2.9315 3.102 2.5947l22.271-4.39c1.713-.3376 3.51-1.9925 4.011-3.6843z" fill="#1c1f34" fill-rule="evenodd"/><ellipse fill="#242d5f" opacity=".1" rx="22.1465" ry="12.9281" transform="matrix(-1 0 0 1 260.569 73.6338)"/><ellipse fill="#1c1f34" rx="19.8055" ry="12.5418" transform="matrix(-1 0 0 1 260.537 75.652)"/><path clip-rule="evenodd" d="m78.2369 78.3092c1.7506 0 3.1748-1.4352 3.1748-3.2057v-3.9903c0-1.7704.1637-3.2058-1.5912-3.2058h-25.8974c-1.7544 0-3.0879 1.4289-2.9772 3.1916l.3967 5.205c.1327 1.7661 2.8903 8.6991 3.6513 9.8523s3.5715 1.0928 3.5715 1.0928c1.7331.2357 2.9711-1.8358 2.7524-3.5935l-.6649-5.3464z" fill="#1c1f34" fill-rule="evenodd"/><ellipse cx="93.8269" cy="73.1504" fill="#242d5f" opacity=".1" rx="22.2097" ry="12.4447"/><ellipse cx="93.7232" cy="75.5751" fill="#1c1f34" rx="19.7887" ry="12.4696"/><ellipse fill="#1c1f34" rx="16.6654" ry="16.7771" transform="matrix(-1 0 0 1 260.674 83.5534)"/><ellipse fill="url(#m)" rx="10.3166" ry="10.3858" transform="matrix(-1 0 0 1 260.675 83.5538)"/><ellipse fill="#1c1f34" rx="5.5551" ry="5.59234" transform="matrix(-1 0 0 1 260.675 83.5528)"/><ellipse fill="#1c1f34" rx=".793562" ry=".798898" transform="matrix(-1 0 0 1 260.675 75.5642)"/><ellipse fill="#1c1f34" rx=".793562" ry=".798898" transform="matrix(-1 0 0 1 260.675 91.5432)"/><ellipse fill="#1c1f34" rx=".793562" ry=".798898" transform="matrix(-.939693 .34202 .34202 .939693 257.96 76.0465)"/><ellipse fill="#1c1f34" rx=".793562" ry=".798898" transform="matrix(-.939693 .34202 .34202 .939693 263.388 91.0614)"/><ellipse fill="#1c1f34" rx=".793562" ry=".798898" transform="matrix(-.766044 .642788 .642788 .766044 255.573 77.4327)"/><ellipse fill="#1c1f34" rx=".793562" ry=".798898" transform="matrix(-.766044 .642788 .642788 .766044 265.776 89.6744)"/><ellipse fill="#1c1f34" rx=".793562" ry=".798898" transform="matrix(-.5 .866025 .866025 .5 253.801 79.559)"/><ellipse fill="#1c1f34" rx=".793562" ry=".798898" transform="matrix(-.5 .866025 .866025 .5 267.547 87.5474)"/><ellipse fill="#1c1f34" rx=".793562" ry=".798898" transform="matrix(-.173648 .984808 .984808 .173648 252.859 82.1658)"/><ellipse fill="#1c1f34" rx=".793562" ry=".798898" transform="matrix(-.173648 .984808 .984808 .173648 268.49 84.9414)"/><ellipse fill="#1c1f34" rx=".793562" ry=".798898" transform="matrix(.173648 .984808 .984808 -.173648 252.859 84.9418)"/><ellipse fill="#1c1f34" rx=".793562" ry=".798898" transform="matrix(.173648 .984808 .984808 -.173648 268.49 82.1662)"/><ellipse fill="#1c1f34" rx=".793562" ry=".798898" transform="matrix(.5 .866025 .866025 -.5 253.802 87.5492)"/><ellipse fill="#1c1f34" rx=".793562" ry=".798898" transform="matrix(.5 .866025 .866025 -.5 267.547 79.5585)"/><ellipse fill="#1c1f34" rx=".793562" ry=".798898" transform="matrix(.766044 .642788 .642788 -.766044 255.574 89.6736)"/><ellipse fill="#1c1f34" rx=".793562" ry=".798898" transform="matrix(.766044 .642788 .642788 -.766044 265.776 77.4343)"/><ellipse fill="#1c1f34" rx=".793562" ry=".798898" transform="matrix(.939693 .34202 .34202 -.939693 257.96 91.061)"/><ellipse fill="#1c1f34" rx=".793562" ry=".798898" transform="matrix(.939693 .34202 .34202 -.939693 263.388 76.0461)"/><ellipse fill="#1c1f34" rx="16.6654" ry="16.7771" transform="matrix(-1 0 0 1 93.9665 83.5534)"/><ellipse fill="url(#m)" rx="10.3166" ry="10.3858" transform="matrix(-1 0 0 1 93.9661 83.5538)"/><ellipse fill="#1c1f34" rx="5.5551" ry="5.59234" transform="matrix(-1 0 0 1 93.9659 83.5528)"/><ellipse fill="#1c1f34" rx=".793562" ry=".798898" transform="matrix(-1 0 0 1 93.9662 75.5642)"/><ellipse fill="#1c1f34" rx=".793562" ry=".798898" transform="matrix(-1 0 0 1 93.9662 91.5432)"/><ellipse fill="#1c1f34" rx=".793562" ry=".798898" transform="matrix(-.939693 .34202 .34202 .939693 91.2517 76.0465)"/><ellipse fill="#1c1f34" rx=".793562" ry=".798898" transform="matrix(-.939693 .34202 .34202 .939693 96.6804 91.0614)"/><ellipse fill="#1c1f34" rx=".793562" ry=".798898" transform="matrix(-.766044 .642788 .642788 .766044 88.8651 77.4327)"/><ellipse fill="#1c1f34" rx=".793562" ry=".798898" transform="matrix(-.766044 .642788 .642788 .766044 99.0677 89.6744)"/><ellipse fill="#1c1f34" rx=".793562" ry=".798898" transform="matrix(-.5 .866025 .866025 .5 87.0934 79.559)"/><ellipse fill="#1c1f34" rx=".793562" ry=".798898" transform="matrix(-.5 .866025 .866025 .5 100.839 87.5474)"/><ellipse fill="#1c1f34" rx=".793562" ry=".798898" transform="matrix(-.173648 .984808 .984808 .173648 86.1514 82.1658)"/><ellipse fill="#1c1f34" rx=".793562" ry=".798898" transform="matrix(-.173648 .984808 .984808 .173648 101.782 84.9414)"/><ellipse fill="#1c1f34" rx=".793562" ry=".798898" transform="matrix(.173648 .984808 .984808 -.173648 86.1511 84.9418)"/><ellipse fill="#1c1f34" rx=".793562" ry=".798898" transform="matrix(.173648 .984808 .984808 -.173648 101.782 82.1662)"/><ellipse fill="#1c1f34" rx=".793562" ry=".798898" transform="matrix(.5 .866025 .866025 -.5 87.094 87.5492)"/><ellipse fill="#1c1f34" rx=".793562" ry=".798898" transform="matrix(.5 .866025 .866025 -.5 100.839 79.5585)"/><ellipse fill="#1c1f34" rx=".793562" ry=".798898" transform="matrix(.766044 .642788 .642788 -.766044 88.8651 89.6736)"/><ellipse fill="#1c1f34" rx=".793562" ry=".798898" transform="matrix(.766044 .642788 .642788 -.766044 99.0672 77.4343)"/><ellipse fill="#1c1f34" rx=".793562" ry=".798898" transform="matrix(.939693 .34202 .34202 -.939693 91.2519 91.061)"/><ellipse fill="#1c1f34" rx=".793562" ry=".798898" transform="matrix(.939693 .34202 .34202 -.939693 96.6806 76.0461)"/><path clip-rule="evenodd" d="m105.186 21.6814c2.226 0 4.031 1.8043 4.031 4.0304v70.015c0 2.2261-1.805 4.0304-4.031 4.0304h-67.1561c-2.226 0-4.0304-1.8043-4.0304-4.0304v-70.015c0-2.2261 1.8044-4.0304 4.0304-4.0304z" fill="#ececf2" fill-rule="evenodd"/><path d="m105.235 21.4713h-67.1562c-2.2261 0-4.0305 1.8044-4.0305 4.0304v70.015c0 2.2261 1.8044 4.0305 4.0305 4.0305h67.1562c2.226 0 4.03-1.8044 4.03-4.0305v-70.015c0-2.226-1.804-4.0304-4.03-4.0304z" style="fill-rule:evenodd;clip-rule:evenodd;stroke:#1c1f34;stroke-width:1.39691;stroke-linecap:round;stroke-linejoin:round"/><path clip-rule="evenodd" d="m38.0299 96.9573c-.6771 0-1.2286-.5515-1.2286-1.2286v-70.0151c0-.6776.5515-1.2286 1.2286-1.2286h67.1561c.678 0 1.229.551 1.229 1.2286v70.0151c0 .6771-.551 1.2286-1.229 1.2286z" fill="#fff" fill-rule="evenodd"/><path clip-rule="evenodd" d="m109.217 38.4325h3.361v-6.6641h-3.361z" fill="#677bc5" fill-rule="evenodd"/><path d="m109.217 38.4325h3.361v-6.6641h-3.361z" style="fill-rule:evenodd;clip-rule:evenodd;stroke:#1c1f34;stroke-width:1.39691;stroke-linecap:round;stroke-linejoin:round"/><path clip-rule="evenodd" d="m94.7484 83.8526c0-.778-.6309-1.4089-1.4089-1.4089-.7784 0-1.4088.6309-1.4088 1.4089 0 .7779.6304 1.4088 1.4088 1.4088.778 0 1.4089-.6309 1.4089-1.4088z" fill="#dedede" fill-rule="evenodd"/><path d="m94.7484 83.8526c0-.778-.6309-1.4089-1.4089-1.4089-.7784 0-1.4088.6309-1.4088 1.4089 0 .7779.6304 1.4088 1.4088 1.4088.778 0 1.4089-.6309 1.4089-1.4088z" style="fill-rule:evenodd;clip-rule:evenodd;stroke:#1c1f34;stroke-width:1.39691;stroke-linecap:round;stroke-linejoin:round"/><path d="m94.3291 82.8623 1.1772-1.1773" stroke="#1c1f34" stroke-linecap="round" stroke-linejoin="round" stroke-width="1.39691"/><path d="m94.3291 84.8412 1.1772 1.1772" stroke="#1c1f34" stroke-linecap="round" stroke-linejoin="round" stroke-width="1.39691"/><path d="m92.3496 84.8412-1.1772 1.1772" stroke="#1c1f34" stroke-linecap="round" stroke-linejoin="round" stroke-width="1.39691"/><path d="m92.3496 82.8624-1.1772-1.1772" stroke="#1c1f34" stroke-linecap="round" stroke-linejoin="round" stroke-width="1.39691"/><path clip-rule="evenodd" d="m73.0164 83.8526c0-.778-.6309-1.4089-1.4088-1.4089-.7785 0-1.4089.6309-1.4089 1.4089 0 .7779.6304 1.4088 1.4089 1.4088.7779 0 1.4088-.6309 1.4088-1.4088z" fill="#dedede" fill-rule="evenodd"/><path d="m73.0164 83.8526c0-.778-.6309-1.4089-1.4088-1.4089-.7785 0-1.4089.6309-1.4089 1.4089 0 .7779.6304 1.4088 1.4089 1.4088.7779 0 1.4088-.6309 1.4088-1.4088z" style="fill-rule:evenodd;clip-rule:evenodd;stroke:#1c1f34;stroke-width:1.39691;stroke-linecap:round;stroke-linejoin:round"/><path d="m72.5977 82.8623 1.1772-1.1773" stroke="#1c1f34" stroke-linecap="round" stroke-linejoin="round" stroke-width="1.39691"/><path d="m72.5977 84.8412 1.1772 1.1772" stroke="#1c1f34" stroke-linecap="round" stroke-linejoin="round" stroke-width="1.39691"/><path d="m70.6181 84.8412-1.1772 1.1772" stroke="#1c1f34" stroke-linecap="round" stroke-linejoin="round" stroke-width="1.39691"/><path d="m70.6181 82.8624-1.1772-1.1772" stroke="#1c1f34" stroke-linecap="round" stroke-linejoin="round" stroke-width="1.39691"/><path clip-rule="evenodd" d="m51.2855 83.8526c0-.778-.6309-1.4089-1.4089-1.4089-.7784 0-1.4088.6309-1.4088 1.4089 0 .7779.6304 1.4088 1.4088 1.4088.778 0 1.4089-.6309 1.4089-1.4088z" fill="#dedede" fill-rule="evenodd"/><path d="m51.2855 83.8526c0-.778-.6309-1.4089-1.4089-1.4089-.7784 0-1.4088.6309-1.4088 1.4089 0 .7779.6304 1.4088 1.4088 1.4088.778 0 1.4089-.6309 1.4089-1.4088z" style="fill-rule:evenodd;clip-rule:evenodd;stroke:#1c1f34;stroke-width:1.39691;stroke-linecap:round;stroke-linejoin:round"/><path d="m50.8657 82.8623 1.1773-1.1773" stroke="#1c1f34" stroke-linecap="round" stroke-linejoin="round" stroke-width="1.39691"/><path d="m50.8657 84.8412 1.1773 1.1772" stroke="#1c1f34" stroke-linecap="round" stroke-linejoin="round" stroke-width="1.39691"/><path d="m48.8862 84.8412-1.1772 1.1772" stroke="#1c1f34" stroke-linecap="round" stroke-linejoin="round" stroke-width="1.39691"/><path d="m48.8862 82.8624-1.1772-1.1772" stroke="#1c1f34" stroke-linecap="round" stroke-linejoin="round" stroke-width="1.39691"/><path clip-rule="evenodd" d="m51.286 60.722c0-.778-.6309-1.4088-1.4089-1.4088-.7784 0-1.4088.6308-1.4088 1.4088s.6304 1.4089 1.4088 1.4089c.778 0 1.4089-.6309 1.4089-1.4089z" fill="#dedede" fill-rule="evenodd"/><path d="m51.286 60.722c0-.778-.6309-1.4088-1.4089-1.4088-.7784 0-1.4088.6308-1.4088 1.4088s.6304 1.4089 1.4088 1.4089c.778 0 1.4089-.6309 1.4089-1.4089z" style="fill-rule:evenodd;clip-rule:evenodd;stroke:#1c1f34;stroke-width:1.39691;stroke-linecap:round;stroke-linejoin:round"/><path d="m50.8662 59.7317 1.1772-1.1772" stroke="#1c1f34" stroke-linecap="round" stroke-linejoin="round" stroke-width="1.39691"/><path d="m50.8662 61.7106 1.1772 1.1772" stroke="#1c1f34" stroke-linecap="round" stroke-linejoin="round" stroke-width="1.39691"/><path d="m48.8867 61.7106-1.1772 1.1772" stroke="#1c1f34" stroke-linecap="round" stroke-linejoin="round" stroke-width="1.39691"/><path d="m48.8867 59.7317-1.1772-1.1772" stroke="#1c1f34" stroke-linecap="round" stroke-linejoin="round" stroke-width="1.39691"/><path clip-rule="evenodd" d="m73.0164 60.722c0-.778-.6309-1.4088-1.4088-1.4088-.7785 0-1.4089.6308-1.4089 1.4088s.6304 1.4089 1.4089 1.4089c.7779 0 1.4088-.6309 1.4088-1.4089z" fill="#ececf2" fill-rule="evenodd"/><path d="m73.0164 60.722c0-.778-.6309-1.4088-1.4088-1.4088-.7785 0-1.4089.6308-1.4089 1.4088s.6304 1.4089 1.4089 1.4089c.7779 0 1.4088-.6309 1.4088-1.4089z" style="fill-rule:evenodd;clip-rule:evenodd;stroke:#1c1f34;stroke-width:1.39691;stroke-linecap:round;stroke-linejoin:round"/><path d="m72.5972 59.7317 1.1772-1.1772" stroke="#1c1f34" stroke-linecap="round" stroke-linejoin="round" stroke-width="1.39691"/><path d="m72.5972 61.7106 1.1772 1.1772" stroke="#1c1f34" stroke-linecap="round" stroke-linejoin="round" stroke-width="1.39691"/><path d="m70.6177 61.7106-1.1773 1.1772" stroke="#1c1f34" stroke-linecap="round" stroke-linejoin="round" stroke-width="1.39691"/><path d="m70.6177 59.7317-1.1773-1.1772" stroke="#1c1f34" stroke-linecap="round" stroke-linejoin="round" stroke-width="1.39691"/><path clip-rule="evenodd" d="m94.7484 60.722c0-.778-.6309-1.4088-1.4089-1.4088-.7784 0-1.4088.6308-1.4088 1.4088s.6304 1.4089 1.4088 1.4089c.778 0 1.4089-.6309 1.4089-1.4089z" fill="#ececf2" fill-rule="evenodd"/><path d="m94.7484 60.722c0-.778-.6309-1.4088-1.4089-1.4088-.7784 0-1.4088.6308-1.4088 1.4088s.6304 1.4089 1.4088 1.4089c.778 0 1.4089-.6309 1.4089-1.4089z" style="fill-rule:evenodd;clip-rule:evenodd;stroke:#1c1f34;stroke-width:1.39691;stroke-linecap:round;stroke-linejoin:round"/><path d="m94.3291 59.7317 1.1772-1.1772" stroke="#1c1f34" stroke-linecap="round" stroke-linejoin="round" stroke-width="1.39691"/><path d="m94.3291 61.7106 1.1772 1.1772" stroke="#1c1f34" stroke-linecap="round" stroke-linejoin="round" stroke-width="1.39691"/><path d="m92.3496 61.7106-1.1772 1.1772" stroke="#1c1f34" stroke-linecap="round" stroke-linejoin="round" stroke-width="1.39691"/><path d="m92.3496 59.7317-1.1772-1.1772" stroke="#1c1f34" stroke-linecap="round" stroke-linejoin="round" stroke-width="1.39691"/><path clip-rule="evenodd" d="m94.7484 37.5895c0-.778-.6309-1.4089-1.4089-1.4089-.7784 0-1.4088.6309-1.4088 1.4089s.6304 1.4088 1.4088 1.4088c.778 0 1.4089-.6308 1.4089-1.4088z" fill="#ececf2" fill-rule="evenodd"/><path d="m94.7484 37.5895c0-.778-.6309-1.4089-1.4089-1.4089-.7784 0-1.4088.6309-1.4088 1.4089s.6304 1.4088 1.4088 1.4088c.778 0 1.4089-.6308 1.4089-1.4088z" style="fill-rule:evenodd;clip-rule:evenodd;stroke:#1c1f34;stroke-width:1.39691;stroke-linecap:round;stroke-linejoin:round"/><path d="m94.3291 36.5992 1.1772-1.1772" stroke="#1c1f34" stroke-linecap="round" stroke-linejoin="round" stroke-width="1.39691"/><path d="m94.3291 38.5781 1.1772 1.1772" stroke="#1c1f34" stroke-linecap="round" stroke-linejoin="round" stroke-width="1.39691"/><path d="m92.3496 38.5781-1.1772 1.1772" stroke="#1c1f34" stroke-linecap="round" stroke-linejoin="round" stroke-width="1.39691"/><path d="m92.3496 36.5991-1.1772-1.1773" stroke="#1c1f34" stroke-linecap="round" stroke-linejoin="round" stroke-width="1.39691"/><path clip-rule="evenodd" d="m73.0164 37.5895c0-.778-.6309-1.4089-1.4088-1.4089-.7785 0-1.4089.6309-1.4089 1.4089s.6304 1.4088 1.4089 1.4088c.7779 0 1.4088-.6308 1.4088-1.4088z" fill="#ececf2" fill-rule="evenodd"/><path d="m73.0164 37.5895c0-.778-.6309-1.4089-1.4088-1.4089-.7785 0-1.4089.6309-1.4089 1.4089s.6304 1.4088 1.4089 1.4088c.7779 0 1.4088-.6308 1.4088-1.4088z" style="fill-rule:evenodd;clip-rule:evenodd;stroke:#1c1f34;stroke-width:1.39691;stroke-linecap:round;stroke-linejoin:round"/><path d="m72.5977 36.5992 1.1772-1.1772" stroke="#1c1f34" stroke-linecap="round" stroke-linejoin="round" stroke-width="1.39691"/><path d="m72.5977 38.5781 1.1772 1.1772" stroke="#1c1f34" stroke-linecap="round" stroke-linejoin="round" stroke-width="1.39691"/><path d="m70.6181 38.5781-1.1772 1.1772" stroke="#1c1f34" stroke-linecap="round" stroke-linejoin="round" stroke-width="1.39691"/><path d="m70.6181 36.5991-1.1772-1.1773" stroke="#1c1f34" stroke-linecap="round" stroke-linejoin="round" stroke-width="1.39691"/><path clip-rule="evenodd" d="m51.2855 37.5894c0-.778-.6309-1.4089-1.4089-1.4089-.7784 0-1.4088.6309-1.4088 1.4089 0 .7779.6304 1.4088 1.4088 1.4088.778 0 1.4089-.6309 1.4089-1.4088z" fill="#dedede" fill-rule="evenodd"/><path d="m51.2855 37.5894c0-.778-.6309-1.4089-1.4089-1.4089-.7784 0-1.4088.6309-1.4088 1.4089 0 .7779.6304 1.4088 1.4088 1.4088.778 0 1.4089-.6309 1.4089-1.4088z" style="fill-rule:evenodd;clip-rule:evenodd;stroke:#1c1f34;stroke-width:1.39691;stroke-linecap:round;stroke-linejoin:round"/><path d="m50.8657 36.5991 1.1773-1.1773" stroke="#1c1f34" stroke-linecap="round" stroke-linejoin="round" stroke-width="1.39691"/><path d="m50.8657 38.578 1.1773 1.1772" stroke="#1c1f34" stroke-linecap="round" stroke-linejoin="round" stroke-width="1.39691"/><path d="m48.8862 38.578-1.1772 1.1772" stroke="#1c1f34" stroke-linecap="round" stroke-linejoin="round" stroke-width="1.39691"/><path d="m48.8862 36.599-1.1772-1.1773" stroke="#1c1f34" stroke-linecap="round" stroke-linejoin="round" stroke-width="1.39691"/><g clip-rule="evenodd" fill-rule="evenodd"><path d="m20.0684 97.0062h60.1956v-65.6194h-60.1956z" fill="#b58b75"/><path d="m20.0684 33.8239h60.1956v-2.4371h-60.1956z" fill="#000" opacity=".6"/><path d="m22.8696 39.1034h26.0891v-4.9153h-26.0891z" fill="#000" opacity=".6"/><path d="m22.8696 54.7113h26.0891v-4.9153h-26.0891z" fill="#000" opacity=".6"/><path d="m22.8701 70.3192h54.592v-4.9154h-54.592z" fill="#000" opacity=".6"/><path d="m22.8701 85.927h54.592v-4.9153h-54.592z" fill="#000" opacity=".6"/><path d="m51.3735 39.1034h26.0891v-4.9153h-26.0891z" fill="#000" opacity=".6"/><path d="m20.0684 97.0062h60.1956v-65.6194h-60.1956z" stroke="#1c1f34" stroke-linecap="round" stroke-linejoin="round" stroke-width="1.39691"/><path d="m22.8701 94.2039h54.592v-60.0158h-54.592z" stroke="#1c1f34" stroke-linecap="round" stroke-linejoin="round" stroke-width="1.39691"/><path d="m17.7334 31.3872h64.8653v-2.4142h-64.8653z" fill="#b58b75"/><path d="m17.7334 31.3872h64.8653v-2.4142h-64.8653z" stroke="#1c1f34" stroke-linecap="round" stroke-linejoin="round" stroke-width="1.39691"/><path d="m22.8511 81.0122h54.6307v-2.4143h-54.6307z" stroke="#1c1f34" stroke-linecap="round" stroke-linejoin="round" stroke-width="1.39691"/><path d="m51.3736 62.9889v-28.8008h-2.4143v13.1933h-26.1082v2.4142h26.1082v13.1933h-26.1082v2.4142h54.6307v-2.4142z" stroke="#1c1f34" stroke-linecap="round" stroke-linejoin="round" stroke-width="1.39691"/><path d="m74.7321 99.7562h2.2821l.467-2.7491h-3.2161z" fill="#1c1f34"/><path d="m24.7759 99.7562h-2.2821l-.4669-2.7491h3.216z" fill="#1c1f34"/><path d="m74.7321 99.7562h2.2821l.467-2.7491h-3.2161z" stroke="#1c1f34" stroke-linecap="round" stroke-linejoin="round" stroke-width="1.39691"/><path d="m24.7759 99.7562h-2.2821l-.4669-2.7491h3.216z" stroke="#1c1f34" stroke-linecap="round" stroke-linejoin="round" stroke-width="1.39691"/><path d="m14.5513 97.0075h71.4028v-25.6142h-71.4028z" fill="#998786"/><path d="m14.5513 97.0075h71.4028v-25.6142h-71.4028z" stroke="#1c1f34" stroke-linecap="round" stroke-linejoin="round" stroke-width="1.39691"/><path d="m14.5605 73.8304h71.3941v-2.4371h-71.3941z" fill="#000" opacity=".6"/><path d="m17.8037 93.7931h30.9918v-8.6571h-30.9918z" stroke="#1c1f34" stroke-linecap="round" stroke-linejoin="round" stroke-width="1.39691"/><path d="m17.8032 82.0204h13.7864v-7.2562h-13.7864z" stroke="#1c1f34" stroke-linecap="round" stroke-linejoin="round" stroke-width="1.39691"/><path d="m34.8408 82.0204h13.7864v-7.2562h-13.7864z" stroke="#1c1f34" stroke-linecap="round" stroke-linejoin="round" stroke-width="1.39691"/><path d="m42.4256 78.3924c0-.3819-.3096-.6915-.6915-.6915-.382 0-.6916.3096-.6916.6915 0 .382.3096.6916.6916.6916.3819 0 .6915-.3096.6915-.6916z" fill="#1c1f34"/><path d="m25.388 78.3924c0-.3819-.3096-.6915-.6915-.6915-.382 0-.6916.3096-.6916.6915 0 .382.3096.6916.6916.6916.3819 0 .6915-.3096.6915-.6916z" fill="#1c1f34"/><path d="m51.8789 93.7931h30.8242v-8.6571h-30.8242z" stroke="#1c1f34" stroke-linecap="round" stroke-linejoin="round" stroke-width="1.39691"/><path d="m74.5957 82.0204h8.1071v-7.2562h-8.1071z" stroke="#1c1f34" stroke-linecap="round" stroke-linejoin="round" stroke-width="1.39691"/><path d="m63.2373 82.0204h8.1071v-7.2562h-8.1071z" stroke="#1c1f34" stroke-linecap="round" stroke-linejoin="round" stroke-width="1.39691"/><path d="m51.8789 82.0204h8.1071v-7.2562h-8.1071z" stroke="#1c1f34" stroke-linecap="round" stroke-linejoin="round" stroke-width="1.39691"/><path d="m55.2412 78.3924c0-.3819.3096-.6915.6916-.6915s.6916.3096.6916.6915c0 .382-.3096.6916-.6916.6916s-.6916-.3096-.6916-.6916z" fill="#1c1f34"/><path d="m42.4256 89.4622c0-.382-.3096-.6916-.6915-.6916-.382 0-.6916.3096-.6916.6916s.3096.6916.6916.6916c.3819 0 .6915-.3096.6915-.6916z" fill="#1c1f34"/><path d="m25.388 89.4622c0-.382-.3096-.6916-.6915-.6916-.382 0-.6916.3096-.6916.6916s.3096.6916.6916.6916c.3819 0 .6915-.3096.6915-.6916z" fill="#1c1f34"/><path d="m76.5013 89.4622c0-.382-.3096-.6916-.6916-.6916-.3819 0-.6915.3096-.6915.6916s.3096.6916.6915.6916c.382 0 .6916-.3096.6916-.6916z" fill="#1c1f34"/><path d="m59.4637 89.4622c0-.382-.3096-.6916-.6916-.6916-.3819 0-.6915.3096-.6915.6916s.3096.6916.6915.6916c.382 0 .6916-.3096.6916-.6916z" fill="#1c1f34"/><path d="m77.958 78.3924c0-.3819.3096-.6915.6916-.6915s.6916.3096.6916.6915c0 .382-.3096.6916-.6916.6916s-.6916-.3096-.6916-.6916z" fill="#1c1f34"/><path d="m66.5991 78.3924c0-.3819.3096-.6915.6916-.6915s.6916.3096.6916.6915c0 .382-.3096.6916-.6916.6916s-.6916-.3096-.6916-.6916z" fill="#1c1f34"/><path d="m12.2168 71.3937h76.0726v-2.4142h-76.0726z" fill="#998786"/><path d="m12.2168 71.3937h76.0726v-2.4142h-76.0726z" stroke="#1c1f34" stroke-linecap="round" stroke-linejoin="round" stroke-width="1.39691"/><path d="m81.7687 99.7578h2.2821l.467-2.749h-3.216z" fill="#1c1f34"/><path d="m18.7373 99.7578h-2.282l-.467-2.749h3.216z" fill="#1c1f34"/><path d="m81.7687 99.7578h2.2821l.467-2.749h-3.216z" stroke="#1c1f34" stroke-linecap="round" stroke-linejoin="round" stroke-width="1.39691"/><path d="m18.7373 99.7578h-2.282l-.467-2.749h3.216z" stroke="#1c1f34" stroke-linecap="round" stroke-linejoin="round" stroke-width="1.39691"/><path d="m58.3348 42.6353c-.8602 0-1.6242.2391-2.2989.6747.0845-.4137.1316-.8354.1316-1.2645 0-5.2128-6.418-9.4379-14.335-9.4379s-14.335 4.2251-14.335 9.4379c0 .4282.0453.8494.1293 1.2627-.6743-.4343-1.4373-.6729-2.2965-.6729-4.4979 0-3.7633 4.5893-3.7633 4.5893.2484 2.1841 2.7705 6.639 3.0007 16.7199.0136.5823.4871 1.0483 1.0694 1.0483h16.1954 16.1955c.5823 0 1.0558-.466 1.0693-1.0483.2302-10.0809 2.7523-14.5358 3.0008-16.7199 0 0 .734-4.5893-3.7633-4.5893z" fill="url(#o)"/></g><path d="m56.0359 43.31-.4563-.0932-.2216 1.0852.9304-.6008zm-28.4091-.0018-.2521.3915.9286.598-.2202-1.0823zm-6.0598 3.9164.4626-.0526-.0012-.0105-.0016-.0104zm3.0007 16.7199-.4655.0106v.0002zm34.5296 0 .4655.0108v-.0002zm3.0008-16.7199-.4598-.0735-.0017.0104-.0012.0105zm-3.7633-5.055c-.9519 0-1.8033.2661-2.5515.7493l.5051.7823c.6013-.3882 1.2779-.6003 2.0464-.6003zm-1.8427 1.2336c.0901-.4413.1411-.8943.1411-1.3577h-.9313c0 .3948-.0434.7852-.1223 1.1713zm.1411-1.3577c0-2.8133-1.7317-5.3005-4.4082-7.0627-2.6804-1.7646-6.356-2.8409-10.3925-2.8409v.9313c3.8806 0 7.3725 1.0364 9.8804 2.6875 2.5116 1.6536 3.989 3.8853 3.989 6.2848zm-14.8007-9.9036c-4.0364 0-7.712 1.0763-10.3924 2.8409-2.6766 1.7622-4.4082 4.2494-4.4082 7.0627h.9312c0-2.3995 1.4774-4.6312 3.9891-6.2848 2.5079-1.6511 5.9998-2.6875 9.8803-2.6875zm-14.8006 9.9036c0 .4612.0488.9135.1387 1.3555l.9125-.1856c-.0782-.3846-.12-.7747-.12-1.1699zm.8471.8712c-.7476-.4815-1.5978-.7471-2.5487-.7471v.9313c.7676 0 1.4434.2117 2.0444.5988zm-2.5487-.7471c-1.2066 0-2.1087.3093-2.7681.8126-.6565.5012-1.0319 1.1638-1.2424 1.8019-.2097.6354-.2614 1.2616-.2629 1.7219-.0008.2318.0112.4257.0235.5632.0062.0689.0126.1239.0175.1627.0025.0195.0046.0349.0062.0461.0009.0055.0015.01.002.0134.0003.0017.0005.0031.0007.0043.0001.0005.0002.001.0002.0015.0001.0002.0001.0005.0001.0006.0001.0002.0001.0004.4599-.0732.4598-.0735.4598-.0733.4598-.0732s.0001.0002.0001.0003v.0003s0-.0003-.0001-.0008c-.0002-.001-.0005-.0031-.0009-.0062-.0009-.0062-.0024-.0166-.0042-.0307-.0036-.0284-.0086-.072-.0137-.1286-.0102-.1135-.0205-.2781-.0199-.4766.0013-.4002.0471-.9213.216-1.4332.1681-.5093.4524-.9941.9232-1.3534.4679-.3572 1.1607-.6216 2.203-.6216zm-4.226 5.1077c.0681.5985.2881 1.3314.5594 2.2021.2761.8858.6181 1.9508.9599 3.2613.6822 2.6156 1.3644 6.2136 1.4786 11.2144l.931-.0212c-.116-5.0802-.8099-8.7501-1.5084-11.4282-.3486-1.3363-.6981-2.4246-.972-3.3034-.2786-.8938-.467-1.5368-.5232-2.0303zm2.9979 16.678c.0194.8332.6976 1.5032 1.5349 1.5032v-.9313c-.3274 0-.5961-.2621-.6039-.5935zm1.5349 1.5032h16.1954v-.9313h-16.1954zm16.1954 0h16.1955v-.9313h-16.1955zm16.1955 0c.8372 0 1.5154-.67 1.5348-1.5032l-.931-.0216c-.0077.3314-.2765.5935-.6038.5935zm1.5348-1.5034c.1142-5.0008.7964-8.5988 1.4786-11.2144.3418-1.3105.6838-2.3755.9599-3.2613.2714-.8707.4913-1.6036.5594-2.2021l-.9253-.1053c-.0561.4935-.2446 1.1365-.5232 2.0303-.2739.8788-.6234 1.9671-.9719 3.3034-.6985 2.6781-1.3925 6.348-1.5085 11.4282zm2.5353-16.7305c.4597.0736.4598.0734.4598.0731 0-.0001.0001-.0004.0001-.0006.0001-.0004.0002-.0009.0003-.0015.0001-.0011.0004-.0025.0006-.0042.0005-.0034.0012-.0079.002-.0135.0016-.0111.0037-.0266.0062-.046.005-.0389.0113-.0939.0175-.1627.0124-.1376.0243-.3314.0235-.5632-.0015-.4603-.0533-1.0866-.263-1.722-.2106-.6381-.586-1.3006-1.2425-1.8018-.6593-.5033-1.5614-.8126-2.7678-.8126v.9313c1.0422 0 1.7349.2644 2.2028.6216.4707.3593.7551.8441.9231 1.3534.169.5119.2148 1.033.2161 1.4332.0007.1985-.0095.3632-.0197.4766-.0051.0567-.0102.1003-.0138.1286-.0018.0142-.0033.0245-.0041.0308-.0005.0031-.0008.0052-.001.0062 0 .0005-.0001.0007-.0001.0007s0-.0001.0001-.0002c0-.0001 0-.0003 0-.0003 0-.0002.0001-.0004.4599.0731z" fill="#000" mask="url(#u)"/><path clip-rule="evenodd" d="m31.7231 61.6145h20.2189v-2.3759h-20.2189z" fill="#000" fill-rule="evenodd" opacity=".6"/><path clip-rule="evenodd" d="m26.9863 65.4597.3745 3.5191h1.2851l1.4467-3.5191" fill="#e1bfaf" fill-rule="evenodd"/><path clip-rule="evenodd" d="m56.6785 65.4597-.3745 3.5191h-1.2851l-1.4466-3.5191" fill="#e1bfaf" fill-rule="evenodd"/><path d="m26.9863 65.4597.3745 3.5191h1.2851l1.4467-3.5191" stroke="#1c1f34" stroke-linecap="round" stroke-linejoin="round" stroke-width="1.39691"/><path d="m41.8325 65.4056h-16.1955c-.5823-.4118-1.0558-.8779-1.0693-1.4597-.2302-10.0814-2.7523-14.5363-3.0008-16.7203 0 0-.7341-4.5894 3.7633-4.5894s6.3928 6.4927 6.3928 13.8358v2.8093h10.1095" stroke="#1c1f34" stroke-linecap="round" stroke-linejoin="round" stroke-width="1.39691"/><path d="m31.7231 59.2806v5.7129" stroke="#1c1f34" stroke-linecap="round" stroke-linejoin="round" stroke-width="1.39691"/><path d="m41.8326 32.6095s-14.335-.3969-14.335 10.2276" stroke="#1c1f34" stroke-linecap="round" stroke-linejoin="round" stroke-width="1.39691"/><path d="m56.6785 65.4597-.3745 3.5191h-1.2851l-1.4466-3.5191" stroke="#1c1f34" stroke-linecap="round" stroke-linejoin="round" stroke-width="1.39691"/><path d="m41.8325 65.4056h16.1954c.5824-.4118 1.0559-.8779 1.0694-1.4597.2302-10.0814 2.7523-14.5363 3.0008-16.7203 0 0 .734-4.5894-3.7634-4.5894-4.4973 0-6.3928 6.4927-6.3928 13.8358v2.8093h-10.1094" stroke="#1c1f34" stroke-linecap="round" stroke-linejoin="round" stroke-width="1.39691"/><path d="m52.2686 51.4851c-.4361-.9527-2.2321-.9092-2.2321-.9092h-16.4079s-1.796-.0435-2.2321.9092" stroke="#1c1f34" stroke-linecap="round" stroke-linejoin="round" stroke-width="1.39691"/><path d="m51.9414 59.2806v5.7129" stroke="#1c1f34" stroke-linecap="round" stroke-linejoin="round" stroke-width="1.39691"/><path d="m41.8325 32.6095s14.335-.3969 14.335 10.2276" stroke="#1c1f34" stroke-linecap="round" stroke-linejoin="round" stroke-width="1.39691"/><path clip-rule="evenodd" d="m190.312 98.4624c0-.7145-.579-1.2935-1.293-1.2935s-1.293.579-1.293 1.2935.579 1.2935 1.293 1.2935 1.293-.579 1.293-1.2935z" fill="#565b7a" fill-rule="evenodd"/><path clip-rule="evenodd" d="m200.522 98.4624c0-.7145-.579-1.2935-1.293-1.2935s-1.293.579-1.293 1.2935.579 1.2935 1.293 1.2935 1.293-.579 1.293-1.2935z" fill="#565b7a" fill-rule="evenodd"/><path clip-rule="evenodd" d="m186.873 89.0437h14.501c.72 0 1.305-.5841 1.305-1.3051v-1.6349c0-1.1707-.949-2.1196-2.12-2.1196h-12.872c-1.17 0-2.119.9489-2.119 2.1196v1.6349c0 .721.585 1.3051 1.305 1.3051z" fill="#565b7a" fill-rule="evenodd"/><path clip-rule="evenodd" d="m201.43 86.8089h-14.612c-.613 0-1.12-.4412-1.227-1.0226-.008.0752-.023.1485-.023.226v1.782c0 .6901.56 1.2491 1.25 1.2491h14.612c.69 0 1.249-.559 1.249-1.2491v-1.782c0-.0775-.014-.1508-.022-.226-.107.5814-.614 1.0226-1.227 1.0226z" fill="#000" fill-rule="evenodd" opacity=".6"/><path clip-rule="evenodd" d="m206.517 77.3918h-2.103c-.78 0-1.413.6322-1.413 1.4125v.6085c0 .5057.41.9162.916.9162h3.096c.506 0 .916-.4105.916-.9162v-.6085c0-.7803-.632-1.4125-1.412-1.4125z" fill="#565b7a" fill-rule="evenodd"/><path clip-rule="evenodd" d="m181.73 77.3918h2.103c.781 0 1.413.6322 1.413 1.4125v.6085c0 .5057-.41.9162-.916.9162h-3.096c-.506 0-.916-.4105-.916-.9162v-.6085c0-.7803.632-1.4125 1.412-1.4125z" fill="#565b7a" fill-rule="evenodd"/><path clip-rule="evenodd" d="m196.755 64.9236h-5.263c-2.695 0-4.827 2.2831-4.642 4.9719l.611 8.8901c.082 1.1787 1.061 2.093 2.242 2.093h8.841c1.181 0 2.161-.9143 2.242-2.093l.611-8.8901c.185-2.6888-1.946-4.9719-4.642-4.9719z" fill="#677bc5" fill-rule="evenodd"/><path clip-rule="evenodd" d="m200.786 76.5514c-.081 1.1786-1.06 2.093-2.242 2.093h-8.84c-1.182 0-2.161-.9144-2.242-2.093l-.539-7.8297c-.07.3788-.1.7705-.073 1.1735l.612 8.8907c.081 1.1786 1.06 2.0929 2.242 2.0929h8.84c1.182 0 2.161-.9143 2.242-2.0929l.612-8.8907c.027-.403-.003-.7947-.073-1.1735z" fill="#000" fill-rule="evenodd" opacity=".6"/><path clip-rule="evenodd" d="m192.476 89.0428v2.7915h3.295v-2.7915" fill="#565b7a" fill-rule="evenodd"/><path d="m190.312 98.4624c0-.7145-.579-1.2935-1.293-1.2935s-1.293.579-1.293 1.2935.579 1.2935 1.293 1.2935 1.293-.579 1.293-1.2935z" style="fill-rule:evenodd;clip-rule:evenodd;stroke:#1c1f34;stroke-width:1.39691;stroke-linecap:round;stroke-linejoin:round"/><path d="m200.522 98.4624c0-.7145-.579-1.2935-1.293-1.2935s-1.293.579-1.293 1.2935.579 1.2935 1.293 1.2935 1.293-.579 1.293-1.2935z" style="fill-rule:evenodd;clip-rule:evenodd;stroke:#1c1f34;stroke-width:1.39691;stroke-linecap:round;stroke-linejoin:round"/><path d="m194.124 92.339v2.9671" stroke="#1c1f34" stroke-linecap="round" stroke-linejoin="round" stroke-width="1.39691"/><path d="m186.873 89.0437h14.501c.72 0 1.305-.5841 1.305-1.3051v-1.6349c0-1.1707-.949-2.1196-2.12-2.1196h-12.872c-1.17 0-2.119.9489-2.119 2.1196v1.6349c0 .721.585 1.3051 1.305 1.3051z" style="fill-rule:evenodd;clip-rule:evenodd;stroke:#1c1f34;stroke-width:1.39691;stroke-linecap:round;stroke-linejoin:round"/><path d="m203.183 85.9106s2.282.0187 2.282-3.1268v-2.4554" stroke="#1c1f34" stroke-linecap="round" stroke-linejoin="round" stroke-width="1.39691"/><path d="m206.517 77.3918h-2.103c-.78 0-1.413.6322-1.413 1.4125v.6085c0 .5057.41.9162.916.9162h3.096c.506 0 .916-.4105.916-.9162v-.6085c0-.7803-.632-1.4125-1.412-1.4125z" style="fill-rule:evenodd;clip-rule:evenodd;stroke:#1c1f34;stroke-width:1.39691;stroke-linecap:round;stroke-linejoin:round"/><path d="m185.064 85.9106s-2.282.0187-2.282-3.1268v-2.4554" stroke="#1c1f34" stroke-linecap="round" stroke-linejoin="round" stroke-width="1.39691"/><path d="m181.73 77.3918h2.103c.781 0 1.413.6322 1.413 1.4125v.6085c0 .5057-.41.9162-.916.9162h-3.096c-.506 0-.916-.4105-.916-.9162v-.6085c0-.7803.632-1.4125 1.412-1.4125z" style="fill-rule:evenodd;clip-rule:evenodd;stroke:#1c1f34;stroke-width:1.39691;stroke-linecap:round;stroke-linejoin:round"/><path d="m196.755 64.9236h-5.263c-2.695 0-4.827 2.2831-4.642 4.9719l.611 8.8901c.082 1.1787 1.061 2.093 2.242 2.093h8.841c1.181 0 2.161-.9143 2.242-2.093l.611-8.8901c.185-2.6888-1.946-4.9719-4.642-4.9719z" style="fill-rule:evenodd;clip-rule:evenodd;stroke:#1c1f34;stroke-width:1.39691;stroke-linecap:round;stroke-linejoin:round"/><path d="m194.124 83.9838v-3.1044" stroke="#1c1f34" stroke-linecap="round" stroke-linejoin="round" stroke-width="1.39691"/><path d="m189.019 96.1302c1.209-.4805 2.858-.8242 5.105-.8242s3.896.3437 5.105.8242" stroke="#1c1f34" stroke-linecap="round" stroke-linejoin="round" stroke-width="1.39691"/><path d="m192.476 89.0428v2.7915h3.295v-2.7915" stroke="#1c1f34" stroke-linecap="round" stroke-linejoin="round" stroke-width="1.39691"/><path clip-rule="evenodd" d="m147.201 76.6029s.025-4.5894-3.763-4.5894c-1.354 0-2.537.6939-3.525 1.6592v-1.3374c0-3.337-2.705-6.0421-6.042-6.0421h-28.408l-2.842 1.4009-2.8428-1.4009h-28.4085c-3.337 0-6.0421 2.7051-6.0421 6.0421v1.3374c-.9877-.9653-2.171-1.6592-3.5243-1.6592-3.788 0-3.7633 4.5894-3.7633 4.5894s2.1682 6.743 3.1096 10.5633c.9419 3.8198.8256 7.5574.8256 7.5574l1.0689 1.0484h2.2835 6.0066 62.5728 6.006 2.284l1.069-1.0484s-.116-3.7376.825-7.5574c.942-3.8203 3.11-10.5633 3.11-10.5633z" fill="url(#p)" fill-rule="evenodd"/><path d="m139.913 73.6727h-.465v1.1058l.791-.7727zm-34.45-7.3795v-.4657h-.109l-.097.048zm-2.842 1.4009-.206.4176.206.1015.206-.1015zm-2.8428-1.4009.2059-.4177-.0974-.048h-.1085zm-34.4506 7.3795-.3255.333.7911.7731v-1.1061zm-7.2876 2.9302-.4656.0025.0004.0717.022.0683zm3.1096 10.5633-.4521.1114v.0001zm.8256 7.5574-.4654-.0144-.0064.204.1457.1429zm1.0689 1.0484-.3261.3324.1359.1332h.1902zm79.1529 0v.4656h.19l.136-.1331zm1.069-1.0484.326.3326.146-.143-.006-.204zm.825-7.5574-.452-.1114zm3.11-10.5633c.465.0025.465.0023.465.0021 0-.0001 0-.0004 0-.0006 0-.0003 0-.0008 0-.0013 0-.0011 0-.0024 0-.0041 0-.0032 0-.0075 0-.013 0-.0108 0-.0259 0-.0449-.001-.0382-.003-.0924-.007-.1603-.007-.1357-.022-.3272-.052-.556-.06-.4552-.183-1.0704-.436-1.6922-.253-.6213-.645-1.2693-1.254-1.7636-.617-.5004-1.43-.8211-2.479-.8211v.9313c.844 0 1.448.2529 1.892.613.452.3663.764.8656.978 1.3917.215.5255.322 1.0576.376 1.4629.027.2015.039.3686.046.4838.003.0576.004.102.005.1311v.0317.0067.001s0-.0001 0-.0002v-.0002c0-.0001 0-.0003.466.0022zm-3.763-5.055c-1.522 0-2.815.7808-3.85 1.7917l.651.6662c.941-.9196 2.013-1.5266 3.199-1.5266zm-3.059 2.1248v-1.3374h-.931v1.3374zm0-1.3374c0-3.5942-2.914-6.5078-6.508-6.5078v.9313c3.08 0 5.577 2.4967 5.577 5.5765zm-6.508-6.5078h-28.408v.9313h28.408zm-28.614.048-2.842 1.4009.412.8353 2.842-1.4009zm-2.43 1.4009-2.8429-1.4009-.4117.8353 2.8426 1.4009zm-3.0488-1.4489h-28.4085v.9313h28.4085zm-28.4085 0c-3.5941 0-6.5078 2.9136-6.5078 6.5078h.9313c0-3.0798 2.4967-5.5765 5.5765-5.5765zm-6.5078 6.5078v1.3374h.9313v-1.3374zm.7911 1.0044c-1.0345-1.0111-2.3283-1.7918-3.8497-1.7918v.9313c1.1852 0 2.258.6071 3.1988 1.5265zm-3.8497-1.7918c-1.0492 0-1.8626.3207-2.4794.8211-.6093.4943-1.0009 1.1423-1.254 1.7636-.2532.6218-.376 1.237-.4362 1.6922-.0302.2288-.045.4203-.0523.556-.0036.0679-.0054.1221-.0062.1603-.0005.019-.0007.0341-.0007.0449-.0001.0055-.0001.0098-.0001.013v.0041.0013.0006c0 .0002 0 .0004.4656-.0021.4657-.0025.4657-.0023.4657-.0022v.0002.0002c0-.0001 0-.0004 0-.001 0-.0012 0-.0034 0-.0067.0001-.0065.0002-.0172.0005-.0317.0007-.0291.0021-.0735.0051-.1311.0062-.1152.0191-.2823.0457-.4838.0536-.4053.1614-.9374.3754-1.4629.2143-.5261.5267-1.0254.9782-1.3917.4439-.3601 1.0479-.613 1.8927-.613zm-3.7633 5.055c-.4432.1425-.4432.1426-.4432.1426v.0002c.0001.0002.0002.0005.0003.0009.0003.0008.0007.002.0012.0036.001.0032.0026.008.0046.0144.0041.0128.0102.0319.0183.0569.016.0502.0397.1243.0702.22.061.1914.1492.4692.258.8146.2177.6909.5177 1.6517.847 2.7317.6596 2.1628 1.4337 4.7931 1.9011 6.6898l.9042-.2228c-.474-1.9235-1.2547-4.5749-1.9145-6.7387-.3304-1.0833-.6313-2.047-.8496-2.7398-.1091-.3465-.1976-.6253-.2589-.8176-.0306-.0961-.0544-.1706-.0706-.2211-.0081-.0253-.0143-.0445-.0184-.0575-.0021-.0065-.0037-.0114-.0048-.0147-.0005-.0016-.0009-.0029-.0012-.0037-.0001-.0005-.0002-.0008-.0003-.001 0-.0001 0-.0002 0-.0002-.0001-.0001-.0001-.0001-.4434.1424zm2.6575 10.6748c.4621 1.874.6658 3.7338.7534 5.1288.0437.6965.0584 1.2747.0621 1.6778.0019.2015.001.359-.0003.4656-.0006.0533-.0014.0938-.002.1206-.0003.0134-.0005.0234-.0007.0299-.0001.0033-.0001.0056-.0002.0071v.0015.0003c0-.0001 0-.0001.4654.0143.4654.0145.4654.0144.4654.0144 0-.0001 0-.0002 0-.0003 0-.0002 0-.0005 0-.0008.0001-.0006.0001-.0015.0001-.0025.0001-.0022.0002-.0053.0003-.0092.0002-.0079.0005-.0194.0008-.0342.0006-.0298.0015-.0733.0022-.1297.0013-.1128.0022-.2771.0003-.4857-.0039-.4171-.0191-1.012-.064-1.7274-.0897-1.4287-.2988-3.3477-.7786-5.2935zm.9516 7.7784 1.0689 1.0483.6521-.6648-1.0689-1.0484zm1.395 1.1815h2.2835v-.9312h-2.2835zm2.2835 0h6.0066v-.9312h-6.0066zm6.0066 0h62.5728v-.9312h-62.5728zm62.5728 0h6.006v-.9312h-6.006zm6.006 0h2.284v-.9312h-2.284zm2.61-.1331 1.069-1.0483-.652-.6651-1.069 1.0484zm.743-1.3809c.466-.0144.466-.0144.466-.0143 0-.0001 0 0 0 0 0-.0001 0-.0002 0-.0003 0-.0003 0-.0008 0-.0015-.001-.0015-.001-.0038-.001-.0071 0-.0065 0-.0165 0-.0299-.001-.0268-.002-.0673-.002-.1206-.002-.1066-.003-.2641-.001-.4656.004-.4031.019-.9813.062-1.6778.088-1.3951.292-3.2548.753-5.1289l-.904-.2228c-.479 1.9458-.688 3.8647-.778 5.2934-.045.7154-.06 1.3103-.064 1.7274-.002.2086-.001.3729 0 .4857.001.0564.002.0999.003.1297v.0342c0 .0039.001.007.001.0092v.0025.0008.0003s0 .0001.465-.0144zm1.277-7.4459c.468-1.8968 1.242-4.5271 1.902-6.6899.329-1.08.629-2.0409.847-2.7317.108-.3454.197-.6232.258-.8147.03-.0957.054-.1698.07-.2199.008-.0251.014-.0441.018-.0569.002-.0064.004-.0112.005-.0144 0-.0016 0-.0028.001-.0036 0-.0004 0-.0007 0-.0009 0-.0001 0-.0002 0-.0002 0-.0001 0-.0001-.443-.1426s-.443-.1425-.443-.1424c-.001 0-.001.0001-.001.0002v.001c0 .0008-.001.0021-.001.0037-.001.0033-.003.0082-.005.0147-.004.013-.01.0323-.018.0575-.016.0505-.04.125-.071.2212-.061.1922-.15.471-.259.8175-.218.6928-.519 1.6565-.849 2.7398-.66 2.1638-1.441 4.8152-1.915 6.7387z" fill="#000" mask="url(#v)"/><path clip-rule="evenodd" d="m77.4775 73.9951c0-.6399.5187-1.1586 1.1586-1.1586s1.1585.5187 1.1585 1.1586-.5186 1.1585-1.1585 1.1585-1.1586-.5186-1.1586-1.1585z" fill="#000" fill-rule="evenodd" opacity=".5"/><path clip-rule="evenodd" d="m112.5 73.9951c0-.6399.519-1.1586 1.159-1.1586.639 0 1.158.5187 1.158 1.1586s-.519 1.1585-1.158 1.1585c-.64 0-1.159-.5186-1.159-1.1585z" fill="#000" fill-rule="evenodd" opacity=".5"/><path clip-rule="evenodd" d="m89.6187 73.9951c0-.6399.5186-1.1586 1.1585-1.1586s1.1586.5187 1.1586 1.1586-.5187 1.1585-1.1586 1.1585-1.1585-.5186-1.1585-1.1585z" fill="#000" fill-rule="evenodd" opacity=".5"/><path clip-rule="evenodd" d="m124.641 73.9951c0-.6399.519-1.1586 1.159-1.1586s1.158.5187 1.158 1.1586-.518 1.1585-1.158 1.1585-1.159-.5186-1.159-1.1585z" fill="#000" fill-rule="evenodd" opacity=".5"/><path clip-rule="evenodd" d="m70.0645 92.8621h65.1125v-2.8093h-65.1125z" fill="#000" fill-rule="evenodd" opacity=".3"/><path clip-rule="evenodd" d="m65.3281 95.7721.3745 3.986h1.2856l1.4462-3.986" fill="#e1bfaf" fill-rule="evenodd"/><path clip-rule="evenodd" d="m139.913 95.7721-.374 3.986h-1.285l-1.447-3.986" fill="#e1bfaf" fill-rule="evenodd"/><path d="m65.3281 95.7721.3745 3.986h1.2856l1.4462-3.986" stroke="#1c1f34" stroke-linecap="round" stroke-linejoin="round" stroke-width="1.39691"/><path d="m102.621 95.772h39.576c.582 0 1.056-.466 1.069-1.0484.231-10.0809 3.687-15.9367 3.935-18.1207 0 0 .735-4.5894-3.763-4.5894s-8.261 7.8937-8.261 15.2368v2.8088h-32.556v-8.4998-12.4209s-.092-2.8452 2.845-2.8452h28.108s6.076 0 6.076 6.1275v1.4897" stroke="#1c1f34" stroke-linecap="round" stroke-linejoin="round" stroke-width="1.39691"/><path d="m102.621 83.0049s.172-1.5247 2.367-1.5882c2.194-.0639 29.684-.0639 29.684-.0639s.542-.0435.978.9091" stroke="#1c1f34" stroke-linecap="round" stroke-linejoin="round" stroke-width="1.39691"/><path d="m135.177 90.0598v5.7129" stroke="#1c1f34" stroke-linecap="round" stroke-linejoin="round" stroke-width="1.39691"/><path d="m102.621 95.772h-39.5763c-.5823 0-1.0563-.466-1.0694-1.0484-.2302-10.0809-3.6867-15.9367-3.9347-18.1207 0 0-.7345-4.5894 3.7633-4.5894 4.4974 0 8.2607 7.8937 8.2607 15.2368v2.8088h32.5564v-8.4998-12.4209s.092-2.8452-2.8455-2.8452h-28.1082s-6.0753 0-6.0753 6.1275v1.4897" stroke="#1c1f34" stroke-linecap="round" stroke-linejoin="round" stroke-width="1.39691"/><path d="m102.621 83.0049s-.172-1.5247-2.367-1.5882c-2.1948-.0639-29.6849-.0639-29.6849-.0639s-.5416-.0435-.9778.9091" stroke="#1c1f34" stroke-linecap="round" stroke-linejoin="round" stroke-width="1.39691"/><path d="m70.0645 90.0598v5.7129" stroke="#1c1f34" stroke-linecap="round" stroke-linejoin="round" stroke-width="1.39691"/><path d="m139.913 95.7721-.374 3.986h-1.285l-1.447-3.986" stroke="#1c1f34" stroke-linecap="round" stroke-linejoin="round" stroke-width="1.39691"/><path clip-rule="evenodd" d="m180.318 99.7576h2.092v-22.2165h-2.092z" fill="#e9dfde" fill-rule="evenodd"/><path clip-rule="evenodd" d="m180.317 82.576h2.093v-5.0349h-2.093z" fill="#000" fill-rule="evenodd"/><path d="m180.318 99.7576h2.092v-22.2165h-2.092z" style="fill-rule:evenodd;clip-rule:evenodd;stroke:#1c1f34;stroke-width:1.39691;stroke-linecap:round;stroke-linejoin:round"/><path clip-rule="evenodd" d="m147.029 99.7576h2.093v-22.2165h-2.093z" fill="#e9dfde" fill-rule="evenodd"/><path clip-rule="evenodd" d="m147.029 82.576h2.092v-5.0349h-2.092z" fill="#000" fill-rule="evenodd"/><path d="m147.029 99.7576h2.093v-22.2165h-2.093z" style="fill-rule:evenodd;clip-rule:evenodd;stroke:#1c1f34;stroke-width:1.39691;stroke-linecap:round;stroke-linejoin:round"/><path clip-rule="evenodd" d="m144.405 77.5416h40.629v-2.454h-40.629z" fill="#bc9682" fill-rule="evenodd"/><path d="m144.405 77.5416h40.629v-2.454h-40.629z" style="fill-rule:evenodd;clip-rule:evenodd;stroke:#1c1f34;stroke-width:1.39691;stroke-linecap:round;stroke-linejoin:round"/><path clip-rule="evenodd" d="m112.73 98.8227h18.889v-23.7464h-18.889z" fill="#998786" fill-rule="evenodd"/><path clip-rule="evenodd" d="m112.73 77.5134h18.889v-2.4371h-18.889z" fill="#000" fill-rule="evenodd" opacity=".6"/><path clip-rule="evenodd" d="m110.396 75.0768h52.956v-2.4143h-52.956z" fill="#998786" fill-rule="evenodd"/><path d="m112.73 98.8227h18.889v-23.7464h-18.889z" style="fill-rule:evenodd;clip-rule:evenodd;stroke:#1c1f34;stroke-width:1.39691;stroke-linecap:round;stroke-linejoin:round"/><path d="m115.516 96.0732h13.319v-8.6572h-13.319z" style="fill-rule:evenodd;clip-rule:evenodd;stroke:#1c1f34;stroke-width:1.39691;stroke-linecap:round;stroke-linejoin:round"/><path d="m115.516 84.3026h13.319v-6.3223h-13.319z" style="fill-rule:evenodd;clip-rule:evenodd;stroke:#1c1f34;stroke-width:1.39691;stroke-linecap:round;stroke-linejoin:round"/><path d="m122.866 81.1417c0-.382-.31-.6916-.692-.6916-.381 0-.691.3096-.691.6916s.31.6916.691.6916c.382 0 .692-.3096.692-.6916" stroke="#1c1f34" stroke-linecap="round" stroke-linejoin="round" stroke-width="1.39691"/><path d="m122.866 91.7446c0-.382-.31-.6916-.692-.6916-.381 0-.691.3096-.691.6916s.31.6916.691.6916c.382 0 .692-.3096.692-.6916" stroke="#1c1f34" stroke-linecap="round" stroke-linejoin="round" stroke-width="1.39691"/><path d="m110.396 75.0768h52.956v-2.4143h-52.956z" style="fill-rule:evenodd;clip-rule:evenodd;stroke:#1c1f34;stroke-width:1.39691;stroke-linecap:round;stroke-linejoin:round"/><path clip-rule="evenodd" d="m158.683 98.8227h2.334v-23.7464h-2.334z" fill="#998786" fill-rule="evenodd"/><path clip-rule="evenodd" d="m158.581 77.5134h2.437v-2.4371h-2.437z" fill="#000" fill-rule="evenodd" opacity=".6"/><path d="m158.683 98.8227h2.334v-23.7464h-2.334z" style="fill-rule:evenodd;clip-rule:evenodd;stroke:#1c1f34;stroke-width:1.39691;stroke-linecap:round;stroke-linejoin:round"/><path d="m128.834 98.822v.9339" stroke="#1c1f34" stroke-linecap="round" stroke-linejoin="round" stroke-width="1.39691"/><path d="m159.851 98.822v.9339" stroke="#1c1f34" stroke-linecap="round" stroke-linejoin="round" stroke-width="1.39691"/><path d="m115.516 98.822v.9339" stroke="#1c1f34" stroke-linecap="round" stroke-linejoin="round" stroke-width="1.39691"/><path clip-rule="evenodd" d="m118.473 72.6611h35.85v-31.1804h-35.85z" fill="#e1bfaf" fill-rule="evenodd"/><path clip-rule="evenodd" d="m134.317 41.0138v2.1676.6412.4151l.345.5436.346-.5436.347.5436.346-.5436.346.5436.347-.5436.346.5436.346-.5436.347.5436.348-.5436.349.5436.349-.5436v-.4151-.7943-2.0145z" fill="#fff" fill-rule="evenodd"/><path d="m118.473 72.6611h35.85v-31.1804h-35.85z" style="fill-rule:evenodd;clip-rule:evenodd;stroke:#1c1f34;stroke-width:1.39691;stroke-linecap:round;stroke-linejoin:round"/><path clip-rule="evenodd" d="m152.074 46.3554-2.644-2.6454-2.646 2.6454h1.576v2.4142h2.139v-2.4142z" fill="#1c1f34" fill-rule="evenodd" opacity=".3"/><path clip-rule="evenodd" d="m148.346 52.954.237.1447c.04 0 .06-.0163.06-.0495 0-.021-.01-.0504-.028-.0882l-.523-.9825-1.159.0285c-.052.0023-.078.0294-.078.0812 0 .0117.017.0285.049.0495l.241.1448-.255.396c-.07.113-.106.2059-.106.2792 0 .0659.024.1401.071.2223l.788 1.3748c-.019-.0869-.029-.1696-.029-.2475 0-.1387.044-.2756.131-.4096z" fill="#1c1f34" fill-rule="evenodd" opacity=".3"/><path clip-rule="evenodd" d="m148.651 52.1516.65-1.0073c-.242-.5533-.501-.8302-.774-.8302-.165 0-.275.0457-.332.1377l-.615.9825z" fill="#1c1f34" fill-rule="evenodd" opacity=".3"/><path clip-rule="evenodd" d="m148.12 54.8795h1.255v-1.3043h-1.209c-.148.2125-.241.3563-.279.4315-.061.12-.092.2428-.092.3675 0 .3367.109.5053.325.5053z" fill="#1c1f34" fill-rule="evenodd" opacity=".3"/><path clip-rule="evenodd" d="m150.704 51.9116.558-.94c.019-.0327.028-.0672.028-.1023 0-.0425-.014-.0639-.042-.0639.004 0-.014.007-.057.0214l-.254.1163-.233-.4628c-.104-.2073-.311-.311-.622-.311h-1.453c.177.0542.297.1074.361.1593.148.1177.3.339.456.664l.289.608-.215.1027c-.022.0094-.032.0281-.032.0565 0 .0351.022.0551.067.0598z" fill="#1c1f34" fill-rule="evenodd" opacity=".3"/><path clip-rule="evenodd" d="m151.262 54.6858.813-1.4771c-.121.1369-.252.2284-.393.2756-.113.0378-.274.0565-.484.0565h-.905v-.1873c0-.0728-.017-.1097-.053-.1097-.026 0-.044.0098-.056.0284l-.573.9928.594.912c.045.0682.083.0953.117.0813.032-.0094.049-.0271.049-.0533v-.311h.502c.184 0 .313-.0691.389-.2082z" fill="#1c1f34" fill-rule="evenodd" opacity=".3"/><path clip-rule="evenodd" d="m150.909 53.3538h.54c.13 0 .264-.0565.403-.1695.148-.1177.223-.2429.223-.3745 0-.0612-.02-.1215-.06-.1803l-.644-.9825-1.105.643z" fill="#1c1f34" fill-rule="evenodd" opacity=".3"/><path clip-rule="evenodd" d="m163.002 75.0869h20.037v-15.367h-20.037z" fill="#e1bfaf" fill-rule="evenodd"/><path clip-rule="evenodd" d="m170.939 59.253v2.1677.6411.4151l.346.5436.346-.5436.346.5436.346-.5436.347.5436.347-.5436.346.5436.346-.5436.347.5436.348-.5436.349.5436.349-.5436v-.4151-.7943-2.0145z" fill="#fff" fill-rule="evenodd"/><path d="m163.002 75.0869h20.037v-15.367h-20.037z" style="fill-rule:evenodd;clip-rule:evenodd;stroke:#1c1f34;stroke-width:1.39691;stroke-linecap:round;stroke-linejoin:round"/><path clip-rule="evenodd" d="m172.014 71.9684-7.802 2.3713-13.117-43.1582 7.802-2.3713z" fill="#e1bfaf" fill-rule="evenodd"/><path clip-rule="evenodd" d="m164.768 48.2232-.797.2549-.61.1976-.395.1279-.411.4959.624.1621-.411.4968.624.1616-.411.4978.625.162-.411.4969.624.1611-.411.4982.625.1635-.41.4996.625.1644.395-.1279.756-.2447.651-.2078z" fill="#fff" fill-rule="evenodd"/><path d="m172.014 71.9685-7.802 2.3712-13.117-43.1582 7.802-2.3713z" style="fill-rule:evenodd;clip-rule:evenodd;stroke:#1c1f34;stroke-width:1.39691;stroke-linecap:round;stroke-linejoin:round"/><path clip-rule="evenodd" d="m5.40918 99.7558h21.15792v-21.158h-21.15792z" fill="#e1bfaf" fill-rule="evenodd"/><path clip-rule="evenodd" d="m13.791 78.6889v2.2891.6766.4385l.3643.5744.3661-.5744.3656.5744.3652-.5744.3665.5744.3657-.5744.3656.5744.3652-.5744.3665.5744.3676-.5744.3684.5744.3684-.5744v-.4385-.8382-2.1275z" fill="#fff" fill-rule="evenodd"/><path d="m5.40918 99.7558h21.15792v-21.158h-21.15792z" style="fill-rule:evenodd;clip-rule:evenodd;stroke:#1c1f34;stroke-width:1.39691;stroke-linecap:round;stroke-linejoin:round"/><path clip-rule="evenodd" d="m23.5679 91.746-.9941-1.3804-.9942 1.3804h.4361v4.2569h1.1161v-4.2569z" fill="#1c1f34" fill-rule="evenodd" opacity=".3"/><path clip-rule="evenodd" d="m21.1793 91.746-.9942-1.3804-.9942 1.3804h.4362v4.2569h1.116v-4.2569z" fill="#1c1f34" fill-rule="evenodd" opacity=".3"/><path clip-rule="evenodd" d="m18.9985 96.5561h4.7631v-.6089h-4.7631z" fill="#1c1f34" fill-rule="evenodd" opacity=".3"/><path clip-rule="evenodd" d="m201.069 62.8765h21.158v-21.1579h-21.158z" fill="#e1bfaf" fill-rule="evenodd"/><path clip-rule="evenodd" d="m209.451 41.8096v2.2891.6766.4385l.364.5744.367-.5744.365.5744.365-.5744.367.5744.366-.5744.365.5744.365-.5744.367.5744.367-.5744.369.5744.368-.5744v-.4385-.8382-2.1275z" fill="#fff" fill-rule="evenodd"/><path d="m201.069 62.8765h21.158v-21.1579h-21.158z" style="fill-rule:evenodd;clip-rule:evenodd;stroke:#1c1f34;stroke-width:1.39691;stroke-linecap:round;stroke-linejoin:round"/><path clip-rule="evenodd" d="m219.228 54.8667-.994-1.3804-.994 1.3804h.436v4.2569h1.116v-4.2569z" fill="#1c1f34" fill-rule="evenodd" opacity=".3"/><path clip-rule="evenodd" d="m216.839 54.8667-.994-1.3804-.994 1.3804h.436v4.2569h1.116v-4.2569z" fill="#1c1f34" fill-rule="evenodd" opacity=".3"/><path clip-rule="evenodd" d="m214.658 59.6769h4.763v-.609h-4.763z" fill="#1c1f34" fill-rule="evenodd" opacity=".3"/><path clip-rule="evenodd" d="m235.516 47.6327s-.347-2.2077.181-3.0173l2.885-4.9228-3.463-1.8319v-1.1768s-2.561.4523-4.887 0c-2.327-.4521-2.308-.7254-2.308-.7254l-.279 2.2209-.738 2.1181.695.9976-.401 2.6702.723 1.0801h1.338l1.058 1.6289z" fill="#ffd3b2" fill-rule="evenodd"/><path clip-rule="evenodd" d="m236.412 44.6912s-1.37.5943-1.584-.6587.605-.766 1.584-1.7993c.979-1.0335-.669-1.9908-.669-1.9908l-.624-.6926v-2.7801s-3.003.4632-4.825 0c-1.821-.4633-3.462-.9393-4.056-2.2856-.595-1.3466 0-2.4118 0-2.4118l1.066.0881s1.588-.0731 1.031-1.264l1.841-.7898s.652-.4527 2.619-.0522c1.968.4003 5.319 1.4765 6.053 2.6339.733 1.1573.147 1.51.147 1.51l1.179 1.3397s.652 1.9296-.051 4.0118c-.702 2.0821-1.503 3.3144-1.503 3.3144z" fill="#fff399" fill-rule="evenodd"/><path clip-rule="evenodd" d="m230.176 58.5821-4.252 4.7959-13.21.8019s-1.299.5386-3.342.0766c-2.044-.462-3.373-1.8372-2.924-2.9638.449-1.1264.88-1.6919.88-1.6919l3.236 1.0892s-.888-1.4616-.417-2.3375c.472-.8759 1.496.7035 1.496.7035l1.511 2.2099s3.887-1.2248 9.002-1.824l.784-1.6942 2.59-3.8866z" fill="#f4d1b7" fill-rule="evenodd"/><path clip-rule="evenodd" d="m219.379 100.249-3.212-1.7514 1.09-1.2358 2.545-.3853 2.563-13.1538s.991-4.1853 1.26-5.9017c.352-2.2429 1.946-7.9739 1.946-7.9739l.266-1.6667s3.77 1.7044 8.675.1789l.144 3.2993-.158 1.2773 2.207 11.0081 1.245 1.3334 7.636 10.726-2.491 4.3976-2.493-.5031.81-1.6145.406-1.7023-6.473-7.6702s-1.163-1.0233-3.927-4.313c-2.763-3.2896-1.891-4.7518-1.891-4.7518l-1.966 3.7016s-1.07 1.6183-1.188 3.308c-.118 1.6898-4.975 13.4223-4.975 13.4223z" fill="#282e53" fill-rule="evenodd"/><path clip-rule="evenodd" d="m234.762 68.0834s-.414 1.0278-3.574 1.0278c-1.462 0-4.03.5794-5.101-.7169-1.072-1.2963 0-5.255 0-5.255l2.932-2.9904 1.27-1.736s-3.779-.3098-4.79-4.214l1.62-3.4352.994-2.6384 1.649-1.1361s3.435-.8528 4.782.366c1.346 1.2185 2.17 4.0955 2.17 4.0955s-.355 4.0054-.868 5.1126c-.512 1.1073-.799 7.6154-.799 7.6154z" fill="#505fb4" fill-rule="evenodd"/><path d="m229.242 80.1545c1 2.1001 1.406 3.207 2.538 4.6455.658.8376 10.274 11.5938 10.274 11.5938.067.8837-.381 1.6121-.796 2.1947 0 0-1.278.0193-.58 1.3452h2.881l2.027-4.1107s-8.783-11.8863-8.97-12.4267l-1.983-11.9478" stroke="#1c1f34" stroke-linecap="round" stroke-linejoin="round" stroke-width="1.39691"/><path d="m225.772 69.1141s-2.638 11.676-3.286 14.8841l-2.556 12.8956c-3.552-.551-3.764 1.5186-3.764 1.5186l3.395 1.5217h2.242l5.526-15.718c.102-.5643 3.526-7.3995 3.526-7.3995s3.108-2.6466 3.718-4.0785c.526-1.2329.127-3.4467.127-3.4467" stroke="#1c1f34" stroke-linecap="round" stroke-linejoin="round" stroke-width="1.39691"/><path d="m230.643 47.166c-2.503 1.013-3.768 3.9328-4.203 5.6036" stroke="#1c1f34" stroke-linecap="round" stroke-linejoin="round" stroke-width="1.39691"/><path d="m234.575 69.5804.924-11.3548s3.372-8.3577-1.12-10.5927" stroke="#1c1f34" stroke-linecap="round" stroke-linejoin="round" stroke-width="1.39691"/><path d="m234.379 52.8838s-.29 1.7368-2.683 3.4508c-2.428 3.2545-2.691 4.3001-6.185 7.2982l-12.867.515s-1.411.7685-4.166-.1651c-3.183-1.0784-1.998-3.6677-1.387-4.0795.34-.2285 1.419.2457 1.419.2457 1.437.4998 2.006.5284 1.666-.081-.798-1.4303.266-2.6922 1.213-1.3292.792 1.1392 1.7 2.5249 1.7 2.5249 4.67-1.1939 5.81-1.5559 9.068-1.6081 1.853-5.424 5.547-7.3515 5.547-7.3515" stroke="#1c1f34" stroke-linecap="round" stroke-linejoin="round" stroke-width="1.39691"/><path d="m236.111 44.832s2.552-1.1218 3.566-3.6705c1.305-3.2818.562-5.6438.562-5.6438l-1.201-1.3414s1.32-2.5171-4.763-3.8539c-6.082-1.3365-3.66.8785-6.434.5141" stroke="#1c1f34" stroke-linecap="round" stroke-linejoin="round" stroke-width="1.39691"/><path d="m231.577 44.9638s-1.339.3993-3.424.3252c-1.351-.0478-.896-1.7221-.896-1.7221l.39-2.1079s-.557-.0522-.73-.5307c-.174-.4783.285-1.2892.602-2.0704.282-.6938.4-2.5955.4-2.5955s-1.843-.5702-1.946-2.1715" stroke="#1c1f34" stroke-linecap="round" stroke-linejoin="round" stroke-width="1.39691"/><path d="m230.643 42.4972s-.734.857-2.802.249" stroke="#1c1f34" stroke-linecap="round" stroke-linejoin="round" stroke-width=".698456"/><path d="m231.11 32.046s-2.524 1.6272-5.603-.2895" stroke="#1c1f34" stroke-linecap="round" stroke-linejoin="round" stroke-width=".698456"/><path d="m237.18 36.3505s-4.782 1.4491-8.872-.392" stroke="#1c1f34" stroke-linecap="round" stroke-linejoin="round" stroke-width="1.39691"/><path d="m235.235 38.2952-.063 2.1531s1.692-.0238 1.531 1.3132c-.161 1.3367-1.849 1.5889-1.849 1.5889-.127 2.066 1.282 1.7063 1.282 1.7063s-1.035.9767-.526 3.0449" stroke="#1c1f34" stroke-linecap="round" stroke-linejoin="round" stroke-width="1.39691"/><path d="m228.775 45.2985s1.292.2345 1.401 1.8678" stroke="#1c1f34" stroke-linecap="round" stroke-linejoin="round" stroke-width=".931275"/><path d="m211.03 60.6915s-1.715-.2494-2.335-.4505" stroke="#1c1f34" stroke-linecap="round" stroke-linejoin="round" stroke-width=".931275"/><path d="m225.973 63.5115-.31 5.6037" stroke="#1c1f34" stroke-linecap="round" stroke-linejoin="round" stroke-width=".931275"/></svg>