<svg width="327" height="136" viewBox="0 0 327 136" fill="none" xmlns="http://www.w3.org/2000/svg">
<mask id="mask0_1266_19184" style="mask-type:alpha" maskUnits="userSpaceOnUse" x="0" y="0" width="327" height="136">
<rect width="326.011" height="135.752" fill="white"/>
</mask>
<g mask="url(#mask0_1266_19184)">
<g opacity="0.04">
<path fill-rule="evenodd" clip-rule="evenodd" d="M295.157 52.0317V130.671V52.0317Z" stroke="#1F2857" stroke-width="0.748694" stroke-linecap="round" stroke-linejoin="round"/>
<path d="M39.2124 76.9158V76.9158C35.9674 73.795 30.8765 73.795 27.6318 76.9158C24.3868 73.795 19.2959 73.795 16.0508 76.9158V76.9158C12.8058 73.795 7.71525 73.795 4.47021 76.9158V127.233" stroke="#1F2857" stroke-width="0.748694" stroke-linecap="round" stroke-linejoin="round"/>
<path d="M27.6313 76.916V80.2498" stroke="#1F2857" stroke-width="0.748694" stroke-linecap="round" stroke-linejoin="round"/>
<path d="M39.4722 118.945H140.471" stroke="#1F2857" stroke-width="0.748694" stroke-linecap="round" stroke-linejoin="round"/>
<path d="M139.207 107.22H141.931" stroke="#ECECF2" stroke-width="0.748694" stroke-linecap="round" stroke-linejoin="round"/>
<path d="M137.518 95.4941H154.058" stroke="#ECECF2" stroke-width="0.748694" stroke-linecap="round" stroke-linejoin="round"/>
<path d="M137.518 83.7688H154.058" stroke="#ECECF2" stroke-width="0.748694" stroke-linecap="round" stroke-linejoin="round"/>
<path d="M192.14 83.7688H199.683" stroke="#1F2857" stroke-width="0.748694" stroke-linecap="round" stroke-linejoin="round"/>
<path d="M137.518 72.043H154.058" stroke="#1F2857" stroke-width="0.748694" stroke-linecap="round" stroke-linejoin="round"/>
<path d="M137.518 60.3174H199.683" stroke="#1F2857" stroke-width="0.748694" stroke-linecap="round" stroke-linejoin="round"/>
<path d="M39.4722 107.22H47.9742" stroke="#1F2857" stroke-width="0.748694" stroke-linecap="round" stroke-linejoin="round"/>
<path d="M39.4722 95.4941H49.6628" stroke="#1F2857" stroke-width="0.748694" stroke-linecap="round" stroke-linejoin="round"/>
<path d="M39.4722 83.7688H49.6628" stroke="#1F2857" stroke-width="0.748694" stroke-linecap="round" stroke-linejoin="round"/>
<path d="M39.4722 72.043H49.6628" stroke="#1F2857" stroke-width="0.748694" stroke-linecap="round" stroke-linejoin="round"/>
<path d="M39.4722 60.3174H49.6628" stroke="#1F2857" stroke-width="0.748694" stroke-linecap="round" stroke-linejoin="round"/>
<path d="M147.709 100.344V52.0317H39.4722V130.673" stroke="#1F2857" stroke-width="0.748694" stroke-linecap="round" stroke-linejoin="round"/>
<path fill-rule="evenodd" clip-rule="evenodd" d="M150.766 46.4563H36.8115V49.648C36.8115 50.9646 37.8656 52.0314 39.1656 52.0314H148.412C149.712 52.0314 150.766 50.9646 150.766 49.648V46.4563Z" stroke="#1F2857" stroke-width="0.748694" stroke-linecap="round" stroke-linejoin="round"/>
<path d="M147.709 52.0314H295.497C296.797 52.0314 297.851 50.9642 297.851 49.648V46.4563H150.766" stroke="#1F2857" stroke-width="0.748694" stroke-linecap="round" stroke-linejoin="round"/>
<path fill-rule="evenodd" clip-rule="evenodd" d="M93.7887 33.4648L36.8115 46.4559H150.766L93.7887 33.4648Z" stroke="#1F2857" stroke-width="0.748694" stroke-linecap="round" stroke-linejoin="round"/>
<path d="M297.85 46.4564L192.807 22.6445L119.356 39.295" stroke="#1F2857" stroke-width="0.748694" stroke-linecap="round" stroke-linejoin="round"/>
<path fill-rule="evenodd" clip-rule="evenodd" d="M49.6631 104.559H137.519V57.8867H49.6631V104.559Z" stroke="#1F2857" stroke-width="0.748694" stroke-linecap="round" stroke-linejoin="round"/>
<path d="M6.45406 130.603H0" stroke="#1F2857" stroke-width="0.748694" stroke-linecap="round" stroke-linejoin="round"/>
<path d="M16.0508 76.916V81.0123" stroke="#1F2857" stroke-width="0.748694" stroke-linecap="round" stroke-linejoin="round"/>
<path d="M9.56543 130.673H346.991" stroke="#1F2857" stroke-width="0.748694" stroke-linecap="round" stroke-linejoin="round"/>
<path fill-rule="evenodd" clip-rule="evenodd" d="M48.9935 114.714H138.188L139.547 104.559H47.6348L48.9935 114.714Z" stroke="#1F2857" stroke-width="0.748694" stroke-linecap="round" stroke-linejoin="round"/>
<path d="M52.3809 104.559V60.6379H92.2323V104.469" stroke="#1F2857" stroke-width="0.748694" stroke-linecap="round" stroke-linejoin="round"/>
<path d="M94.9492 104.469V60.6379H134.801V104.559" stroke="#1F2857" stroke-width="0.748694" stroke-linecap="round" stroke-linejoin="round"/>
<path d="M58.8315 67.5286L52.3809 74.0598" stroke="#1F2857" stroke-width="0.748694" stroke-linecap="round" stroke-linejoin="round"/>
<path d="M55.4347 66.4963L52.3809 69.5883" stroke="#1F2857" stroke-width="0.748694" stroke-linecap="round" stroke-linejoin="round"/>
<path d="M128.065 60.6379L119.356 69.4557" stroke="#1F2857" stroke-width="0.748694" stroke-linecap="round" stroke-linejoin="round"/>
<path d="M132.366 60.6379L127.721 65.3409" stroke="#1F2857" stroke-width="0.748694" stroke-linecap="round" stroke-linejoin="round"/>
<path d="M189.423 130.671V68.604H156.776V109.32" stroke="#1F2857" stroke-width="0.748694" stroke-linecap="round" stroke-linejoin="round"/>
<path d="M192.14 130.671V65.8528H154.059V108.484" stroke="#1F2857" stroke-width="0.748694" stroke-linecap="round" stroke-linejoin="round"/>
<path fill-rule="evenodd" clip-rule="evenodd" d="M162.97 96.5506C162.97 95.6629 162.259 94.9434 161.382 94.9434C160.506 94.9434 159.795 95.6629 159.795 96.5506C159.795 97.4382 160.506 98.1578 161.382 98.1578C162.259 98.1578 162.97 97.4382 162.97 96.5506Z" stroke="#1F2857" stroke-width="0.748694" stroke-linecap="round" stroke-linejoin="round"/>
<path d="M192.14 118.945H295.157" stroke="#1F2857" stroke-width="0.748694" stroke-linecap="round" stroke-linejoin="round"/>
<path d="M192.14 72.043H199.683" stroke="#1F2857" stroke-width="0.748694" stroke-linecap="round" stroke-linejoin="round"/>
<path d="M192.14 95.4941H199.683" stroke="#1F2857" stroke-width="0.748694" stroke-linecap="round" stroke-linejoin="round"/>
<path d="M192.14 107.22H198.01" stroke="#ECECF2" stroke-width="0.748694" stroke-linecap="round" stroke-linejoin="round"/>
<path d="M94.9492 98.0413L98.1457 94.8049" stroke="#1F2857" stroke-width="0.748694" stroke-linecap="round" stroke-linejoin="round"/>
<path fill-rule="evenodd" clip-rule="evenodd" d="M199.684 104.559H287.539V57.8867H199.684V104.559Z" stroke="#1F2857" stroke-width="0.748694" stroke-linecap="round" stroke-linejoin="round"/>
<path fill-rule="evenodd" clip-rule="evenodd" d="M199.014 114.714H288.208L289.567 104.559H197.655L199.014 114.714Z" stroke="#1F2857" stroke-width="0.748694" stroke-linecap="round" stroke-linejoin="round"/>
<path d="M202.401 104.559V60.6379H242.252V104.469" stroke="#1F2857" stroke-width="0.748694" stroke-linecap="round" stroke-linejoin="round"/>
<path d="M244.969 104.469V60.6379H284.821V104.559" stroke="#1F2857" stroke-width="0.748694" stroke-linecap="round" stroke-linejoin="round"/>
<path d="M231.626 60.7795L226.874 65.5912" stroke="#1F2857" stroke-width="0.748694" stroke-linecap="round" stroke-linejoin="round"/>
<path d="M226.943 60.7822L219.423 68.3962" stroke="#1F2857" stroke-width="0.748694" stroke-linecap="round" stroke-linejoin="round"/>
<path d="M244.969 98.0413L248.166 94.8049" stroke="#1F2857" stroke-width="0.748694" stroke-linecap="round" stroke-linejoin="round"/>
<path fill-rule="evenodd" clip-rule="evenodd" d="M31.7529 115.351H14.6558V117.512L15.8712 117.513L16.9391 130.599H29.3941L30.4621 117.496L31.7529 117.512V115.351Z" fill="#39437C"/>
<path fill-rule="evenodd" clip-rule="evenodd" d="M31.7529 115.351H14.6558V117.619L15.8712 117.62L16.9391 131.353H29.3941L30.4621 117.602L31.7529 117.619V115.351Z" stroke="#1F2857" stroke-width="0.748694" stroke-linecap="round" stroke-linejoin="round"/>
<path d="M15.8711 117.514C16.1503 117.54 30.462 117.514 30.462 117.514" stroke="#1F2857" stroke-width="0.748694" stroke-linecap="round" stroke-linejoin="round"/>
<path fill-rule="evenodd" clip-rule="evenodd" d="M17.4989 115.351C17.4989 115.351 14.5752 111.811 15.4995 107.598C16.4238 103.385 17.3185 101.979 16.1544 99.2385C14.9903 96.4973 14.8867 93.1753 17.0474 93.1753C19.2082 93.1753 19.6287 94.1476 19.6287 94.1476C19.6287 94.1476 15.7437 88.3138 18.6137 84.3434C21.4838 80.3731 26.6389 80.7782 29.3601 84.9917C32.0813 89.2049 33.1863 95.578 31.9825 98.4684C30.7786 101.359 33.2335 112.703 33.2335 112.703L30.2575 115.351H17.4989Z" fill="#39437C"/>
<path fill-rule="evenodd" clip-rule="evenodd" d="M17.4989 115.351C17.4989 115.351 14.5752 111.811 15.4995 107.598C16.4238 103.385 17.3185 101.979 16.1544 99.2385C14.9903 96.4973 14.8867 93.1753 17.0474 93.1753C19.2082 93.1753 19.6287 94.1476 19.6287 94.1476C19.6287 94.1476 15.7437 88.3138 18.6137 84.3434C21.4838 80.3731 26.6389 80.7782 29.3601 84.9917C32.0813 89.2049 33.1863 95.578 31.9825 98.4684C30.7786 101.359 33.2335 112.703 33.2335 112.703L30.2575 115.351H17.4989Z" stroke="#1F2857" stroke-width="0.748694" stroke-linecap="round" stroke-linejoin="round"/>
<path d="M24.4054 115.351C24.4054 115.351 22.0571 108.699 23.2026 103.733C24.348 98.7663 26.1572 93.8223 24.9584 89.9744" stroke="#1F2857" stroke-width="0.748694" stroke-linecap="round" stroke-linejoin="round"/>
<path d="M27.9778 93.7422C27.9778 93.7422 27.1632 95.8814 25.0259 96.0675" stroke="#1F2857" stroke-width="0.748694" stroke-linecap="round" stroke-linejoin="round"/>
<path fill-rule="evenodd" clip-rule="evenodd" d="M20.6899 100.529L23.0926 102.663L20.6899 100.529Z" fill="white"/>
<path d="M20.6899 100.529L23.0926 102.663" stroke="#1F2857" stroke-width="0.748694" stroke-linecap="round" stroke-linejoin="round"/>
<path fill-rule="evenodd" clip-rule="evenodd" d="M25.7208 109.704L23.5322 112.163L25.7208 109.704Z" fill="white"/>
<path d="M25.7208 109.704L23.5322 112.163" stroke="#1F2857" stroke-width="0.748694" stroke-linecap="round" stroke-linejoin="round"/>
<path fill-rule="evenodd" clip-rule="evenodd" d="M39.4887 121.318C39.4887 121.318 41.8112 118.275 41.6512 114.85C41.4912 111.426 38.3443 110.557 39.4887 107.467C40.6331 104.378 41.5635 100.13 39.2387 98.6814C36.9142 97.2331 33.4814 97.283 31.288 99.2857C29.0946 101.288 28.1802 105.15 29.4004 107.95C30.6205 110.75 30.3325 113.647 28.8552 115.867C27.3782 118.088 28.8552 121.318 28.8552 121.318" fill="#39437C"/>
<path d="M39.4887 121.318C39.4887 121.318 41.8112 118.275 41.6512 114.85C41.4912 111.426 38.3443 110.557 39.4887 107.467C40.6331 104.378 41.5635 100.13 39.2387 98.6814C36.9142 97.2331 33.4814 97.283 31.288 99.2857C29.0946 101.288 28.1802 105.15 29.4004 107.95C30.6205 110.75 30.3325 113.647 28.8552 115.867C27.3782 118.088 28.8552 121.318 28.8552 121.318" stroke="#1F2857" stroke-width="0.748694" stroke-linecap="round" stroke-linejoin="round"/>
<path fill-rule="evenodd" clip-rule="evenodd" d="M41.0089 121.318H27.4717V123.479L28.6874 123.481L29.3994 130.673H39.0061L39.7181 123.463L41.0089 123.479V121.318Z" fill="#39437C"/>
<path fill-rule="evenodd" clip-rule="evenodd" d="M41.0089 121.318H27.4717V123.653L28.6874 123.655L29.3994 131.427H39.0061L39.7181 123.636L41.0089 123.653V121.318Z" stroke="#1F2857" stroke-width="0.748694" stroke-linecap="round" stroke-linejoin="round"/>
<path d="M34.1167 121.318C34.1167 121.318 35.6147 117.798 34.9296 110.654C34.2448 103.509 35.1089 102.543 35.1089 102.543" stroke="#1F2857" stroke-width="0.748694" stroke-linecap="round" stroke-linejoin="round"/>
<path d="M32.814 115.288L35.1086 117.123L37.2958 115.288" stroke="#1F2857" stroke-width="0.748694" stroke-linecap="round" stroke-linejoin="round"/>
<path d="M32.814 103.925L34.6123 105.15" stroke="#1F2857" stroke-width="0.748694" stroke-linecap="round" stroke-linejoin="round"/>
<path d="M28.6875 123.481C28.9667 123.507 39.7182 123.481 39.7182 123.481" stroke="#1F2857" stroke-width="0.748694" stroke-linecap="round" stroke-linejoin="round"/>
<path d="M145.439 128.954C145.439 128.954 141.649 126.238 140.654 122.293C139.659 118.347 141.445 117.336 142.844 117.61C144.243 117.884 145.881 115.564 144.571 113.053C143.262 110.541 141.098 105.607 143.124 102.943C145.15 100.278 148.265 100.031 150.249 101.428C152.233 102.824 153.167 106.355 153.457 107.397C154.166 109.944 155.91 107.762 156.88 109.32C157.462 110.254 158.759 113.182 158.439 117.5C157.756 126.723 153.427 129.373 153.427 129.373" stroke="#1F2857" stroke-width="0.748694" stroke-linecap="round" stroke-linejoin="round"/>
<path d="M149.708 128.352C149.708 128.352 150.725 124.72 150.573 118.55C150.421 112.382 148.141 107.664 148.141 107.664" stroke="#1F2857" stroke-width="0.748694" stroke-linecap="round" stroke-linejoin="round"/>
<path d="M154.069 114.218C154.069 114.218 153.266 118.118 150.818 120.119" stroke="#1F2857" stroke-width="0.748694" stroke-linecap="round" stroke-linejoin="round"/>
<path d="M147.381 123.39C147.381 123.39 149.131 125.094 150.27 125.435" stroke="#1F2857" stroke-width="0.748694" stroke-linecap="round" stroke-linejoin="round"/>
<path d="M142.65 130.671C142.65 130.671 145.15 128.62 147.466 128.346C149.781 128.073 152.467 128.788 153.67 129.509C154.874 130.23 155.059 130.671 155.059 130.671" stroke="#1F2857" stroke-width="0.748694" stroke-linecap="round" stroke-linejoin="round"/>
<path d="M156.776 130.673V124.816" stroke="#1F2857" stroke-width="0.748694" stroke-linecap="round" stroke-linejoin="round"/>
<path d="M330.163 127.049V77.6158C326.918 74.4949 321.827 74.4949 318.582 77.6158C315.337 74.4949 310.246 74.4949 307.001 77.6158C303.756 74.4949 298.665 74.4949 295.42 77.6158" stroke="#1F2857" stroke-width="0.748694" stroke-linecap="round" stroke-linejoin="round"/>
<path d="M307.002 124.735V130.745" stroke="#1F2857" stroke-width="0.748694" stroke-linecap="round" stroke-linejoin="round"/>
<path d="M318.56 77.6162V84.782" stroke="#1F2857" stroke-width="0.748694" stroke-linecap="round" stroke-linejoin="round"/>
<path d="M0.696289 40.1622H6.57221C6.57221 40.1622 3.7742 35.1026 6.99206 31.6702C10.2099 28.2374 10.6294 35.916 10.6294 35.916C10.6294 35.916 11.0493 27.0515 15.526 26.1287C20.0031 25.2063 22.561 35.8782 15.7057 40.1622H21.9618" stroke="#1F2857" stroke-width="0.748694" stroke-linecap="round" stroke-linejoin="round"/>
<path d="M24.5 40.1621H25.4244" stroke="#1F2857" stroke-width="0.748694" stroke-linecap="round" stroke-linejoin="round"/>
<path d="M340.973 50.4886H334.803C334.803 50.4886 339.147 45.1758 336.722 41.5714C334.297 37.967 331.723 46.0302 331.723 46.0302C331.723 46.0302 333.745 36.7216 329.301 35.7531C324.856 34.7846 319.205 45.9903 325.212 50.4886H318.644" stroke="#1F2857" stroke-width="0.748694" stroke-linecap="round" stroke-linejoin="round"/>
<path d="M315.978 50.4885H315.008" stroke="#1F2857" stroke-width="0.748694" stroke-linecap="round" stroke-linejoin="round"/>
<path d="M111.011 20.3625H112.259" stroke="#1F2857" stroke-width="0.748694" stroke-linecap="round" stroke-linejoin="round"/>
<path d="M287.538 60.3174H295.157" stroke="#1F2857" stroke-width="0.748694" stroke-linecap="round" stroke-linejoin="round"/>
<path d="M287.538 72.043H295.157" stroke="#1F2857" stroke-width="0.748694" stroke-linecap="round" stroke-linejoin="round"/>
<path d="M287.538 83.7688H295.157" stroke="#1F2857" stroke-width="0.748694" stroke-linecap="round" stroke-linejoin="round"/>
<path d="M287.538 95.4941H295.157" stroke="#1F2857" stroke-width="0.748694" stroke-linecap="round" stroke-linejoin="round"/>
<path d="M289.211 107.22H295.157" stroke="#1F2857" stroke-width="0.748694" stroke-linecap="round" stroke-linejoin="round"/>
</g>
<rect width="122.697" height="1.3387" rx="0.66935" transform="matrix(-1 0 0 1 229.873 127.895)" fill="#1C1F34"/>
<rect width="11.3245" height="1.3387" rx="0.66935" transform="matrix(-1 0 0 1 104.885 127.895)" fill="#1C1F34"/>
<rect width="23.9059" height="1.3387" rx="0.66935" transform="matrix(-1 0 0 1 256.059 127.896)" fill="#1C1F34"/>
<path fill-rule="evenodd" clip-rule="evenodd" d="M98.795 58.0555C98.8288 57.3083 98.2397 56.6799 97.4918 56.6656L78.9929 56.3116C77.9675 56.292 77.0969 57.0484 76.9876 58.0682C76.5315 62.3216 75.4179 73.4836 75.045 84.2777C74.6684 95.1776 75.0334 106.102 75.1985 110.116C75.2373 111.057 75.9403 111.796 76.8819 111.838C77.9579 111.887 79.6897 111.935 82.4067 111.942C86.8796 111.955 92.6588 111.8 95.1425 111.726C95.8352 111.705 96.3893 111.154 96.4207 110.461L98.795 58.0555Z" fill="#1C1F34"/>
<path fill-rule="evenodd" clip-rule="evenodd" d="M99.9971 58.5426C100.014 58.1685 99.719 57.8539 99.3445 57.8473L79.5548 57.4973C78.8738 57.4852 78.2959 57.9823 78.2199 58.6591C77.816 62.2518 76.6309 73.4514 76.2572 84.2662C75.8811 95.1543 76.3132 106.069 76.4705 109.458C76.4997 110.087 76.9695 110.579 77.5977 110.614C78.5974 110.671 80.4344 110.736 83.6598 110.749C88.1305 110.768 93.906 110.628 96.3913 110.561C97.0854 110.543 97.6417 109.991 97.6734 109.298L99.9971 58.5426Z" fill="url(#paint0_linear_1266_19184)"/>
<mask id="mask1_1266_19184" style="mask-type:alpha" maskUnits="userSpaceOnUse" x="76" y="57" width="24" height="54">
<path fill-rule="evenodd" clip-rule="evenodd" d="M99.9971 58.5426C100.014 58.1685 99.719 57.8539 99.3445 57.8473L79.5548 57.4973C78.8738 57.4852 78.2959 57.9823 78.2199 58.6591C77.816 62.2518 76.6309 73.4514 76.2572 84.2662C75.8811 95.1543 76.3132 106.069 76.4705 109.458C76.4997 110.087 76.9695 110.579 77.5977 110.614C78.5974 110.671 80.4344 110.736 83.6598 110.749C88.1305 110.768 93.906 110.628 96.3913 110.561C97.0854 110.543 97.6417 109.991 97.6734 109.298L99.9971 58.5426Z" fill="white"/>
</mask>
<g mask="url(#mask1_1266_19184)">
<path fill-rule="evenodd" clip-rule="evenodd" d="M94.1748 105.02L76.2158 104.703L76.1847 106.501L94.1438 106.818L94.1748 105.02Z" fill="#1C1F34"/>
<path fill-rule="evenodd" clip-rule="evenodd" d="M94.1748 105.619L76.2158 105.302L76.102 111.895L94.061 112.212L94.1748 105.619Z" fill="#1C1F34"/>
<path fill-rule="evenodd" clip-rule="evenodd" d="M80.5319 86.1731C80.0465 86.1559 79.6391 86.5469 79.622 87.042L79.4606 91.7144C79.4435 92.2114 79.8196 92.6281 80.3083 92.6454C80.7937 92.6625 81.2011 92.2715 81.2182 91.7764L81.3796 87.104C81.3967 86.607 81.0206 86.1903 80.5319 86.1731Z" fill="#1C1F34"/>
<path opacity="0.1" fill-rule="evenodd" clip-rule="evenodd" d="M109.202 91.3538L75.223 90.1541L75.2023 90.7532L109.181 91.9529L109.202 91.3538Z" fill="#242D5F"/>
<path fill-rule="evenodd" clip-rule="evenodd" d="M90.2205 97.1261C90.2319 96.4641 89.718 95.9183 89.0719 95.9069L80.8606 95.7619C80.2148 95.7505 79.6821 96.2732 79.6706 96.9399L79.6085 100.537C79.5971 101.199 80.111 101.745 80.7571 101.756L88.9684 101.901C89.6142 101.912 90.1469 101.39 90.1584 100.723L90.2205 97.1261Z" fill="white"/>
<path fill-rule="evenodd" clip-rule="evenodd" d="M90.2205 97.1261C90.2319 96.4641 89.718 95.9183 89.0719 95.9069L80.8606 95.7619C80.2148 95.7505 79.6821 96.2732 79.6706 96.9399L79.6085 100.537C79.5971 101.199 80.111 101.745 80.7571 101.756L88.9684 101.901C89.6142 101.912 90.1469 101.39 90.1584 100.723L90.2205 97.1261Z" fill="url(#paint1_linear_1266_19184)" fill-opacity="0.2"/>
<path fill-rule="evenodd" clip-rule="evenodd" d="M89.06 97.6115C89.0646 97.3436 88.8573 97.1227 88.6037 97.1183L81.3276 96.9899C81.0709 96.9853 80.8592 97.1959 80.8545 97.4667L80.8092 100.093C80.8045 100.361 81.0119 100.582 81.2655 100.586L88.5416 100.715C88.7982 100.719 89.01 100.509 89.0146 100.238L89.06 97.6115Z" fill="white"/>
<path fill-rule="evenodd" clip-rule="evenodd" d="M82.3749 98.5657L82.3807 98.2303L82.5455 98.2332C82.5612 98.2335 82.5763 98.2361 82.5908 98.2411C82.6053 98.246 82.618 98.2546 82.629 98.2669C82.6401 98.2791 82.6487 98.296 82.6551 98.3175C82.6614 98.3391 82.6643 98.3666 82.6638 98.4C82.6627 98.4603 82.6519 98.5036 82.6312 98.53C82.6106 98.5565 82.5846 98.5694 82.5532 98.5688L82.3749 98.5657ZM82.2074 97.983L82.1827 99.4154L82.5702 99.4222C82.606 99.4228 82.641 99.4154 82.6753 99.4C82.7095 99.3845 82.7402 99.3603 82.7673 99.3274C82.7944 99.2944 82.8162 99.2516 82.8328 99.1991C82.8494 99.1465 82.8583 99.0841 82.8595 99.0119C82.8611 98.9223 82.8503 98.8455 82.8271 98.7816C82.804 98.7176 82.7679 98.6725 82.7191 98.6462C82.7555 98.6161 82.7832 98.5771 82.8023 98.5293C82.8215 98.4815 82.8317 98.4215 82.8329 98.3493C82.8341 98.2824 82.8289 98.2261 82.8173 98.1804C82.8058 98.1347 82.7891 98.098 82.7671 98.0702C82.7452 98.0424 82.7187 98.0222 82.6875 98.0096C82.6564 97.997 82.6218 97.9903 82.5837 97.9897L82.2074 97.983ZM82.3629 99.1738L82.3697 98.7802L82.5614 98.7836C82.5995 98.7843 82.6299 98.8005 82.6525 98.8324C82.6751 98.8643 82.6858 98.917 82.6846 98.9907C82.6839 99.0281 82.6798 99.0589 82.6723 99.0828C82.6648 99.1068 82.6549 99.1257 82.6427 99.1396C82.6305 99.1534 82.6165 99.1632 82.6007 99.169C82.5849 99.1747 82.5684 99.1774 82.5512 99.1771L82.3629 99.1738ZM83.3556 98.3872L83.3472 98.8742L83.1406 98.8705L83.3522 98.3871L83.3556 98.3872ZM83.3424 99.1094L83.3368 99.4344L83.4879 99.4371L83.4935 99.1121L83.5977 99.1139L83.6017 98.8792L83.4976 98.8774L83.5122 98.0328L83.37 98.0303L83.0154 98.8428L83.0109 99.1036L83.3424 99.1094ZM83.914 98.4224C83.9146 98.3903 83.9183 98.3622 83.9251 98.3383C83.9318 98.3143 83.941 98.2943 83.9525 98.2785C83.9641 98.2626 83.9772 98.2505 83.992 98.242C84.0068 98.2336 84.022 98.2295 84.0378 98.2298C84.0625 98.2302 84.0825 98.2372 84.0976 98.2509C84.1128 98.2646 84.1245 98.2815 84.1328 98.3017C84.141 98.322 84.1465 98.3432 84.1491 98.3653C84.1517 98.3875 84.1529 98.4079 84.1525 98.4266C84.1515 98.4869 84.1395 98.5325 84.1164 98.5636C84.0934 98.5947 84.065 98.6099 84.0312 98.6093C83.999 98.6087 83.9711 98.5925 83.9477 98.5606C83.9242 98.5287 83.913 98.4827 83.914 98.4224ZM83.7685 98.3929C83.7673 98.4624 83.776 98.5235 83.7945 98.576C83.813 98.6285 83.8411 98.6644 83.8789 98.6838L83.8788 98.6878C83.8314 98.707 83.7943 98.7465 83.7675 98.8062C83.7408 98.866 83.7266 98.9406 83.725 99.0302C83.7237 99.1065 83.731 99.1721 83.7468 99.2273C83.7627 99.2824 83.7843 99.3283 83.8117 99.3649C83.839 99.4015 83.8703 99.4285 83.9055 99.4458C83.9407 99.4631 83.9773 99.4721 84.0154 99.4728C84.052 99.4735 84.0879 99.4651 84.1233 99.4476C84.1587 99.4302 84.1906 99.4037 84.2188 99.368C84.2471 99.3324 84.2701 99.2873 84.2878 99.2328C84.3055 99.1783 84.3151 99.1136 84.3164 99.0387C84.3179 98.9504 84.3065 98.8756 84.2821 98.8143C84.2578 98.753 84.2223 98.7126 84.1756 98.693L84.1756 98.689C84.2141 98.667 84.2433 98.63 84.2633 98.5782C84.2832 98.5264 84.2938 98.4657 84.295 98.3962C84.2956 98.3614 84.2918 98.3222 84.2836 98.2786C84.2753 98.2349 84.2613 98.1939 84.2414 98.1554C84.2216 98.1169 84.1951 98.084 84.1619 98.0567C84.1288 98.0294 84.088 98.0153 84.0394 98.0144C84.0073 98.0138 83.9755 98.0213 83.9438 98.0368C83.9122 98.0523 83.8836 98.0759 83.858 98.1075C83.8325 98.1392 83.8114 98.1789 83.7949 98.2268C83.7784 98.2747 83.7696 98.33 83.7685 98.3929ZM83.8847 99.0193C83.886 98.9471 83.9003 98.8922 83.9279 98.8546C83.9554 98.817 83.9885 98.7986 84.0273 98.7993C84.0459 98.7996 84.0632 98.8052 84.079 98.8162C84.0949 98.8272 84.1088 98.8428 84.1208 98.8631C84.1327 98.8833 84.142 98.9072 84.1486 98.9347C84.1552 98.9622 84.1582 98.9927 84.1577 99.0261C84.1571 99.0608 84.1532 99.0928 84.1459 99.1221C84.1387 99.1514 84.1288 99.1763 84.1161 99.1968C84.1034 99.2173 84.089 99.233 84.0728 99.2441C84.0565 99.2552 84.0387 99.2605 84.0193 99.2602C84.0007 99.2599 83.9829 99.2539 83.9659 99.2422C83.949 99.2306 83.9345 99.2143 83.9226 99.1933C83.9106 99.1724 83.9012 99.1472 83.8942 99.1177C83.8873 99.0881 83.8841 99.0553 83.8847 99.0193ZM85.0169 98.3044L85.0211 98.0597L84.4858 98.0502L84.4813 98.315L84.8531 98.3216C84.7756 98.4821 84.7122 98.6589 84.663 98.852C84.6137 99.0451 84.5828 99.2466 84.5702 99.4564L84.7404 99.4594C84.7428 99.3658 84.7507 99.2649 84.7641 99.1568C84.7776 99.0487 84.7959 98.942 84.819 98.8367C84.8421 98.7314 84.8703 98.6322 84.9036 98.5392C84.937 98.4461 84.9747 98.3679 85.0169 98.3044ZM85.8993 98.9386L85.9147 98.048L85.7389 98.0449L85.7235 98.9355C85.7216 99.0425 85.7083 99.1208 85.6836 99.1706C85.6588 99.2203 85.6151 99.2446 85.5524 99.2435C85.5165 99.2429 85.4881 99.2333 85.4672 99.2149C85.4462 99.1965 85.43 99.1728 85.4186 99.1438C85.4071 99.1149 85.3998 99.0816 85.3968 99.0441C85.3937 99.0066 85.3925 98.9685 85.3931 98.9297L85.4085 98.039L85.2327 98.0359L85.2173 98.9266C85.2139 99.1218 85.2411 99.2668 85.2989 99.3614C85.3566 99.4561 85.4396 99.5044 85.5478 99.5063C85.6546 99.5082 85.739 99.4625 85.8011 99.3693C85.8632 99.2761 85.896 99.1325 85.8993 98.9386ZM86.2632 99.0121L86.093 99.0091C86.0907 99.0973 86.0983 99.1737 86.1159 99.2382C86.1334 99.3028 86.1577 99.356 86.1887 99.398C86.2198 99.4401 86.2558 99.4711 86.2969 99.4913C86.338 99.5114 86.3806 99.5218 86.4246 99.5226C86.4791 99.5236 86.5273 99.513 86.5691 99.491C86.6109 99.469 86.6462 99.4379 86.6749 99.3976C86.7036 99.3573 86.7255 99.3092 86.7407 99.2533C86.7558 99.1974 86.764 99.1366 86.7651 99.0711C86.7665 98.9909 86.7581 98.9248 86.7399 98.873C86.7218 98.8212 86.6999 98.7797 86.6743 98.7484C86.6487 98.7172 86.6228 98.6943 86.5965 98.6798C86.5703 98.6653 86.5497 98.6553 86.5349 98.6496C86.4853 98.626 86.4451 98.6066 86.4144 98.5913C86.3836 98.5761 86.3596 98.5609 86.3423 98.5459C86.3251 98.5309 86.3136 98.5146 86.3079 98.4972C86.3022 98.4797 86.2996 98.4569 86.3001 98.4288C86.3007 98.398 86.3048 98.3727 86.3126 98.3528C86.3205 98.3328 86.3303 98.3163 86.3421 98.3031C86.3539 98.2899 86.3669 98.2808 86.3812 98.2757C86.3955 98.2706 86.4097 98.2682 86.4239 98.2684C86.4455 98.2688 86.4654 98.2725 86.4836 98.2795C86.5018 98.2865 86.5178 98.2982 86.5317 98.3145C86.5456 98.3308 86.5566 98.353 86.5647 98.3813C86.5728 98.4095 86.5773 98.445 86.578 98.4879L86.7482 98.4909C86.7497 98.408 86.7421 98.3373 86.7256 98.2788C86.709 98.2203 86.6861 98.1721 86.6569 98.1341C86.6277 98.0961 86.594 98.0684 86.5559 98.051C86.5177 98.0336 86.4777 98.0246 86.4359 98.0238C86.4001 98.0232 86.3641 98.0313 86.328 98.048C86.2918 98.0648 86.2593 98.0909 86.2303 98.1266C86.2013 98.1622 86.1776 98.2069 86.1591 98.2607C86.1406 98.3146 86.1307 98.3783 86.1295 98.4519C86.1283 98.5174 86.1343 98.5733 86.1473 98.6197C86.1603 98.6661 86.1777 98.7049 86.1996 98.736C86.2215 98.7672 86.2464 98.7927 86.2745 98.8126C86.3025 98.8325 86.3313 98.8494 86.361 98.8633C86.3898 98.8785 86.4183 98.8924 86.4465 98.9049C86.4746 98.9175 86.4998 98.932 86.5219 98.9484C86.544 98.9649 86.5618 98.9852 86.5752 99.0096C86.5886 99.0339 86.5949 99.0654 86.5943 99.1042C86.5936 99.1403 86.5879 99.17 86.577 99.1932C86.5662 99.2164 86.5528 99.2346 86.5369 99.2477C86.521 99.2608 86.504 99.2695 86.486 99.2739C86.468 99.2782 86.4512 99.2803 86.4355 99.28C86.4124 99.2796 86.3901 99.2742 86.3686 99.2638C86.3471 99.2534 86.3285 99.2376 86.3128 99.2166C86.2972 99.1956 86.2847 99.1683 86.2756 99.1347C86.2665 99.1011 86.2623 99.0602 86.2632 99.0121ZM87.167 98.9478L87.2805 98.4246L87.2827 98.4247L87.3747 98.9515L87.167 98.9478ZM87.1986 98.0697L86.8715 99.4967L87.0484 99.4999L87.1166 99.182L87.4156 99.1873L87.4706 99.5073L87.6531 99.5105L87.3789 98.0729L87.1986 98.0697Z" fill="#1C1F34"/>
<g opacity="0.5">
<path fill-rule="evenodd" clip-rule="evenodd" d="M96.8986 66.4741C97.0171 64.4899 95.5455 62.7862 93.6068 62.6686L83.7956 62.0735C81.8591 61.956 80.1931 63.4715 80.075 65.4477L79.2234 79.7038C79.105 81.6848 80.5762 83.3958 82.5143 83.5259L92.3221 84.1839C94.258 84.3138 95.9234 82.8091 96.0418 80.8263L96.8986 66.4741Z" fill="url(#paint2_linear_1266_19184)"/>
<path fill-rule="evenodd" clip-rule="evenodd" d="M96.8986 66.4741C97.0171 64.4899 95.5455 62.7862 93.6068 62.6686L83.7956 62.0735C81.8591 61.956 80.1931 63.4715 80.075 65.4477L79.2234 79.7038C79.105 81.6848 80.5762 83.3958 82.5143 83.5259L92.3221 84.1839C94.258 84.3138 95.9234 82.8091 96.0418 80.8263L96.8986 66.4741Z" fill="url(#paint3_linear_1266_19184)" fill-opacity="0.3"/>
</g>
<path fill-rule="evenodd" clip-rule="evenodd" d="M96.3363 66.4543C96.4347 64.8025 95.2061 63.3839 93.5871 63.2855L83.7806 62.6896C82.1639 62.5914 80.7731 63.8555 80.6752 65.4985L79.8244 79.767C79.7261 81.4166 80.9542 82.8418 82.5727 82.9508L92.3759 83.6105C93.9921 83.7193 95.3818 82.4727 95.4805 80.8166L96.3363 66.4543Z" fill="white"/>
<path fill-rule="evenodd" clip-rule="evenodd" d="M96.3363 66.4543C96.4347 64.8025 95.2061 63.3839 93.5871 63.2855L83.7806 62.6896C82.1639 62.5914 80.7731 63.8555 80.6752 65.4985L79.8244 79.767C79.7261 81.4166 80.9542 82.8418 82.5727 82.9508L92.3759 83.6105C93.9921 83.7193 95.3818 82.4727 95.4805 80.8166L96.3363 66.4543Z" fill="url(#paint4_linear_1266_19184)" fill-opacity="0.05"/>
<path fill-rule="evenodd" clip-rule="evenodd" d="M94.6493 66.4069C94.6882 65.7486 94.1967 65.1828 93.5526 65.1434L83.7137 64.5409C83.0691 64.5014 82.5147 65.0054 82.4755 65.6689L81.6304 79.9486C81.5912 80.611 82.0823 81.1837 82.7262 81.2276L92.5615 81.898C93.2059 81.9419 93.7602 81.4388 93.7988 80.7854L94.6493 66.4069Z" fill="white"/>
<path opacity="0.1" fill-rule="evenodd" clip-rule="evenodd" d="M95.2285 111.841L86.1148 111.901C86.1148 111.901 85.5647 101.655 86.9743 85.8964C88.3839 70.1379 91.0294 57.3183 91.0294 57.3183L98.4581 57.9595L95.2285 111.841Z" fill="#242D5F"/>
</g>
<path fill-rule="evenodd" clip-rule="evenodd" d="M93.392 113.269C93.392 113.269 91.7223 106.76 91.7223 93.1168C91.7223 79.4735 95.5171 58.4085 95.5171 58.4085C95.8869 56.1211 98.0296 54.2668 100.306 54.2668C100.306 54.2668 191.909 54.2668 207.41 54.2668C221.101 54.2668 246.136 84.1751 246.136 84.1751C246.136 84.1751 263.739 92.2677 265.564 97.1256C267.389 101.984 266.621 114.508 262.665 117.394C261.626 118.151 249.928 118.516 233.238 118.642C233.216 118.945 232.964 119.194 232.656 119.194H97.8634C97.5448 119.194 97.2799 118.927 97.2799 118.599V117.328C95.3935 116.854 93.7363 115.206 93.392 113.269Z" fill="#1C1F34"/>
<path fill-rule="evenodd" clip-rule="evenodd" d="M237.374 119.193H122.177V121.871H237.374V119.193Z" fill="#1C1F34"/>
<path fill-rule="evenodd" clip-rule="evenodd" d="M94.7208 113.07C94.7208 113.07 93.0478 106.599 93.0478 93.0354C93.0478 79.4719 97.0166 58.542 97.0166 58.542C97.2952 56.9203 98.8402 55.6057 100.475 55.6057C100.475 55.6057 191.607 55.6057 207.138 55.6057C220.857 55.6057 244.173 84.7426 244.173 84.7426C244.173 84.7426 262.378 92.6089 264.229 97.0208C266.08 101.433 265.289 113.108 261.325 115.977C259.38 117.385 219.339 117.737 180.438 117.767C163.794 117.78 148.474 117.959 134.607 117.767H98.0219C97.7027 117.767 97.4372 117.502 97.4372 117.175V116.649C96.0722 115.917 94.9917 114.582 94.7208 113.07Z" fill="url(#paint5_linear_1266_19184)"/>
<path opacity="0.1" fill-rule="evenodd" clip-rule="evenodd" d="M264.858 97.3312C264.858 97.3312 256.821 92.4383 252.5 90.6117C249.28 89.2506 242.233 87.768 242.233 87.768L242.024 88.3495C242.024 88.3495 249.091 89.8406 252.321 91.2061C256.632 93.0284 264.649 97.9127 264.649 97.9127L264.858 97.3312Z" fill="#242D5F"/>
<path fill-rule="evenodd" clip-rule="evenodd" d="M233.362 93.3488L233.396 94.0131C233.473 95.5106 232.694 97.6084 231.662 98.6928L223.844 106.91C223.017 107.78 221.374 108.484 220.161 108.484L211.734 108.484C210.527 108.484 209.557 107.514 209.568 106.312L209.673 91.9572C209.684 90.7577 210.668 89.7661 211.869 89.7423L231.639 91.7583C232.545 91.7404 233.316 92.4528 233.362 93.3488Z" fill="white"/>
<path fill-rule="evenodd" clip-rule="evenodd" d="M233.362 93.3488L233.396 94.0131C233.473 95.5106 232.694 97.6084 231.662 98.6928L223.844 106.91C223.017 107.78 221.374 108.484 220.161 108.484L211.734 108.484C210.527 108.484 209.557 107.514 209.568 106.312L209.673 91.9572C209.684 90.7577 210.668 89.7661 211.869 89.7423L231.639 91.7583C232.545 91.7404 233.316 92.4528 233.362 93.3488Z" fill="url(#paint6_linear_1266_19184)" fill-opacity="0.05"/>
<path opacity="0.1" fill-rule="evenodd" clip-rule="evenodd" d="M227.444 102.46C227.444 102.46 204.591 97.7749 193.164 97.7749C160.834 97.7749 94.3722 97.7749 94.3722 97.7749V98.3606C94.3722 98.3606 160.432 98.3606 192.863 98.3606C204.189 98.3606 226.842 102.46 226.842 102.46H227.444Z" fill="#242D5F"/>
<path opacity="0.1" fill-rule="evenodd" clip-rule="evenodd" d="M218.173 62.2989C218.173 62.2989 214.338 58.9521 203.885 58.9521C174.309 58.9521 95.6945 58.9521 95.6945 58.9521V59.5099C95.6945 59.5099 174.53 59.5099 204.198 59.5099C214.56 59.5099 216.996 61.7411 216.996 61.7411L218.173 62.2989Z" fill="#242D5F"/>
<path opacity="0.1" fill-rule="evenodd" clip-rule="evenodd" d="M202.948 58.9521H163.887V59.4232H202.948V58.9521Z" fill="#242D5F"/>
<path opacity="0.2" fill-rule="evenodd" clip-rule="evenodd" d="M222.809 107.815H130.122V110.493H222.809V107.815Z" fill="black"/>
<path fill-rule="evenodd" clip-rule="evenodd" d="M232.738 105.138H122.838V113.17H232.738V105.138Z" fill="#1C1F34"/>
<path fill-rule="evenodd" clip-rule="evenodd" d="M203.843 58.9517H202.667V118.241H203.843V58.9517Z" fill="#1C1F34"/>
<path fill-rule="evenodd" clip-rule="evenodd" d="M194.728 92.4885C194.238 92.4885 193.842 92.8873 193.842 93.3868C193.842 93.883 194.24 94.2851 194.728 94.2851H198.25C198.739 94.2851 199.136 93.8864 199.136 93.3868C199.136 92.8907 198.738 92.4885 198.25 92.4885H194.728Z" fill="#1C1F34"/>
<path fill-rule="evenodd" clip-rule="evenodd" d="M238.319 99.721C244.42 94.7423 242.086 83.5912 242.086 83.5912L241.097 82.3079C241.097 82.3079 243.37 93.6985 237.861 98.9279C231.846 104.094 229.728 118.241 229.728 118.241H230.716C230.716 118.241 233.335 104.609 238.319 99.721Z" fill="#1C1F34"/>
<path fill-rule="evenodd" clip-rule="evenodd" d="M208.259 92.4885C207.77 92.4885 207.373 92.8873 207.373 93.3868C207.373 93.883 207.771 94.2851 208.259 94.2851H211.781C212.271 94.2851 212.667 93.8864 212.667 93.3868C212.667 92.8907 212.27 92.4885 211.781 92.4885H208.259Z" fill="#1C1F34"/>
<path fill-rule="evenodd" clip-rule="evenodd" d="M236.245 88.2155C239.152 88.5551 240.199 86.8179 238.525 84.3821C238.525 84.3821 236.853 81.3369 231.301 75.2933C225.749 69.2498 222.586 66.0307 222.586 66.0307C221.448 64.8537 219.211 63.7766 217.599 63.6258L209.819 62.8979C207.551 62.6857 205.945 64.371 206.233 66.673L208.001 80.8171C208.288 83.1142 210.354 85.1904 212.616 85.4548L236.245 88.2155Z" fill="#1C1F34"/>
<path fill-rule="evenodd" clip-rule="evenodd" d="M236.731 86.8031C237.699 86.914 238.036 86.343 237.481 85.5227L234.691 81.3948C233.77 80.0323 232.122 77.9442 231.02 76.7423L221.805 66.6908C220.919 65.7241 219.148 64.8455 217.857 64.7291L209.266 63.9541C207.971 63.8374 207.057 64.8072 207.222 66.1171L209.14 81.2987C209.305 82.6101 210.49 83.7936 211.779 83.9415L236.731 86.8031Z" fill="url(#paint7_linear_1266_19184)"/>
<path fill-rule="evenodd" clip-rule="evenodd" d="M209.966 72.0772C209.929 71.4434 209.39 70.9297 208.761 70.9297H209.1C208.472 70.9297 207.962 71.4466 207.962 72.0772V76.3699C207.962 77.0036 208.466 77.5173 209.097 77.5173H209.151C209.778 77.5173 210.255 77.0004 210.218 76.3699L209.966 72.0772Z" fill="#1C1F34"/>
<path fill-rule="evenodd" clip-rule="evenodd" d="M209.724 79.3135H209.141C208.49 79.3135 208.106 79.8275 208.286 80.4701L210.315 84.1045H212.668L211.317 80.4368C211.088 79.8164 210.377 79.3135 209.724 79.3135Z" fill="#1C1F34"/>
<path fill-rule="evenodd" clip-rule="evenodd" d="M227.166 86.24C226.929 86.674 226.395 86.2272 225.969 85.9867C225.539 85.7445 225.387 85.8003 225.622 85.3689L228.479 80.1219C228.716 79.6878 229.25 79.5358 229.676 79.7763C230.106 80.0185 230.258 80.5615 230.023 80.9929L228.47 83.8455L230.405 85.4487L229.548 86.9006L227.326 85.9463L227.166 86.24Z" fill="#1C1F34"/>
<path fill-rule="evenodd" clip-rule="evenodd" d="M238.553 85.4722L235.206 79.8367L226.306 86.5852L237.964 87.6981L238.553 85.4722Z" fill="#1C1F34"/>
<path opacity="0.1" fill-rule="evenodd" clip-rule="evenodd" d="M237.358 85.8673C237.535 83.9228 236.405 80.5864 236.405 80.5864C236.201 79.9232 235.475 79.2146 234.784 79.0038L234.024 78.7725C233.332 78.5617 232.72 78.9464 232.657 79.6404L231.739 89.6955C231.676 90.3857 232.212 90.9944 232.932 91.0547L234.243 91.1646C234.965 91.2251 235.765 90.7466 236.02 90.1015C236.02 90.1015 237.233 87.2277 237.358 85.8673Z" fill="#242D5F"/>
<path fill-rule="evenodd" clip-rule="evenodd" d="M237.357 84.7004C237.5 83.0389 236.811 80.351 236.811 80.351C236.665 79.7069 236.051 79.0007 235.441 78.7745L235.467 78.784C234.857 78.5575 234.316 78.9058 234.26 79.5628L233.542 87.9117C233.486 88.5684 233.961 89.1471 234.612 89.2051L234.905 89.2311C235.552 89.2888 236.247 88.8222 236.449 88.1963C236.449 88.1963 237.257 85.8627 237.357 84.7004Z" fill="#1C1F34"/>
<g opacity="0.1">
<path fill-rule="evenodd" clip-rule="evenodd" d="M227.114 77.0722L220.301 68.8069C220.094 68.5556 219.726 68.5227 219.475 68.7368C219.226 68.9494 219.197 69.3307 219.4 69.5768L226.212 77.8421C226.419 78.0934 226.787 78.1263 227.038 77.9122C227.287 77.6996 227.317 77.3184 227.114 77.0722Z" fill="white"/>
<path fill-rule="evenodd" clip-rule="evenodd" d="M221.968 74.7252C222.093 74.6189 222.106 74.4268 222.004 74.3031L219.358 71.0922C219.253 70.9654 219.064 70.9519 218.943 71.0551C218.819 71.1614 218.805 71.3534 218.907 71.4771L221.554 74.6881C221.658 74.8149 221.847 74.8284 221.968 74.7252Z" fill="white"/>
</g>
<path fill-rule="evenodd" clip-rule="evenodd" d="M95.1689 87.8531C95.2587 85.2536 95.736 80.1043 95.736 80.1043C95.8235 79.1197 95.0709 78.2925 94.0467 78.2563L93.7674 78.2464C92.7468 78.2104 91.8472 78.9807 91.7597 79.97C91.7597 79.97 91.2854 85.0627 91.1965 87.6369C91.0754 91.1427 91.482 97.9208 91.482 97.9208C91.5358 98.906 92.403 99.7338 93.4272 99.7699L93.7065 99.7798C94.727 99.8158 95.5089 99.0445 95.4555 98.0496C95.4555 98.0496 95.0487 91.3336 95.1689 87.8531Z" fill="#1C1F34"/>
<path fill-rule="evenodd" clip-rule="evenodd" d="M94.1139 87.9589C94.1937 85.6483 94.7562 80.1131 94.7562 80.1131C94.7888 79.786 94.5392 79.5112 94.2012 79.4992L93.3827 79.4703C93.0435 79.4583 92.7418 79.7145 92.7086 80.0479C92.7086 80.0479 92.1487 85.5311 92.0697 87.8193C91.9621 90.9355 92.2893 97.9798 92.2893 97.9798C92.3038 98.3087 92.5916 98.585 92.9297 98.597L93.7482 98.6259C94.0873 98.6378 94.3501 98.3818 94.3354 98.049C94.3354 98.049 94.0071 91.0527 94.1139 87.9589Z" fill="#C10000"/>
<mask id="mask2_1266_19184" style="mask-type:alpha" maskUnits="userSpaceOnUse" x="92" y="79" width="3" height="20">
<path fill-rule="evenodd" clip-rule="evenodd" d="M94.1139 87.9589C94.1937 85.6483 94.7562 80.1131 94.7562 80.1131C94.7888 79.786 94.5392 79.5112 94.2012 79.4992L93.3827 79.4703C93.0435 79.4583 92.7418 79.7145 92.7086 80.0479C92.7086 80.0479 92.1487 85.5311 92.0697 87.8193C91.9621 90.9355 92.2893 97.9798 92.2893 97.9798C92.3038 98.3087 92.5916 98.585 92.9297 98.597L93.7482 98.6259C94.0873 98.6378 94.3501 98.3818 94.3354 98.049C94.3354 98.049 94.0071 91.0527 94.1139 87.9589Z" fill="white"/>
</mask>
<g mask="url(#mask2_1266_19184)">
<path opacity="0.4" fill-rule="evenodd" clip-rule="evenodd" d="M92.8221 90.8159L92.0396 90.8297L92.2166 98.0018L93.138 97.9855L92.8221 90.8159Z" fill="white"/>
</g>
<path fill-rule="evenodd" clip-rule="evenodd" d="M265.404 97.7747H259.505C258.857 97.7747 258.454 98.2829 258.606 98.9176L259.615 103.108C259.767 103.74 260.421 104.251 261.067 104.251H265.47C266.12 104.251 266.689 103.721 266.741 103.078L266.483 98.9475C266.535 98.2998 266.051 97.7747 265.404 97.7747Z" fill="#1C1F34"/>
<path fill-rule="evenodd" clip-rule="evenodd" d="M265.374 98.9514H259.576L260.703 103.073H265.587L265.374 98.9514Z" fill="url(#paint8_linear_1266_19184)"/>
<mask id="mask3_1266_19184" style="mask-type:alpha" maskUnits="userSpaceOnUse" x="259" y="98" width="7" height="6">
<path fill-rule="evenodd" clip-rule="evenodd" d="M265.374 98.9514H259.576L260.703 103.073H265.587L265.374 98.9514Z" fill="white"/>
</mask>
<g mask="url(#mask3_1266_19184)">
<ellipse cx="0.779603" cy="1.38781" rx="0.779603" ry="1.38781" transform="matrix(-0.998599 0.0529119 0.0517662 0.998659 265.491 99.5942)" fill="white"/>
<path opacity="0.2" fill-rule="evenodd" clip-rule="evenodd" d="M261.003 97.7749H258.781V103.789H262.181L261.003 97.7749Z" fill="#FF0000"/>
</g>
<path fill-rule="evenodd" clip-rule="evenodd" d="M245.981 92.6925C245.981 92.1723 245.591 91.7505 245.113 91.7505H243.956C243.477 91.7505 243.089 92.1686 243.089 92.6925C243.089 93.2128 243.479 93.6346 243.956 93.6346H245.113C245.592 93.6346 245.981 93.2164 245.981 92.6925Z" fill="#1C1F34"/>
<path fill-rule="evenodd" clip-rule="evenodd" d="M245.401 92.6924C245.401 92.519 245.276 92.3784 245.114 92.3784H243.952C243.794 92.3784 243.665 92.5241 243.665 92.6924C243.665 92.8659 243.79 93.0064 243.952 93.0064H245.114C245.273 93.0064 245.401 92.8608 245.401 92.6924Z" fill="#F5A623"/>
<mask id="mask4_1266_19184" style="mask-type:alpha" maskUnits="userSpaceOnUse" x="243" y="92" width="3" height="2">
<path fill-rule="evenodd" clip-rule="evenodd" d="M245.401 92.6924C245.401 92.519 245.276 92.3784 245.114 92.3784H243.952C243.794 92.3784 243.665 92.5241 243.665 92.6924C243.665 92.8659 243.79 93.0064 243.952 93.0064H245.114C245.273 93.0064 245.401 92.8608 245.401 92.6924Z" fill="white"/>
</mask>
<g mask="url(#mask4_1266_19184)">
<path fill-rule="evenodd" clip-rule="evenodd" d="M245.98 92.3784H244.823V93.0064H245.98V92.3784Z" fill="white"/>
</g>
<g opacity="0.5">
<path fill-rule="evenodd" clip-rule="evenodd" d="M193.736 62.9692H106.898C103.639 62.9692 100.751 65.6128 100.45 68.8695L99.127 83.1427C98.8251 86.4013 101.222 89.043 104.481 89.043H193.736C196.995 89.043 199.637 86.3873 199.637 83.1183V68.8939C199.637 65.6218 196.997 62.9692 193.736 62.9692Z" fill="url(#paint9_linear_1266_19184)"/>
<path fill-rule="evenodd" clip-rule="evenodd" d="M193.736 62.9692H106.898C103.639 62.9692 100.751 65.6128 100.45 68.8695L99.127 83.1427C98.8251 86.4013 101.222 89.043 104.481 89.043H193.736C196.995 89.043 199.637 86.3873 199.637 83.1183V68.8939C199.637 65.6218 196.997 62.9692 193.736 62.9692Z" fill="url(#paint10_linear_1266_19184)" fill-opacity="0.3"/>
</g>
<path fill-rule="evenodd" clip-rule="evenodd" d="M193.733 63.5605L106.878 63.5605C103.943 63.5605 101.336 65.9357 101.055 68.8692L99.6861 83.1404C99.4049 86.0723 101.552 88.449 104.492 88.449H193.732C196.667 88.449 199.047 86.0626 199.047 83.1175V68.8921C199.047 65.9476 196.67 63.5605 193.733 63.5605Z" fill="white"/>
<path fill-rule="evenodd" clip-rule="evenodd" d="M193.733 63.5605L106.878 63.5605C103.943 63.5605 101.336 65.9357 101.055 68.8692L99.6861 83.1404C99.4049 86.0723 101.552 88.449 104.492 88.449H193.732C196.667 88.449 199.047 86.0626 199.047 83.1175V68.8921C199.047 65.9476 196.67 63.5605 193.733 63.5605Z" fill="url(#paint11_linear_1266_19184)" fill-opacity="0.05"/>
<path fill-rule="evenodd" clip-rule="evenodd" d="M193.734 65.3379L106.811 65.3379C104.854 65.3379 103.097 66.9239 102.887 68.8726L101.349 83.1363C101.138 85.0884 102.548 86.6709 104.513 86.6709H193.731C195.689 86.6709 197.277 85.0849 197.277 83.1123V68.8966C197.277 66.9312 195.696 65.3379 193.734 65.3379Z" fill="url(#paint12_linear_1266_19184)"/>
<path fill-rule="evenodd" clip-rule="evenodd" d="M247.305 85.7261C247.305 85.7261 239.173 76.6837 234.814 72.1626C231.908 69.1487 226.096 64.3059 226.096 64.3059L223.613 62.2988L222.071 62.5094C221.428 62.5971 221.294 63.0301 221.769 63.4768C221.769 63.4768 229.216 70.4343 232.678 74.1812C236.016 77.7947 242.106 85.0217 242.106 85.0217L247.305 85.7261Z" fill="#1C1F34"/>
<path fill-rule="evenodd" clip-rule="evenodd" d="M128.136 87.7346V89.7427H164.548V87.7346L128.136 87.7346Z" fill="#1C1F34"/>
<path fill-rule="evenodd" clip-rule="evenodd" d="M164.55 58.9521H163.226V117.855H164.55V58.9521Z" fill="#1C1F34"/>
<path fill-rule="evenodd" clip-rule="evenodd" d="M267.071 107.519C267.444 106.243 266.694 105.208 265.392 105.208H245.431C244.131 105.208 243.077 106.289 243.077 107.619V119.077C243.077 120.408 244.111 121.281 245.38 121.028L261.919 117.727C263.191 117.473 264.526 116.228 264.898 114.956L267.071 107.519Z" fill="#1C1F34"/>
<ellipse opacity="0.1" cx="16.4467" cy="9.72119" rx="16.4467" ry="9.72119" transform="matrix(-1 0 0 1 256.594 99.7825)" fill="#242D5F"/>
<ellipse cx="14.7082" cy="9.4307" rx="14.7082" ry="9.4307" transform="matrix(-1 0 0 1 254.833 101.592)" fill="#1C1F34"/>
<path fill-rule="evenodd" clip-rule="evenodd" d="M111.769 113.047C113.072 113.047 114.132 111.965 114.132 110.631V107.624C114.132 106.29 114.254 105.209 112.947 105.209H93.6697C92.3638 105.209 91.3711 106.285 91.4535 107.614L91.7488 111.536C91.8476 112.866 93.9003 118.091 94.4668 118.96C95.0333 119.828 97.1254 119.783 97.1254 119.783C98.4155 119.961 99.337 118.4 99.1743 117.075L98.6793 113.047H111.769Z" fill="#1C1F34"/>
<ellipse opacity="0.1" cx="123.372" cy="109.16" rx="16.5327" ry="9.37719" fill="#242D5F"/>
<ellipse cx="123.296" cy="110.988" rx="14.7304" ry="9.39596" fill="#1C1F34"/>
<ellipse cx="12.3101" cy="12.5293" rx="12.3101" ry="12.5293" transform="matrix(-1 0 0 1 252.602 103.798)" fill="#1C1F34"/>
<ellipse cx="7.62055" cy="7.75628" rx="7.62055" ry="7.75628" transform="matrix(-1 0 0 1 247.912 108.571)" fill="url(#paint13_linear_1266_19184)"/>
<ellipse cx="4.10337" cy="4.17643" rx="4.10337" ry="4.17643" transform="matrix(-1 0 0 1 244.395 112.151)" fill="#1C1F34"/>
<ellipse cx="0.586177" cy="0.596627" rx="0.586177" ry="0.596627" transform="matrix(-1 0 0 1 240.878 109.765)" fill="#1C1F34"/>
<ellipse cx="0.586177" cy="0.596627" rx="0.586177" ry="0.596627" transform="matrix(-1 0 0 1 240.878 121.698)" fill="#1C1F34"/>
<ellipse cx="0.586937" cy="0.595869" rx="0.586937" ry="0.595869" transform="matrix(-0.938476 0.345346 0.338718 0.940888 238.636 109.959)" fill="#1C1F34"/>
<ellipse cx="0.586937" cy="0.595869" rx="0.586937" ry="0.595869" transform="matrix(-0.938477 0.345342 0.338722 0.940887 242.645 121.172)" fill="#1C1F34"/>
<ellipse cx="0.588857" cy="0.593947" rx="0.588857" ry="0.593947" transform="matrix(-0.762555 0.646923 0.638641 0.769505 236.593 110.919)" fill="#1C1F34"/>
<ellipse cx="0.588857" cy="0.593947" rx="0.588857" ry="0.593947" transform="matrix(-0.762557 0.646921 0.638643 0.769503 244.128 120.06)" fill="#1C1F34"/>
<ellipse cx="0.591033" cy="0.591752" rx="0.591033" ry="0.591752" transform="matrix(-0.495892 0.868384 0.863634 0.504119 234.996 112.534)" fill="#1C1F34"/>
<ellipse cx="0.591033" cy="0.591752" rx="0.591033" ry="0.591752" transform="matrix(-0.495894 0.868383 0.863635 0.504117 245.15 118.5)" fill="#1C1F34"/>
<ellipse cx="0.592448" cy="0.590316" rx="0.592448" ry="0.590316" transform="matrix(-0.171809 0.98513 0.984478 0.175506 234.039 114.604)" fill="#1C1F34"/>
<ellipse cx="0.592448" cy="0.590316" rx="0.592448" ry="0.590316" transform="matrix(-0.171809 0.98513 0.984478 0.175506 245.585 116.677)" fill="#1C1F34"/>
<ellipse cx="0.592448" cy="0.590316" rx="0.592448" ry="0.590316" transform="matrix(0.171809 0.98513 0.984478 -0.175506 233.835 116.884)" fill="#1C1F34"/>
<ellipse cx="0.592448" cy="0.590316" rx="0.592448" ry="0.590316" transform="matrix(0.171809 0.98513 0.984478 -0.175506 245.382 114.812)" fill="#1C1F34"/>
<ellipse cx="0.591033" cy="0.591752" rx="0.591033" ry="0.591752" transform="matrix(0.495892 0.868384 0.863634 -0.504119 234.411 119.097)" fill="#1C1F34"/>
<ellipse cx="0.591033" cy="0.591752" rx="0.591033" ry="0.591752" transform="matrix(0.495892 0.868384 0.863634 -0.504119 244.563 113.131)" fill="#1C1F34"/>
<ellipse cx="0.588857" cy="0.593947" rx="0.588857" ry="0.593947" transform="matrix(0.762558 0.64692 0.638645 -0.769502 235.695 120.975)" fill="#1C1F34"/>
<ellipse cx="0.588857" cy="0.593947" rx="0.588857" ry="0.593947" transform="matrix(0.76256 0.646918 0.638647 -0.7695 243.232 111.834)" fill="#1C1F34"/>
<ellipse cx="0.586937" cy="0.595869" rx="0.586937" ry="0.595869" transform="matrix(0.938476 0.345346 0.338718 -0.940888 237.534 122.292)" fill="#1C1F34"/>
<ellipse cx="0.586937" cy="0.595869" rx="0.586937" ry="0.595869" transform="matrix(0.938475 0.345346 0.338718 -0.940888 241.543 111.08)" fill="#1C1F34"/>
<ellipse cx="12.3101" cy="12.5293" rx="12.3101" ry="12.5293" transform="matrix(-1 0 0 1 135.418 103.798)" fill="#1C1F34"/>
<ellipse cx="7.62055" cy="7.75628" rx="7.62055" ry="7.75628" transform="matrix(-1 0 0 1 130.729 108.571)" fill="url(#paint14_linear_1266_19184)"/>
<ellipse cx="4.10337" cy="4.17643" rx="4.10337" ry="4.17643" transform="matrix(-1 0 0 1 127.212 112.151)" fill="#1C1F34"/>
<ellipse cx="0.586177" cy="0.596627" rx="0.586177" ry="0.596627" transform="matrix(-1 0 0 1 123.694 109.765)" fill="#1C1F34"/>
<ellipse cx="0.586177" cy="0.596627" rx="0.586177" ry="0.596627" transform="matrix(-1 0 0 1 123.694 121.698)" fill="#1C1F34"/>
<ellipse cx="0.586937" cy="0.595869" rx="0.586937" ry="0.595869" transform="matrix(-0.938476 0.345345 0.338719 0.940888 121.453 109.959)" fill="#1C1F34"/>
<ellipse cx="0.586937" cy="0.595869" rx="0.586937" ry="0.595869" transform="matrix(-0.938475 0.345347 0.338717 0.940888 125.462 121.172)" fill="#1C1F34"/>
<ellipse cx="0.588857" cy="0.593947" rx="0.588857" ry="0.593947" transform="matrix(-0.76256 0.646918 0.638647 0.7695 119.41 110.919)" fill="#1C1F34"/>
<ellipse cx="0.588857" cy="0.593947" rx="0.588857" ry="0.593947" transform="matrix(-0.762558 0.64692 0.638645 0.769502 126.948 120.06)" fill="#1C1F34"/>
<ellipse cx="0.591033" cy="0.591752" rx="0.591033" ry="0.591752" transform="matrix(-0.495892 0.868384 0.863634 0.504119 117.814 112.534)" fill="#1C1F34"/>
<ellipse cx="0.591033" cy="0.591752" rx="0.591033" ry="0.591752" transform="matrix(-0.495892 0.868384 0.863634 0.504119 127.967 118.5)" fill="#1C1F34"/>
<ellipse cx="0.592448" cy="0.590316" rx="0.592448" ry="0.590316" transform="matrix(-0.171809 0.98513 0.984478 0.175506 116.857 114.604)" fill="#1C1F34"/>
<ellipse cx="0.592448" cy="0.590316" rx="0.592448" ry="0.590316" transform="matrix(-0.171809 0.98513 0.984478 0.175506 128.402 116.678)" fill="#1C1F34"/>
<ellipse cx="0.592448" cy="0.590316" rx="0.592448" ry="0.590316" transform="matrix(0.17181 0.98513 0.984478 -0.175505 116.652 116.884)" fill="#1C1F34"/>
<ellipse cx="0.592448" cy="0.590316" rx="0.592448" ry="0.590316" transform="matrix(0.171809 0.98513 0.984478 -0.175506 128.199 114.812)" fill="#1C1F34"/>
<ellipse cx="0.591033" cy="0.591752" rx="0.591033" ry="0.591752" transform="matrix(0.495892 0.868384 0.863634 -0.504119 117.228 119.097)" fill="#1C1F34"/>
<ellipse cx="0.591033" cy="0.591752" rx="0.591033" ry="0.591752" transform="matrix(0.49589 0.868385 0.863633 -0.504121 127.38 113.131)" fill="#1C1F34"/>
<ellipse cx="0.588857" cy="0.593947" rx="0.588857" ry="0.593947" transform="matrix(0.76256 0.646918 0.638647 -0.7695 118.512 120.975)" fill="#1C1F34"/>
<ellipse cx="0.588857" cy="0.593947" rx="0.588857" ry="0.593947" transform="matrix(0.76256 0.646918 0.638647 -0.7695 126.049 111.834)" fill="#1C1F34"/>
<ellipse cx="0.586937" cy="0.595869" rx="0.586937" ry="0.595869" transform="matrix(0.938476 0.345343 0.33872 -0.940887 120.352 122.292)" fill="#1C1F34"/>
<ellipse cx="0.586937" cy="0.595869" rx="0.586937" ry="0.595869" transform="matrix(0.938476 0.345345 0.338719 -0.940887 124.361 111.08)" fill="#1C1F34"/>
<g clip-path="url(#clip0_1266_19184)">
<path fill-rule="evenodd" clip-rule="evenodd" d="M196.992 41.5493H196.33V47.5735H196.992V41.5493ZM99.6703 41.5505H99.0083V47.5746H99.6703V44.8959H133.433V44.2266H99.6703V41.5505ZM162.563 44.2266V44.8959H196.329V44.2266H162.563Z" fill="#090A0A"/>
<path d="M141.539 47.3078V40.7121H140.729C140.58 41.4284 139.957 41.9215 139.055 41.9494V42.6006H140.645V47.3078H141.539Z" fill="#090A0A"/>
<path d="M142.877 44.0146C142.877 44.9356 143.026 45.7635 143.463 46.4054C143.9 47.0473 144.524 47.4473 145.454 47.4473C146.375 47.4473 147.007 47.0473 147.445 46.4054C147.863 45.7635 148.031 44.9356 148.031 44.0146C148.031 43.0936 147.863 42.2564 147.445 41.6238C147.007 40.9819 146.375 40.5726 145.454 40.5726C144.524 40.5726 143.9 40.9819 143.463 41.6238C143.026 42.2564 142.877 43.0936 142.877 44.0146ZM143.77 44.0146C143.77 42.9448 143.975 42.2099 144.393 41.7912C144.663 41.5401 144.979 41.3819 145.454 41.3819C145.91 41.3819 146.245 41.5401 146.505 41.7912C146.924 42.2099 147.128 42.9448 147.128 44.0146C147.128 45.0844 146.924 45.8193 146.505 46.238C146.245 46.4891 145.91 46.6473 145.454 46.6473C144.979 46.6473 144.663 46.4891 144.393 46.238C143.975 45.8193 143.77 45.0844 143.77 44.0146Z" fill="#090A0A"/>
<path d="M153.873 43.6239V42.8332H152.794V42.1261C152.794 41.5029 153.194 41.3633 153.501 41.3633C153.724 41.3633 153.836 41.3912 153.882 41.4191V40.6377C153.845 40.6098 153.659 40.5447 153.361 40.5447C152.552 40.5447 151.891 41.0749 151.891 42.0796V42.8332H151.063V43.6239H151.891V47.3078H152.794V43.6239H153.873Z" fill="#090A0A"/>
<path d="M155.982 41.4191H155.182V42.1448C155.182 42.5448 154.978 42.8332 154.494 42.8332H154.252V43.6239H155.108V46.0798C155.108 46.8985 155.582 47.3543 156.355 47.3543C156.652 47.3543 156.875 47.2985 156.95 47.2706V46.5263C156.875 46.5543 156.717 46.5636 156.606 46.5636C156.15 46.5636 155.982 46.3589 155.982 45.9496V43.6239H156.95V42.8332H155.982V41.4191Z" fill="#090A0A"/>
</g>
<g clip-path="url(#clip1_1266_19184)">
<path fill-rule="evenodd" clip-rule="evenodd" d="M67.8881 59.6208H61.9297V60.2902H67.8881V59.6208ZM67.8862 106.476L65.2389 106.476V99H64.5769V106.476L61.9277 106.476V107.145H67.8862V106.476ZM64.5769 68H65.2389V60.2908H64.5769V68Z" fill="#090A0A"/>
<path d="M61.8965 73.8047H63.2861V72.8539H64.0632V73.8047H66.3487C66.7509 73.8047 66.9521 73.6401 66.9521 73.1922C66.9521 73.0825 66.9429 72.9271 66.9155 72.8539H67.6469C67.6743 72.9271 67.7292 73.1465 67.7292 73.439C67.7292 74.1978 67.2812 74.6641 66.4767 74.6641H64.0632V75.5051H63.2861V75.2674C63.2861 74.792 63.0027 74.5909 62.6096 74.5909H61.8965V73.8047Z" fill="#090A0A"/>
<path d="M64.0631 75.878V76.9385H67.6834V77.8253H64.0631V78.6389H63.2861V77.8253H62.5456C61.5582 77.8253 61.0371 77.1762 61.0371 76.3808C61.0371 76.0883 61.1011 75.9054 61.1285 75.8689H61.8965C61.869 75.9146 61.8416 76.0243 61.8416 76.2437C61.8416 76.5454 61.9787 76.9385 62.5913 76.9385H63.2861V75.878H64.0631Z" fill="#090A0A"/>
<path d="M66.2115 86.4287H65.1511L61.2017 83.6495V82.3788H65.3705V81.2634H66.2115V82.3788H67.6834V83.2381H66.2115V86.4287ZM65.3705 83.2381H62.0336L65.3705 85.5968V83.2381Z" fill="#090A0A"/>
<path d="M67.0984 88.2434C66.7419 88.2434 66.4585 87.9691 66.4585 87.6126C66.4585 87.2561 66.7419 86.9727 67.0984 86.9727C67.455 86.9727 67.7292 87.2561 67.7292 87.6126C67.7292 87.9691 67.455 88.2434 67.0984 88.2434Z" fill="#090A0A"/>
<path d="M61.4393 89.3596L62.1706 89.6339C62.0335 89.8807 61.8781 90.3013 61.8781 90.8132C61.8781 92.1937 62.9294 93.0622 64.2825 93.1079C63.8437 92.8428 63.4323 92.2577 63.4323 91.38C63.4323 90.1093 64.2093 89.1676 65.6355 89.1676C67.0251 89.1676 67.8205 90.3013 67.8205 91.5355C67.8205 92.7422 67.0068 94.0312 64.831 94.0312C62.4266 94.0312 61.0645 92.5868 61.0645 90.7584C61.0645 90.1733 61.229 89.6613 61.4393 89.3596ZM65.6264 92.9708C66.5132 92.9708 67.0434 92.2485 67.0434 91.5263C67.0434 90.7492 66.5223 90.0727 65.6264 90.0727C64.7213 90.0727 64.2093 90.7492 64.2093 91.5263C64.2093 92.2942 64.7213 92.9708 65.6264 92.9708Z" fill="#090A0A"/>
</g>
<path fill-rule="evenodd" clip-rule="evenodd" d="M192.261 84.1077C192.261 84.1077 193.49 84.6798 194.767 84.6798C196.044 84.6798 196.906 83.9348 196.906 83.9348L197.073 85.981V87.7443H192.059V85.981L192.261 84.1077Z" fill="#634739"/>
<path fill-rule="evenodd" clip-rule="evenodd" d="M190.358 104.818H198.808L199.162 108.708L199.609 113.579L200.734 126.697C200.734 126.697 202.406 126.402 202.406 128.399H198.015L196.545 117.477L194.583 110.615L192.633 117.38L191.15 128.399H186.923C186.923 128.399 186.663 126.697 188.243 126.697C188.243 126.697 188.833 120.087 189.07 116.608C189.232 114.225 189.799 109.229 189.799 109.229L190.358 104.818Z" fill="#282E53"/>
<path fill-rule="evenodd" clip-rule="evenodd" d="M181.616 96.4229C181.616 96.4229 180.518 94.643 180.156 93.6151C179.501 91.7566 178.567 87.7639 178.567 87.7639C178.567 87.7639 177.766 87.0703 177.377 85.5301C176.988 83.9897 177.449 82.6196 178.352 82.5371C179.254 82.4548 179.777 82.5528 179.777 82.5528L180.156 85.1147C180.156 85.1147 180.825 84.0132 181.568 84.0317C182.311 84.0502 181.61 85.2845 181.61 85.2845L180.655 87.0636C180.655 87.0636 182.11 88.9751 182.95 92.5259L184.85 90.6563L188.17 91.7912C188.17 91.7912 188.17 94.098 186.511 95.2317C184.853 96.3655 181.616 96.4229 181.616 96.4229Z" fill="#634739"/>
<path fill-rule="evenodd" clip-rule="evenodd" d="M202.836 89.7357C202.836 89.7357 201.657 87.5486 199.249 87.5486L197.074 87.0588C197.074 87.0588 196.084 87.5202 194.584 87.5486C193.085 87.5202 192.094 87.0588 192.094 87.0588H189.685C187.276 87.0588 187.017 89.0848 187.017 89.0848C187.017 89.0848 185.952 89.5117 185.419 89.8924C185.013 90.1829 184.2 91.0984 184.2 91.0984C184.553 93.9691 187.017 95.2038 187.017 95.2038L188.782 93.8002L189.92 98.944L190.196 104.895C190.196 104.895 190.56 106.124 194.584 106.124C198.608 106.124 198.973 104.895 198.973 104.895L199.249 98.944L200.02 93.8002V95.2038C200.02 95.2038 203.941 96.956 203.941 94.2458L202.836 89.7357Z" fill="#434D9E"/>
<path d="M188.803 93.2037C187.296 94.8405 185.909 95.9226 182.111 96.6098C180.365 96.6098 178.568 87.7637 178.568 87.7637C178.568 87.7637 177.571 87.0736 177.256 84.8851C176.893 82.3568 179.033 82.2657 179.517 82.5375C179.786 82.6883 179.837 83.5828 179.837 83.5828C179.992 84.7289 180.167 85.124 180.46 84.6834C181.146 83.6492 182.355 83.9343 181.765 85.0461C181.271 85.9754 180.653 87.0692 180.653 87.0692C182.111 90.1954 182.111 89.8134 182.839 92.6554" stroke="#1C1F34" stroke-width="0.830603" stroke-linecap="round" stroke-linejoin="round"/>
<path fill-rule="evenodd" clip-rule="evenodd" d="M201.07 105.675C201.07 105.675 200.384 100.384 200.763 99.1651C200.763 99.1651 200.02 98.3152 200.064 94.9673C201.434 95.0548 202.974 94.7834 204.082 93.9792C204.49 96.2306 204.076 97.7948 203.902 99.1819C203.577 101.779 202.991 107.389 202.991 107.389C202.991 107.389 202.592 109.856 201.337 110.667C200.081 111.479 198.959 110.639 199.403 109.438C199.847 108.236 199.845 107.495 199.845 107.495C199.845 107.495 199.415 108.63 199.473 107.888C199.53 107.146 201.07 105.675 201.07 105.675Z" fill="#634739"/>
<path fill-rule="evenodd" clip-rule="evenodd" d="M191.713 92.7339C191.595 92.7339 191.524 92.6898 191.524 92.5527V90.5756C191.524 90.5313 191.487 90.4992 191.446 90.506C191.322 90.527 191.083 90.5664 190.98 90.5834L190.98 90.5834L190.931 90.5915C190.904 90.596 190.876 90.6213 190.876 90.6584L190.875 92.6323C190.875 93.2343 191.302 93.2913 191.541 93.2913C191.693 93.2913 191.8 93.2694 191.857 93.2535C191.89 93.2442 191.907 93.2161 191.907 93.1866V92.792C191.907 92.7561 191.877 92.7148 191.829 92.7235C191.798 92.7292 191.759 92.7339 191.713 92.7339ZM197.888 91.0996C198.102 91.079 198.24 91.0378 198.315 91.014C198.36 90.9995 198.392 91.0317 198.401 91.0638L198.409 91.0943L198.409 91.0943L198.409 91.0945C198.427 91.1566 198.466 91.2966 198.487 91.382C198.496 91.4223 198.471 91.4518 198.444 91.4644C198.405 91.4826 198.347 91.501 198.28 91.5197C198.354 91.6506 198.381 91.7905 198.381 91.9033C198.381 92.2248 198.186 92.6614 197.47 92.6614H197.405C197.255 92.6614 197.128 92.6422 197.021 92.609C196.994 92.6348 196.973 92.6702 196.973 92.7187C196.973 92.8036 197.042 92.8656 197.111 92.8656L197.67 92.8657C198.064 92.8657 198.408 93.0691 198.408 93.606C198.408 94.1099 198.009 94.3129 197.437 94.3129C196.829 94.3129 196.468 94.1255 196.468 93.636C196.468 93.3783 196.636 93.1689 196.636 93.1689C196.636 93.1689 196.48 93.036 196.48 92.777C196.48 92.5788 196.579 92.4431 196.652 92.3702C196.536 92.2265 196.494 92.0526 196.494 91.9033C196.494 91.6018 196.69 91.1074 197.437 91.1062L197.446 91.1065C197.495 91.1079 197.733 91.1147 197.888 91.0996ZM197.448 91.503C197.286 91.504 197.138 91.6382 197.138 91.8847C197.138 92.1146 197.259 92.2641 197.437 92.2649C197.616 92.2641 197.737 92.1146 197.737 91.8847C197.737 91.6382 197.611 91.504 197.448 91.503ZM197.834 93.5864C197.834 93.4458 197.757 93.335 197.596 93.335C197.322 93.335 197.167 93.3353 197.167 93.3353C197.167 93.3353 197.065 93.4344 197.065 93.6165C197.065 93.7279 197.127 93.8558 197.455 93.8558C197.771 93.8558 197.834 93.7137 197.834 93.5864ZM195.716 91.1009C195.93 91.0803 196.068 91.0391 196.143 91.0153C196.188 91.0007 196.22 91.033 196.229 91.065L196.237 91.0955L196.237 91.0955L196.237 91.0956C196.255 91.1576 196.294 91.2978 196.315 91.3833C196.324 91.4235 196.299 91.4531 196.272 91.4656C196.233 91.4839 196.175 91.5023 196.108 91.521C196.182 91.6519 196.209 91.7918 196.209 91.9046C196.209 92.2261 196.014 92.6626 195.298 92.6626H195.233C195.083 92.6626 194.956 92.6435 194.849 92.6103C194.822 92.636 194.801 92.6715 194.801 92.72C194.801 92.8049 194.87 92.8669 194.939 92.8669L195.498 92.867C195.892 92.867 196.236 93.0704 196.236 93.6072C196.236 94.1111 195.837 94.3142 195.265 94.3142C194.657 94.3142 194.296 94.1268 194.296 93.6373C194.296 93.3795 194.464 93.1701 194.464 93.1701C194.464 93.1701 194.308 93.0373 194.308 92.7783C194.308 92.5801 194.407 92.4444 194.48 92.3715C194.364 92.2278 194.322 92.0539 194.322 91.9046C194.322 91.6031 194.518 91.1086 195.265 91.1075L195.274 91.1077C195.323 91.1091 195.561 91.1159 195.716 91.1009ZM194.965 91.8847C194.965 91.6382 195.113 91.504 195.276 91.503C195.438 91.504 195.564 91.6382 195.564 91.8847C195.564 92.1146 195.443 92.2641 195.265 92.2649C195.086 92.2641 194.965 92.1146 194.965 91.8847ZM195.661 93.5869C195.661 93.4463 195.584 93.3355 195.423 93.3355C195.149 93.3355 194.994 93.3358 194.994 93.3358C194.994 93.3358 194.892 93.4349 194.892 93.617C194.892 93.7284 194.955 93.8563 195.282 93.8563C195.599 93.8563 195.661 93.7142 195.661 93.5869ZM193.343 91.2126C193.343 91.1819 193.369 91.147 193.41 91.147H193.926C193.964 91.147 193.992 91.1788 193.992 91.2139V93.1823C193.992 93.2347 193.95 93.2533 193.927 93.2533H193.489C193.45 93.2533 193.431 93.2224 193.426 93.2036C193.422 93.1899 193.38 93.0387 193.357 92.9571C193.216 93.0965 192.968 93.2917 192.685 93.2917C192.239 93.2917 192.145 92.9632 192.145 92.6244V91.2152C192.145 91.1734 192.179 91.147 192.21 91.147H192.726C192.764 91.147 192.794 91.177 192.794 91.2162V92.5117C192.794 92.6695 192.845 92.7285 192.96 92.7285C193.143 92.7285 193.296 92.5685 193.343 92.5143L193.343 91.2126Z" fill="white"/>
<path fill-rule="evenodd" clip-rule="evenodd" d="M194.588 84.1569C198.141 84.1569 198.076 82.2978 198.355 79.5378C198.633 76.7779 197.192 75.7017 194.588 75.7017C191.984 75.7017 190.427 76.9091 190.691 79.5378C190.954 82.1665 191.036 84.1569 194.588 84.1569Z" fill="#74605F" stroke="#1C1F34" stroke-width="0.830603"/>
<path d="M194.584 110.444L196.534 117.381L198.016 128.399H202.08C202.08 128.399 202.281 126.546 200.773 126.713L199.327 109.37L198.836 105.311L199.248 98.4965C199.248 98.4965 200.142 94.036 200.142 91.3076" stroke="#1C1F34" stroke-width="0.830603" stroke-linecap="round" stroke-linejoin="round"/>
<path d="M198.975 127.226C199.44 126.927 200.516 126.735 201.793 127.226" stroke="#1C1F34" stroke-width="0.498361" stroke-linecap="round" stroke-linejoin="round"/>
<path d="M194.427 110.444L192.477 117.381L190.995 128.399H186.931C186.931 128.399 186.73 126.546 188.237 126.713L189.683 109.37L190.174 105.311L189.762 98.4965C189.762 98.4965 188.869 94.036 188.869 91.3076" stroke="#1C1F34" stroke-width="0.830603" stroke-linecap="round" stroke-linejoin="round"/>
<path d="M190.036 127.226C189.571 126.927 188.495 126.735 187.218 127.226" stroke="#1C1F34" stroke-width="0.498361" stroke-linecap="round" stroke-linejoin="round"/>
<path d="M192.45 109.824H196.715" stroke="#1C1F34" stroke-width="0.498361" stroke-linecap="round" stroke-linejoin="round"/>
<path d="M196.866 87.3062C199.158 87.3062 200.411 87.9472 201.369 88.2998C202.328 88.6524 203.072 90.3833 203.443 91.8293C203.903 93.6259 203.903 95.7657 203.903 98.622C203.903 101.478 202.992 107.097 202.992 107.097C202.992 107.097 202.593 109.644 201.338 110.482C200.083 111.32 198.961 110.453 199.404 109.212C199.848 107.972 199.846 107.207 199.846 107.207C199.846 107.207 199.416 108.379 199.474 107.612C199.532 106.846 201.071 105.326 201.071 105.326C201.071 105.326 200.363 99.8634 200.742 98.6046C200.742 98.6046 199.413 96.5531 200.078 92.8533" stroke="#1C1F34" stroke-width="0.830603" stroke-linecap="round" stroke-linejoin="round"/>
<path d="M197.31 87.0592C197.31 87.0592 196.906 86.3339 196.906 85.4585" stroke="#1C1F34" stroke-width="0.830603" stroke-linecap="round" stroke-linejoin="round"/>
<path d="M182.78 92.6416C182.78 92.6416 184.575 89.7812 186.755 89.0899C187.655 88.2487 187.563 88.1362 188.841 87.6149C190.51 86.9339 192.381 87.0591 192.381 87.0591" stroke="#1C1F34" stroke-width="0.830603" stroke-linecap="round" stroke-linejoin="round"/>
<path d="M191.856 87.0592C191.856 87.0592 192.259 86.3339 192.259 85.4585" stroke="#1C1F34" stroke-width="0.830603" stroke-linecap="round" stroke-linejoin="round"/>
<path d="M196.776 85.0692C197.118 84.8425 197.437 84.5046 197.646 84.0013C197.728 83.8038 197.916 82.8367 198.062 81.8252" stroke="#1C1F34" stroke-width="0.996723" stroke-linecap="round" stroke-linejoin="round"/>
<path d="M192.273 85.0684C191.932 84.8415 191.613 84.5033 191.405 83.9995C191.323 83.8022 191.142 82.7827 190.999 81.7554" stroke="#1C1F34" stroke-width="0.996723" stroke-linecap="round" stroke-linejoin="round"/>
<ellipse cx="194.547" cy="81.6916" rx="3.42511" ry="3.83271" fill="#634739"/>
<ellipse cx="0.496643" cy="1.00381" rx="0.496643" ry="1.00381" transform="matrix(-0.990055 0.140678 0.137684 0.990476 190.89 80.6943)" stroke="#1C1F34" stroke-width="0.830603" stroke-linecap="round" stroke-linejoin="round"/>
<ellipse cx="0.66219" cy="1.00381" rx="0.66219" ry="1.00381" transform="matrix(-0.990055 0.140678 0.137684 0.990476 191.544 80.6003)" fill="#634739"/>
<ellipse cx="0.496642" cy="1.00381" rx="0.496642" ry="1.00381" transform="matrix(0.990055 0.140678 -0.137684 0.990476 198.12 80.6941)" stroke="#1C1F34" stroke-width="0.830603" stroke-linecap="round" stroke-linejoin="round"/>
<ellipse cx="0.66219" cy="1.00381" rx="0.66219" ry="1.00381" transform="matrix(0.990056 0.140677 -0.137684 0.990476 197.466 80.6001)" fill="#634739"/>
<path fill-rule="evenodd" clip-rule="evenodd" d="M191.086 78.0858C191.415 77.3509 192.16 76.7705 192.16 76.7705C192.16 76.7705 192.677 77.6879 192.431 77.9165C192.283 78.0542 191.713 78.7227 191.619 79.1187C191.368 80.1772 191.457 81.4132 191.433 81.7352C191.409 82.0572 191.355 82.1014 191.248 81.7352C191.186 81.5262 191.129 81.4531 191.086 80.8304C191.063 80.5014 190.845 80.5459 190.84 80.1944C190.834 79.791 190.756 78.8206 191.086 78.0858Z" fill="#1C1F34"/>
<path fill-rule="evenodd" clip-rule="evenodd" d="M197.946 78.0858C197.616 77.3509 196.872 76.7705 196.872 76.7705C196.872 76.7705 196.354 77.6879 196.601 77.9165C196.749 78.0542 197.318 78.7227 197.413 79.1187C197.664 80.1772 197.575 81.4132 197.599 81.7352C197.623 82.0572 197.677 82.1014 197.784 81.7352C197.845 81.5262 197.903 81.4531 197.946 80.8304C197.969 80.5014 198.186 80.5459 198.192 80.1944C198.198 79.791 198.276 78.8206 197.946 78.0858Z" fill="#1C1F34"/>
<path d="M193.346 83.718C193.346 83.718 193.957 84.5676 195.68 83.9649" stroke="#1C1F34" stroke-width="0.498361" stroke-linecap="round" stroke-linejoin="round"/>
<path opacity="0.2" d="M195.532 85.3926C194.352 85.8309 194.937 85.8084 193.776 85.5001" stroke="#1C1F34" stroke-width="0.332241" stroke-linecap="round" stroke-linejoin="round"/>
<path fill-rule="evenodd" clip-rule="evenodd" d="M198.63 79.5304C198.63 78.5236 198.63 75.353 194.664 75.353C190.698 75.353 190.533 78.2066 190.533 79.4128C190.533 80.0153 192.552 79.2924 194.573 79.2975C196.6 79.3027 198.63 80.0344 198.63 79.5304Z" fill="#434D9E" stroke="#1C1F34" stroke-width="0.830603"/>
<rect x="193.677" y="76.6904" width="1.98614" height="1.00402" rx="0.332241" fill="white"/>
<path opacity="0.3" fill-rule="evenodd" clip-rule="evenodd" d="M198.399 80.3335C198.399 80.7472 196.435 80.0163 194.502 80.0249C192.57 80.0335 190.533 80.8172 190.533 80.3685C190.533 79.9198 192.578 79.3767 194.502 79.3681C196.427 79.3596 198.399 79.9198 198.399 80.3335Z" fill="#1C1F34" stroke="#1C1F34" stroke-width="0.498361"/>
<path fill-rule="evenodd" clip-rule="evenodd" d="M199.06 79.9483C199.06 80.4835 196.848 79.5379 194.672 79.549C192.495 79.5602 190.201 80.5741 190.201 79.9935C190.201 79.413 192.504 78.3757 194.672 78.3646C196.839 78.3535 199.06 79.413 199.06 79.9483Z" fill="#434D9E" stroke="#1C1F34" stroke-width="0.498361"/>
<ellipse cx="194.671" cy="74.9509" rx="0.662048" ry="0.334675" fill="#1C1F34"/>
<path fill-rule="evenodd" clip-rule="evenodd" d="M217.134 84.1082C217.134 84.1082 218.337 84.6803 219.588 84.6803C220.838 84.6803 221.681 83.9353 221.681 83.9353L221.845 85.9815V87.7448H216.937V85.9815L217.134 84.1082Z" fill="#C99073"/>
<path fill-rule="evenodd" clip-rule="evenodd" d="M215.273 104.818H223.544L223.891 108.708L224.329 113.58L225.43 126.697C225.43 126.697 227.065 126.402 227.065 128.399H222.768L221.329 117.477L219.314 110.539L217.5 117.381L216.049 128.399H211.911C211.911 128.399 211.656 126.697 213.203 126.697C213.203 126.697 213.781 120.088 214.012 116.609C214.171 114.225 214.726 109.229 214.726 109.229L215.273 104.818Z" fill="#282E53"/>
<path fill-rule="evenodd" clip-rule="evenodd" d="M227.486 89.736C227.486 89.736 226.332 87.5488 223.974 87.5488L221.846 87.0591C221.846 87.0591 220.876 87.5204 219.409 87.5488C217.941 87.5204 216.972 87.0591 216.972 87.0591L214.602 87.5488C212.726 88.3589 212.002 89.0851 212.002 89.0851C212.002 89.0851 211.452 90.298 210.931 90.6787C210.533 90.9692 210.111 94.2461 210.111 94.2461C210.457 97.1167 216.167 95.6949 214.16 95.3929L213.791 93.3404L214.843 98.9443L215.113 104.895C215.113 104.895 215.47 106.124 219.409 106.124C223.348 106.124 223.704 104.895 223.704 104.895L223.974 98.9443L224.73 93.8005V95.204C224.73 95.204 228.568 96.9562 228.568 94.2461L227.486 89.736Z" fill="#434D9E"/>
<path fill-rule="evenodd" clip-rule="evenodd" d="M225.759 103.007C225.759 103.007 225.956 100.383 226.327 99.1644C226.327 99.1644 224.731 98.3145 224.774 94.9667C226.115 95.0541 227.446 94.8774 228.531 94.0732C228.658 94.7921 229.144 95.4069 229.142 96.0022C229.136 97.2714 229.515 98.2371 229.4 99.1813C229.082 101.778 227.639 104.722 227.639 104.722C227.639 104.722 227.248 107.189 226.02 108C224.791 108.812 223.693 107.972 224.127 106.77C224.561 105.569 224.56 104.828 224.56 104.828C224.56 104.828 224.139 105.963 224.195 105.221C224.252 104.479 225.759 103.007 225.759 103.007Z" fill="#C99073"/>
<path fill-rule="evenodd" clip-rule="evenodd" d="M216.6 92.7326C216.484 92.7326 216.414 92.6886 216.414 92.5515V90.5744C216.414 90.5301 216.378 90.498 216.338 90.5048C216.216 90.5257 215.983 90.5651 215.882 90.5822L215.834 90.5903C215.807 90.5948 215.779 90.6201 215.779 90.6572L215.779 92.6311C215.779 93.2331 216.196 93.2901 216.431 93.2901C216.58 93.2901 216.684 93.2682 216.74 93.2522C216.773 93.243 216.789 93.2149 216.789 93.1854V92.7908C216.789 92.7549 216.759 92.7136 216.713 92.7223C216.683 92.728 216.644 92.7326 216.6 92.7326ZM222.647 91.0993C222.856 91.0786 222.991 91.0375 223.064 91.0136C223.109 90.9991 223.141 91.0313 223.149 91.0634L223.157 91.0939L223.157 91.0939L223.157 91.0939C223.174 91.156 223.213 91.2961 223.233 91.3816C223.242 91.4219 223.218 91.4514 223.191 91.464C223.152 91.4823 223.096 91.5006 223.03 91.5193C223.103 91.6502 223.129 91.7901 223.129 91.903C223.129 92.2244 222.939 92.661 222.238 92.661H222.174C222.027 92.661 221.903 92.6418 221.798 92.6086C221.772 92.6344 221.752 92.6698 221.752 92.7183C221.752 92.8033 221.818 92.8653 221.886 92.8653L222.433 92.8653C222.819 92.8653 223.156 93.0687 223.156 93.6056C223.156 94.1095 222.765 94.3125 222.206 94.3125C221.61 94.3125 221.257 94.1251 221.257 93.6357C221.257 93.3779 221.421 93.1685 221.421 93.1685C221.421 93.1685 221.269 93.0357 221.269 92.7766C221.269 92.5784 221.366 92.4428 221.437 92.3698C221.323 92.2261 221.282 92.0522 221.282 91.903C221.282 91.6014 221.474 91.107 222.206 91.1059L222.214 91.1061C222.262 91.1075 222.495 91.1143 222.647 91.0993ZM222.216 91.5025C222.058 91.5035 221.913 91.6377 221.913 91.8843C221.913 92.1141 222.031 92.2636 222.206 92.2644C222.381 92.2636 222.499 92.1141 222.499 91.8843C222.499 91.6377 222.375 91.5035 222.216 91.5025ZM222.594 93.5861C222.594 93.4455 222.519 93.3347 222.361 93.3347C222.093 93.3347 221.941 93.335 221.941 93.335C221.941 93.335 221.841 93.4341 221.841 93.6162C221.841 93.7276 221.902 93.8554 222.223 93.8554C222.533 93.8554 222.594 93.7134 222.594 93.5861ZM220.519 91.0993C220.729 91.0787 220.864 91.0375 220.937 91.0136C220.981 90.9991 221.013 91.0313 221.021 91.0634L221.029 91.0939L221.029 91.0939C221.046 91.156 221.085 91.2961 221.105 91.3817C221.115 91.4219 221.09 91.4514 221.063 91.464C221.025 91.4823 220.968 91.5007 220.903 91.5193C220.975 91.6503 221.002 91.7902 221.002 91.903C221.002 92.2244 220.811 92.661 220.11 92.661H220.046C219.899 92.661 219.775 92.6418 219.67 92.6087C219.644 92.6344 219.624 92.6698 219.624 92.7183C219.624 92.8033 219.691 92.8653 219.758 92.8653L220.305 92.8654C220.691 92.8654 221.028 93.0687 221.028 93.6056C221.028 94.1095 220.637 94.3126 220.078 94.3126C219.483 94.3126 219.129 94.1252 219.129 93.6357C219.129 93.3779 219.293 93.1685 219.293 93.1685C219.293 93.1685 219.141 93.0357 219.141 92.7767C219.141 92.5785 219.238 92.4428 219.31 92.3698C219.195 92.2262 219.154 92.0522 219.154 91.903C219.154 91.6014 219.347 91.107 220.078 91.1059L220.087 91.1061C220.135 91.1075 220.367 91.1143 220.519 91.0993ZM219.784 91.8843C219.784 91.6377 219.929 91.5035 220.088 91.5025C220.247 91.5035 220.37 91.6377 220.37 91.8843C220.37 92.1141 220.252 92.2636 220.077 92.2644C219.902 92.2636 219.784 92.1141 219.784 91.8843ZM220.465 93.5867C220.465 93.4461 220.39 93.3353 220.233 93.3353C219.964 93.3353 219.812 93.3356 219.812 93.3356C219.812 93.3356 219.713 93.4347 219.713 93.6168C219.713 93.7282 219.774 93.856 220.095 93.856C220.404 93.856 220.465 93.714 220.465 93.5867ZM218.195 91.2121C218.195 91.1815 218.221 91.1465 218.26 91.1465H218.765C218.802 91.1465 218.83 91.1784 218.83 91.2134V93.1818C218.83 93.2342 218.789 93.2528 218.766 93.2528H218.338C218.3 93.2528 218.28 93.2219 218.276 93.2031C218.272 93.1894 218.231 93.0382 218.209 92.9566C218.07 93.096 217.828 93.2912 217.551 93.2912C217.114 93.2912 217.022 92.9627 217.022 92.6239V91.2147C217.022 91.1729 217.056 91.1465 217.085 91.1465H217.59C217.627 91.1465 217.657 91.1765 217.657 91.2157V92.5112C217.657 92.669 217.707 92.728 217.82 92.728C217.998 92.728 218.149 92.568 218.195 92.5138L218.195 91.2121Z" fill="white"/>
<path fill-rule="evenodd" clip-rule="evenodd" d="M219.415 84.1567C222.892 84.1567 222.829 82.2975 223.102 79.5376C223.375 76.7777 221.964 75.7014 219.415 75.7014C216.866 75.7014 215.342 76.9089 215.6 79.5376C215.858 82.1663 215.938 84.1567 219.415 84.1567Z" fill="#74605F" stroke="#1C1F34" stroke-width="0.834755"/>
<path d="M219.408 110.443L221.316 117.38L222.767 128.398H226.744C226.744 128.398 226.941 126.546 225.466 126.712L224.051 109.369L223.57 105.31L223.973 98.4957C223.973 98.4957 224.848 94.0353 224.848 91.3069" stroke="#1C1F34" stroke-width="0.830603" stroke-linecap="round" stroke-linejoin="round"/>
<path d="M223.706 127.226C224.161 126.927 225.214 126.734 226.464 127.226" stroke="#1C1F34" stroke-width="0.498361" stroke-linecap="round" stroke-linejoin="round"/>
<path d="M219.257 110.443L217.348 117.38L215.897 128.398H211.92C211.92 128.398 211.723 126.546 213.199 126.712L214.614 109.369L215.094 105.31L214.691 98.4957C214.691 98.4957 213.816 94.0353 213.816 91.3069" stroke="#1C1F34" stroke-width="0.830603" stroke-linecap="round" stroke-linejoin="round"/>
<path d="M214.959 127.226C214.504 126.927 213.451 126.734 212.2 127.226" stroke="#1C1F34" stroke-width="0.498361" stroke-linecap="round" stroke-linejoin="round"/>
<path d="M217.969 110.109H220.848" stroke="#1C1F34" stroke-width="0.500853" stroke-linecap="round" stroke-linejoin="round"/>
<path d="M221.644 87.3066C223.887 87.3066 225.113 87.9477 226.052 88.3003C226.99 88.6529 227.719 90.3838 228.081 91.8298C228.532 93.6264 229.401 95.7662 229.401 98.6225C229.401 101.479 227.64 104.431 227.64 104.431C227.64 104.431 227.249 106.978 226.021 107.816C224.792 108.654 223.694 107.787 224.128 106.546C224.562 105.306 224.561 104.541 224.561 104.541C224.561 104.541 224.14 105.713 224.197 104.947C224.253 104.18 225.76 102.661 225.76 102.661C225.76 102.661 225.936 99.8639 226.307 98.6051C226.307 98.6051 224.137 96.5536 224.788 92.8538" stroke="#1C1F34" stroke-width="0.830603" stroke-linecap="round" stroke-linejoin="round"/>
<path fill-rule="evenodd" clip-rule="evenodd" d="M212.905 103.007C212.905 103.007 212.709 100.383 212.338 99.1644C212.338 99.1644 213.934 98.3145 213.89 94.9667C212.55 95.0541 211.219 94.8774 210.134 94.0732C210.006 94.7921 209.52 95.4069 209.523 96.0022C209.529 97.2714 209.149 98.2371 209.265 99.1813C209.583 101.778 211.026 104.722 211.026 104.722C211.026 104.722 211.416 107.189 212.645 108C213.874 108.812 214.972 107.972 214.538 106.77C214.103 105.569 214.105 104.828 214.105 104.828C214.105 104.828 214.526 105.963 214.469 105.221C214.413 104.479 212.905 103.007 212.905 103.007Z" fill="#C99073"/>
<path d="M217.023 87.3062C214.779 87.3062 213.553 87.9472 212.615 88.2998C211.676 88.6524 210.948 90.3833 210.585 91.8293C210.135 93.6259 209.266 95.7657 209.266 98.622C209.266 101.478 211.026 104.431 211.026 104.431C211.026 104.431 211.417 106.978 212.646 107.816C213.874 108.654 214.972 107.787 214.538 106.546C214.104 105.305 214.106 104.54 214.106 104.54C214.106 104.54 214.527 105.713 214.47 104.946C214.413 104.179 212.906 102.66 212.906 102.66C212.906 102.66 212.731 99.8634 212.36 98.6046C212.36 98.6046 214.529 96.5531 213.879 92.8533" stroke="#1C1F34" stroke-width="0.830603" stroke-linecap="round" stroke-linejoin="round"/>
<path d="M222.077 87.0585C222.077 87.0585 221.683 86.3331 221.683 85.4578" stroke="#1C1F34" stroke-width="0.830603" stroke-linecap="round" stroke-linejoin="round"/>
<path d="M216.741 87.0585C216.741 87.0585 217.135 86.3331 217.135 85.4578" stroke="#1C1F34" stroke-width="0.830603" stroke-linecap="round" stroke-linejoin="round"/>
<path d="M221.554 85.0697C221.888 84.843 222.201 84.5051 222.406 84.0017C222.486 83.8043 222.669 82.8372 222.812 81.8257" stroke="#1C1F34" stroke-width="0.830603" stroke-linecap="round" stroke-linejoin="round"/>
<path d="M217.147 85.0684C216.814 84.8415 216.502 84.5033 216.298 83.9995C216.218 83.8022 216.04 82.7827 215.901 81.7554" stroke="#1C1F34" stroke-width="0.830603" stroke-linecap="round" stroke-linejoin="round"/>
<ellipse cx="219.373" cy="81.6916" rx="3.35255" ry="3.83271" fill="#C99073"/>
<ellipse cx="0.48612" cy="1.00381" rx="0.48612" ry="1.00381" transform="matrix(-0.990056 0.140677 0.137685 0.990476 215.789 80.6929)" stroke="#1C1F34" stroke-width="0.830603" stroke-linecap="round" stroke-linejoin="round"/>
<ellipse cx="0.648161" cy="1.00381" rx="0.648161" ry="1.00381" transform="matrix(-0.990055 0.140679 0.137683 0.990476 216.43 80.6021)" fill="#C99073"/>
<ellipse cx="0.48612" cy="1.00381" rx="0.48612" ry="1.00381" transform="matrix(0.990055 0.140677 -0.137684 0.990476 222.876 80.6926)" stroke="#1C1F34" stroke-width="0.830603" stroke-linecap="round" stroke-linejoin="round"/>
<ellipse cx="0.648161" cy="1.00381" rx="0.648161" ry="1.00381" transform="matrix(0.990055 0.140679 -0.137683 0.990476 222.234 80.6018)" fill="#C99073"/>
<path fill-rule="evenodd" clip-rule="evenodd" d="M215.984 78.0862C216.307 77.3514 217.036 76.771 217.036 76.771C217.036 76.771 217.542 77.6884 217.301 77.917C217.156 78.0547 216.599 78.7232 216.507 79.1192C216.26 80.1777 216.348 81.4137 216.324 81.7357C216.301 82.0577 216.248 82.1019 216.143 81.7357C216.083 81.5267 216.027 81.4536 215.984 80.8309C215.962 80.5019 215.749 80.5464 215.744 80.1949C215.738 79.7915 215.662 78.8211 215.984 78.0862Z" fill="#74605F"/>
<path fill-rule="evenodd" clip-rule="evenodd" d="M222.7 78.0862C222.377 77.3514 221.648 76.771 221.648 76.771C221.648 76.771 221.142 77.6884 221.383 77.917C221.528 78.0547 222.085 78.7232 222.177 79.1192C222.424 80.1777 222.336 81.4137 222.36 81.7357C222.383 82.0577 222.436 82.1019 222.541 81.7357C222.601 81.5267 222.657 81.4536 222.7 80.8309C222.722 80.5019 222.935 80.5464 222.94 80.1949C222.946 79.7915 223.022 78.8211 222.7 78.0862Z" fill="#74605F"/>
<path d="M218.199 83.7183C218.199 83.7183 218.797 84.5679 220.484 83.9651" stroke="#1C1F34" stroke-width="0.498361" stroke-linecap="round" stroke-linejoin="round"/>
<path opacity="0.2" d="M220.338 85.3928C219.183 85.8312 219.756 85.8086 218.62 85.5004" stroke="#1C1F34" stroke-width="0.332241" stroke-linecap="round" stroke-linejoin="round"/>
<path fill-rule="evenodd" clip-rule="evenodd" d="M223.369 79.5306C223.369 78.5238 223.369 75.3533 219.488 75.3533C215.606 75.3533 215.444 78.2069 215.444 79.4131C215.444 80.0155 217.42 79.2926 219.399 79.2978C221.383 79.3029 223.369 80.0347 223.369 79.5306Z" fill="#434D9E" stroke="#1C1F34" stroke-width="0.830603"/>
<rect x="218.521" y="76.6907" width="1.94406" height="1.00402" rx="0.333902" fill="white"/>
<path opacity="0.3" fill-rule="evenodd" clip-rule="evenodd" d="M223.143 80.3337C223.143 80.7474 221.221 80.0166 219.329 80.0252C217.438 80.0338 215.444 80.8174 215.444 80.3687C215.444 79.92 217.445 79.3769 219.329 79.3684C221.213 79.3598 223.143 79.92 223.143 80.3337Z" fill="#1C1F34" stroke="#1C1F34" stroke-width="0.500853"/>
<path fill-rule="evenodd" clip-rule="evenodd" d="M223.79 79.9487C223.79 80.484 221.625 79.5384 219.495 79.5495C217.365 79.5607 215.119 80.5746 215.119 79.994C215.119 79.4135 217.373 78.3761 219.495 78.3651C221.617 78.354 223.79 79.4135 223.79 79.9487Z" fill="#434D9E" stroke="#1C1F34" stroke-width="0.498361"/>
<ellipse cx="219.493" cy="74.9511" rx="0.648021" ry="0.334675" fill="#1C1F34"/>
<path fill-rule="evenodd" clip-rule="evenodd" d="M213.128 106.374H225.721V93.1885H213.128V106.374Z" fill="#E1BFAF"/>
<path fill-rule="evenodd" clip-rule="evenodd" d="M218.116 93.2451V94.6717V95.0934V95.3667L218.333 95.7246L218.551 95.3667L218.769 95.7246L218.986 95.3667L219.204 95.7246L219.422 95.3667L219.639 95.7246L219.857 95.3667L220.075 95.7246L220.294 95.3667L220.513 95.7246L220.732 95.3667V95.0934V94.571V93.2451H218.116Z" fill="white"/>
<path fill-rule="evenodd" clip-rule="evenodd" d="M213.128 106.374H225.721V93.1885H213.128V106.374Z" stroke="#1C1F34" stroke-width="0.830603" stroke-linecap="round" stroke-linejoin="round"/>
<path opacity="0.3" fill-rule="evenodd" clip-rule="evenodd" d="M223.937 101.383L223.345 100.523L222.753 101.383H223.013V104.036H223.677V101.383H223.937Z" fill="#1C1F34"/>
<path opacity="0.3" fill-rule="evenodd" clip-rule="evenodd" d="M222.514 101.383L221.922 100.523L221.331 101.383H221.59V104.036H222.254V101.383H222.514Z" fill="#1C1F34"/>
<path opacity="0.3" fill-rule="evenodd" clip-rule="evenodd" d="M221.217 104.414H224.052V104.034H221.217V104.414Z" fill="#1C1F34"/>
</g>
<defs>
<linearGradient id="paint0_linear_1266_19184" x1="99.5044" y1="57.8524" x2="97.701" y2="108.933" gradientUnits="userSpaceOnUse">
<stop stop-color="white"/>
<stop offset="1" stop-color="#F9F9FC"/>
</linearGradient>
<linearGradient id="paint1_linear_1266_19184" x1="79.6504" y1="101.736" x2="79.7549" y2="95.8135" gradientUnits="userSpaceOnUse">
<stop stop-color="#1C1F34" stop-opacity="0.2"/>
<stop offset="1" stop-color="#1C1F34"/>
</linearGradient>
<linearGradient id="paint2_linear_1266_19184" x1="96.8757" y1="62.7665" x2="95.7603" y2="83.8178" gradientUnits="userSpaceOnUse">
<stop stop-color="#E0E0E0"/>
<stop offset="1" stop-color="#E7E7E8"/>
</linearGradient>
<linearGradient id="paint3_linear_1266_19184" x1="79.0275" y1="83.4798" x2="80.1719" y2="61.8814" gradientUnits="userSpaceOnUse">
<stop stop-opacity="0.2"/>
<stop offset="1"/>
</linearGradient>
<linearGradient id="paint4_linear_1266_19184" x1="79.66" y1="82.9371" x2="80.7414" y2="62.5285" gradientUnits="userSpaceOnUse">
<stop stop-opacity="0.2"/>
<stop offset="1"/>
</linearGradient>
<linearGradient id="paint5_linear_1266_19184" x1="261.288" y1="55.6057" x2="261.288" y2="115.04" gradientUnits="userSpaceOnUse">
<stop stop-color="white"/>
<stop offset="1" stop-color="#F9F9FC"/>
</linearGradient>
<linearGradient id="paint6_linear_1266_19184" x1="233.401" y1="108.484" x2="233.401" y2="89.7423" gradientUnits="userSpaceOnUse">
<stop offset="0.0118583" stop-color="#1C1F34" stop-opacity="0.2"/>
<stop offset="1" stop-color="#1C1F34"/>
</linearGradient>
<linearGradient id="paint7_linear_1266_19184" x1="235.504" y1="63.9446" x2="235.504" y2="83.4562" gradientUnits="userSpaceOnUse">
<stop stop-color="#8388A4"/>
<stop offset="0.986707" stop-color="#A5A9C1"/>
</linearGradient>
<linearGradient id="paint8_linear_1266_19184" x1="265.587" y1="98.9514" x2="265.587" y2="103.073" gradientUnits="userSpaceOnUse">
<stop stop-color="#FFC900"/>
<stop offset="1" stop-color="#FFF15E"/>
</linearGradient>
<linearGradient id="paint9_linear_1266_19184" x1="198.364" y1="62.9692" x2="198.364" y2="88.3825" gradientUnits="userSpaceOnUse">
<stop stop-color="#E0E0E0"/>
<stop offset="1" stop-color="#E7E7E8"/>
</linearGradient>
<linearGradient id="paint10_linear_1266_19184" x1="99.1014" y1="89.043" x2="99.1014" y2="62.9692" gradientUnits="userSpaceOnUse">
<stop stop-opacity="0.2"/>
<stop offset="1"/>
</linearGradient>
<linearGradient id="paint11_linear_1266_19184" x1="99.6613" y1="88.449" x2="99.6613" y2="63.5605" gradientUnits="userSpaceOnUse">
<stop stop-opacity="0.2"/>
<stop offset="1"/>
</linearGradient>
<linearGradient id="paint12_linear_1266_19184" x1="103.497" y1="85.7062" x2="103.497" y2="65.3379" gradientUnits="userSpaceOnUse">
<stop stop-color="white"/>
<stop offset="1" stop-color="#F9F9FC"/>
</linearGradient>
<linearGradient id="paint13_linear_1266_19184" x1="14.8633" y1="14.7435" x2="14.8633" y2="0" gradientUnits="userSpaceOnUse">
<stop stop-color="#A4ACBC"/>
<stop offset="0.9859" stop-color="#B5BBCA"/>
</linearGradient>
<linearGradient id="paint14_linear_1266_19184" x1="14.8633" y1="14.7435" x2="14.8633" y2="0" gradientUnits="userSpaceOnUse">
<stop stop-color="#A4ACBC"/>
<stop offset="0.9859" stop-color="#B5BBCA"/>
</linearGradient>
<clipPath id="clip0_1266_19184">
<rect width="97.9831" height="12.0483" fill="white" transform="translate(99.0054 38.2026)"/>
</clipPath>
<clipPath id="clip1_1266_19184">
<rect width="11.9169" height="47.5238" fill="white" transform="translate(58.6196 59.6211)"/>
</clipPath>
</defs>
</svg>
