<svg fill="none" height="30" viewBox="0 0 76 30" width="76" xmlns="http://www.w3.org/2000/svg" xmlns:xlink="http://www.w3.org/1999/xlink"><linearGradient id="a"><stop offset="0" stop-color="#fff"/><stop offset="1" stop-color="#f9f9fc"/></linearGradient><linearGradient id="b" gradientUnits="userSpaceOnUse" x1="10.6333" x2="9.93182" xlink:href="#a" y1="1.7019" y2="21.5694"/><linearGradient id="c" gradientUnits="userSpaceOnUse" x1="2.912" x2="2.95266" y1="18.7711" y2="16.4674"><stop offset="0" stop-color="#1c1f34" stop-opacity=".2"/><stop offset="1" stop-color="#1c1f34"/></linearGradient><linearGradient id="d"><stop offset="0" stop-color="#e0e0e0"/><stop offset="1" stop-color="#e7e7e8"/></linearGradient><linearGradient id="e" gradientUnits="userSpaceOnUse" x1="9.61185" x2="9.17801" xlink:href="#d" y1="3.61277" y2="11.8006"/><linearGradient id="f"><stop offset="0" stop-opacity=".2"/><stop offset="1"/></linearGradient><linearGradient id="g" gradientUnits="userSpaceOnUse" x1="2.66989" x2="3.115" xlink:href="#f" y1="11.6691" y2="3.26852"/><linearGradient id="h" gradientUnits="userSpaceOnUse" x1="2.91538" x2="3.33597" xlink:href="#f" y1="11.4588" y2="3.52101"/><linearGradient id="i" gradientUnits="userSpaceOnUse" x1="73.5585" x2="73.5585" xlink:href="#a" y1=".828125" y2="23.9448"/><linearGradient id="j" gradientUnits="userSpaceOnUse" x1="62.7119" x2="62.7119" y1="21.3945" y2="14.105"><stop offset=".0118583" stop-color="#1c1f34" stop-opacity=".2"/><stop offset="1" stop-color="#1c1f34"/></linearGradient><linearGradient id="k" gradientUnits="userSpaceOnUse" x1="63.5295" x2="63.5295" y1="4.07031" y2="11.6592"><stop offset="0" stop-color="#8388a4"/><stop offset=".986707" stop-color="#a5a9c1"/></linearGradient><linearGradient id="l" gradientUnits="userSpaceOnUse" x1="75.2314" x2="75.2314" y1="17.6855" y2="19.2886"><stop offset="0" stop-color="#ffc900"/><stop offset="1" stop-color="#fff15e"/></linearGradient><linearGradient id="m" gradientUnits="userSpaceOnUse" x1="49.0848" x2="49.0848" xlink:href="#d" y1="3.69141" y2="13.5757"/><linearGradient id="n" gradientUnits="userSpaceOnUse" x1="10.4773" x2="10.4773" xlink:href="#f" y1="13.8326" y2="3.69141"/><linearGradient id="o" gradientUnits="userSpaceOnUse" x1="10.6952" x2="10.6952" xlink:href="#f" y1="13.6021" y2="3.92188"/><linearGradient id="p" gradientUnits="userSpaceOnUse" x1="12.1871" x2="12.1871" xlink:href="#a" y1="12.5354" y2="4.61328"/><linearGradient id="q" gradientUnits="userSpaceOnUse" x1="5.781" x2="5.781" y1="5.73441" y2="0"><stop offset="0" stop-color="#a4acbc"/><stop offset=".9859" stop-color="#b5bbca"/></linearGradient><mask id="r" height="22" maskUnits="userSpaceOnUse" width="10" x="1" y="1"><path clip-rule="evenodd" d="m10.8249 1.97033c.0066-.1455-.1082-.26785-.2538-.27043l-7.69711-.13613c-.26488-.00468-.48964.18866-.51923.45191-.15707 1.39733-.61804 5.75334-.76335 9.95972-.1463 4.2349.02174 8.48.08296 9.7983.01135.2444.19408.4359.43839.4497.38883.0218 1.10332.0472 2.35782.0524 1.73886.0072 3.98522-.047 4.95185-.0731.26994-.0072.48631-.2217.49867-.4915z" fill="#fff" fill-rule="evenodd"/></mask><mask id="s" height="8" maskUnits="userSpaceOnUse" width="2" x="7" y="10"><path clip-rule="evenodd" d="m8.53734 13.4106c.03105-.8988.2498-3.0516.2498-3.0516.01268-.1272-.0844-.2342-.21587-.2388l-.31835-.0112c-.1319-.0047-.24924.0949-.26216.2246 0 0-.21777 2.1327-.24851 3.0226-.04186 1.2121.0854 3.9519.0854 3.9519.00566.1279.1176.2354.24908.2401l.31834.0112c.1319.0047.23413-.0949.22843-.2244 0 0-.12772-2.7212-.08616-3.9244z" fill="#fff" fill-rule="evenodd"/></mask><mask id="t" height="3" maskUnits="userSpaceOnUse" width="4" x="72" y="17"><path clip-rule="evenodd" d="m75.1485 17.6855h-2.255l.4383 1.6031h1.8996z" fill="#fff" fill-rule="evenodd"/></mask><mask id="u" height="1" maskUnits="userSpaceOnUse" width="2" x="66" y="15"><path clip-rule="evenodd" d="m67.3799 15.251c0-.0674-.0486-.1221-.1115-.1221h-.4521c-.0615 0-.1114.0567-.1114.1221 0 .0675.0485.1222.1114.1222h.4521c.0616 0 .1115-.0567.1115-.1222z" fill="#fff" fill-rule="evenodd"/></mask><rect fill="#1c1f34" height=".520679" rx=".260339" transform="matrix(-1 0 0 1 61.3398 28.9434)" width="47.7222"/><rect fill="#1c1f34" height=".520679" rx=".260339" transform="matrix(-1 0 0 1 12.7266 28.9434)" width="4.40461"/><rect fill="#1c1f34" height=".520679" rx=".260339" transform="matrix(-1 0 0 1 71.5254 28.9434)" width="9.29805"/><g clip-rule="evenodd" fill-rule="evenodd"><path d="m10.3578 1.78021c.0131-.29062-.216-.53504-.50688-.5406l-7.19503-.13769c-.39884-.00763-.73744.28659-.77997.6832-.1774 1.65435-.61054 5.99574-.75557 10.19408-.14646 4.2394-.0045 8.4882.05972 10.0494.01507.3664.2885.6535.65474.6701.41852.0191 1.09208.0376 2.14883.0405 1.73972.0047 3.98751-.0556 4.95352-.0843.26943-.0081.48495-.2224.49715-.4917z" fill="#1c1f34"/><path d="m10.8249 1.97033c.0066-.1455-.1082-.26785-.2538-.27043l-7.69711-.13613c-.26488-.00468-.48964.18866-.51923.45191-.15707 1.39733-.61804 5.75334-.76335 9.95972-.1463 4.2349.02174 8.48.08296 9.7983.01135.2444.19408.4359.43839.4497.38883.0218 1.10332.0472 2.35782.0524 1.73886.0072 3.98522-.047 4.95185-.0731.26994-.0072.48631-.2217.49867-.4915z" fill="url(#b)"/><g mask="url(#r)"><g fill="#1c1f34"><path d="m8.56152 20.0469-6.98505-.1233-.01207.6994 6.98505.1233z"/><path d="m8.56152 20.2812-6.98505-.1232-.04427 2.5644 6.98505.1233z"/><path d="m3.25489 12.7164c-.18877-.0066-.34724.1455-.35389.338l-.06277 1.8173c-.00667.1933.13962.3554.32971.3621.18876.0067.34723-.1454.35388-.338l.06277-1.8173c.00668-.1933-.13962-.3553-.3297-.3621z"/></g><path d="m14.4053 14.7324-13.21582-.4666-.00804.2331 13.21576.4665z" fill="#242d5f" opacity=".1"/><path d="m7.0232 16.9779c.00445-.2575-.19543-.4698-.44676-.4742l-3.19371-.0564c-.25118-.0044-.45838.1989-.46285.4582l-.02416 1.399c-.00444.2574.19544.4697.44676.4742l3.19371.0563c.25119.0045.45838-.1988.46286-.4581z" fill="#fff"/><path d="m7.0232 16.9779c.00445-.2575-.19543-.4698-.44676-.4742l-3.19371-.0564c-.25118-.0044-.45838.1989-.46285.4582l-.02416 1.399c-.00444.2574.19544.4697.44676.4742l3.19371.0563c.25119.0045.45838-.1988.46286-.4581z" fill="url(#c)" fill-opacity=".2"/><path d="m6.57194 17.1672c.0018-.1042-.07884-.1901-.17748-.1919l-2.83001-.0499c-.09981-.0018-.18216.0801-.18398.1854l-.01764 1.0216c-.0018.1041.07884.1901.17748.1918l2.83.0499c.09982.0018.18217-.0801.18399-.1854z" fill="#fff"/><path d="m3.97054 17.5391.00226-.1311.06444.0011c.00613.0001.01204.0012.0177.0031.00567.0019.01065.0053.01496.0101.0043.0048.00769.0114.01018.0198.00248.0084.00361.0192.00339.0322-.00041.0236-.00465.0405-.01272.0509-.00807.0103-.01824.0154-.03052.0151zm-.06452-.2269-.00962.5571.15071.0027c.01394.0002.02756-.0027.04088-.0087s.02525-.0154.03578-.0282c.01054-.0128.01903-.0295.02548-.0499.00645-.0205.00992-.0447.01041-.0728.0006-.0349-.0036-.0647-.01262-.0896-.00901-.0249-.02301-.0424-.042-.0526.01414-.0118.02493-.0269.03237-.0455s.0114-.042.01188-.0701c.00045-.026-.00156-.0479-.00605-.0656-.00449-.0178-.01099-.0321-.01952-.0429s-.01885-.0187-.03096-.0236c-.01212-.0049-.02558-.0074-.04039-.0077zm.06023.4638.00265-.1539.07495.0013c.0149.0003.02678.0067.03562.0191.00885.0125.01302.0331.01253.0619-.00026.0146-.00185.0267-.00479.036-.00294.0094-.00679.0168-.01156.0222s-.01025.0093-.01643.0115c-.00617.0023-.01262.0033-.01934.0032zm.38644-.3067-.00328.1899-.08059-.0014.08256-.1886zm-.00523.2808-.00218.1264.0588.001.00218-.1264.0405.0007.00158-.0912-.0405-.0008.00567-.3284-.05531-.001-.1379.316-.00175.1014zm.22215-.2668c.00021-.0126.00165-.0235.0043-.0329.00266-.0094.00624-.0172.01075-.0234.0045-.0062.00964-.0109.01542-.0142s.01175-.0049.0179-.0048c.00968.0001.01748.0029.0234.0082.00592.0054.0105.012.01374.0199.00323.0079.00536.0162.00639.0249.00102.0086.00147.0166.00134.0239-.0004.0236-.00511.0414-.01412.0536-.00901.0121-.02011.0181-.03331.0179-.01261-.0003-.0235-.0066-.03267-.0191-.00917-.0124-.01355-.0304-.01314-.054zm-.05639-.0119c-.00047.0271.0029.0508.0101.0713.0072.0204.01814.0344.03282.0419l-.00002.0016c-.01843.0074-.03286.0228-.04328.046-.01042.0233-.01593.0523-.01653.0871-.00052.0297.00231.0552.00848.0767.00616.0214.01457.0393.02521.0535.01065.0142.02281.0247.03649.0315.01369.0067.02793.0102.04274.0105.01423.0002.02823-.003.04199-.0098.01377-.0068.02615-.0171.03714-.031.01098-.0138.01993-.0314.02683-.0526s.0106-.0463.01111-.0755c.00059-.0343-.00385-.0634-.01331-.0872-.00946-.0239-.02328-.0396-.04145-.0472l.00003-.0016c.01496-.0085.02632-.0229.03407-.0431.00776-.0201.01187-.0437.01234-.0708.00023-.0135-.00125-.0287-.00444-.0457-.0032-.017-.00866-.0329-.01639-.0479s-.01803-.0278-.03092-.0384-.02877-.0161-.04764-.0165c-.01249-.0002-.02488.0027-.03719.0087-.0123.0061-.02342.0152-.03337.0276-.00994.0123-.01812.0277-.02454.0464-.00643.0186-.00985.0401-.01027.0645zm.04499.244c.00049-.0282.00609-.0496.01683-.0643.01073-.0146.02366-.0218.03879-.0216.00728.0002.01401.0024.02019.0066.00619.0043.01161.0104.01628.0183.00466.0079.00829.0172.01087.028.00258.0107.00376.0226.00353.0356-.00023.0136-.00176.0261-.00458.0375-.00281.0114-.00669.0211-.01163.0291s-.01058.0142-.01691.0185c-.00634.0043-.01329.0064-.02085.0063-.00728-.0002-.01422-.0025-.02084-.0071-.00661-.0045-.01225-.0109-.01692-.019-.00466-.0082-.00834-.018-.01106-.0295-.00271-.0116-.00394-.0244-.0037-.0384zm.44057-.2785.00164-.0952-.20819-.0037-.00178.103.1446.0026c-.03012.0624-.05476.1312-.07392.2063s-.03119.1535-.03608.2351l.0662.0011c.00092-.0364.00399-.0756.00922-.1177.00523-.042.01234-.0835.02132-.1245.00899-.0409.01996-.0795.03293-.1157s.02766-.0666.04406-.0913zm.34326.2468.00598-.3465-.06838-.0012-.00599.3464c-.00071.0417-.00589.0721-.01552.0915-.00963.0193-.02664.0288-.05103.0283-.01394-.0002-.02498-.0039-.03314-.0111-.00815-.0071-.01446-.0164-.01891-.0276-.00445-.0113-.00728-.0242-.00848-.0388s-.00167-.0294-.00141-.0445l.00598-.3464-.06838-.0012-.00598.3464c-.00131.0759.00926.1323.03171.1691.02246.0368.05474.0556.09685.0564.04152.0007.07436-.0171.09852-.0533.02415-.0363.03688-.0921.03818-.1675zm.14151.0285-.06621-.0011c-.00088.0343.00209.064.00892.0891s.01627.0458.02834.0621c.01206.0164.02608.0285.04207.0363.01598.0078.03254.0119.04967.0122.0212.0004.03993-.0037.05619-.0123.01627-.0085.02999-.0207.04115-.0363.01116-.0157.01969-.0344.02558-.0562.0059-.0217.00906-.0453.0095-.0708.00054-.0312-.00272-.0569-.00978-.0771-.00705-.0201-.01556-.0363-.02552-.0484-.00995-.0122-.02004-.0211-.03025-.0267s-.01821-.0096-.02398-.0117c-.0193-.0092-.03492-.0168-.04688-.0227-.01195-.006-.02128-.0118-.02801-.0177-.00672-.0058-.01119-.0122-.0134-.019-.0022-.0068-.00321-.0156-.00302-.0265.00021-.012.00183-.0219.00487-.0296.00303-.0078.00685-.0142.01144-.0193.00459-.0052.00966-.0087.01521-.0107.00556-.002.01109-.0029.01661-.0028.00842.0001.01616.0016.02323.0043s.01331.0073.01872.0136.00969.015.01284.026.00487.0248.00516.0414l.0662.0012c.00056-.0322-.00238-.0597-.00881-.0825-.00643-.0227-.01533-.0415-.02669-.0563-.01137-.0147-.02447-.0255-.03931-.0323-.01484-.0067-.03039-.0103-.04665-.0106-.01394-.0002-.02793.0029-.04199.0095-.01405.0065-.02672.0167-.03799.0305-.01128.0139-.02051.0313-.0277.0522-.00718.0209-.01102.0457-.01152.0743-.00044.0255.00187.0473.00693.0653.00507.0181.01185.0331.02035.0453.00851.0121.01821.022.02911.0297.01091.0078.02212.0143.03365.0198.01122.0059.02231.0113.03326.0162.01096.0048.02073.0105.02934.0169.0086.0064.01551.0143.02072.0237.00521.0095.00768.0218.00742.0369-.00024.014-.00247.0255-.0067.0346-.00422.009-.00942.0161-.01561.0212-.00619.005-.01278.0084-.01978.0101s-.01355.0025-.01965.0024c-.009-.0001-.01768-.0022-.02603-.0063-.00835-.004-.01558-.0101-.02168-.0183-.00611-.0082-.01093-.0188-.01448-.0319s-.00517-.029-.00484-.0477zm.35124-.0243.04428-.2041h.00088l.03589.2055zm.01243-.3422-.12722.555.06882.0013.02653-.1237.11629.0021.02138.1245.07099.0012-.10667-.5591z" fill="#1c1f34"/><g opacity=".5"><path d="m9.62075 5.05484c.04607-.77177-.5263-1.43439-1.28035-1.48013l-3.81598-.23147c-.75319-.04568-1.4012.54376-1.44711 1.31238l-.33125 5.54478c-.04603.7705.52618 1.436 1.27998 1.4866l3.81471.256c.75294.0505 1.4007-.5348 1.44674-1.306z" fill="url(#e)"/><path d="m9.62075 5.05484c.04607-.77177-.5263-1.43439-1.28035-1.48013l-3.81598-.23147c-.75319-.04568-1.4012.54376-1.44711 1.31238l-.33125 5.54478c-.04603.7705.52618 1.436 1.27998 1.4866l3.81471.256c.75294.0505 1.4007-.5348 1.44674-1.306z" fill="url(#g)" fill-opacity=".3"/></g><path d="m9.40151 5.04795c.03828-.64247-.43955-1.19422-1.06927-1.23248l-3.81416-.23179c-.62883-.03821-1.16976.45348-1.20786 1.0925l-.33089 5.54962c-.03826.6416.43943 1.196 1.06893 1.2383l3.81288.2566c.62861.0424 1.16914-.4425 1.20752-1.0866z" fill="#fff"/><path d="m9.40151 5.04795c.03828-.64247-.43955-1.19422-1.06927-1.23248l-3.81416-.23179c-.62883-.03821-1.16976.45348-1.20786 1.0925l-.33089 5.54962c-.03826.6416.43943 1.196 1.06893 1.2383l3.81288.2566c.62861.0424 1.16914-.4425 1.20752-1.0866z" fill="url(#h)" fill-opacity=".05"/><path d="m8.7456 5.02837c.01515-.25607-.17602-.47611-.42656-.49146l-3.82676-.23433c-.25073-.01536-.46633.18068-.4816.43873l-.32871 5.55399c-.01525.2577.17577.4804.42622.4975l3.82539.2607c.25064.0171.46622-.1786.48125-.4327z" fill="#fff"/><path d="m8.97119 22.6996-3.54473.0236s-.21393-3.9853.33432-10.1144c.54826-6.12921 1.57721-11.11529 1.57721-11.11529l2.88931.24937z" fill="#242d5f" opacity=".1"/></g><path d="m8.25648 23.2552s-.64942-2.5317-.64942-7.8381c0-5.3065 1.47597-13.49959 1.47597-13.49959.14382-.88966.97727-1.610869 1.86267-1.610869h41.6573c5.3252 0 15.0624 11.632659 15.0624 11.632659s6.8463 3.1475 7.5563 5.037c.7099 1.8895.4112 6.7606-1.1275 7.8831-.4039.2947-4.954.4365-11.4454.4855-.0086.1178-.1066.2147-.2263.2147h-52.42691c-.12391 0-.22694-.1037-.22694-.2315v-.4944c-.7337-.1844-1.37828-.8252-1.51217-1.5785z" fill="#1c1f34"/><path d="m64.2578 25.5586h-44.8049v1.0414h44.8049z" fill="#1c1f34"/><path d="m8.77312 23.1784s-.65071-2.5168-.65071-7.7922c0-5.2755 1.54365-13.41604 1.54365-13.41604.10836-.63073.70924-1.142035 1.34494-1.142035h41.4863c5.3358 0 14.4045 11.332575 14.4045 11.332575s7.0807 3.0596 7.8006 4.7756c.72 1.7159.4121 6.257-1.1296 7.3729-.7564.5475-16.3303.6845-31.4603.6961-6.4738.005-12.4325.0748-17.8258 0h-14.2296c-.1242 0-.22744-.103-.22744-.2301v-.2047c-.53092-.2847-.95118-.8039-1.05654-1.3921z" fill="url(#i)"/><path d="m74.9479 17.0571s-3.1259-1.9031-4.8067-2.6135c-1.2525-.5294-3.9932-1.106-3.9932-1.106l-.0814.2261s2.7486.58 4.005 1.111c1.6769.7088 4.7949 2.6085 4.7949 2.6085z" fill="#242d5f" opacity=".1"/><path d="m62.6967 15.5077.0132.2584c.0298.5824-.2731 1.3984-.6744 1.8202l-3.0409 3.1961c-.3216.3381-.9606.6121-1.4324.6121h-3.2776c-.4695 0-.8468-.3774-.8426-.8447l.0409-5.5833c.0042-.4665.3871-.8522.8541-.8615l7.6895.7841c.3523-.0069.6523.2701.6702.6186z" fill="#fff"/><path d="m62.6967 15.5077.0132.2584c.0298.5824-.2731 1.3984-.6744 1.8202l-3.0409 3.1961c-.3216.3381-.9606.6121-1.4324.6121h-3.2776c-.4695 0-.8468-.3774-.8426-.8447l.0409-5.5833c.0042-.4665.3871-.8522.8541-.8615l7.6895.7841c.3523-.0069.6523.2701.6702.6186z" fill="url(#j)" fill-opacity=".05"/><path d="m60.3955 19.0509s-8.8886-1.8224-13.3328-1.8224c-12.5748 0-38.42459 0-38.42459 0v.2278h38.30749c4.4052 0 13.2157 1.5946 13.2157 1.5946z" fill="#242d5f" opacity=".1"/><path d="m56.79 3.4306s-1.4915-1.30169-5.5573-1.30169c-11.5036 0-42.08006 0-42.08006 0v.21695h42.20196c4.03 0 4.9775.86779 4.9775.86779z" fill="#242d5f" opacity=".1"/><path d="m50.8682 2.12891h-15.1925v.1832h15.1925z" fill="#242d5f" opacity=".1"/><path d="m58.5918 21.1348h-36.0499v1.0413h36.0499z" fill="#000" opacity=".2"/><path d="m62.4541 20.0918h-42.7449v3.1241h42.7449z" fill="#1c1f34"/><path d="m51.2158 2.12891h-.4576v23.06009h.4576z" fill="#1c1f34"/><path d="m47.6701 15.1719c-.1903 0-.3446.1551-.3446.3494 0 .1929.1548.3494.3446.3494h1.37c.1903 0 .3447-.1551.3447-.3494 0-.193-.1548-.3494-.3447-.3494z" fill="#1c1f34"/><path d="m64.6249 17.9856c2.3731-1.9364 1.4653-6.2736 1.4653-6.2736l-.3845-.4991s.8841 4.4303-1.2588 6.4643c-2.3395 2.0092-3.1633 7.5115-3.1633 7.5115h.3845s1.0186-5.302 2.9568-7.2031z" fill="#1c1f34"/><path d="m52.9328 15.1719c-.1903 0-.3446.1551-.3446.3494 0 .1929.1547.3494.3446.3494h1.37c.1903 0 .3447-.1551.3447-.3494 0-.193-.1548-.3494-.3447-.3494z" fill="#1c1f34"/><path d="m63.8179 13.5104c1.1306.1321 1.5379-.5436.8867-1.491 0 0-.6502-1.1844-2.8097-3.53501-2.1596-2.35062-3.3897-3.60266-3.3897-3.60266-.4425-.45777-1.3126-.8767-1.9396-.93536l-3.0259-.28311c-.8821-.08253-1.5069.57296-1.3949 1.46829l.6877 5.50125c.1117.8935.915 1.701 1.7948 1.8038z" fill="#1c1f34"/><path d="m64.0067 12.961c.3762.0431.5075-.1789.2918-.498l-1.0852-1.6055c-.3582-.53-.9993-1.34211-1.4279-1.80961l-3.5841-3.90947c-.3447-.37597-1.0337-.7177-1.5355-.76297l-3.3417-.30143c-.5034-.04541-.8592.33181-.7948.84129l.7458 5.90479c.0644.51.5253.9704 1.0267 1.0279z" fill="url(#k)"/><path d="m53.5964 7.23342c-.0145-.24649-.2241-.44631-.4687-.44631h.1318c-.2443 0-.4424.20105-.4424.44631v1.66961c0 .24649.1961.44631.4412.44631h.0212c.2437 0 .4294-.20106.415-.44631z" fill="#1c1f34"/><path d="m53.5023 10.0488h-.2266c-.2533 0-.4026.2-.3325.4499l.789 1.4136h.9153l-.5255-1.4266c-.0889-.2413-.3655-.4369-.6197-.4369z" fill="#1c1f34"/><path d="m60.2869 12.7419c-.0919.1688-.2998-.0049-.4656-.0985-.167-.0942-.2261-.0725-.1348-.2403l1.1113-2.0408c.0919-.1688.2998-.2279.4656-.1344.1669.0942.2261.3054.1347.4732l-.6041 1.1095.7529.6235-.3333.5648-.8645-.3712z" fill="#1c1f34"/><path d="m64.7158 12.4439-1.3018-2.1919-3.4616 2.6247 4.5346.4329z" fill="#1c1f34"/><path d="m64.2504 12.5964c.0691-.7564-.3705-2.054-.3705-2.054-.0791-.2579-.3615-.5336-.6306-.61554l-.2953-.08996c-.2691-.08203-.5071.0676-.5318.3375l-.3571 3.9109c-.0246.2684.1841.5052.464.5287l.51.0427c.2808.0235.5918-.1626.691-.4135 0 0 .472-1.1177.5203-1.6468z" fill="#242d5f" opacity=".1"/><path d="m64.2502 12.1425c.0556-.6462-.2124-1.6917-.2124-1.6917-.0568-.2505-.2956-.52518-.5326-.61315l.0099.0037c-.2373-.08811-.4475.04736-.4695.30285l-.2791 3.2473c-.0219.2554.1629.4805.416.5031l.114.0101c.2517.0224.522-.159.6005-.4025 0 0 .3144-.9076.3532-1.3597z" fill="#1c1f34"/><g fill="#fff" opacity=".1"><path d="m60.2663 9.176-2.6498-3.21476c-.0806-.09774-.2237-.11052-.3212-.02725-.0968.08269-.1083.23097-.0294.3267l2.6498 3.21476c.0806.09773.2237.11051.3212.02724.0968-.08269.1083-.23096.0294-.32669z"/><path d="m58.2652 8.2628c.0484-.04134.0537-.11604.0141-.16416l-1.0295-1.24888c-.0406-.04932-.1142-.05457-.1612-.01443-.0484.04134-.0537.11604-.014.16415l1.0294 1.24889c.0406.04931.1142.05457.1612.01443z"/></g><path d="m8.94807 13.3698c.03492-1.011.22055-3.0138.22055-3.0138.03406-.38296-.25868-.70471-.65705-.71878l-.10863-.00383c-.39693-.01402-.74684.28559-.78085.67031 0 0-.18448 1.9808-.21906 2.9821-.0471 1.3635.11104 3.9998.11104 3.9998.02091.3832.3582.7052.75657.7192l.10863.0039c.39693.014.70104-.286.68027-.673 0 0-.15823-2.6122-.11147-3.9659z" fill="#1c1f34"/><path d="m8.53734 13.4106c.03105-.8988.2498-3.0516.2498-3.0516.01268-.1272-.0844-.2342-.21587-.2388l-.31835-.0112c-.1319-.0047-.24924.0949-.26216.2246 0 0-.21777 2.1327-.24851 3.0226-.04186 1.2121.0854 3.9519.0854 3.9519.00566.1279.1176.2354.24908.2401l.31834.0112c.1319.0047.23413-.0949.22843-.2244 0 0-.12772-2.7212-.08616-3.9244z" fill="#c10000"/></g><g mask="url(#s)"><path clip-rule="evenodd" d="m8.03468 14.5208-.30436.0054.06885 2.7896.35837-.0064z" fill="#fff" fill-rule="evenodd" opacity=".4"/></g><path clip-rule="evenodd" d="m75.1608 17.2285h-2.2946c-.252 0-.4087.1977-.3493.4446l.3924 1.6299c.0591.2455.3132.4446.5647.4446h1.7123c.2528 0 .4743-.2062.4944-.4562l-.1002-1.6067c.0202-.2519-.1681-.4562-.4197-.4562z" fill="#1c1f34" fill-rule="evenodd"/><path clip-rule="evenodd" d="m75.1485 17.6855h-2.255l.4383 1.6031h1.8996z" fill="url(#l)" fill-rule="evenodd"/><g mask="url(#t)"><ellipse cx=".303222" cy=".539782" fill="#fff" rx=".303222" ry=".539782" transform="matrix(-.998599 .0529119 .0517662 .998659 75.1943 17.9355)"/><path clip-rule="evenodd" d="m73.4481 17.2285h-.864v2.3391h1.3221z" fill="#f00" fill-rule="evenodd" opacity=".2"/></g><path clip-rule="evenodd" d="m67.6055 15.2512c0-.2024-.1518-.3664-.3376-.3664h-.4499c-.1864 0-.3375.1626-.3375.3664 0 .2023.1517.3664.3375.3664h.4499c.1865 0 .3376-.1627.3376-.3664z" fill="#1c1f34" fill-rule="evenodd"/><path clip-rule="evenodd" d="m67.3799 15.251c0-.0674-.0486-.1221-.1115-.1221h-.4521c-.0615 0-.1114.0567-.1114.1221 0 .0675.0485.1222.1114.1222h.4521c.0616 0 .1115-.0567.1115-.1222z" fill="#f5a623" fill-rule="evenodd"/><g mask="url(#u)"><path clip-rule="evenodd" d="m67.6055 15.1289h-.45v.2443h.45z" fill="#fff" fill-rule="evenodd"/></g><g clip-rule="evenodd" fill-rule="evenodd" opacity=".5"><path d="m47.2847 3.69141h-33.775c-1.2677 0-2.3907 1.0282-2.508 2.29486l-.5144 5.55153c-.1175 1.2674.8147 2.2948 2.0825 2.2948h34.7151c1.2676 0 2.2952-1.0329 2.2952-2.3043v-5.53252c0-1.27267-1.0268-2.30437-2.2954-2.30437z" fill="url(#m)"/><path d="m47.2847 3.69141h-33.775c-1.2677 0-2.3907 1.0282-2.508 2.29486l-.5144 5.55153c-.1175 1.2674.8147 2.2948 2.0825 2.2948h34.7151c1.2676 0 2.2952-1.0329 2.2952-2.3043v-5.53252c0-1.27267-1.0268-2.30437-2.2954-2.30437z" fill="url(#n)" fill-opacity=".3"/></g><path clip-rule="evenodd" d="m47.2839 3.92188h-33.782c-1.1414 0-2.1553.92379-2.2647 2.06477l-.5324 5.55065c-.1094 1.1404.7257 2.0648 1.8691 2.0648h34.7095c1.1417 0 2.0672-.9282 2.0672-2.0737v-5.53284c0-1.14527-.9243-2.07368-2.0667-2.07368z" fill="#fff" fill-rule="evenodd"/><path clip-rule="evenodd" d="m47.2839 3.92188h-33.782c-1.1414 0-2.1553.92379-2.2647 2.06477l-.5324 5.55065c-.1094 1.1404.7257 2.0648 1.8691 2.0648h34.7095c1.1417 0 2.0672-.9282 2.0672-2.0737v-5.53284c0-1.14527-.9243-2.07368-2.0667-2.07368z" fill="url(#o)" fill-opacity=".05" fill-rule="evenodd"/><path clip-rule="evenodd" d="m47.284 4.61328h-33.808c-.7611 0-1.4446.61687-1.5263 1.3748l-.5983 5.54772c-.0818.7593.4666 1.3748 1.2309 1.3748h34.7007c.7617 0 1.3791-.6168 1.3791-1.3841v-5.5291c0-.76443-.6148-1.38412-1.3781-1.38412z" fill="url(#p)" fill-rule="evenodd"/><path clip-rule="evenodd" d="m68.1201 12.5416s-3.1628-3.51699-4.8583-5.27548c-1.1302-1.1722-3.3907-3.05581-3.3907-3.05581l-.9657-.78062-.5999.08191c-.2498.03411-.3022.20253-.1175.37624 0 0 2.8967 2.70608 4.2431 4.16342 1.2984 1.40545 3.6671 4.21634 3.6671 4.21634z" fill="#1c1f34" fill-rule="evenodd"/><path clip-rule="evenodd" d="m21.7695 13.3242v.781h14.1625v-.781z" fill="#1c1f34" fill-rule="evenodd"/><path clip-rule="evenodd" d="m35.9326 2.12891h-.515v22.90989h.515z" fill="#1c1f34" fill-rule="evenodd"/><path clip-rule="evenodd" d="m75.8085 21.0198c.145-.4963-.1466-.8987-.653-.8987h-7.764c-.5057 0-.9156.4203-.9156.9376v4.4563c0 .5178.4022.8573.8958.7588l6.4329-1.2839c.4947-.0987 1.0138-.5827 1.1585-1.0775z" fill="#1c1f34" fill-rule="evenodd"/><ellipse cx="6.39685" cy="3.781" fill="#242d5f" opacity=".1" rx="6.39685" ry="3.781" transform="matrix(-1 0 0 1 71.7324 18.0098)"/><ellipse cx="5.72068" cy="3.66801" fill="#1c1f34" rx="5.72068" ry="3.66801" transform="matrix(-1 0 0 1 71.0479 18.7129)"/><path clip-rule="evenodd" d="m15.4043 23.1696c.5068 0 .9192-.4206.9192-.9395v-1.1695c0-.5188.0474-.9395-.4607-.9395h-7.49799c-.50793 0-.89402.4188-.86197.9354l.11486 1.5254c.03842.5176.83681 2.5495 1.05714 2.8875.22034.3379 1.03406.3202 1.03406.3202.5017.0691.8602-.538.7969-1.0531l-.1925-1.5669z" fill="#1c1f34" fill-rule="evenodd"/><ellipse cx="19.9176" cy="21.657" fill="#242d5f" opacity=".1" rx="6.43028" ry="3.6472"/><ellipse cx="19.8875" cy="22.3674" fill="#1c1f34" rx="5.72932" ry="3.6545"/><ellipse cx="4.78795" cy="4.87321" fill="#1c1f34" rx="4.78795" ry="4.87321" transform="matrix(-1 0 0 1 70.1807 19.5723)"/><ellipse cx="2.96397" cy="3.01676" fill="url(#q)" rx="2.96397" ry="3.01676" transform="matrix(-1 0 0 1 68.3564 21.4277)"/><ellipse cx="1.59598" cy="1.6244" fill="#1c1f34" rx="1.59598" ry="1.6244" transform="matrix(-1 0 0 1 66.9883 22.8203)"/><ellipse cx=".22799" cy=".232054" fill="#1c1f34" rx=".22799" ry=".232054" transform="matrix(-1 0 0 1 65.6211 21.8926)"/><ellipse cx=".22799" cy=".232054" fill="#1c1f34" rx=".22799" ry=".232054" transform="matrix(-1 0 0 1 65.6211 26.5332)"/><ellipse cx=".228286" cy=".23176" fill="#1c1f34" rx=".228286" ry=".23176" transform="matrix(-.938476 .345346 .338718 .940888 64.749 21.9688)"/><ellipse cx=".228286" cy=".23176" fill="#1c1f34" rx=".228286" ry=".23176" transform="matrix(-.938477 .345342 .338722 .940887 66.3086 26.3301)"/><ellipse cx=".229032" cy=".231012" fill="#1c1f34" rx=".229032" ry=".231012" transform="matrix(-.762555 .646923 .638641 .769505 63.9551 22.3418)"/><ellipse cx=".229032" cy=".231012" fill="#1c1f34" rx=".229032" ry=".231012" transform="matrix(-.762557 .646921 .638643 .769503 66.8857 25.8965)"/><ellipse cx=".229879" cy=".230158" fill="#1c1f34" rx=".229879" ry=".230158" transform="matrix(-.495892 .868384 .863634 .504119 63.333 22.9688)"/><ellipse cx=".229879" cy=".230158" fill="#1c1f34" rx=".229879" ry=".230158" transform="matrix(-.495894 .868383 .863635 .504117 67.2832 25.291)"/><ellipse cx=".230429" cy=".2296" fill="#1c1f34" rx=".230429" ry=".2296" transform="matrix(-.171809 .98513 .984478 .175506 62.9609 23.7754)"/><ellipse cx=".230429" cy=".2296" fill="#1c1f34" rx=".230429" ry=".2296" transform="matrix(-.171809 .98513 .984478 .175506 67.4521 24.5801)"/><ellipse cx=".230429" cy=".2296" fill="#1c1f34" rx=".230429" ry=".2296" transform="matrix(.171809 .98513 .984478 -.175506 62.8818 24.6621)"/><ellipse cx=".230429" cy=".2296" fill="#1c1f34" rx=".230429" ry=".2296" transform="matrix(.171809 .98513 .984478 -.175506 67.373 23.8555)"/><ellipse cx=".229879" cy=".230158" fill="#1c1f34" rx=".229879" ry=".230158" transform="matrix(.495892 .868384 .863634 -.504119 63.1064 25.5215)"/><ellipse cx=".229879" cy=".230158" fill="#1c1f34" rx=".229879" ry=".230158" transform="matrix(.495892 .868384 .863634 -.504119 67.0547 23.2012)"/><ellipse cx=".229032" cy=".231012" fill="#1c1f34" rx=".229032" ry=".231012" transform="matrix(.762558 .64692 .638645 -.769502 63.6055 26.252)"/><ellipse cx=".229032" cy=".231012" fill="#1c1f34" rx=".229032" ry=".231012" transform="matrix(.76256 .646918 .638647 -.7695 66.5361 22.6973)"/><ellipse cx=".228286" cy=".23176" fill="#1c1f34" rx=".228286" ry=".23176" transform="matrix(.938476 .345346 .338718 -.940888 64.3203 26.7656)"/><ellipse cx=".228286" cy=".23176" fill="#1c1f34" rx=".228286" ry=".23176" transform="matrix(.938475 .345346 .338718 -.940888 65.8799 22.4043)"/><ellipse cx="4.78795" cy="4.87321" fill="#1c1f34" rx="4.78795" ry="4.87321" transform="matrix(-1 0 0 1 24.6025 19.5723)"/><ellipse cx="2.96397" cy="3.01676" fill="url(#q)" rx="2.96397" ry="3.01676" transform="matrix(-1 0 0 1 22.7783 21.4277)"/><ellipse cx="1.59598" cy="1.6244" fill="#1c1f34" rx="1.59598" ry="1.6244" transform="matrix(-1 0 0 1 21.4102 22.8203)"/><ellipse cx=".22799" cy=".232054" fill="#1c1f34" rx=".22799" ry=".232054" transform="matrix(-1 0 0 1 20.043 21.8926)"/><ellipse cx=".22799" cy=".232054" fill="#1c1f34" rx=".22799" ry=".232054" transform="matrix(-1 0 0 1 20.043 26.5332)"/><ellipse cx=".228286" cy=".23176" fill="#1c1f34" rx=".228286" ry=".23176" transform="matrix(-.938476 .345345 .338719 .940888 19.1719 21.9688)"/><ellipse cx=".228286" cy=".23176" fill="#1c1f34" rx=".228286" ry=".23176" transform="matrix(-.938475 .345347 .338717 .940888 20.7305 26.3301)"/><ellipse cx=".229032" cy=".231012" fill="#1c1f34" rx=".229032" ry=".231012" transform="matrix(-.76256 .646918 .638647 .7695 18.377 22.3418)"/><ellipse cx=".229032" cy=".231012" fill="#1c1f34" rx=".229032" ry=".231012" transform="matrix(-.762558 .64692 .638645 .769502 21.3076 25.8965)"/><ellipse cx=".229879" cy=".230158" fill="#1c1f34" rx=".229879" ry=".230158" transform="matrix(-.495892 .868384 .863634 .504119 17.7568 22.9688)"/><ellipse cx=".229879" cy=".230158" fill="#1c1f34" rx=".229879" ry=".230158" transform="matrix(-.495892 .868384 .863634 .504119 21.7051 25.291)"/><ellipse cx=".230429" cy=".2296" fill="#1c1f34" rx=".230429" ry=".2296" transform="matrix(-.171809 .98513 .984478 .175506 17.3838 23.7754)"/><ellipse cx=".230429" cy=".2296" fill="#1c1f34" rx=".230429" ry=".2296" transform="matrix(-.171809 .98513 .984478 .175506 21.874 24.582)"/><ellipse cx=".230429" cy=".2296" fill="#1c1f34" rx=".230429" ry=".2296" transform="matrix(.17181 .98513 .984478 -.175505 17.3037 24.6621)"/><ellipse cx=".230429" cy=".2296" fill="#1c1f34" rx=".230429" ry=".2296" transform="matrix(.171809 .98513 .984478 -.175506 21.7949 23.8555)"/><ellipse cx=".229879" cy=".230158" fill="#1c1f34" rx=".229879" ry=".230158" transform="matrix(.495892 .868384 .863634 -.504119 17.5283 25.5215)"/><ellipse cx=".229879" cy=".230158" fill="#1c1f34" rx=".229879" ry=".230158" transform="matrix(.49589 .868385 .863633 -.504121 21.4775 23.2012)"/><ellipse cx=".229032" cy=".231012" fill="#1c1f34" rx=".229032" ry=".231012" transform="matrix(.76256 .646918 .638647 -.7695 18.0273 26.252)"/><ellipse cx=".229032" cy=".231012" fill="#1c1f34" rx=".229032" ry=".231012" transform="matrix(.76256 .646918 .638647 -.7695 20.959 22.6973)"/><ellipse cx=".228286" cy=".23176" fill="#1c1f34" rx=".228286" ry=".23176" transform="matrix(.938476 .345343 .33872 -.940887 18.7432 26.7656)"/><ellipse cx=".228286" cy=".23176" fill="#1c1f34" rx=".228286" ry=".23176" transform="matrix(.938476 .345345 .338719 -.940887 20.3027 22.4043)"/></svg>