<svg fill="none" height="103" viewBox="0 0 235 103" width="235" xmlns="http://www.w3.org/2000/svg" xmlns:xlink="http://www.w3.org/1999/xlink"><linearGradient id="a"><stop offset="0" stop-color="#fff"/><stop offset="1" stop-color="#f9f9fc"/></linearGradient><linearGradient id="b" gradientUnits="userSpaceOnUse" x1="46.0929" x2="44.0719" xlink:href="#a" y1="22.4092" y2="79.8565"/><linearGradient id="c" gradientUnits="userSpaceOnUse" x1="23.7233" x2="23.84" y1="71.7644" y2="65.1024"><stop offset="0" stop-color="#1c1f34" stop-opacity=".2"/><stop offset="1" stop-color="#1c1f34"/></linearGradient><linearGradient id="d"><stop offset="0" stop-color="#e0e0e0"/><stop offset="1" stop-color="#e7e7e8"/></linearGradient><linearGradient id="e" gradientUnits="userSpaceOnUse" x1="43.1301" x2="41.8812" xlink:href="#d" y1="27.9326" y2="51.6102"/><linearGradient id="f"><stop offset="0" stop-opacity=".2"/><stop offset="1"/></linearGradient><linearGradient id="g" gradientUnits="userSpaceOnUse" x1="23.0204" x2="24.3017" xlink:href="#f" y1="51.2325" y2="26.9395"/><linearGradient id="h" gradientUnits="userSpaceOnUse" x1="23.734" x2="24.9448" xlink:href="#f" y1="50.6225" y2="27.6678"/><linearGradient id="i" gradientUnits="userSpaceOnUse" x1="228.376" x2="228.376" xlink:href="#a" y1="19.8838" y2="86.7236"/><linearGradient id="j" gradientUnits="userSpaceOnUse" x1="196.957" x2="196.957" y1="79.3516" y2="58.2746"><stop offset=".0118583" stop-color="#1c1f34" stop-opacity=".2"/><stop offset="1" stop-color="#1c1f34"/></linearGradient><linearGradient id="k" gradientUnits="userSpaceOnUse" x1="199.325" x2="199.325" y1="29.2617" y2="51.2044"><stop offset="0" stop-color="#8388a4"/><stop offset=".986707" stop-color="#a5a9c1"/></linearGradient><linearGradient id="l" gradientUnits="userSpaceOnUse" x1="233.219" x2="233.219" y1="68.6299" y2="73.2649"><stop offset="0" stop-color="#ffc900"/><stop offset="1" stop-color="#fff15e"/></linearGradient><linearGradient id="m" gradientUnits="userSpaceOnUse" x1="157.478" x2="157.478" xlink:href="#d" y1="28.1641" y2="56.7437"/><linearGradient id="n" gradientUnits="userSpaceOnUse" x1="45.6387" x2="45.6387" xlink:href="#f" y1="57.4865" y2="28.1641"/><linearGradient id="o" gradientUnits="userSpaceOnUse" x1="46.2704" x2="46.2704" xlink:href="#f" y1="56.8196" y2="28.8301"/><linearGradient id="p" gradientUnits="userSpaceOnUse" x1="50.5917" x2="50.5917" xlink:href="#a" y1="53.7353" y2="30.8291"/><linearGradient id="q" gradientUnits="userSpaceOnUse" x1="16.7466" x2="16.7466" y1="16.5805" y2="0"><stop offset="0" stop-color="#a4acbc"/><stop offset=".9859" stop-color="#b5bbca"/></linearGradient><clipPath id="r"><path d="m45.5315.313477h110.398v13.5495h-110.398z"/></clipPath><clipPath id="s"><path d="m.02832 24.3994h13.4268v53.4451h-13.4268z"/></clipPath><mask id="t" height="60" maskUnits="userSpaceOnUse" width="28" x="19" y="22"><path clip-rule="evenodd" d="m46.6489 23.1627c.0187-.4083-.3035-.7516-.7121-.7588l-22.3602-.3933c-.7433-.0131-1.374.5288-1.4573 1.2675-.4508 3.9966-1.7943 16.6354-2.2174 28.8385-.4258 12.2829.0644 24.5955.2401 28.3666.032.686.5455 1.2241 1.2311 1.263 1.1177.0636 3.1926.1385 6.8662.1534 5.0625.0205 11.6101-.1383 14.3857-.2134.7577-.0205 1.3648-.6225 1.3996-1.3796z" fill="#fff" fill-rule="evenodd"/></mask><mask id="u" height="23" maskUnits="userSpaceOnUse" width="4" x="37" y="46"><path clip-rule="evenodd" d="m40.017 56.2683c.09-2.5986.7238-8.8236.7238-8.8236.0367-.3678-.2443-.6769-.6249-.6903l-.9216-.0324c-.3818-.0134-.7215.2746-.7589.6496 0 0-.6309 6.1665-.7201 8.7398-.1215 3.5046.2464 11.4266.2464 11.4266.0163.3699.3403.6807.7209.6941l.9216.0324c.3818.0135.6778-.2745.6613-.6488 0 0-.3691-7.8681-.2485-11.3474z" fill="#fff" fill-rule="evenodd"/></mask><mask id="v" height="6" maskUnits="userSpaceOnUse" width="8" x="226" y="68"><path clip-rule="evenodd" d="m232.978 68.6299h-6.532l1.27 4.635h5.503z" fill="#fff" fill-rule="evenodd"/></mask><mask id="w" height="1" maskUnits="userSpaceOnUse" width="3" x="208" y="61"><path clip-rule="evenodd" d="m210.475 61.5914c0-.195-.141-.3531-.323-.3531h-1.309c-.179 0-.323.1638-.323.3531 0 .1951.14.3532.323.3532h1.309c.179 0 .323-.1639.323-.3532z" fill="#fff" fill-rule="evenodd"/></mask><rect fill="#1c1f34" height="1.50549" rx=".752747" transform="matrix(-1 0 0 1 192.978 101.182)" width="138.243"/><rect fill="#1c1f34" height="1.50549" rx=".752747" transform="matrix(-1 0 0 1 52.1528 101.182)" width="12.7594"/><rect fill="#1c1f34" height="1.50549" rx=".752747" transform="matrix(-1 0 0 1 222.482 101.182)" width="26.9349"/><g clip-rule="evenodd" fill-rule="evenodd"><path d="m45.2966 22.5933c.0371-.8156-.6059-1.5015-1.4222-1.517l-20.951-.3989c-1.1192-.0213-2.0693.8022-2.1891 1.9152-.5099 4.7365-1.7743 17.3458-2.197 29.5377-.4267 12.307-.0114 24.6412.1733 29.1112.0425 1.0281.8105 1.834 1.8383 1.8815 1.2078.0558 3.1715.1108 6.2796.119 5.0649.0135 11.6165-.163 14.3904-.2459.7562-.0226 1.361-.6243 1.3953-1.38z" fill="#1c1f34"/><path d="m46.6489 23.1627c.0187-.4083-.3035-.7516-.7121-.7588l-22.3602-.3933c-.7433-.0131-1.374.5288-1.4573 1.2675-.4508 3.9966-1.7943 16.6354-2.2174 28.8385-.4258 12.2829.0644 24.5955.2401 28.3666.032.686.5455 1.2241 1.2311 1.263 1.1177.0636 3.1926.1385 6.8662.1534 5.0625.0205 11.6101-.1383 14.3857-.2134.7577-.0205 1.3648-.6225 1.3996-1.3796z" fill="url(#b)"/><g mask="url(#t)"><g fill="#1c1f34"><path d="m40.0874 75.4551-20.2344-.3553-.0351 2.0233 20.2344.3553z"/><path d="m40.0874 76.1279-20.234-.3551-.1287 7.4161 20.234.3552z"/><path d="m24.7176 54.2611c-.5467-.0193-1.0057.4205-1.025.9772l-.1821 5.2547c-.0194.5589.4043 1.0275.9548 1.0469.5467.0192 1.0057-.4205 1.025-.9773l.1821-5.2546c.0194-.559-.4043-1.0276-.9548-1.0469z"/></g><path d="m57.0178 60.085-38.2838-1.3482-.0234.6745 38.2839 1.3482z" fill="#242d5f" opacity=".1"/><path d="m35.6326 66.5776c.0129-.7445-.566-1.3584-1.294-1.3712l-9.2512-.1621c-.7276-.0127-1.3278.5752-1.3408 1.325l-.0704 4.0457c-.0129.7446.566 1.3585 1.294 1.3712l9.2512.1621c.7275.0128 1.3278-.5752 1.3408-1.325z" fill="#fff"/><path d="m35.6326 66.5776c.0129-.7445-.566-1.3584-1.294-1.3712l-9.2512-.1621c-.7276-.0127-1.3278.5752-1.3408 1.325l-.0704 4.0457c-.0129.7446.566 1.3585 1.294 1.3712l9.2512.1621c.7275.0128 1.3278-.5752 1.3408-1.325z" fill="url(#c)" fill-opacity=".2"/><path d="m34.3247 67.1237c.0053-.3013-.2283-.5497-.514-.5547l-8.1977-.1437c-.2891-.0051-.5277.2318-.533.5364l-.0514 2.9542c-.0052.3013.2283.5498.5141.5548l8.1977.1436c.2891.0051.5277-.2317.533-.5364z" fill="#fff"/><path d="m26.7939 68.1972.0065-.3776.1859.0033c.0177.0003.0347.0032.0511.0088.0163.0056.0307.0152.0431.029s.0222.0328.0293.0571c.0072.0242.0105.0552.0098.0929-.0012.0678-.0134.1166-.0367.1463-.0233.0298-.0526.0443-.088.0437zm-.1876-.6537-.0281 1.6109.4365.0077c.0404.0007.0798-.0077.1184-.025.0386-.0174.0731-.0446.1036-.0817.0306-.0371.0552-.0852.0739-.1443.0186-.0591.0287-.1293.0301-.2105.0018-.1008-.0104-.1871-.0365-.259-.0261-.072-.0666-.1227-.1216-.1522.0409-.0339.0722-.0778.0938-.1316.0215-.0537.033-.1212.0344-.2025.0013-.0752-.0045-.1385-.0175-.1899-.013-.0513-.0318-.0927-.0565-.1239-.0247-.0313-.0546-.054-.0897-.0682-.0351-.0141-.0741-.0216-.117-.0223zm.174 1.3391.0077-.4431.2162.0038c.0429.0007.0772.019.1027.0549s.0375.0953.0361.1782c-.0007.0422-.0054.0768-.0138.1038-.0085.027-.0196.0483-.0334.0639-.0137.0155-.0295.0266-.0474.0331-.0178.0064-.0364.0095-.0558.0092zm1.1169-.8861-.0095.5482-.2329-.0041.2386-.5442zm-.0143.8137-.0063.3654.1703.003.0063-.3655.1173.0021.0046-.264-.1173-.002.0166-.9498-.1602-.0028-.3995.9137-.0051.2933zm.6433-.7731c.0006-.0361.0048-.0677.0124-.0947.0077-.027.018-.0495.031-.0673.013-.0179.0279-.0316.0445-.0411.0167-.0095.0339-.0141.0516-.0138.028.0005.0505.0084.0675.0238.0171.0154.0303.0345.0396.0573.0094.0227.0155.0466.0185.0715.0029.0249.0042.048.0038.0691-.0011.0678-.0147.1192-.0407.1542-.026.0349-.058.0521-.0961.0514-.0364-.0006-.0678-.0189-.0942-.0548-.0265-.0359-.0391-.0877-.0379-.1556zm-.1613-.0335c-.0013.0782.0084.1468.0293.2059.0208.059.0525.0994.095.1213l-.0001.0045c-.0534.0216-.0951.066-.1253.1332s-.0462.1511-.0479.2519c-.0015.0857.0066.1596.0245.2216.0178.062.0422.1136.073.1547.0308.0412.0661.0715.1057.091s.0808.0297.1237.0304c.0412.0007.0818-.0087.1217-.0283.0398-.0196.0757-.0495.1075-.0895.0318-.0401.0577-.0908.0777-.1522.02-.0613.0308-.1341.0322-.2183.0017-.0993-.0111-.1834-.0385-.2523s-.0674-.1144-.12-.1364l.0001-.0045c.0433-.0248.0762-.0664.0987-.1247.0224-.0582.0343-.1265.0357-.2047.0007-.0391-.0036-.0832-.0128-.1322-.0093-.0491-.0251-.0953-.0475-.1385-.0223-.0433-.0522-.0803-.0895-.1111-.0373-.0307-.0833-.0466-.138-.0475-.0361-.0006-.072.0078-.1077.0252-.0356.0174-.0678.0439-.0966.0795s-.0525.0804-.0711.1342-.0285.1161-.0298.1868zm.1305.7041c.0014-.0812.0176-.143.0486-.1853s.0684-.0631.1122-.0624c.021.0004.0404.0068.0583.0191.0179.0124.0336.0299.047.0528.0135.0228.024.0496.0314.0806.0075.031.0109.0653.0102.1029-.0006.0391-.0051.0751-.0132.1081-.0081.0329-.0194.061-.0336.084-.0143.0231-.0306.0409-.0489.0533-.0183.0125-.0384.0186-.0603.0182-.021-.0004-.0411-.0071-.0602-.0203-.0191-.0131-.0354-.0314-.0489-.055-.0135-.0235-.0241-.0519-.0319-.0852-.0079-.0332-.0114-.0701-.0107-.1108zm1.2758-.8036.0047-.2752-.6029-.0105-.0052.2978.4188.0073c-.0873.1805-.1586.3794-.2142.5965-.0555.2172-.0903.4438-.1045.6798l.1917.0033c.0027-.1053.0116-.2187.0267-.3403.0152-.1216.0358-.2416.0618-.36.0261-.1184.0579-.2299.0954-.3346.0376-.1046.0801-.1927.1277-.2641zm.9916.7133.0174-1.0016-.198-.0035-.0175 1.0017c-.0021.1203-.0171.2084-.045.2644-.0279.0559-.0771.0832-.1478.082-.0403-.0007-.0723-.0114-.0959-.0321-.0236-.0208-.0419-.0474-.0548-.08s-.0211-.0699-.0245-.1121c-.0035-.0422-.0049-.0851-.0041-.1287l.0174-1.0017-.198-.0035-.0175 1.0017c-.0038.2196.0268.3826.0918.4891.0651.1064.1586.1607.2805.1628.1203.0021.2154-.0492.2853-.1541.07-.1048.1069-.2663.1107-.4844zm.4119.0814-.1917-.0033c-.0026.0992.006.1851.0258.2577.0197.0726.0471.1325.082.1797.0349.0473.0755.0822.1218.1048.0463.0227.0943.0344.1439.0353.0614.0011.1156-.0108.1627-.0355.0472-.0248.0869-.0598.1192-.1052.0324-.0453.0571-.0994.0741-.1623.0171-.0629.0263-.1312.0276-.2049.0015-.0902-.0079-.1645-.0283-.2228-.0205-.0582-.0451-.1049-.0739-.14s-.058-.0609-.0876-.0772-.0527-.0276-.0695-.0339c-.0559-.0266-.1011-.0484-.1357-.0656-.0346-.0171-.0617-.0342-.0811-.051-.0195-.0169-.0324-.0352-.0388-.0549s-.0093-.0453-.0088-.0769c.0006-.0346.0053-.0631.0141-.0855s.0199-.041.0332-.0558.028-.0251.044-.0309c.0161-.0057.0321-.0084.0481-.0081.0244.0004.0468.0045.0673.0124s.0385.021.0542.0393c.0157.0184.0281.0434.0372.0752.0091.0317.0141.0717.0149.1198l.1918.0034c.0016-.0933-.0069-.1728-.0255-.2386-.0187-.0657-.0444-.12-.0773-.1627s-.0709-.0738-.1139-.0934c-.0429-.0195-.088-.0297-.1351-.0305-.0403-.0007-.0809.0083-.1216.0272-.0407.0188-.0773.0483-.11.0883-.0327.0401-.0594.0904-.0802.151-.0209.0605-.032.1322-.0334.2149-.0013.0737.0054.1366.02.1888.0147.0522.0343.0958.0589.1308.0247.035.0528.0637.0843.0861.0316.0224.0641.0414.0975.057.0325.0171.0646.0327.0963.0468s.06.0304.085.0489c.0249.0185.0449.0414.06.0687.015.0274.0222.0629.0214.1065-.0007.0406-.0071.074-.0194.1001-.0122.0261-.0273.0465-.0452.0613-.0179.0147-.037.0245-.0573.0294s-.0392.0072-.0569.0069c-.0261-.0004-.0512-.0065-.0754-.0182s-.0451-.0294-.0628-.053c-.0176-.0237-.0316-.0544-.0419-.0922s-.0149-.0837-.014-.1379zm1.0179-.0708.128-.589h.0026l.1036.5931zm.0356-.9877-.3686 1.605.1993.0035.0768-.3575.3368.0059.0619.3599.2056.0036-.3087-1.6168z" fill="#1c1f34"/><g opacity=".5"><path d="m43.1552 32.1026c.1338-2.2317-1.5237-4.1476-3.7076-4.2795l-11.0522-.6676c-2.1815-.1318-4.0585 1.573-4.1919 3.7957l-.9618 16.0343c-.1337 2.228 1.5233 4.1522 3.7065 4.2981l11.0485.7384c2.1807.1458 4.0571-1.5469 4.1908-3.777z" fill="url(#e)"/><path d="m43.1552 32.1026c.1338-2.2317-1.5237-4.1476-3.7076-4.2795l-11.0522-.6676c-2.1815-.1318-4.0585 1.573-4.1919 3.7957l-.9618 16.0343c-.1337 2.228 1.5233 4.1522 3.7065 4.2981l11.0485.7384c2.1807.1458 4.0571-1.5469 4.1908-3.777z" fill="url(#g)" fill-opacity=".3"/></g><path d="m42.5227 32.0811c.1112-1.8579-1.2725-3.4532-3.0964-3.5635l-11.0469-.6686c-1.8212-.1102-3.3881 1.3119-3.4988 3.1598l-.9608 16.0482c-.1111 1.8554 1.2722 3.4581 3.0954 3.5804l11.0431.7403c1.8207.122 3.3864-1.2803 3.4979-3.143z" fill="#fff"/><path d="m42.5227 32.0811c.1112-1.8579-1.2725-3.4532-3.0964-3.5635l-11.0469-.6686c-1.8212-.1102-3.3881 1.3119-3.4988 3.1598l-.9608 16.0482c-.1111 1.8554 1.2722 3.4581 3.0954 3.5804l11.0431.7403c1.8207.122 3.3864-1.2803 3.4979-3.143z" fill="url(#h)" fill-opacity=".05"/><path d="m40.6213 32.0262c.044-.7405-.5095-1.3767-1.2352-1.421l-11.0832-.6759c-.7262-.0442-1.3507.5227-1.3951 1.2689l-.9545 16.0607c-.0443.7451.5089 1.3891 1.2342 1.4384l11.0793.7522c.7259.0493 1.3504-.5167 1.394-1.2515z" fill="#fff"/><path d="m41.2722 83.1265-10.2657.0689s-.6188-11.5232.9701-29.2454c1.5889-17.7223 4.5697-32.1395 4.5697-32.1395l8.3677.7205z" fill="#242d5f" opacity=".1"/></g><path d="m39.2072 84.7326s-1.8813-7.32-1.8813-22.6632 4.2756-39.0328 4.2756-39.0328c.4167-2.5724 2.8309-4.6577 5.396-4.6577h120.6745c15.426 0 43.633 33.6348 43.633 33.6348s19.832 9.1008 21.889 14.564c2.056 5.4632 1.191 19.5477-3.266 22.7933-1.17.8521-14.351 1.2623-33.156 1.4038-.024.3405-.308.6207-.655.6207h-151.8719c-.359 0-.6574-.2996-.6574-.6693v-1.4294c-2.1254-.5331-3.9927-2.386-4.3805-4.5642z" fill="#1c1f34"/><path d="m201.431 91.3945h-129.792v3.011h129.792z" fill="#1c1f34"/><path d="m40.7038 84.5078s-1.8851-7.2773-1.8851-22.5307c0-15.2535 4.4717-38.7912 4.4717-38.7912.3139-1.8237 2.0547-3.3021 3.8962-3.3021h120.1784c15.457 0 41.727 32.7672 41.727 32.7672s20.512 8.8465 22.598 13.808c2.085 4.9616 1.193 18.0916-3.273 21.3183-2.191 1.5829-47.306 1.9791-91.135 2.0126-18.753.0144-36.014.2165-51.638 0h-41.2209c-.3597 0-.6588-.2979-.6588-.6653v-.5918c-1.5379-.8231-2.7554-2.3245-3.0605-4.025z" fill="url(#i)"/><path d="m232.398 66.8093s-9.055-5.5025-13.924-7.5568c-3.628-1.5306-11.567-3.1979-11.567-3.1979l-.236.6539s7.962 1.6769 11.602 3.2125c4.857 2.0493 13.89 7.5422 13.89 7.5422z" fill="#242d5f" opacity=".1"/><path d="m196.913 62.3305.038.747c.086 1.684-.791 4.0432-1.954 5.2628l-8.809 9.2414c-.931.9775-2.782 1.7699-4.149 1.7699h-9.495c-1.36 0-2.453-1.0913-2.441-2.4425l.119-16.1436c.012-1.349 1.121-2.4642 2.474-2.4909l22.275 2.2672c1.021-.0201 1.89.781 1.942 1.7887z" fill="#fff"/><path d="m196.913 62.3305.038.747c.086 1.684-.791 4.0432-1.954 5.2628l-8.809 9.2414c-.931.9775-2.782 1.7699-4.149 1.7699h-9.495c-1.36 0-2.453-1.0913-2.441-2.4425l.119-16.1436c.012-1.349 1.121-2.4642 2.474-2.4909l22.275 2.2672c1.021-.0201 1.89.781 1.942 1.7887z" fill="url(#j)" fill-opacity=".05"/><path d="m190.243 72.5778s-25.748-5.2692-38.623-5.2692c-36.427 0-111.3092 0-111.3092 0v.6586h110.9702c12.761 0 38.284 4.6106 38.284 4.6106z" fill="#242d5f" opacity=".1"/><path d="m179.798 27.4112s-4.321-3.7637-16.098-3.7637c-33.324 0-121.8993 0-121.8993 0v.6273h122.2513c11.675 0 14.42 2.5091 14.42 2.5091z" fill="#242d5f" opacity=".1"/><path d="m162.643 23.6475h-44.01v.5297h44.01z" fill="#242d5f" opacity=".1"/><path d="m185.021 78.6006h-104.4307v3.011h104.4307z" fill="#000" opacity=".2"/><path d="m196.208 75.5879h-123.8242v9.033h123.8242z" fill="#1c1f34"/><path d="m163.652 23.6475h-1.326v66.6762h1.326z" fill="#1c1f34"/><path d="m153.382 61.3633c-.552 0-.999.4484-.999 1.0102 0 .5579.449 1.0102.999 1.0102h3.968c.552 0 .999-.4484.999-1.0102 0-.5579-.449-1.0102-.999-1.0102z" fill="#1c1f34"/><path d="m202.496 69.4958c6.874-5.599 4.244-18.1395 4.244-18.1395l-1.114-1.4432s2.562 12.8098-3.646 18.6908c-6.777 5.8095-9.164 21.719-9.164 21.719h1.114s2.951-15.3303 8.566-20.8271z" fill="#1c1f34"/><path d="m168.629 61.3633c-.551 0-.998.4484-.998 1.0102 0 .5579.448 1.0102.998 1.0102h3.968c.552 0 .999-.4484.999-1.0102 0-.5579-.448-1.0102-.999-1.0102z" fill="#1c1f34"/><path d="m200.16 56.5568c3.275.382 4.455-1.5718 2.568-4.3111 0 0-1.883-3.4245-8.139-10.2211s-9.819-10.4168-9.819-10.4168c-1.282-1.3236-3.802-2.5349-5.619-2.7045l-8.765-.8186c-2.556-.2386-4.366 1.6567-4.041 4.2455l1.992 15.9064c.324 2.5833 2.65 4.9182 5.199 5.2155z" fill="#1c1f34"/><path d="m200.707 54.9683c1.09.1248 1.47-.5173.846-1.4399l-3.144-4.6422c-1.038-1.5323-2.895-3.8805-4.136-5.2322l-10.383-11.3039c-.998-1.0871-2.994-2.0752-4.448-2.2061l-9.68-.8716c-1.459-.1313-2.489.9594-2.303 2.4326l2.161 17.0731c.186 1.4748 1.522 2.8058 2.974 2.9721z" fill="url(#k)"/><path d="m170.551 38.4067c-.042-.7127-.65-1.2905-1.358-1.2905h.382c-.708 0-1.282.5813-1.282 1.2905v4.8275c0 .7127.568 1.2905 1.278 1.2905h.062c.706 0 1.244-.5814 1.202-1.2905z" fill="#1c1f34"/><path d="m170.277 46.5469h-.656c-.734 0-1.167.5781-.963 1.3007l2.285 4.0873h2.651l-1.522-4.1248c-.257-.6977-1.059-1.2632-1.795-1.2632z" fill="#1c1f34"/><path d="m189.931 54.3356c-.266.4882-.869-.0143-1.349-.2848-.484-.2724-.655-.2096-.39-.6947l3.219-5.9008c.266-.4882.868-.6592 1.349-.3887.483.2724.655.8831.39 1.3682l-1.75 3.2081 2.181 1.8029-.966 1.6328-2.504-1.0733z" fill="#1c1f34"/><path d="m202.758 53.4715-3.771-6.3377-10.028 7.5893 13.136 1.2517z" fill="#1c1f34"/><path d="m201.413 53.9167c.2-2.1869-1.074-5.939-1.074-5.939-.229-.7457-1.047-1.5426-1.826-1.7796l-.856-.2602c-.779-.2371-1.469.1955-1.54.976l-1.035 11.3079c-.071.7762.534 1.4608 1.344 1.5286l1.478.1236c.813.068 1.714-.47 2.001-1.1955 0 0 1.368-3.2319 1.508-4.7618z" fill="#242d5f" opacity=".1"/><path d="m201.412 52.6044c.161-1.8686-.615-4.8913-.615-4.8913-.165-.7244-.857-1.5186-1.543-1.773l.029.0107c-.688-.2548-1.297.1369-1.36.8758l-.809 9.3893c-.063.7384.472 1.3892 1.205 1.4544l.33.0293c.729.0649 1.512-.4598 1.74-1.1637 0 0 .911-2.6244 1.023-3.9315z" fill="#1c1f34"/><g fill="#fff" opacity=".1"><path d="m189.869 44.0244-7.676-9.2951c-.233-.2826-.648-.3196-.93-.0788-.281.2391-.314.6678-.085.9446l7.676 9.2952c.233.2826.648.3195.93.0788.28-.2391.314-.6679.085-.9447z"/><path d="m184.071 41.3854c.14-.1196.156-.3356.041-.4747l-2.982-3.611c-.118-.1426-.331-.1578-.467-.0417-.141.1195-.156.3355-.041.4746l2.982 3.611c.118.1426.331.1578.467.0418z"/></g><path d="m41.2081 56.1509c.1013-2.9234.6393-8.7144.6393-8.7144.0987-1.1073-.749-2.0376-1.9027-2.0782l-.3146-.0111c-1.1496-.0404-2.163.826-2.2616 1.9385 0 0-.5346 5.7274-.635 8.6224-.1366 3.9426.3209 11.5652.3209 11.5652.0605 1.108 1.0372 2.0389 2.1909 2.0795l.3146.0111c1.1496.0404 2.0304-.827 1.9703-1.9459 0 0-.4578-7.5529-.3221-11.4671z" fill="#1c1f34"/><path d="m40.017 56.2683c.09-2.5986.7238-8.8236.7238-8.8236.0367-.3678-.2443-.6769-.6249-.6903l-.9216-.0324c-.3818-.0134-.7215.2746-.7589.6496 0 0-.6309 6.1665-.7201 8.7398-.1215 3.5046.2464 11.4266.2464 11.4266.0163.3699.3403.6807.7209.6941l.9216.0324c.3818.0135.6778-.2745.6613-.6488 0 0-.3691-7.8681-.2485-11.3474z" fill="#c10000"/></g><g mask="url(#u)"><path clip-rule="evenodd" d="m38.5625 59.4824-.8823.0156.1986 8.0655 1.039-.0184z" fill="#fff" fill-rule="evenodd" opacity=".4"/></g><path clip-rule="evenodd" d="m233.013 67.3066h-6.647c-.73 0-1.184.5716-1.012 1.2854l1.137 4.7128c.171.7099.907 1.2854 1.635 1.2854h4.961c.732 0 1.374-.596 1.432-1.319l-.29-4.6456c.058-.7284-.487-1.319-1.216-1.319z" fill="#1c1f34" fill-rule="evenodd"/><path clip-rule="evenodd" d="m232.978 68.6299h-6.532l1.27 4.635h5.503z" fill="url(#l)" fill-rule="evenodd"/><g mask="url(#v)"><ellipse cx=".878376" cy="1.56074" fill="#fff" rx=".878376" ry="1.56074" transform="matrix(-.998604 .0528134 .0518628 .998654 233.11 69.3525)"/><path clip-rule="evenodd" d="m228.053 67.3066h-2.503v6.7634h3.83z" fill="#f00" fill-rule="evenodd" opacity=".2"/></g><path clip-rule="evenodd" d="m211.127 61.5916c0-.5851-.439-1.0594-.977-1.0594h-1.304c-.54 0-.977.4703-.977 1.0594 0 .5851.439 1.0595.977 1.0595h1.304c.54 0 .977-.4703.977-1.0595z" fill="#1c1f34" fill-rule="evenodd"/><path clip-rule="evenodd" d="m210.475 61.5914c0-.195-.141-.3531-.323-.3531h-1.309c-.179 0-.323.1638-.323.3531 0 .1951.14.3532.323.3532h1.309c.179 0 .323-.1639.323-.3532z" fill="#f5a623" fill-rule="evenodd"/><g mask="url(#w)"><path clip-rule="evenodd" d="m211.129 61.2383h-1.304v.7063h1.304z" fill="#fff" fill-rule="evenodd"/></g><g clip-rule="evenodd" fill-rule="evenodd" opacity=".5"><path d="m152.264 28.1641h-97.841c-3.6723 0-6.9252 2.9729-7.2652 6.6354l-1.4902 16.0516c-.3402 3.6646 2.3602 6.6354 6.0328 6.6354h100.5636c3.672 0 6.649-2.9866 6.649-6.6629v-15.9967c0-3.6798-2.974-6.6628-6.649-6.6628z" fill="url(#m)"/><path d="m152.264 28.1641h-97.841c-3.6723 0-6.9252 2.9729-7.2652 6.6354l-1.4902 16.0516c-.3402 3.6646 2.3602 6.6354 6.0328 6.6354h100.5636c3.672 0 6.649-2.9866 6.649-6.6629v-15.9967c0-3.6798-2.974-6.6628-6.649-6.6628z" fill="url(#n)" fill-opacity=".3"/></g><path clip-rule="evenodd" d="m152.262 28.8301h-97.861c-3.3064 0-6.2435 2.6711-6.5605 5.9701l-1.5422 16.0493c-.3168 3.2972 2.1023 5.9701 5.4146 5.9701h100.5471c3.308 0 5.989-2.6837 5.989-5.9959v-15.9978c0-3.3114-2.678-5.9958-5.987-5.9958z" fill="#fff" fill-rule="evenodd"/><path clip-rule="evenodd" d="m152.262 28.8301h-97.861c-3.3064 0-6.2435 2.6711-6.5605 5.9701l-1.5422 16.0493c-.3168 3.2972 2.1023 5.9701 5.4146 5.9701h100.5471c3.308 0 5.989-2.6837 5.989-5.9959v-15.9978c0-3.3114-2.678-5.9958-5.987-5.9958z" fill="url(#o)" fill-opacity=".05" fill-rule="evenodd"/><path clip-rule="evenodd" d="m152.261 30.8291h-97.9357c-2.2048 0-4.1848 1.7836-4.4216 3.9751l-1.733 16.0409c-.2371 2.1954 1.3515 3.9751 3.5656 3.9751h100.5217c2.207 0 3.995-1.7837 3.995-4.0021v-15.9869c0-2.2103-1.78-4.0021-3.992-4.0021z" fill="url(#p)" fill-rule="evenodd"/><path clip-rule="evenodd" d="m212.621 53.7573s-9.162-10.169-14.074-15.2534c-3.274-3.3894-9.822-8.8357-9.822-8.8357l-2.798-2.2571-1.737.2369c-.724.0986-.876.5856-.341 1.0878 0 0 8.392 7.8244 12.292 12.0382 3.761 4.0637 10.623 12.1912 10.623 12.1912z" fill="#1c1f34" fill-rule="evenodd"/><path clip-rule="evenodd" d="m78.3523 56.0176v2.2582h41.0267v-2.2582z" fill="#1c1f34" fill-rule="evenodd"/><path clip-rule="evenodd" d="m119.379 23.6475h-1.492v66.2418h1.492z" fill="#1c1f34" fill-rule="evenodd"/><path clip-rule="evenodd" d="m234.892 78.2666c.42-1.4352-.424-2.5986-1.892-2.5986h-22.49c-1.465 0-2.653 1.2153-2.653 2.7111v12.8848c0 1.4973 1.165 2.479 2.595 2.1942l18.635-3.7124c1.433-.2855 2.937-1.6849 3.356-3.1156z" fill="#1c1f34" fill-rule="evenodd"/><ellipse cx="18.5306" cy="10.9324" fill="#242d5f" opacity=".1" rx="18.5306" ry="10.9324" transform="matrix(-1 0 0 1 223.085 69.5654)"/><ellipse cx="16.5718" cy="10.6057" fill="#1c1f34" rx="16.5718" ry="10.6057" transform="matrix(-1 0 0 1 221.103 71.5996)"/><path clip-rule="evenodd" d="m59.9116 84.4824c1.4683 0 2.6627-1.2162 2.6627-2.7165v-3.3814c0-1.5002.1374-2.7165-1.3345-2.7165h-21.7203c-1.4714 0-2.5899 1.2108-2.497 2.7045l.3327 4.4107c.1113 1.4966 2.4241 7.3716 3.0624 8.3488.6382.9772 2.9955.9261 2.9955.9261 1.4534.1997 2.4918-1.5557 2.3084-3.0451l-.5577-4.5306z" fill="#1c1f34" fill-rule="evenodd"/><ellipse cx="72.9865" cy="80.112" fill="#242d5f" opacity=".1" rx="18.6274" ry="10.5456"/><ellipse cx="72.8993" cy="82.1672" fill="#1c1f34" rx="16.5969" ry="10.5667"/><ellipse cx="13.8699" cy="14.0905" fill="#1c1f34" rx="13.8699" ry="14.0905" transform="matrix(-1 0 0 1 218.59 74.0811)"/><ellipse cx="8.58611" cy="8.72269" fill="url(#q)" rx="8.58611" ry="8.72269" transform="matrix(-1 0 0 1 213.304 79.4492)"/><ellipse cx="4.62328" cy="4.6968" fill="#1c1f34" rx="4.62328" ry="4.6968" transform="matrix(-1 0 0 1 209.341 83.4756)"/><ellipse cx=".660449" cy=".670966" fill="#1c1f34" rx=".660449" ry=".670966" transform="matrix(-1 0 0 1 205.38 80.793)"/><ellipse cx=".660449" cy=".670966" fill="#1c1f34" rx=".660449" ry=".670966" transform="matrix(-1 0 0 1 205.38 94.2129)"/><ellipse cx=".661159" cy=".670258" fill="#1c1f34" rx=".661159" ry=".670258" transform="matrix(-.938685 .344776 .339281 .940685 202.852 81.0107)"/><ellipse cx=".661157" cy=".670257" fill="#1c1f34" rx=".661157" ry=".670257" transform="matrix(-.938686 .344773 .339284 .940684 207.371 93.6211)"/><ellipse cx=".662947" cy=".668459" fill="#1c1f34" rx=".662947" ry=".668459" transform="matrix(-.763153 .646217 .63935 .768916 200.552 82.0918)"/><ellipse cx=".662948" cy=".668461" fill="#1c1f34" rx=".662948" ry=".668461" transform="matrix(-.763152 .646219 .639349 .768917 209.042 92.3711)"/><ellipse cx=".664981" cy=".666416" fill="#1c1f34" rx=".664981" ry=".666416" transform="matrix(-.496595 .867982 .864046 .503413 198.752 83.9062)"/><ellipse cx=".66498" cy=".666411" fill="#1c1f34" rx=".66498" ry=".666411" transform="matrix(-.496592 .867984 .864044 .503416 210.192 90.6162)"/><ellipse cx=".666301" cy=".665074" fill="#1c1f34" rx=".666301" ry=".665074" transform="matrix(-.172122 .985076 .984535 .175187 197.674 86.2344)"/><ellipse cx=".666301" cy=".665074" fill="#1c1f34" rx=".666301" ry=".665074" transform="matrix(-.172122 .985076 .984535 .175187 210.684 88.5645)"/><ellipse cx=".666301" cy=".665074" fill="#1c1f34" rx=".666301" ry=".665074" transform="matrix(.172122 .985076 .984535 -.175187 197.442 88.7998)"/><ellipse cx=".666305" cy=".665074" fill="#1c1f34" rx=".666305" ry=".665074" transform="matrix(.172121 .985076 .984535 -.175188 210.454 86.4697)"/><ellipse cx=".664979" cy=".666412" fill="#1c1f34" rx=".664979" ry=".666412" transform="matrix(.496592 .867984 .864044 -.503416 198.093 91.2881)"/><ellipse cx=".664981" cy=".666416" fill="#1c1f34" rx=".664981" ry=".666416" transform="matrix(.496595 .867982 .864046 -.503413 209.533 84.5781)"/><ellipse cx=".662946" cy=".66846" fill="#1c1f34" rx=".662946" ry=".66846" transform="matrix(.763153 .646217 .63935 -.768916 199.539 93.4004)"/><ellipse cx=".662948" cy=".668461" fill="#1c1f34" rx=".662948" ry=".668461" transform="matrix(.763158 .646212 .639356 -.768911 208.03 83.1191)"/><ellipse cx=".661153" cy=".670257" fill="#1c1f34" rx=".661153" ry=".670257" transform="matrix(.938684 .344779 .339278 -.940686 201.611 94.8809)"/><ellipse cx=".661159" cy=".670257" fill="#1c1f34" rx=".661159" ry=".670257" transform="matrix(.938685 .344776 .339281 -.940685 206.129 82.2715)"/><ellipse cx="13.8699" cy="14.0905" fill="#1c1f34" rx="13.8699" ry="14.0905" transform="matrix(-1 0 0 1 86.5583 74.0811)"/><ellipse cx="8.58611" cy="8.72269" fill="url(#q)" rx="8.58611" ry="8.72269" transform="matrix(-1 0 0 1 81.2769 79.4492)"/><ellipse cx="4.62328" cy="4.6968" fill="#1c1f34" rx="4.62328" ry="4.6968" transform="matrix(-1 0 0 1 77.312 83.4756)"/><ellipse cx=".660445" cy=".670966" fill="#1c1f34" rx=".660445" ry=".670966" transform="matrix(-1 0 0 1 73.3484 80.793)"/><ellipse cx=".660445" cy=".670966" fill="#1c1f34" rx=".660445" ry=".670966" transform="matrix(-1 0 0 1 73.3484 94.2129)"/><ellipse cx=".661156" cy=".670258" fill="#1c1f34" rx=".661156" ry=".670258" transform="matrix(-.938685 .344777 .33928 .940686 70.8225 81.0107)"/><ellipse cx=".661157" cy=".670257" fill="#1c1f34" rx=".661157" ry=".670257" transform="matrix(-.938684 .344778 .339279 .940686 75.3416 93.6211)"/><ellipse cx=".662947" cy=".668459" fill="#1c1f34" rx=".662947" ry=".668459" transform="matrix(-.763156 .646214 .639354 .768913 68.5229 82.0918)"/><ellipse cx=".662946" cy=".66846" fill="#1c1f34" rx=".662946" ry=".66846" transform="matrix(-.763153 .646217 .63935 .768916 77.0139 92.3711)"/><ellipse cx=".664979" cy=".666412" fill="#1c1f34" rx=".664979" ry=".666412" transform="matrix(-.496592 .867984 .864044 .503416 66.7256 83.9062)"/><ellipse cx=".66498" cy=".666414" fill="#1c1f34" rx=".66498" ry=".666414" transform="matrix(-.496593 .867983 .864045 .503414 78.1628 90.6162)"/><ellipse cx=".666301" cy=".665074" fill="#1c1f34" rx=".666301" ry=".665074" transform="matrix(-.172122 .985076 .984535 .175187 65.6462 86.2344)"/><ellipse cx=".666301" cy=".665074" fill="#1c1f34" rx=".666301" ry=".665074" transform="matrix(-.172122 .985076 .984535 .175187 78.6545 88.5664)"/><ellipse cx=".666301" cy=".665073" fill="#1c1f34" rx=".666301" ry=".665073" transform="matrix(.172122 .985076 .984535 -.175187 65.4128 88.7998)"/><ellipse cx=".666305" cy=".665074" fill="#1c1f34" rx=".666305" ry=".665074" transform="matrix(.172121 .985076 .984535 -.175188 78.4248 86.4697)"/><ellipse cx=".664979" cy=".666412" fill="#1c1f34" rx=".664979" ry=".666412" transform="matrix(.496592 .867984 .864044 -.503416 66.063 91.2881)"/><ellipse cx=".66498" cy=".666411" fill="#1c1f34" rx=".66498" ry=".666411" transform="matrix(.496588 .867986 .864042 -.50342 77.5039 84.5781)"/><ellipse cx=".662948" cy=".668461" fill="#1c1f34" rx=".662948" ry=".668461" transform="matrix(.763155 .646216 .639352 -.768914 67.5095 93.4004)"/><ellipse cx=".662948" cy=".668461" fill="#1c1f34" rx=".662948" ry=".668461" transform="matrix(.763155 .646216 .639352 -.768914 76.0005 83.1191)"/><ellipse cx=".661155" cy=".670258" fill="#1c1f34" rx=".661155" ry=".670258" transform="matrix(.938685 .344776 .33928 -.940685 69.5811 94.8809)"/><ellipse cx=".661155" cy=".670255" fill="#1c1f34" rx=".661155" ry=".670255" transform="matrix(.938685 .344775 .339281 -.940685 74.0999 82.2715)"/><g clip-path="url(#r)" fill="#090a0a"><path clip-rule="evenodd" d="m155.931 4.07715h-.746v3.01026h-38.044v.75275h38.044v3.01174h.746zm-71.6108 3.76301v-.75275h-38.0412v.75275zm-38.0416-3.76123h-.7459v6.77477h.7459z" fill-rule="evenodd"/><path d="m93.4524 10.552v-7.4174h-.9119c-.1677.80556-.87 1.36004-1.8867 1.39143v.73233h1.7923v5.29364z"/><path d="m94.9605 6.84856c0 1.03572.1677 1.96682.6603 2.68869.4926.72185 1.1949 1.17175 2.243 1.17175 1.0377 0 1.7504-.4499 2.2432-1.17175.472-.72187.66-1.65297.66-2.68869 0-1.03573-.188-1.97729-.66-2.6887-.4928-.72186-1.2055-1.18219-2.2432-1.18219-1.0481 0-1.7504.46033-2.243 1.18219-.4926.71141-.6603 1.65297-.6603 2.6887zm1.0062 0c0-1.20311.2306-2.0296.7022-2.50038.304-.28247.6604-.46032 1.1949-.46032.5136 0 .8909.17785 1.1844.46032.4717.47078.7023 1.29727.7023 2.50038s-.2306 2.02959-.7023 2.50038c-.2935.28247-.6708.46032-1.1844.46032-.5345 0-.8909-.17785-1.1949-.46032-.4716-.47079-.7022-1.29727-.7022-2.50038z"/><path d="m107.349 6.40916v-.88926h-1.215v-.7951c0-.70094.45-.85787.796-.85787.252 0 .378.03139.43.06277v-.87879c-.042-.03139-.252-.10462-.587-.10462-.912 0-1.656.59632-1.656 1.7262v.84741h-.933v.88926h.933v4.14284h1.017v-4.14284z"/><path d="m109.726 3.9297h-.901v.81603c0 .44986-.231.77417-.776.77417h-.272v.88926h.964v2.76193c0 .92061.535 1.43331 1.405 1.43331.335 0 .587-.0628.67-.0942v-.83695c-.083.03139-.262.04185-.387.04185-.514 0-.703-.23016-.703-.69048v-2.61546h1.09v-.88926h-1.09z"/></g><g clip-path="url(#s)" fill="#090a0a"><path clip-rule="evenodd" d="m10.4725 24.3984h-6.71339v.7528h6.71339zm-.0018 52.6921h-2.9839v-12.042h-.74593v12.042h-2.98355v.7528h6.71338zm-3.72983-39.8937h.74593v-12.0449h-.74593z" fill-rule="evenodd"/><path d="m3.41321 57.925.77475.2906c-.14527.2614-.3099.7069-.3099 1.2492 0 1.4624 1.11369 2.3824 2.54697 2.4308-.46485-.2809-.90064-.9006-.90064-1.8303 0-1.3462.82316-2.3436 2.33392-2.3436 1.47201 0 2.31459 1.2008 2.31459 2.5082 0 1.2783-.86195 2.6438-3.16681 2.6438-2.54697 0-3.98993-1.5301-3.98993-3.467 0-.6198.17431-1.1621.39705-1.4817zm4.43541 3.8253c.93938 0 1.50107-.765 1.50107-1.5301 0-.8232-.55201-1.5398-1.50107-1.5398-.95874 0-1.50107.7166-1.50107 1.5398 0 .8135.54233 1.5301 1.50107 1.5301zm1.55917-5.0077c-.37768 0-.6779-.2905-.6779-.6682s.30022-.6779.6779-.6779c.37769 0 .66821.3002.66821.6779s-.29052.6682-.66821.6682zm-.93937-1.9222h-1.12338l-4.18362-2.944v-1.3462h4.41604v-1.1814h.89096v1.1814h1.55918v.9104h-1.55918zm-.89096-3.3798h-3.53477l3.53477 2.4985zm-1.38485-7.7968v1.1234h3.83499v.9393h-3.83499v.862h-.82317v-.862h-.78443c-1.0459 0-1.59791-.6875-1.59791-1.5301 0-.3099.06779-.5036.09685-.5423h.81348c-.02906.0484-.05811.1646-.05811.3971 0 .3195.14527.736.79411.736h.73601v-1.1234zm-2.29518-2.1961h1.47201v-1.0072h.82317v1.0072h2.42107c.42611 0 .63916-.1744.63916-.6489 0-.1162-.00968-.2808-.03873-.3583h.77474c.02905.0775.08715.3099.08715.6198 0 .8038-.47452 1.2977-1.32674 1.2977h-2.55665v.8909h-.82317v-.2518c0-.5035-.30021-.7166-.71664-.7166h-.75537z"/></g><path clip-rule="evenodd" d="m150.603 51.9405s1.385.6434 2.824.6434 2.41-.8378 2.41-.8378l.189 2.3011v1.983h-5.65v-1.983z" fill="#634739" fill-rule="evenodd"/><path clip-rule="evenodd" d="m148.457 75.2314h9.521l.4 4.3744.503 5.4787 1.268 14.7516s1.883-.3315 1.883 1.9149h-4.948l-1.655-12.2836-2.212-7.717-2.197 7.6088-1.67 12.3918h-4.762s-.294-1.9149 1.487-1.9149c0 0 .664-7.4327.931-11.345.183-2.6805.822-8.2987.822-8.2987z" fill="#282e53" fill-rule="evenodd"/><path clip-rule="evenodd" d="m138.611 65.7898s-1.238-2.0017-1.646-3.1577c-.737-2.09-1.79-6.5802-1.79-6.5802s-.902-.78-1.341-2.5121c-.438-1.7324.082-3.2732 1.099-3.3659 1.016-.0926 1.606.0176 1.606.0176l.426 2.8811s.754-1.2387 1.592-1.2179c.837.0209.047 1.4089.047 1.4089l-1.076 2.0007s1.64 2.1498 2.586 6.143l2.14-2.1026 3.741 1.2763s0 2.5942-1.869 3.8692c-1.869 1.2751-5.515 1.3396-5.515 1.3396z" fill="#634739" fill-rule="evenodd"/><path clip-rule="evenodd" d="m162.518 58.2702s-1.328-2.4596-4.042-2.4596l-2.451-.5508s-1.115.5188-2.805.5508c-1.689-.032-2.805-.5508-2.805-.5508h-2.714c-2.714 0-3.007 2.2784-3.007 2.2784s-1.2.48-1.8.9082c-.458.3266-1.374 1.3563-1.374 1.3563.398 3.2283 3.174 4.6168 3.174 4.6168l1.989-1.5784 1.282 5.7847.311 6.692s.41 1.3824 4.944 1.3824 4.945-1.3824 4.945-1.3824l.311-6.692.869-5.7847v1.5784s4.418 1.9705 4.418-1.0773z" fill="#434d9e" fill-rule="evenodd"/><path d="m146.707 62.1686c-1.699 1.8407-3.261 3.0577-7.54 3.8304-1.967 0-3.993-9.9483-3.993-9.9483s-1.123-.776-1.477-3.2372c-.41-2.8434 2.001-2.9459 2.548-2.6401.302.1696.359 1.1755.359 1.1755.176 1.2889.373 1.7332.702 1.2378.774-1.1631 2.136-.8425 1.471.4079-.556 1.045-1.253 2.275-1.253 2.275 1.643 3.5158 1.643 3.0862 2.464 6.2824" stroke="#1c1f34" stroke-linecap="round" stroke-linejoin="round" stroke-width=".90662"/><path clip-rule="evenodd" d="m160.528 76.1945s-.774-5.9496-.347-7.3206c0 0-.837-.9557-.787-4.7207 1.543.0983 3.278-.2068 4.527-1.1112.46 2.5319-.007 4.291-.203 5.8509-.365 2.9205-1.026 9.23-1.026 9.23s-.45 2.774-1.864 3.6865c-1.414.9127-2.679-.032-2.179-1.383.5-1.3514.498-2.1844.498-2.1844s-.484 1.2766-.419.4418c.065-.8347 1.8-2.4893 1.8-2.4893z" fill="#634739" fill-rule="evenodd"/><path clip-rule="evenodd" d="m156.675 61.6392c.134 0 .214-.0495.214-.2037v-2.2235c0-.0497.042-.0858.088-.0782.14.0236.408.0679.525.0871l.055.009c.03.0051.063.0336.063.0753v2.2198c0 .6771-.481.7412-.75.7412-.172 0-.292-.0247-.356-.0426-.038-.0104-.057-.0421-.057-.0752v-.4438c0-.0403.035-.0868.088-.077.035.0064.079.0116.13.0116zm-4.51-1.8359c-.241-.0232-.396-.0695-.48-.0963-.052-.0164-.088.0199-.098.056l-.009.0343c-.02.0697-.064.2273-.087.3235-.011.0453.017.0785.048.0927.044.0205.109.0412.185.0622-.083.1472-.114.3045-.114.4314 0 .3615.219.8525 1.026.8525h.074c.169 0 .312-.0216.432-.0589.031.029.054.0688.054.1234 0 .0955-.077.1652-.155.1652l-.63.0001c-.444 0-.832.2287-.832.8325 0 .5667.45.795 1.094.795.685 0 1.092-.2107 1.092-.7612 0-.2899-.189-.5254-.189-.5254s.175-.1493.175-.4406c0-.2229-.111-.3755-.193-.4576.131-.1615.178-.3571.178-.525 0-.3391-.221-.8951-1.063-.8964l-.01.0003c-.055.0015-.323.0092-.498-.0077zm-2.445.001c-.242-.0232-.397-.0696-.481-.0964-.051-.0163-.088.0199-.097.056l-.01.0343c-.02.0698-.064.2274-.087.3236-.011.0453.017.0785.048.0926.044.0206.109.0412.185.0622-.083.1473-.114.3046-.114.4315 0 .3615.219.8525 1.026.8525h.074c.169 0 .312-.0216.433-.0589.03.0289.053.0688.053.1233 0 .0956-.077.1653-.155.1653l-.63.0001c-.444 0-.832.2287-.832.8324 0 .5667.45.7951 1.094.7951.685 0 1.092-.2108 1.092-.7612 0-.2899-.189-.5254-.189-.5254s.175-.1494.175-.4407c0-.2229-.111-.3755-.193-.4575.131-.1616.178-.3572.178-.525 0-.3391-.221-.8951-1.063-.8964l-.01.0002c-.055.0016-.323.0092-.497-.0076zm.496.4536c.183.0011.35.1521.35.4297 0 .2588-.136.427-.338.4279-.201-.0009-.337-.1691-.337-.4279 0-.2776.142-.4286.325-.4297zm-.437 2.3438c0-.1582.087-.283.268-.283.31 0 .484.0004.484.0004s.115.1115.115.3165c0 .1254-.07.2694-.44.2694-.356 0-.427-.16-.427-.3033zm3.233-1.9178c0-.2776-.167-.4286-.35-.4297-.183.0011-.325.1521-.325.4297 0 .2588.136.427.337.4279.202-.0009.338-.1691.338-.4279zm-.787 1.9141c0-.1582.087-.283.268-.283.31 0 .484.0004.484.0004s.115.1115.115.3165c0 .1254-.07.2694-.44.2694-.357 0-.427-.16-.427-.3033zm2.614-2.67c0-.0345-.03-.0738-.075-.0738h-.581c-.043 0-.075.0358-.075.0752v2.2137c0 .0589.047.0799.073.0799h.493c.044 0 .066-.0348.072-.056.004-.0154.051-.1854.077-.2771.159.1567.439.3762.757.3762.503 0 .609-.3694.609-.7504v-1.5848c0-.047-.039-.0767-.073-.0767h-.581c-.043 0-.077.0337-.077.0778v1.4569c0 .1775-.057.2438-.187.2438-.206 0-.379-.1799-.432-.2409z" fill="#fff" fill-rule="evenodd"/><path clip-rule="evenodd" d="m153.226 51.9961c4.002 0 3.93-2.0908 4.244-5.1946.313-3.1038-1.31-4.3142-4.244-4.3142s-4.689 1.3579-4.392 4.3142c.297 2.9562.389 5.1946 4.392 5.1946z" fill="#74605f" fill-rule="evenodd" stroke="#1c1f34" stroke-width=".90662"/><path d="m153.219 81.5576 2.197 7.801 1.67 12.3914h4.578s.227-2.0834-1.471-1.8966l-1.63-19.5033-.553-4.5649.464-7.6635s1.007-5.0162 1.007-8.0846" stroke="#1c1f34" stroke-linecap="round" stroke-linejoin="round" stroke-width=".90662"/><path d="m158.166 100.432c.523-.336 1.736-.5531 3.175 0" stroke="#1c1f34" stroke-linecap="round" stroke-linejoin="round" stroke-width=".543972"/><path d="m153.044 81.5576-2.197 7.801-1.67 12.3914h-4.578s-.227-2.0834 1.471-1.8966l1.629-19.5033.554-4.5649-.464-7.6635s-1.007-5.0162-1.007-8.0846" stroke="#1c1f34" stroke-linecap="round" stroke-linejoin="round" stroke-width=".90662"/><path d="m148.097 100.432c-.523-.336-1.736-.5531-3.175 0" stroke="#1c1f34" stroke-linecap="round" stroke-linejoin="round" stroke-width=".543972"/><path d="m150.816 80.8594h4.806" stroke="#1c1f34" stroke-linecap="round" stroke-linejoin="round" stroke-width=".543972"/><path d="m155.791 55.5381c2.583 0 3.994.7209 5.075 1.1174 1.08.3965 1.918 2.3431 2.336 3.9693.518 2.0205.518 4.4268.518 7.6391 0 3.2122-1.026 9.5314-1.026 9.5314s-.45 2.8642-1.864 3.8067c-1.414.9422-2.678-.0329-2.179-1.4284.5-1.3951.498-2.2553.498-2.2553s-.484 1.3182-.419.4562c.065-.8623 1.8-2.5708 1.8-2.5708s-.799-6.1437-.371-7.5594c0 0-1.497-2.3071-.748-6.4679" stroke="#1c1f34" stroke-linecap="round" stroke-linejoin="round" stroke-width=".90662"/><path d="m156.292 55.2591s-.455-.8157-.455-1.8001" stroke="#1c1f34" stroke-linecap="round" stroke-linejoin="round" stroke-width=".90662"/><path d="m139.92 61.5372s2.023-3.2168 4.478-3.9942c1.014-.946.911-1.0724 2.351-1.6587 1.88-.7659 3.989-.6251 3.989-.6251" stroke="#1c1f34" stroke-linecap="round" stroke-linejoin="round" stroke-width=".90662"/><path d="m150.146 55.2591s.455-.8157.455-1.8001" stroke="#1c1f34" stroke-linecap="round" stroke-linejoin="round" stroke-width=".90662"/><path d="m155.69 53.0232c.384-.255.745-.635.98-1.201.092-.2221.303-1.3097.468-2.4472" stroke="#1c1f34" stroke-linecap="round" stroke-linejoin="round" stroke-width="1.08794"/><path d="m150.617 53.0207c-.384-.2552-.744-.6355-.979-1.202-.091-.2219-.296-1.3684-.456-2.5238" stroke="#1c1f34" stroke-linecap="round" stroke-linejoin="round" stroke-width="1.08794"/><ellipse cx="153.179" cy="49.2233" fill="#634739" rx="3.85909" ry="4.31025"/><ellipse cx=".559316" cy="1.12909" rx=".559316" ry="1.12909" stroke="#1c1f34" stroke-linecap="round" stroke-linejoin="round" stroke-width=".90662" transform="matrix(-.990117 .140242 .138112 .990416 149.059 48.1006)"/><ellipse cx=".745811" cy="1.12913" fill="#634739" rx=".745811" ry="1.12913" transform="matrix(-.990118 .140236 .138117 .990415 149.794 47.9961)"/><ellipse cx=".559316" cy="1.12908" rx=".559316" ry="1.12908" stroke="#1c1f34" stroke-linecap="round" stroke-linejoin="round" stroke-width=".90662" transform="matrix(.990117 .140242 -.138112 .990416 157.206 48.1006)"/><ellipse cx=".745811" cy="1.12913" fill="#634739" rx=".745811" ry="1.12913" transform="matrix(.990118 .140236 -.138118 .990415 156.47 47.9961)"/><path clip-rule="evenodd" d="m149.279 45.1686c.372-.8264 1.211-1.4791 1.211-1.4791s.583 1.0317.305 1.2888c-.167.1548-.808.9066-.914 1.3519-.284 1.1904-.183 2.5804-.21 2.9425s-.088.4118-.209 0c-.069-.235-.134-.3172-.183-1.0175-.026-.37-.27-.3199-.276-.7153-.007-.4536-.095-1.5449.276-2.3713z" fill="#1c1f34" fill-rule="evenodd"/><path clip-rule="evenodd" d="m157.009 45.1686c-.371-.8264-1.21-1.4791-1.21-1.4791s-.583 1.0317-.306 1.2888c.167.1548.809.9066.915 1.3519.283 1.1904.183 2.5804.21 2.9425s.087.4118.208 0c.07-.235.134-.3172.183-1.0175.026-.37.271-.3199.277-.7153.007-.4536.095-1.5449-.277-2.3713z" fill="#1c1f34" fill-rule="evenodd"/><path d="m151.824 51.502s.689.9554 2.63.2776" stroke="#1c1f34" stroke-linecap="round" stroke-linejoin="round" stroke-width=".543972"/><path d="m154.29 53.3848c-1.33.4929-.67.4676-1.978.1209" opacity=".2" stroke="#1c1f34" stroke-linecap="round" stroke-linejoin="round" stroke-width=".362648"/><path clip-rule="evenodd" d="m157.777 46.7936c0-1.1323 0-4.6979-4.468-4.6979s-4.655 3.2091-4.655 4.5657c0 .6774 2.275-.1355 4.553-.1297 2.283.0058 4.57.8287 4.57.2619z" fill="#434d9e" fill-rule="evenodd" stroke="#1c1f34" stroke-width=".90662"/><rect fill="#fff" height="1.12912" rx=".362648" width="2.23778" x="152.197" y="43.6006"/><path d="m157.517 47.6964c0 .4652-2.213-.3567-4.391-.347-2.177.0097-4.472.891-4.472.3863 0-.5046 2.304-1.1153 4.472-1.125 2.169-.0096 4.391.6204 4.391 1.0857z" style="opacity:.3;fill-rule:evenodd;clip-rule:evenodd;fill:#1c1f34;stroke:#1c1f34;stroke-width:.543972"/><path clip-rule="evenodd" d="m158.263 47.263c0 .602-2.492-.4614-4.944-.4489-2.453.0125-5.037 1.1527-5.037.4999 0-.6529 2.595-1.8195 5.037-1.832 2.442-.0124 4.944 1.1791 4.944 1.781z" fill="#434d9e" fill-rule="evenodd" stroke="#1c1f34" stroke-width=".543972"/><ellipse cx="153.319" cy="41.644" fill="#1c1f34" rx=".74593" ry=".376374"/><path clip-rule="evenodd" d="m178.629 51.9415s1.356.6434 2.764.6434c1.409 0 2.359-.8378 2.359-.8378l.185 2.3011v1.983h-5.53v-1.983z" fill="#c99073" fill-rule="evenodd"/><path clip-rule="evenodd" d="m176.532 75.2324h9.319l.391 4.3743.493 5.4787 1.241 14.7517s1.843-.3315 1.843 1.9149h-4.843l-1.62-12.2836-2.271-7.8028-2.044 7.6946-1.635 12.3918h-4.662s-.287-1.9149 1.456-1.9149c0 0 .65-7.4327.912-11.345.179-2.6805.804-8.2987.804-8.2987z" fill="#282e53" fill-rule="evenodd"/><path clip-rule="evenodd" d="m190.292 58.2712s-1.3-2.4597-3.957-2.4597l-2.398-.5508s-1.092.5189-2.746.5508c-1.654-.0319-2.746-.5508-2.746-.5508l-2.67.5508c-2.113.911-2.929 1.7277-2.929 1.7277s-.62 1.364-1.207 1.7922c-.448.3266-.923 4.0118-.923 4.0118.389 3.2283 6.823 1.6294 4.561 1.2898l-.416-2.3083 1.186 6.3021.304 6.692s.402 1.3824 4.84 1.3824 4.84-1.3824 4.84-1.3824l.304-6.692.851-5.7847v1.5784s4.324 1.9705 4.324-1.0773z" fill="#434d9e" fill-rule="evenodd"/><path clip-rule="evenodd" d="m188.347 73.1959s.222-2.951.64-4.3219c0 0-1.798-.9558-1.75-4.7208 1.511.0984 3.01-.1004 4.233-1.0048.144.8084.691 1.4998.688 2.1693-.007 1.4274.421 2.5134.291 3.5752-.358 2.9205-1.984 6.2313-1.984 6.2313s-.44 2.7741-1.824 3.6865c-1.385.9127-2.622-.0319-2.133-1.383.489-1.3513.488-2.1844.488-2.1844s-.475 1.2766-.411.4419c.064-.8348 1.762-2.4893 1.762-2.4893z" fill="#c99073" fill-rule="evenodd"/><path clip-rule="evenodd" d="m184.577 61.6402c.131 0 .209-.0495.209-.2037v-2.2235c0-.0497.041-.0859.086-.0782.137.0236.4.0679.514.0871l.054.009c.03.0051.061.0335.061.0752v2.2199c0 .6771-.47.7412-.734.7412-.168 0-.285-.0247-.348-.0426-.037-.0104-.055-.0421-.055-.0752v-.4438c0-.0403.033-.0868.085-.077.034.0064.077.0116.128.0116zm-4.415-1.8345c-.236-.0232-.388-.0695-.47-.0963-.05-.0163-.086.0199-.095.056l-.01.0343v.0001c-.019.0698-.062.2273-.085.3234-.011.0453.017.0785.047.0927.043.0205.107.0412.181.0622-.081.1472-.112.3046-.112.4314 0 .3615.215.8525 1.005.8525h.072c.166 0 .305-.0215.424-.0589.029.029.052.0688.052.1234 0 .0955-.075.1652-.152.1652l-.616.0001c-.435 0-.814.2287-.814.8325 0 .5667.44.795 1.07.795.671 0 1.069-.2107 1.069-.7612 0-.2899-.185-.5254-.185-.5254s.172-.1493.172-.4406c0-.2229-.11-.3755-.19-.4575.129-.1616.175-.3572.175-.5251 0-.3391-.217-.8951-1.041-.8964l-.01.0003c-.053.0016-.315.0092-.487-.0077zm-2.396.0008c-.236-.0232-.388-.0695-.47-.0963-.051-.0164-.086.0199-.096.056l-.009.0343v.0001c-.019.0699-.063.2273-.085.3234-.011.0453.017.0785.047.0927.043.0205.107.0412.181.0622-.081.1472-.112.3045-.112.4314 0 .3615.215.8525 1.005.8525h.072c.165 0 .305-.0216.423-.0589.03.029.053.0688.053.1234 0 .0955-.075.1652-.152.1652l-.616.0001c-.435 0-.815.2287-.815.8325 0 .5667.441.795 1.071.795.671 0 1.069-.2107 1.069-.7612 0-.2899-.185-.5254-.185-.5254s.171-.1493.171-.4406c0-.2229-.109-.3755-.189-.4576.128-.1615.175-.3571.175-.525 0-.3391-.217-.8951-1.041-.8964l-.01.0003c-.054.0015-.316.0092-.487-.0077zm.485.4536c.179.0012.342.1522.342.4298 0 .2587-.133.427-.33.4279-.198-.0009-.331-.1692-.331-.4279 0-.2776.139-.4286.319-.4298zm-.425 2.3439c0-.1583.085-.283.263-.283.303 0 .474.0003.474.0003s.112.1116.112.3166c0 .1254-.069.2693-.431.2693-.349 0-.418-.1599-.418-.3032zm3.162-1.9157c0-.2776-.163-.4286-.342-.4298-.179.0012-.318.1522-.318.4298 0 .2588.133.427.33.4279.197-.0009.33-.1691.33-.4279zm-.766 1.9141c0-.1583.084-.283.262-.283.303 0 .474.0003.474.0003s.112.1116.112.3166c0 .1254-.068.2693-.43.2693-.349 0-.418-.1599-.418-.3032zm2.555-2.6717c0-.0344-.028-.0737-.073-.0737h-.569c-.041 0-.073.0358-.073.0752v2.2137c0 .0588.046.0798.072.0798h.482c.044 0 .065-.0348.071-.0559.003-.0155.05-.1854.075-.2772.156.1567.429.3763.741.3763.493 0 .596-.3694.596-.7504v-1.5849c0-.047-.038-.0766-.071-.0766h-.569c-.042 0-.075.0337-.075.0778v1.4569c0 .1775-.057.2437-.184.2437-.201 0-.37-.1798-.422-.2408z" fill="#fff" fill-rule="evenodd"/><path clip-rule="evenodd" d="m181.198 51.9971c3.918 0 3.847-2.0909 4.154-5.1947s-1.282-4.3141-4.154-4.3141-4.589 1.3579-4.298 4.3141c.29 2.9563.38 5.1947 4.298 5.1947z" fill="#74605f" fill-rule="evenodd" stroke="#1c1f34" stroke-width=".911153"/><path d="m181.192 81.5566 2.151 7.8011 1.634 12.3913h4.482s.222-2.0834-1.441-1.8966l-1.594-19.5033-.542-4.5649.454-7.6635s.986-5.0162.986-8.0846" stroke="#1c1f34" stroke-linecap="round" stroke-linejoin="round" stroke-width=".90662"/><path d="m186.035 100.431c.513-.336 1.7-.553 3.109 0" stroke="#1c1f34" stroke-linecap="round" stroke-linejoin="round" stroke-width=".543972"/><path d="m181.022 81.5566-2.15 7.8011-1.635 12.3913h-4.481s-.222-2.0834 1.44-1.8966l1.595-19.5033.541-4.5649-.454-7.6635s-.985-5.0162-.985-8.0846" stroke="#1c1f34" stroke-linecap="round" stroke-linejoin="round" stroke-width=".90662"/><path d="m176.179 100.431c-.513-.336-1.699-.553-3.108 0" stroke="#1c1f34" stroke-linecap="round" stroke-linejoin="round" stroke-width=".543972"/><path d="m179.57 81.1816h3.244" stroke="#1c1f34" stroke-linecap="round" stroke-linejoin="round" stroke-width=".546692"/><path d="m183.711 55.5391c2.528 0 3.91.7209 4.967 1.1174 1.058.3965 1.878 2.3431 2.287 3.9693.508 2.0204 1.487 4.4268 1.487 7.639 0 3.2123-1.984 6.5328-1.984 6.5328s-.441 2.8643-1.825 3.8067c-1.384.9422-2.621-.0329-2.132-1.4284.489-1.3951.487-2.2553.487-2.2553s-.474 1.3182-.41.4562c.064-.8623 1.762-2.5708 1.762-2.5708s.197-3.1451.615-4.5607c0 0-2.444-2.3071-1.711-6.4679" stroke="#1c1f34" stroke-linecap="round" stroke-linejoin="round" stroke-width=".90662"/><path clip-rule="evenodd" d="m173.863 73.1959s-.222-2.951-.639-4.3219c0 0 1.798-.9558 1.749-4.7208-1.511.0984-3.01-.1004-4.233-1.0048-.143.8084-.691 1.4998-.688 2.1693.007 1.4274-.421 2.5134-.291 3.5752.358 2.9205 1.984 6.2313 1.984 6.2313s.44 2.7741 1.825 3.6865c1.384.9127 2.621-.0319 2.132-1.383-.489-1.3513-.487-2.1844-.487-2.1844s.474 1.2766.41.4419c-.064-.8348-1.762-2.4893-1.762-2.4893z" fill="#c99073" fill-rule="evenodd"/><path d="m178.504 55.5391c-2.528 0-3.909.7209-4.967 1.1174-1.057.3965-1.878 2.3431-2.286 3.9693-.508 2.0205-1.487 4.4268-1.487 7.6391 0 3.2122 1.984 6.5327 1.984 6.5327s.44 2.8643 1.824 3.8068c1.384.9421 2.622-.033 2.133-1.4285-.489-1.3951-.488-2.2553-.488-2.2553s.475 1.3182.411.4562c-.064-.8623-1.762-2.5708-1.762-2.5708s-.198-3.1451-.616-4.5607c0 0 2.445-2.3071 1.711-6.4679" stroke="#1c1f34" stroke-linecap="round" stroke-linejoin="round" stroke-width=".90662"/><path d="m184.199 55.2601s-.445-.8157-.445-1.8001" stroke="#1c1f34" stroke-linecap="round" stroke-linejoin="round" stroke-width=".90662"/><path d="m178.186 55.2601s.445-.8157.445-1.8001" stroke="#1c1f34" stroke-linecap="round" stroke-linejoin="round" stroke-width=".90662"/><path d="m183.61 53.0241c.376-.2549.729-.6349.959-1.2009.09-.2221.297-1.3097.458-2.4472" stroke="#1c1f34" stroke-linecap="round" stroke-linejoin="round" stroke-width=".90662"/><path d="m178.644 53.0217c-.376-.2552-.728-.6355-.958-1.202-.09-.2219-.29-1.3685-.447-2.5238" stroke="#1c1f34" stroke-linecap="round" stroke-linejoin="round" stroke-width=".90662"/><ellipse cx="181.153" cy="49.2243" fill="#c99073" rx="3.77733" ry="4.31025"/><ellipse cx=".547459" cy="1.12908" rx=".547459" ry="1.12908" stroke="#1c1f34" stroke-linecap="round" stroke-linejoin="round" stroke-width=".906619" transform="matrix(-.990117 .140243 .138111 .990416 177.112 48.1016)"/><ellipse cx=".730003" cy="1.12912" fill="#c99073" rx=".730003" ry="1.12912" transform="matrix(-.990117 .140239 .138115 .990416 177.835 47.998)"/><ellipse cx=".547459" cy="1.12908" rx=".547459" ry="1.12908" stroke="#1c1f34" stroke-linecap="round" stroke-linejoin="round" stroke-width=".906619" transform="matrix(.990117 .140243 -.138111 .990416 185.101 48.1016)"/><ellipse cx=".730003" cy="1.12912" fill="#c99073" rx=".730003" ry="1.12912" transform="matrix(.990117 .140239 -.138115 .990416 184.378 47.998)"/><path clip-rule="evenodd" d="m177.334 45.1696c.364-.8265 1.185-1.4792 1.185-1.4792s.571 1.0317.299 1.2889c-.164.1547-.792.9066-.896 1.3519-.277 1.1904-.179 2.5804-.205 2.9425s-.086.4118-.204 0c-.068-.235-.131-.3173-.179-1.0175-.025-.37-.265-.3199-.271-.7153-.007-.4536-.093-1.5449.271-2.3713z" fill="#74605f" fill-rule="evenodd"/><path clip-rule="evenodd" d="m184.9 45.1696c-.364-.8265-1.185-1.4792-1.185-1.4792s-.571 1.0317-.299 1.2889c.164.1547.792.9066.895 1.3519.278 1.1904.179 2.5804.206 2.9425.026.3621.086.4118.204 0 .068-.235.131-.3173.179-1.0175.025-.37.265-.3199.271-.7153.006-.4536.093-1.5449-.271-2.3713z" fill="#74605f" fill-rule="evenodd"/><path d="m179.83 51.5029s.674.9555 2.574.2777" stroke="#1c1f34" stroke-linecap="round" stroke-linejoin="round" stroke-width=".543972"/><path d="m182.24 53.3857c-1.301.493-.656.4677-1.936.121" opacity=".2" stroke="#1c1f34" stroke-linecap="round" stroke-linejoin="round" stroke-width=".362648"/><path clip-rule="evenodd" d="m185.654 46.7945c0-1.1322 0-4.6978-4.373-4.6978s-4.556 3.2091-4.556 4.5656c0 .6775 2.227-.1355 4.456-.1297 2.235.0058 4.473.8288 4.473.2619z" fill="#434d9e" fill-rule="evenodd" stroke="#1c1f34" stroke-width=".90662"/><rect fill="#fff" height="1.12913" rx=".364461" width="2.19039" x="180.191" y="43.6016"/><path d="m185.4 47.6974c0 .4652-2.166-.3567-4.297-.347-2.132.0096-4.378.8909-4.378.3863s2.255-1.1154 4.378-1.125c2.122-.0096 4.297.6204 4.297 1.0857z" style="opacity:.3;fill-rule:evenodd;clip-rule:evenodd;fill:#1c1f34;stroke:#1c1f34;stroke-width:.546692"/><path clip-rule="evenodd" d="m186.128 47.264c0 .602-2.439-.4614-4.84-.4489-2.4.0125-4.93 1.1527-4.93.4998 0-.6528 2.54-1.8194 4.93-1.8319 2.391-.0124 4.84 1.1791 4.84 1.781z" fill="#434d9e" fill-rule="evenodd" stroke="#1c1f34" stroke-width=".543972"/><ellipse cx="181.286" cy="41.6449" fill="#1c1f34" rx=".730129" ry=".376374"/><path clip-rule="evenodd" d="m174.117 76.9812h14.189v-14.8289h-14.189z" fill="#e1bfaf" fill-rule="evenodd"/><path clip-rule="evenodd" d="m179.737 62.2168v1.6043.4743.3073l.244.4025.246-.4025.245.4025.245-.4025.246.4025.245-.4025.245.4025.245-.4025.246.4025.246-.4025.247.4025.247-.4025v-.3073-.5875-1.4911z" fill="#fff" fill-rule="evenodd"/><path d="m174.117 76.9812h14.189v-14.8289h-14.189z" style="fill-rule:evenodd;clip-rule:evenodd;stroke:#1c1f34;stroke-width:.90662;stroke-linecap:round;stroke-linejoin:round"/><path clip-rule="evenodd" d="m186.295 71.3688-.667-.9674-.667.9674h.293v2.9835h.748v-2.9835z" fill="#1c1f34" fill-rule="evenodd" opacity=".3"/><path clip-rule="evenodd" d="m184.692 71.3688-.667-.9674-.667.9674h.293v2.9835h.748v-2.9835z" fill="#1c1f34" fill-rule="evenodd" opacity=".3"/><path clip-rule="evenodd" d="m183.23 74.7754h3.194v-.4268h-3.194z" fill="#1c1f34" fill-rule="evenodd" opacity=".3"/></svg>