<svg fill="none" height="80" viewBox="0 0 95 80" width="95" xmlns="http://www.w3.org/2000/svg" xmlns:xlink="http://www.w3.org/1999/xlink"><linearGradient id="a"><stop offset="0" stop-color="#fff"/><stop offset="1" stop-color="#f9f9fc"/></linearGradient><linearGradient id="b" gradientUnits="userSpaceOnUse" x1="6.16695" x2="6.16695" xlink:href="#a" y1="2.40039" y2="64.5703"/><linearGradient id="c" gradientUnits="userSpaceOnUse" x1="35.4219" x2="35.4219" y1="57.7124" y2="38.108"><stop offset=".0118583" stop-color="#1c1f34" stop-opacity=".2"/><stop offset="1" stop-color="#1c1f34"/></linearGradient><linearGradient id="d" gradientUnits="userSpaceOnUse" x1="33.2154" x2="33.2154" y1="11.1233" y2="31.5329"><stop offset="0" stop-color="#8388a4"/><stop offset=".986707" stop-color="#a5a9c1"/></linearGradient><linearGradient id="e" gradientUnits="userSpaceOnUse" x1="1.6582" x2="1.6582" y1="47.741" y2="52.0522"><stop offset="0" stop-color="#ffc900"/><stop offset="1" stop-color="#fff15e"/></linearGradient><linearGradient id="f" gradientUnits="userSpaceOnUse" x1="72.1776" x2="72.1776" y1="10.1028" y2="36.6857"><stop offset="0" stop-color="#e0e0e0"/><stop offset="1" stop-color="#e7e7e8"/></linearGradient><linearGradient id="g"><stop offset="0" stop-opacity=".2"/><stop offset="1"/></linearGradient><linearGradient id="h" gradientUnits="userSpaceOnUse" x1="176.308" x2="176.308" xlink:href="#g" y1="37.3765" y2="10.1028"/><linearGradient id="i" gradientUnits="userSpaceOnUse" x1="175.721" x2="175.721" xlink:href="#g" y1="36.7554" y2="10.7214"/><linearGradient id="j" gradientUnits="userSpaceOnUse" x1="171.697" x2="171.697" xlink:href="#a" y1="33.8863" y2="12.5806"/><linearGradient id="k" gradientUnits="userSpaceOnUse" x1="35.7915" x2="35.7915" y1="73.2253" y2="57.8032"><stop offset="0" stop-color="#a4acbc"/><stop offset=".9859" stop-color="#b5bbca"/></linearGradient><mask id="l" height="80" maskUnits="userSpaceOnUse" width="171" x="0" y="0"><path d="m0 0h171v80h-171z" fill="#fff"/></mask><mask id="m" height="6" maskUnits="userSpaceOnUse" width="7" x="1" y="47"><path clip-rule="evenodd" d="m1.88198 47.741h6.0821l-1.18235 4.3112h-5.12353z" fill="#fff" fill-rule="evenodd"/></mask><mask id="n" height="2" maskUnits="userSpaceOnUse" width="3" x="22" y="40"><path clip-rule="evenodd" d="m22.832 41.1937c0-.1814.131-.3285.3007-.3285h1.2193c.166 0 .3006.1524.3006.3285 0 .1814-.1309.3285-.3006.3285h-1.2193c-.1661 0-.3007-.1524-.3007-.3285z" fill="#fff" fill-rule="evenodd"/></mask><path d="m12.4069 0h146.726v80h-146.726z" fill="#39437c" fill-opacity=".01"/><g mask="url(#l)"><rect fill="#1c1f34" height="1.40031" rx=".700157" width="128.714" x="39.1229" y="78.0168"/><rect fill="#1c1f34" height="1.40031" rx=".700157" width="25.0784" x="11.6523" y="78.0173"/><g clip-rule="evenodd" fill-rule="evenodd"><path d="m182.298 62.7177s1.752-6.8086 1.752-21.0798c0-14.2711-3.981-36.30565-3.981-36.30565-.388-2.39264-2.636-4.33225-5.024-4.33225 0 0-96.0959 0-112.3565 0-14.3629 0-40.6256 31.2848-40.6256 31.2848s-18.46571 8.4649-20.38048 13.5465c-1.914779 5.0815-1.109277 18.1819 3.04089 21.2007 1.08956.7926 13.36189 1.1741 30.87009 1.3057.0232.3168.2876.5774.6104.5774h141.4042c.334 0 .612-.2787.612-.6226v-1.3295c1.979-.4959 3.717-2.2193 4.078-4.2453z" fill="#1c1f34"/><path d="m31.2559 68.9146h120.8461v2.8006h-120.8461z" fill="#1c1f34"/><path d="m180.903 62.5092s1.756-6.7688 1.756-20.9565c-.001-14.1877-4.164-36.08092-4.164-36.08092-.292-1.69628-1.913-3.07139-3.628-3.07139 0 0-95.6016 0-111.8946 0-14.3916 0-38.8512 30.47791-38.8512 30.47791s-19.0979 8.2283-21.03976 12.8432-1.11149 16.8276 3.04697 19.8288c2.04006 1.4724 44.04539 1.8408 84.85349 1.8721 17.4611.0133 33.5321.2012 48.0791 0h38.379c.335 0 .614-.2771.614-.6189v-.5504c1.432-.7657 2.565-2.1621 2.849-3.7439z" fill="url(#b)"/><path d="m2.42198 46.0462s8.43102-5.1181 12.96452-7.0288c3.3781-1.4237 10.7702-2.9745 10.7702-2.9745l.2196.6082s-7.4135 1.5598-10.8023 2.9881c-4.5228 1.9061-12.93244 7.0152-12.93244 7.0152z" fill="#242d5f" opacity=".1"/><path d="m35.463 41.8805-.0357.6949c-.0804 1.5664.7365 3.7607 1.8189 4.895l8.2018 8.5958c.8675.9092 2.5908 1.6462 3.8634 1.6462h8.8404c1.2662 0 2.2837-1.015 2.2726-2.2718l-.1105-15.0157c-.0111-1.2547-1.044-2.292-2.3036-2.3169l-20.7398 2.1088c-.9501-.0187-1.7593.7264-1.8075 1.6637z" fill="#fff"/><path d="m35.463 41.8805-.0357.6949c-.0804 1.5664.7365 3.7607 1.8189 4.895l8.2018 8.5958c.8675.9092 2.5908 1.6462 3.8634 1.6462h8.8404c1.2662 0 2.2837-1.015 2.2726-2.2718l-.1105-15.0157c-.0111-1.2547-1.044-2.292-2.3036-2.3169l-20.7398 2.1088c-.9501-.0187-1.7593.7264-1.8075 1.6637z" fill="url(#c)" fill-opacity=".05"/><path d="m41.6719 51.4116s23.9739-4.9011 35.9608-4.9011h103.6373v.6126s-69.3 0-103.3214 0c-11.8817 0-35.645 4.2885-35.645 4.2885z" fill="#242d5f" opacity=".1"/><path d="m51.3965 9.4019s4.023-3.50078 14.9889-3.50078h113.4966v.58347s-82.7018 0-113.8252 0c-10.8696 0-13.4252 2.33385-13.4252 2.33385z" fill="#242d5f" opacity=".1"/><path d="m67.3691 5.90112h40.9769v.4927h-40.9769z" fill="#242d5f" opacity=".1"/><path d="m46.5332 57.0127h97.2328v2.8006h-97.2328z" fill="#000" opacity=".2"/><path d="m36.1172 54.2124h115.2898v8.4019h-115.2898z" fill="#1c1f34"/><path d="m66.4296 5.90039h1.2342v62.01761h-1.2342z" fill="#1c1f34"/><path d="m75.9917 40.9807c.5134 0 .9296.4171.9296.9397 0 .5189-.4174.9396-.9296.9396h-3.695c-.5134 0-.9296-.4171-.9296-.9396 0-.519.4174-.9397.9296-.9397z" fill="#1c1f34"/><path d="m30.2635 48.5461c-6.4005-5.2078-3.952-16.8722-3.952-16.8722l1.0371-1.3424s-2.3846 11.9149 3.395 17.385c6.31 5.4036 8.532 20.2015 8.532 20.2015h-1.0371s-2.7473-14.2592-7.975-19.3719z" fill="#1c1f34"/><path d="m61.7964 40.9807c.5134 0 .9296.4171.9296.9397 0 .5189-.4175.9396-.9296.9396h-3.695c-.5134 0-.9296-.4171-.9296-.9396 0-.519.4174-.9397.9296-.9397z" fill="#1c1f34"/><path d="m32.4393 36.5112c-3.0495.3552-4.148-1.462-2.3915-4.0099 0 0 1.7537-3.1853 7.5783-9.507 5.8245-6.3217 9.1423-9.689 9.1423-9.689 1.1937-1.2311 3.5403-2.3578 5.2314-2.5155l8.1614-.7614c2.3792-.22198 4.0643 1.5409 3.7624 3.9488l-1.855 14.795c-.3013 2.4029-2.4677 4.5747-4.8409 4.8512z" fill="#1c1f34"/><path d="m31.9283 35.0338c-1.0147.1161-1.3687-.4812-.787-1.3393l2.927-4.3179c.9661-1.4252 2.6953-3.6094 3.8512-4.8666l9.6669-10.5141c.9296-1.0112 2.788-1.9302 4.1416-2.052l9.0131-.8106c1.3577-.1222 2.3173.8923 2.1437 2.2625l-2.0116 15.8803c-.1738 1.3717-1.417 2.6098-2.7692 2.7644z" fill="url(#d)"/><path d="m60.0069 19.6302c.0391-.6629.6045-1.2003 1.2641-1.2003h-.3554c.659 0 1.1932.5407 1.1932 1.2003v4.4903c0 .6629-.5288 1.2003-1.1901 1.2003h-.0571c-.6573 0-1.1583-.5407-1.1194-1.2003z" fill="#1c1f34"/><path d="m60.2624 27.1995h.6112c.6833 0 1.0859.5377.8967 1.2098l-2.128 3.8017h-2.4686l1.4174-3.8366c.2397-.6489.9857-1.1749 1.6713-1.1749z" fill="#1c1f34"/><path d="m41.9647 34.4446c.2479.454.8086-.0134 1.2558-.265.4503-.2533.6099-.1949.3635-.6462l-2.9972-5.4885c-.248-.4541-.8087-.6131-1.2559-.3615-.4502.2533-.6098.8214-.3634 1.2726l1.6294 2.9839-2.0306 1.6769.899 1.5188 2.3316-.9983z" fill="#1c1f34"/><path d="m30.0194 33.6415 3.5112-5.8949 9.3366 7.0591-12.2307 1.1642z" fill="#1c1f34"/><path d="m31.2717 34.0549c-.1863-2.0341.9995-5.524.9995-5.524.2132-.6936.975-1.4349 1.7007-1.6554l.7964-.2419c.726-.2206 1.3678.1818 1.4343.9078l.9634 10.5178c.0662.722-.4968 1.3587-1.2515 1.4218l-1.3756.115c-.7573.0633-1.5963-.4372-1.8638-1.112 0 0-1.2731-3.0061-1.4034-4.4291z" fill="#242d5f" opacity=".1"/><path d="m31.2723 32.8343c-.1498-1.738.5729-4.5496.5729-4.5496.1532-.6738.7974-1.4125 1.4366-1.6491l-.0268.01c.6402-.237 1.2071.1273 1.2663.8146l.7528 8.7332c.0592.6869-.4393 1.2922-1.122 1.3528l-.3074.0273c-.6788.0603-1.408-.4277-1.6196-1.0824 0 0-.848-2.441-.9528-3.6568z" fill="#1c1f34"/><g fill="#fff" opacity=".1"><path d="m42.0193 24.855 7.1469-8.6458c.2173-.2629.6033-.2972.8662-.0733.2611.2224.2922.6212.0793.8786l-7.1469 8.6458c-.2173.2629-.6033.2972-.8662.0733-.2611-.2224-.2922-.6212-.0793-.8786z"/><path d="m47.4175 22.3999c-.1305-.1111-.1448-.312-.0378-.4414l2.7765-3.3588c.1096-.1326.3081-.1467.4349-.0388.1305.1112.1448.3121.0378.4415l-2.7765 3.3587c-.1096.1327-.3081.1468-.4349.0388z"/></g><path d="m1.84945 46.5103h6.18888c.67973 0 1.10242.5316.94212 1.1955l-1.0583 4.3836c-.15941.6603-.84479 1.1956-1.52319 1.1956h-4.61841c-.68183 0-1.279169-.5544-1.333284-1.2269l.270153-4.321c-.054527-.6776.453291-1.2268 1.132031-1.2268z" fill="#1c1f34"/><path d="m1.88198 47.741h6.0821l-1.18235 4.3112h-5.12353z" fill="url(#e)"/></g><g mask="url(#m)"><ellipse cx=".817833" cy="1.4517" fill="#fff" rx=".817833" ry="1.4517" transform="matrix(.998607 .0527599 -.0519153 .998652 1.75977 48.4131)"/><path clip-rule="evenodd" d="m6.4682 46.5103h2.33017v6.2908h-3.56595z" fill="#f00" fill-rule="evenodd" opacity=".2"/></g><path clip-rule="evenodd" d="m22.2246 41.1939c0-.5442.4092-.9854.9104-.9854h1.2135c.5028 0 .9103.4374.9103.9854 0 .5442-.4092.9854-.9103.9854h-1.2135c-.5028 0-.9104-.4374-.9104-.9854z" fill="#1c1f34" fill-rule="evenodd"/><path clip-rule="evenodd" d="m22.832 41.1937c0-.1814.131-.3285.3007-.3285h1.2193c.166 0 .3006.1524.3006.3285 0 .1814-.1309.3285-.3006.3285h-1.2193c-.1661 0-.3007-.1524-.3007-.3285z" fill="#f5a623" fill-rule="evenodd"/><g mask="url(#n)"><path clip-rule="evenodd" d="m22.2246 40.8652h1.2137v.657h-1.2137z" fill="#fff" fill-rule="evenodd"/></g><g clip-rule="evenodd" fill-rule="evenodd" opacity=".5"><path d="m77.0327 10.1028h91.0973c3.419 0 6.447 2.7652 6.764 6.1718l1.387 14.9301c.317 3.4086-2.197 6.1718-5.617 6.1718h-93.6317c-3.4189 0-6.1905-2.7779-6.1905-6.1973v-14.8791c0-3.4227 2.7693-6.1973 6.1909-6.1973z" fill="url(#f)"/><path d="m77.0327 10.1028h91.0973c3.419 0 6.447 2.7652 6.764 6.1718l1.387 14.9301c.317 3.4086-2.197 6.1718-5.617 6.1718h-93.6317c-3.4189 0-6.1905-2.7779-6.1905-6.1973v-14.8791c0-3.4227 2.7693-6.1973 6.1909-6.1973z" fill="url(#h)" fill-opacity=".3"/></g><path clip-rule="evenodd" d="m77.0351 10.7214h91.1159c3.078 0 5.813 2.4845 6.108 5.553l1.436 14.928c.295 3.0668-1.958 5.553-5.042 5.553h-93.6166c-3.0792 0-5.5755-2.4963-5.5755-5.577v-14.88c0-3.0801 2.4931-5.577 5.5742-5.577z" fill="#fff" fill-rule="evenodd"/><path clip-rule="evenodd" d="m77.0351 10.7214h91.1159c3.078 0 5.813 2.4845 6.108 5.553l1.436 14.928c.295 3.0668-1.958 5.553-5.042 5.553h-93.6166c-3.0792 0-5.5755-2.4963-5.5755-5.577v-14.88c0-3.0801 2.4931-5.577 5.5742-5.577z" fill="url(#i)" fill-opacity=".05" fill-rule="evenodd"/><path clip-rule="evenodd" d="m77.0353 12.5806h91.1857c2.053 0 3.896 1.659 4.117 3.6973l1.613 14.9202c.221 2.042-1.258 3.6973-3.319 3.6973h-93.594c-2.0543 0-3.7196-1.659-3.7196-3.7224v-14.87c0-2.0558 1.6581-3.7224 3.7169-3.7224z" fill="url(#j)" fill-rule="evenodd"/><path clip-rule="evenodd" d="m20.8359 33.9071s8.5307-9.4585 13.1037-14.1878c3.0484-3.1525 9.1451-8.2183 9.1451-8.2183l2.6047-2.09939 1.618.2203c.6739.09174.8152.54469.317 1.01189 0 0-7.8129 7.2777-11.4443 11.1971-3.502 3.7798-9.8906 11.3394-9.8906 11.3394z" fill="#1c1f34" fill-rule="evenodd"/><path clip-rule="evenodd" d="m.100419 56.7029c-.391279-1.3349.395282-2.417 1.761291-2.417h20.94049c1.3641 0 2.4698 1.1304 2.4698 2.5217v11.9846c0 1.3927-1.0849 2.3057-2.4162 2.0408l-17.35051-3.453c-1.33443-.2655-2.73461-1.5671-3.12467-2.8979z" fill="#1c1f34" fill-rule="evenodd"/><ellipse cx="28.3452" cy="58.7787" fill="#242d5f" opacity=".1" rx="17.2533" ry="10.1686"/><ellipse cx="28.3691" cy="60.3672" fill="#1c1f34" rx="15.4296" ry="9.86473"/><ellipse cx="28.1931" cy="65.9163" fill="#1c1f34" rx="12.9139" ry="13.106"/><ellipse cx="28.1935" cy="65.9165" fill="url(#k)" rx="7.99429" ry="8.11325"/><ellipse cx="28.1933" cy="65.9167" fill="#1c1f34" rx="4.30461" ry="4.36864"/><ellipse cx="28.1911" cy="59.6763" fill="#1c1f34" rx=".614937" ry=".624084"/><ellipse cx="28.1911" cy="72.158" fill="#1c1f34" rx=".614937" ry=".624081"/><ellipse cx=".615508" cy=".623497" fill="#1c1f34" rx=".615508" ry=".623497" transform="matrix(.938797 .34447 -.339583 .940576 29.9297 59.2546)"/><ellipse cx=".615511" cy=".623499" fill="#1c1f34" rx=".615511" ry=".623499" transform="matrix(.938799 .344465 -.339588 .940574 25.7227 70.9839)"/><ellipse cx=".616994" cy=".622016" fill="#1c1f34" rx=".616994" ry=".622016" transform="matrix(.763473 .64584 -.639729 .7686 32.0723 60.2598)"/><ellipse cx=".616996" cy=".622017" fill="#1c1f34" rx=".616996" ry=".622017" transform="matrix(.763476 .645836 -.639733 .768597 24.168 69.8213)"/><ellipse cx=".618672" cy=".620315" fill="#1c1f34" rx=".618672" ry=".620315" transform="matrix(.496967 .86777 -.864263 .50304 33.748 61.9487)"/><ellipse cx=".618674" cy=".620326" fill="#1c1f34" rx=".618674" ry=".620326" transform="matrix(.496979 .867763 -.86427 .503027 23.0957 68.1895)"/><ellipse cx=".619768" cy=".619209" fill="#1c1f34" rx=".619768" ry=".619209" transform="matrix(.172289 .985046 -.984565 .175017 34.752 64.1143)"/><ellipse cx=".619771" cy=".619209" fill="#1c1f34" rx=".619771" ry=".619209" transform="matrix(.172288 .985047 -.984565 .175018 22.6387 66.282)"/><ellipse cx=".619768" cy=".619209" fill="#1c1f34" rx=".619768" ry=".619209" transform="matrix(-.172289 .985046 -.984565 -.175017 34.9648 66.4988)"/><ellipse cx=".619768" cy=".619222" fill="#1c1f34" rx=".619768" ry=".619222" transform="matrix(-.172293 .985046 -.984566 -.175014 22.8535 64.3318)"/><ellipse cx=".618675" cy=".62032" fill="#1c1f34" rx=".618675" ry=".62032" transform="matrix(-.496968 .867769 -.864264 -.503038 34.3613 68.8132)"/><ellipse cx=".618675" cy=".62032" fill="#1c1f34" rx=".618675" ry=".62032" transform="matrix(-.496968 .867769 -.864264 -.503038 23.7109 62.5725)"/><ellipse cx=".616989" cy=".622012" fill="#1c1f34" rx=".616989" ry=".622012" transform="matrix(-.763472 .645841 -.639728 -.768601 33.0156 70.7778)"/><ellipse cx=".616995" cy=".622017" fill="#1c1f34" rx=".616995" ry=".622017" transform="matrix(-.763478 .645834 -.639735 -.768596 25.1074 61.2158)"/><ellipse cx=".615508" cy=".623499" fill="#1c1f34" rx=".615508" ry=".623499" transform="matrix(-.938797 .344471 -.339582 -.940576 31.0859 72.156)"/><ellipse cx=".615508" cy=".623499" fill="#1c1f34" rx=".615508" ry=".623499" transform="matrix(-.938797 .344471 -.339582 -.940576 26.8789 60.427)"/><path clip-rule="evenodd" d="m27.9459 32.2141s1.2891.5984 2.6292.5984c1.3399 0 2.244-.7793 2.244-.7793l.1752 2.1404v1.8444h-5.2599v-1.8444z" fill="#634739" fill-rule="evenodd"/><path clip-rule="evenodd" d="m25.9478 53.8774h8.8643l.3723 4.0687.4689 5.096 1.1802 13.7209s1.753-.3083 1.753 1.7809h-4.6061l-1.5414-11.4251-2.059-7.1778-2.0456 7.0771-1.5549 11.5258h-4.4346s-.2734-1.7809 1.385-1.7809c0 0 .6186-6.9134.8671-10.5523.1703-2.4932.7647-7.7189.7647-7.7189z" fill="#282e53" fill-rule="evenodd"/><path clip-rule="evenodd" d="m16.7778 45.0963s-1.1527-1.8619-1.5325-2.9371c-.6866-1.9439-1.6666-6.1204-1.6666-6.1204s-.8401-.7255-1.2483-2.3366c-.4083-1.6113.0759-3.0445 1.0225-3.1307.9464-.0862 1.4953.0163 1.4953.0163l.3971 2.6799s.7023-1.1522 1.4819-1.1328c.7796.0193.044 1.3104.044 1.3104l-1.0016 1.8609s1.5265 1.9996 2.4073 5.7138l1.9929-1.9557 3.4831 1.1871s0 2.4129-1.74 3.5989-5.1351 1.246-5.1351 1.246z" fill="#634739" fill-rule="evenodd"/><path clip-rule="evenodd" d="m39.0389 38.1014s-1.2367-2.2878-3.7637-2.2878l-2.2815-.5123s-1.0388.4826-2.6117.5123c-1.5731-.0297-2.6118-.5123-2.6118-.5123h-2.5272c-2.527 0-2.7991 2.1192-2.7991 2.1192s-1.1178.4465-1.6766.8448c-.4264.3038-1.279 1.2615-1.279 1.2615.3708 3.0027 2.9556 4.2943 2.9556 4.2943l1.8515-1.4682 1.1933 5.3806.2895 6.2244s.382 1.2858 4.6038 1.2858c4.2217 0 4.6039-1.2858 4.6039-1.2858l.2893-6.2244.8096-5.3806v1.4682s4.1132 1.8328 4.1132-1.0021z" fill="#434d9e" fill-rule="evenodd"/><path d="m24.3181 41.7286c-1.5815 1.7121-3.0363 2.8441-7.0203 3.5628-1.8313 0-3.7174-9.2532-3.7174-9.2532s-1.0454-.7218-1.3756-3.011c-.3815-2.6448 1.8637-2.7401 2.3721-2.4557.2821.1577.3349 1.0933.3349 1.0933.1633 1.1989.3469 1.6122.6537 1.1514.7201-1.0819 1.9884-.7836 1.369.3794-.5176.972-1.1667 2.1161-1.1667 2.1161 1.53 3.2702 1.53 2.8705 2.2941 5.8434" stroke="#1c1f34" stroke-linecap="round" stroke-linejoin="round" stroke-width=".807644"/><path clip-rule="evenodd" d="m37.1869 54.7739s-.7204-5.534-.323-6.8091c0 0-.779-.889-.7327-4.391 1.4368.0915 3.0521-.1923 4.2151-1.0335.4278 2.3549-.0068 3.9912-.1888 5.4421-.3407 2.7164-.956 8.5851-.956 8.5851s-.4188 2.5802-1.7353 3.4289c-1.3169.8489-2.4939-.0297-2.0286-1.2864.4654-1.2569.4637-2.0317.4637-2.0317s-.4511 1.1873-.3905.4109 1.6761-2.3153 1.6761-2.3153z" fill="#634739" fill-rule="evenodd"/><path clip-rule="evenodd" d="m27.3713 41.2373c-.1243 0-.1986-.046-.1986-.1895v-2.0681c0-.0463-.0392-.0799-.082-.0727-.1301.0219-.3803.0631-.4887.0809h-.0001l-.0512.0085c-.0284.0046-.0585.0311-.0585.0699v2.0648c0 .6297.447.6893.6982.6893.1595 0 .2713-.0229.3316-.0396.0347-.0097.0524-.0391.0524-.0699v-.4128c0-.0375-.032-.0807-.0815-.0716-.0324.0059-.0734.0108-.1216.0108zm6.4776-1.7094c.2249-.0216.3695-.0647.4478-.0896.0476-.0152.0816.0185.0904.0521l.0089.0319c.0183.0649.0595.2115.0811.301.0101.0421-.0161.073-.0447.0861-.0413.0191-.1019.0384-.172.0579.0772.1369.106.2833.106.4013 0 .3362-.2043.7929-.9555.7929h-.0689c-.1571 0-.2903-.02-.4027-.0547-.0282.0269-.0497.064-.0497.1147 0 .0889.0715.1537.1441.1537l.5863.0001c.4138 0 .7747.2127.7747.7743 0 .5271-.4188.7395-1.0182.7395-.6381 0-1.0171-.1961-1.0171-.7081 0-.2696.1761-.4886.1761-.4886s-.163-.139-.163-.4099c0-.2073.1039-.3493.1803-.4256-.1223-.1503-.1664-.3322-.1664-.4883 0-.3154.206-.8326.9901-.8338l.0092.0003c.0512.0014.3004.0085.4632-.0072zm-.4607.4218c-.1705.0011-.3257.1415-.3257.3997 0 .2407.1268.3972.3143.3981.1876-.0009.3143-.1574.3143-.3981 0-.2582-.1324-.3986-.3029-.3997zm.4055 2.1797c0-.1472-.0808-.2632-.2499-.2632-.2881 0-.4507.0003-.4507.0003s-.1068.1038-.1068.2945c0 .1166.0653.2505.4095.2505.332 0 .3979-.1488.3979-.2821zm-2.2241-2.6002c.225-.0216.3695-.0647.4478-.0896.0476-.0152.0816.0185.0904.0521l.0089.0319.0001.0001v.0001.0001c.0183.065.0595.2113.081.3007.0101.0421-.0161.073-.0447.0861-.0413.0191-.1018.0384-.172.0579.0772.1369.1061.2833.1061.4013 0 .3362-.2043.7929-.9556.7929h-.0689c-.1571 0-.2903-.02-.4027-.0548-.0282.027-.0497.064-.0497.1148 0 .0888.0716.1537.1441.1537l.5864.0001c.4137 0 .7746.2127.7746.7743 0 .5271-.4188.7395-1.0182.7395-.6381 0-1.0171-.1961-1.0171-.7081 0-.2696.1761-.4886.1761-.4886s-.163-.139-.163-.4099c0-.2073.1039-.3493.1803-.4256-.1223-.1503-.1663-.3322-.1663-.4883 0-.3154.2059-.8326.9901-.8338l.0092.0003c.0511.0014.3003.0085.4631-.0072zm-.7864.8202c0-.2582.1552-.3986.3257-.3997.1705.0011.3029.1415.3029.3997 0 .2407-.1267.3972-.3143.3981-.1875-.0009-.3143-.1574-.3143-.3981zm.7292 1.7805c0-.1472-.0808-.2632-.2499-.2632-.2881 0-.4506.0003-.4506.0003s-.1068.1038-.1068.2945c0 .1166.0652.2505.4095.2505.332 0 .3978-.1488.3978-.2821zm-2.4308-2.4839c0-.0321.0274-.0686.0701-.0686h.5407c.0398 0 .0701.0333.0701.0699v2.0591c0 .0547-.0445.0742-.0687.0742h-.459c-.041 0-.0616-.0323-.0666-.052-.0036-.0144-.0481-.1724-.0721-.2578-.148.1458-.4082.35-.705.35-.4682 0-.5669-.3436-.5669-.698v-1.4741c0-.0437.0364-.0713.0681-.0713h.5412c.0398 0 .0716.0314.0716.0724v1.3551c0 .1651.0535.2267.1745.2267.1913 0 .3524-.1673.4015-.224z" fill="#fff" fill-rule="evenodd"/><path clip-rule="evenodd" d="m30.3867 32.2658c3.7267 0 3.6592-1.9447 3.9513-4.8317.2922-2.8869-1.2193-4.0127-3.9513-4.0127s-4.3652 1.263-4.0888 4.0127c.2765 2.7497.3621 4.8317 4.0888 4.8317z" fill="#74605f" fill-rule="evenodd" stroke="#1c1f34" stroke-width=".807644"/><path d="m30.3828 59.7623 2.0456 7.2559 1.5549 11.5258h4.2627s.211-1.938-1.3703-1.7642l-1.5168-18.1407-.5151-4.2459.4322-7.1281s.9375-4.6658.9375-7.5197" stroke="#1c1f34" stroke-linecap="round" stroke-linejoin="round" stroke-width=".807644"/><path d="m34.9883 77.3169c.4877-.3125 1.6165-.5141 2.9567 0" stroke="#1c1f34" stroke-linecap="round" stroke-linejoin="round" stroke-width=".484587"/><path d="m30.2168 59.7622-2.0456 7.256-1.5549 11.5258h-4.2627s-.211-1.938 1.3703-1.7643l1.5168-18.1406.5151-4.2459-.4322-7.1281s-.9375-4.6658-.9375-7.5197" stroke="#1c1f34" stroke-linecap="round" stroke-linejoin="round" stroke-width=".807644"/><path d="m25.6113 77.3169c-.4877-.3125-1.6165-.5141-2.9567 0" stroke="#1c1f34" stroke-linecap="round" stroke-linejoin="round" stroke-width=".484587"/><path d="m28.1426 59.1138h4.4744" stroke="#1c1f34" stroke-linecap="round" stroke-linejoin="round" stroke-width=".484587"/><path d="m32.7754 35.5601c2.4046 0 3.7187.6705 4.7245 1.0393 1.0059.3688 1.7866 2.1794 2.1752 3.692.4829 1.8793.4829 4.1175.4829 7.1053s-.9558 8.8655-.9558 8.8655-.419 2.6641-1.7356 3.5408c-1.3165.8763-2.4936-.0307-2.0282-1.3287.465-1.2976.4636-2.0977.4636-2.0977s-.4513 1.2261-.3905.4243c.0606-.802 1.6759-2.3912 1.6759-2.3912s-.7434-5.7144-.3457-7.0312c0 0-1.3938-2.1459-.6963-6.016" stroke="#1c1f34" stroke-linecap="round" stroke-linejoin="round" stroke-width=".807644"/><path d="m33.2414 35.3016s-.423-.7588-.423-1.6744" stroke="#1c1f34" stroke-linecap="round" stroke-linejoin="round" stroke-width=".807644"/><path d="m18 41.1408s1.8831-2.992 4.1691-3.7151c.9442-.8799.8478-.9975 2.1884-1.5429 1.7512-.7123 3.7145-.5813 3.7145-.5813" stroke="#1c1f34" stroke-linecap="round" stroke-linejoin="round" stroke-width=".807644"/><path d="m27.5215 35.3016s.423-.7588.423-1.6744" stroke="#1c1f34" stroke-linecap="round" stroke-linejoin="round" stroke-width=".807644"/><path d="m32.6816 33.2199c.3579-.2371.6935-.5905.9126-1.117.0858-.2066.2827-1.2182.4357-2.2762" stroke="#1c1f34" stroke-linecap="round" stroke-linejoin="round" stroke-width=".969173"/><path d="m27.959 33.2191c-.3572-.2373-.6922-.591-.9108-1.118-.0855-.2064-.2761-1.2728-.4254-2.3474" stroke="#1c1f34" stroke-linecap="round" stroke-linejoin="round" stroke-width=".969173"/><ellipse cx="30.3431" cy="29.6868" fill="#634739" rx="3.59309" ry="4.0091"/><ellipse cx=".534351" cy="1.04103" rx=".534351" ry="1.04103" stroke="#1c1f34" stroke-linecap="round" stroke-linejoin="round" stroke-width=".807644" transform="matrix(-.98831 .151052 .127478 .991689 26.5328 28.6438)"/><ellipse cx=".708985" cy="1.03864" fill="#634739" rx=".708985" ry="1.03864" transform="matrix(-.988259 .151486 .127174 .991739 27.2197 28.5454)"/><ellipse cx=".534344" cy="1.04103" rx=".534344" ry="1.04103" stroke="#1c1f34" stroke-linecap="round" stroke-linejoin="round" stroke-width=".807644" transform="matrix(.98831 .151053 -.127477 .991689 34.0667 28.6433)"/><ellipse cx=".708983" cy="1.03864" fill="#634739" rx=".708983" ry="1.03864" transform="matrix(.988259 .151484 -.127175 .991738 33.3798 28.5449)"/><path clip-rule="evenodd" d="m26.7121 25.9151c.3459-.7687 1.1267-1.3758 1.1267-1.3758s.5432.9596.2847 1.1988c-.1556.1439-.7529.8433-.8516 1.2574-.264 1.1073-.1703 2.4002-.1954 2.737-.0252.3368-.0816.383-.1943 0-.0643-.2186-.1244-.2951-.1701-.9465-.0241-.3441-.252-.2975-.2576-.6652-.0065-.422-.0883-1.437.2576-2.2057z" fill="#1c1f34" fill-rule="evenodd"/><path clip-rule="evenodd" d="m33.9091 25.9151c-.3459-.7687-1.1267-1.3758-1.1267-1.3758s-.5432.9596-.2847 1.1988c.1556.1439.7529.8433.8516 1.2574.264 1.1073.1703 2.4002.1955 2.737.0251.3368.0815.383.1942 0 .0643-.2186.1244-.2951.1701-.9465.0242-.3441.252-.2975.2576-.6652.0065-.422.0883-1.437-.2576-2.2057z" fill="#1c1f34" fill-rule="evenodd"/><path d="m29.084 31.8066s.6409.8887 2.4487.2583" stroke="#1c1f34" stroke-linecap="round" stroke-linejoin="round" stroke-width=".484587"/><path d="m31.377 33.5581c-1.238.4586-.6238.435-1.8415.1125" opacity=".2" stroke="#1c1f34" stroke-linecap="round" stroke-linejoin="round" stroke-width=".323058"/><path clip-rule="evenodd" d="m34.6248 27.426c0-1.0531 0-4.3696-4.16-4.3696s-4.3339 2.9849-4.3339 4.2467c0 .6301 2.118-.1261 4.2388-.1207 2.1262.0054 4.2551.7709 4.2551.2436z" fill="#434d9e" fill-rule="evenodd" stroke="#1c1f34" stroke-width=".807644"/><rect fill="#fff" height="1.05023" rx=".323058" width="2.08354" x="29.4297" y="24.4556"/><path d="m34.3826 28.2664c0 .4328-2.0602-.3317-4.0876-.3227s-4.1641.8287-4.1641.3593c0-.4693 2.1452-1.0374 4.1641-1.0464 2.0189-.0089 4.0876.5771 4.0876 1.0098z" style="opacity:.3;fill-rule:evenodd;clip-rule:evenodd;fill:#1c1f34;stroke:#1c1f34;stroke-width:.484587"/><path clip-rule="evenodd" d="m35.0767 27.8635c0 .5598-2.3203-.4293-4.6036-.4176-2.2834.0116-4.6899 1.0722-4.6899.4649s2.4161-1.6923 4.6899-1.7039c2.2737-.0116 4.6036 1.0967 4.6036 1.6566z" fill="#434d9e" fill-rule="evenodd" stroke="#1c1f34" stroke-width=".484587"/><ellipse cx="30.4719" cy="22.636" fill="#1c1f34" rx=".694511" ry=".350079"/><path clip-rule="evenodd" d="m54.0391 32.2148s1.2618.5984 2.5735.5984c1.3115 0 2.1965-.7793 2.1965-.7793l.1714 2.1404v1.8444h-5.1485v-1.8444z" fill="#c99073" fill-rule="evenodd"/><path clip-rule="evenodd" d="m52.086 53.8777h8.6765l.3643 4.0687.459 5.0959 1.1552 13.7209s1.7159-.3082 1.7159 1.7809h-4.5085l-1.5088-11.4251-2.1141-7.2576-1.9035 7.157-1.522 11.5257h-4.3406s-.2676-1.7809 1.3556-1.7809c0 0 .6055-6.9133.8488-10.5523.1667-2.4932.7485-7.7188.7485-7.7188z" fill="#282e53" fill-rule="evenodd"/><path clip-rule="evenodd" d="m64.8968 38.1016s-1.2105-2.2878-3.684-2.2878l-2.2331-.5123s-1.0168.4826-2.5564.5123c-1.5397-.0297-2.5565-.5123-2.5565-.5123l-2.4857.5123c-1.9679.8473-2.7277 1.607-2.7277 1.607s-.5767 1.2687-1.1238 1.6669c-.4173.3039-.8597 3.7316-.8597 3.7316.363 3.0027 6.3529 1.5155 4.2473 1.1996l-.3875-2.1469 1.104 5.8617.2833 6.2245s.374 1.2857 4.5063 1.2857 4.5064-1.2857 4.5064-1.2857l.2831-6.2245.7925-5.3806v1.4682s4.0261 1.8328 4.0261-1.002z" fill="#434d9e" fill-rule="evenodd"/><path clip-rule="evenodd" d="m63.0871 51.9839s.2065-2.7448.5954-4.02c0 0-1.6741-.889-1.6288-4.3909 1.4065.0915 2.8026-.0934 3.9411-.9346.1337.752.6435 1.395.6406 2.0178-.0062 1.3276.3922 2.3377.2709 3.3253-.3334 2.7165-1.8473 5.796-1.8473 5.796s-.4099 2.5802-1.6986 3.4289c-1.2889.8489-2.441-.0297-1.9855-1.2864.4555-1.2569.4538-2.0317.4538-2.0317s-.4415 1.1874-.3822.4109c.0593-.7764 1.6406-2.3153 1.6406-2.3153z" fill="#c99073" fill-rule="evenodd"/><path clip-rule="evenodd" d="m53.4776 41.2363c-.1216 0-.1943-.046-.1943-.1894v-2.0682c0-.0463-.0384-.0799-.0803-.0727-.1274.0219-.3724.0631-.4785.081l-.05.0084c-.0278.0047-.0573.0312-.0573.0699v2.0648c0 .6298.4376.6894.6834.6894.1562 0 .2655-.023.3246-.0396.034-.0097.0512-.0391.0512-.07v-.4127c0-.0376-.0312-.0808-.0797-.0717-.0317.0059-.0719.0108-.1191.0108zm6.3436-1.7084c.2202-.0216.3617-.0647.4383-.0896.0466-.0152.0799.0185.0885.0521l.0087.0318.0001.0002c.0179.0649.0583.2114.0793.3009.0099.0421-.0157.073-.0437.0861-.0405.0191-.0997.0384-.1684.0579.0756.1369.1038.2833.1038.4013 0 .3362-.2.7929-.9353.7929h-.0674c-.1538 0-.2841-.02-.3942-.0547-.0276.0269-.0486.0639-.0486.1147 0 .0888.07.1537.141.1537l.5739.0001c.405 0 .7583.2127.7583.7743 0 .5271-.41.7395-.9966.7395-.6247 0-.9956-.1961-.9956-.7081 0-.2696.1724-.4886.1724-.4886s-.1596-.139-.1596-.4099c0-.2073.1017-.3493.1765-.4256-.1197-.1503-.1628-.3322-.1628-.4883 0-.3154.2016-.8326.9691-.8338l.009.0003c.0501.0014.294.0085.4533-.0072zm-.4516.4218c-.1669.0011-.3188.1415-.3188.3997 0 .2407.1241.3972.3076.3981.1837-.0009.3077-.1574.3077-.3981 0-.2582-.1297-.3986-.2965-.3997zm.3972 2.1797c0-.1472-.0791-.2632-.2446-.2632-.282 0-.4411.0003-.4411.0003s-.1045.1038-.1045.2945c0 .1166.0638.2505.4008.2505.3249 0 .3894-.1488.3894-.2821zm-2.178-2.6014c.2202-.0216.3617-.0647.4383-.0896.0466-.0152.0799.0185.0885.052l.0087.032h.0001v.0002c.0179.0651.0583.2114.0793.3007.0099.0421-.0157.073-.0437.0862-.0405.0191-.0997.0383-.1684.0578.0755.137.1038.2833.1038.4013 0 .3363-.2.793-.9353.793h-.0674c-.1538 0-.2841-.0201-.3942-.0548-.0276.0269-.0486.064-.0486.1147 0 .0889.07.1537.141.1537l.5739.0001c.405 0 .7583.2127.7583.7743 0 .5271-.41.7395-.9967.7395-.6246 0-.9955-.196-.9955-.708 0-.2696.1723-.4887.1723-.4887s-.1595-.1389-.1595-.4099c0-.2073.1017-.3492.1765-.4255-.1197-.1503-.1628-.3322-.1628-.4884 0-.3154.2016-.8325.9691-.8337l.009.0002c.0501.0015.294.0086.4533-.0071zm-.7704.8214c0-.2582.1519-.3986.3188-.3997.1668.0011.2965.1415.2965.3997 0 .2407-.1241.3972-.3077.3981-.1836-.0009-.3076-.1574-.3076-.3981zm.716 1.7805c0-.1472-.0791-.2632-.2446-.2632-.282 0-.4411.0003-.4411.0003s-.1046.1038-.1046.2945c0 .1166.0639.2505.4009.2505.3249 0 .3894-.1488.3894-.2821zm-2.3837-2.4839c0-.0321.0268-.0686.0685-.0686h.5293c.039 0 .0686.0333.0686.0699v2.0591c0 .0547-.0435.0742-.0672.0742h-.4492c-.0402 0-.0604-.0323-.0653-.052-.0035-.0144-.047-.1724-.0705-.2578-.1449.1458-.3996.35-.6901.35-.4583 0-.5549-.3436-.5549-.698v-1.4741c0-.0437.0357-.0713.0666-.0713h.5298c.039 0 .07.0314.07.0724v1.3551c0 .1651.0524.2267.1709.2267.1872 0 .345-.1673.393-.224z" fill="#fff" fill-rule="evenodd"/><path clip-rule="evenodd" d="m56.4303 32.2656c3.6477 0 3.5816-1.9448 3.8676-4.8317.286-2.887-1.1935-4.0128-3.8676-4.0128s-4.2728 1.2631-4.0022 4.0128.3545 4.8317 4.0022 4.8317z" fill="#74605f" fill-rule="evenodd" stroke="#1c1f34" stroke-width=".811683"/><path d="m56.4219 59.7618 2.0022 7.256 1.522 11.5257h4.1723s.2066-1.938-1.3412-1.7642l-1.4847-18.1407-.5041-4.2459.423-7.1281s.9176-4.6657.9176-7.5197" stroke="#1c1f34" stroke-linecap="round" stroke-linejoin="round" stroke-width=".807644"/><path d="m60.9316 77.3169c.4774-.3125 1.5823-.5141 2.8941 0" stroke="#1c1f34" stroke-linecap="round" stroke-linejoin="round" stroke-width=".484587"/><path d="m56.2656 59.7618-2.0022 7.256-1.522 11.5257h-4.1723s-.2066-1.938 1.3412-1.7642l1.4847-18.1407.5041-4.2459-.423-7.1281s-.9176-4.6657-.9176-7.5197" stroke="#1c1f34" stroke-linecap="round" stroke-linejoin="round" stroke-width=".807644"/><path d="m51.7559 77.3169c-.4774-.3125-1.5823-.5141-2.8941 0" stroke="#1c1f34" stroke-linecap="round" stroke-linejoin="round" stroke-width=".484587"/><path d="m54.9139 59.4119h3.0201" stroke="#1c1f34" stroke-linecap="round" stroke-linejoin="round" stroke-width=".48701"/><path d="m58.7676 35.5603c2.3537 0 3.6399.6706 4.6244 1.0394s1.7487 2.1793 2.1291 3.6919c.4727 1.8793 1.3842 4.1176 1.3842 7.1054s-1.8471 6.0763-1.8471 6.0763-.4101 2.6641-1.6988 3.5408c-1.2886.8763-2.4408-.0307-1.9853-1.3287.4552-1.2976.4539-2.0977.4539-2.0977s-.4418 1.2261-.3822.4243c.0592-.802 1.6403-2.3912 1.6403-2.3912s.184-2.9253.5732-4.242c0 0-2.2758-2.146-1.5931-6.0161" stroke="#1c1f34" stroke-linecap="round" stroke-linejoin="round" stroke-width=".807644"/><path clip-rule="evenodd" d="m49.6024 51.9841s-.2065-2.7448-.5955-4.0199c0 0 1.6741-.889 1.6288-4.391-1.4064.0915-2.8026-.0934-3.941-.9345-.1337.7519-.6435 1.395-.6406 2.0177.0062 1.3276-.3922 2.3377-.2709 3.3254.3334 2.7164 1.8473 5.7959 1.8473 5.7959s.4099 2.5803 1.6985 3.429c1.2889.8489 2.4411-.0297 1.9856-1.2864-.4555-1.257-.4539-2.0318-.4539-2.0318s.4415 1.1874.3823.411c-.0593-.7765-1.6406-2.3154-1.6406-2.3154z" fill="#c99073" fill-rule="evenodd"/><path d="m53.9219 35.5601c-2.3537 0-3.64.6705-4.6245 1.0393s-1.7487 2.1794-2.1291 3.692c-.4726 1.8793-1.3842 4.1175-1.3842 7.1053s1.8471 6.0763 1.8471 6.0763.4102 2.6642 1.6988 3.5408c1.2887.8764 2.4408-.0307 1.9853-1.3286-.4552-1.2977-.4538-2.0978-.4538-2.0978s.4417 1.2261.3822.4244c-.0593-.8021-1.6403-2.3912-1.6403-2.3912s-.184-2.9253-.5732-4.2421c0 0 2.2758-2.1459 1.5931-6.016" stroke="#1c1f34" stroke-linecap="round" stroke-linejoin="round" stroke-width=".807644"/><path d="m59.2227 35.3008s-.4141-.7587-.4141-1.6743" stroke="#1c1f34" stroke-linecap="round" stroke-linejoin="round" stroke-width=".807644"/><path d="m53.625 35.3008s.4141-.7587.4141-1.6743" stroke="#1c1f34" stroke-linecap="round" stroke-linejoin="round" stroke-width=".807644"/><path d="m58.6758 33.2202c.3503-.2371.6788-.5906.8932-1.1171.084-.2065.2768-1.2181.4265-2.2762" stroke="#1c1f34" stroke-linecap="round" stroke-linejoin="round" stroke-width=".807644"/><path d="m54.0527 33.2194c-.3496-.2374-.6775-.5911-.8915-1.1181-.0837-.2063-.2702-1.2728-.4163-2.3474" stroke="#1c1f34" stroke-linecap="round" stroke-linejoin="round" stroke-width=".807644"/><ellipse cx="56.3861" cy="29.6871" fill="#c99073" rx="3.51698" ry="4.0091"/><ellipse cx=".523234" cy="1.04119" rx=".523234" ry="1.04119" stroke="#1c1f34" stroke-linecap="round" stroke-linejoin="round" stroke-width=".807644" transform="matrix(-.988315 .151011 .127507 .991684 52.652 28.6426)"/><ellipse cx=".694189" cy="1.03883" fill="#c99073" rx=".694189" ry="1.03883" transform="matrix(-.988262 .151463 .127189 .991736 53.3252 28.5474)"/><ellipse cx=".523239" cy="1.04119" rx=".523239" ry="1.04119" stroke="#1c1f34" stroke-linecap="round" stroke-linejoin="round" stroke-width=".807644" transform="matrix(.988316 .151008 -.12751 .991684 60.0354 28.6426)"/><ellipse cx=".6942" cy="1.03883" fill="#c99073" rx=".6942" ry="1.03883" transform="matrix(.988262 .151459 -.127193 .991736 59.3623 28.5474)"/><path clip-rule="evenodd" d="m52.8312 25.9158c.3386-.7687 1.1029-1.3758 1.1029-1.3758s.5317.9597.2786 1.1988c-.1523.144-.7369.8433-.8335 1.2575-.2584 1.1072-.1667 2.4001-.1913 2.7369s-.0798.3831-.1901 0c-.063-.2186-.1218-.2951-.1666-.9464-.0236-.3442-.2466-.2976-.2521-.6653-.0063-.422-.0864-1.437.2521-2.2057z" fill="#74605f" fill-rule="evenodd"/><path clip-rule="evenodd" d="m59.8758 25.9158c-.3386-.7687-1.1029-1.3758-1.1029-1.3758s-.5316.9597-.2786 1.1988c.1523.144.7369.8433.8336 1.2575.2583 1.1072.1666 2.4001.1912 2.7369.0247.3368.0799.3831.1902 0 .0629-.2186.1218-.2951.1665-.9464.0236-.3442.2467-.2976.2522-.6653.0063-.422.0864-1.437-.2522-2.2057z" fill="#74605f" fill-rule="evenodd"/><path d="m55.1543 31.8069s.6274.8887 2.3968.2582" stroke="#1c1f34" stroke-linecap="round" stroke-linejoin="round" stroke-width=".484587"/><path d="m57.4004 33.5583c-1.2118.4586-.6106.435-1.8024.1125" opacity=".2" stroke="#1c1f34" stroke-linecap="round" stroke-linejoin="round" stroke-width=".323058"/><path clip-rule="evenodd" d="m60.5777 27.4263c0-1.0532 0-4.3697-4.0719-4.3697s-4.2421 2.985-4.2421 4.2467c0 .6301 2.0732-.126 4.149-.1206 2.0812.0054 4.165.7708 4.165.2436z" fill="#434d9e" fill-rule="evenodd" stroke="#1c1f34" stroke-width=".807644"/><rect fill="#fff" height="1.05022" rx=".324673" width="2.03941" x="55.4922" y="24.4558"/><path d="m60.3406 28.2667c0 .4327-2.0166-.3318-4.001-.3228s-4.0759.8287-4.0759.3594c0-.4694 2.0998-1.0375 4.0759-1.0464 1.9761-.009 4.001.577 4.001 1.0098z" style="opacity:.3;fill-rule:evenodd;clip-rule:evenodd;fill:#1c1f34;stroke:#1c1f34;stroke-width:.48701"/><path clip-rule="evenodd" d="m61.0204 27.8637c0 .5599-2.2711-.4292-4.5061-.4176-2.2349.0117-4.5905 1.0722-4.5905.465 0-.6073 2.3649-1.6924 4.5905-1.704s4.5061 1.0967 4.5061 1.6566z" fill="#434d9e" fill-rule="evenodd" stroke="#1c1f34" stroke-width=".484587"/><ellipse cx="56.5118" cy="22.6362" fill="#1c1f34" rx=".679802" ry=".350079"/><path clip-rule="evenodd" d="m49.8359 55.5056h13.2107v-13.7927h-13.2107z" fill="#e1bfaf" fill-rule="evenodd"/><path clip-rule="evenodd" d="m55.0684 41.772v1.4922.4411.2859l.2274.3744.2286-.3744.2283.3744.228-.3744.2289.3744.2283-.3744.2283.3744.228-.3744.2288.3744.2295-.3744.2301.3744.23-.3744v-.2859-.5464-1.3869z" fill="#fff" fill-rule="evenodd"/><path d="m49.8359 55.5056h13.2107v-13.7927h-13.2107z" style="fill-rule:evenodd;clip-rule:evenodd;stroke:#1c1f34;stroke-width:.807644;stroke-linecap:round;stroke-linejoin:round"/><path clip-rule="evenodd" d="m61.1751 50.2849-.6207-.8999-.6208.8999h.2723v2.775h.6969v-2.775z" fill="#1c1f34" fill-rule="evenodd" opacity=".3"/><path clip-rule="evenodd" d="m59.6829 50.2849-.6207-.8999-.6208.8999h.2723v2.775h.6969v-2.775z" fill="#1c1f34" fill-rule="evenodd" opacity=".3"/><path clip-rule="evenodd" d="m58.3203 53.4546h2.974v-.397h-2.974z" fill="#1c1f34" fill-rule="evenodd" opacity=".3"/></g></svg>